<svg xmlns="http://www.w3.org/2000/svg" viewBox="0 0 750 500"><g id="freepik--background-complete--inject-2"><path d="M57.62,377.53a10.66,10.66,0,0,0,6.16-10c-.09-5.89-4.64-10.6-10.17-10.52s-9.93,4.93-9.83,10.82a10.63,10.63,0,0,0,6.56,9.83C35,380.29,36,397,36,397l36.4-.55S72.92,379.53,57.62,377.53Z" style="fill:#f5f5f5"></path><path d="M652.35,438.93a10.67,10.67,0,0,0,10.27-5.7c2.8-5.18,1.14-11.51-3.72-14.15s-11.07-.56-13.87,4.62a10.66,10.66,0,0,0,.91,11.79c-14.66-5.23-22,9.84-22,9.84l32,17.35S664.71,448.17,652.35,438.93Z" style="fill:#f5f5f5"></path><path d="M652.27,236.2a3.66,3.66,0,0,0,5.42-4.1c-.44-1.53-.86-4,.31-6,1.83-3,5.5-3.65,8.9-1.58s4.54,5.62,2.71,8.62c-1.17,1.94-3.59,2.72-5.15,3a3.6,3.6,0,0,0-2.36,1.68,3.65,3.65,0,0,0,1.23,5l20,9.64.09.07.47-1,13.28-17.78a3.66,3.66,0,0,0-1.23-5,3.62,3.62,0,0,0-2.87-.4c-1.53.45-4,.86-6-.31-3-1.82-3.65-5.5-1.58-8.9s5.62-4.53,8.62-2.71c1.94,1.17,2.72,3.59,3,5.16a3.66,3.66,0,0,0,6.71,1.13l9-18.74-.12-.06L695,190.71a3.65,3.65,0,0,0-5,1.23,3.58,3.58,0,0,0-.4,2.87c.44,1.53.86,4-.32,6-1.82,3-5.49,3.65-8.9,1.58s-4.53-5.62-2.71-8.62c1.18-1.94,3.59-2.72,5.16-3a3.6,3.6,0,0,0,2.36-1.68,3.65,3.65,0,0,0-1.23-5l-20-9.64-.12-.09-12.41,16.62a3.66,3.66,0,0,0,1.23,5,3.62,3.62,0,0,0,2.87.4c1.53-.44,4-.86,6,.31,3,1.82,3.64,5.5,1.58,8.9s-5.62,4.53-8.63,2.71c-1.93-1.17-2.72-3.59-3-5.15a3.58,3.58,0,0,0-1.68-2.37,3.67,3.67,0,0,0-5,1.23l-9.64,20-.69.92.1,0Z" style="fill:#f5f5f5"></path><path d="M67.53,257.7a3.24,3.24,0,0,0,2.69-5.4c-1-1.05-2.28-2.87-2.11-4.87.26-3.11,2.92-5.07,6.44-4.77s5.82,2.67,5.56,5.77c-.17,2-1.77,3.59-2.89,4.46A3.19,3.19,0,0,0,76,255.15a3.25,3.25,0,0,0,3,3.51l19.69-.24h.09v-1l3.52-19.37a3.24,3.24,0,0,0-5.4-2.69c-1,1-2.87,2.28-4.87,2.11-3.1-.26-5.07-2.92-4.77-6.44s2.67-5.82,5.78-5.56c2,.17,3.58,1.77,4.45,2.89a3.24,3.24,0,0,0,5.77-1.75L103,208.2h-.12L83.5,204.68a3.24,3.24,0,0,0-3.5,3,3.2,3.2,0,0,0,.81,2.44c1,1,2.28,2.87,2.12,4.87-.27,3.1-2.93,5.06-6.45,4.77s-5.82-2.68-5.56-5.78c.17-2,1.78-3.58,2.9-4.45a3.25,3.25,0,0,0-1.75-5.78l-19.7.25-.12,0L49,222a3.24,3.24,0,0,0,5.4,2.69c1-1,2.87-2.28,4.87-2.11,3.11.26,5.07,2.93,4.77,6.45s-2.67,5.82-5.78,5.55c-2-.16-3.58-1.77-4.45-2.89a3.18,3.18,0,0,0-2.27-1.21,3.24,3.24,0,0,0-3.5,3l.24,19.69-.18,1h.1Z" style="fill:#f5f5f5"></path><path d="M355.41,278.71a40.57,40.57,0,0,1,9.88-4.3l2-9.78,16.53-.29,2.37,9.7a40.59,40.59,0,0,1,10,3.95l8.35-5.48L416.49,284l-5.18,8.54a40.16,40.16,0,0,1,4.29,9.88l9.78,2,.29,16.52-9.7,2.38a40.25,40.25,0,0,1-3.94,10l5.47,8.35L406,353.61l-8.53-5.18a40.74,40.74,0,0,1-9.88,4.3l-2,9.78-16.52.29-2.38-9.7a40.52,40.52,0,0,1-10-4l-8.35,5.47-11.89-11.47,5.17-8.54a40.16,40.16,0,0,1-4.29-9.88l-9.78-2-.29-16.52,9.7-2.38a40.28,40.28,0,0,1,3.95-10l-5.48-8.35,11.48-11.89,8.54,5.18Zm8.81,22a17.72,17.72,0,1,0,25.06-.44A17.71,17.71,0,0,0,364.22,300.72Z" style="fill:#e0e0e0"></path><path d="M306.38,216.63a28.27,28.27,0,0,1,6.09-4.28l0-6.9L323.63,203l3,6.23a28.07,28.07,0,0,1,7.33,1.28l4.89-4.87,9.64,6.12-2.31,6.49a28.52,28.52,0,0,1,4.28,6.09l6.9,0,2.49,11.14-6.23,3a28.07,28.07,0,0,1-1.28,7.33l4.86,4.89-6.11,9.65-6.5-2.32a28,28,0,0,1-6.09,4.28l0,6.9-11.14,2.49-3-6.23a28.14,28.14,0,0,1-7.33-1.28L312.12,269l-9.64-6.12,2.32-6.5a27.69,27.69,0,0,1-4.28-6.09h-6.9l-2.5-11.14,6.24-3a28.62,28.62,0,0,1,1.27-7.34L293.77,224l6.11-9.64,6.5,2.32Zm9,13.67a12.25,12.25,0,1,0,16.9-3.78A12.24,12.24,0,0,0,315.4,230.3Z" style="fill:#e0e0e0"></path><path d="M483.3,93.8a28.52,28.52,0,0,1,6.09-4.28l0-6.9,11.14-2.49,3,6.23a28.07,28.07,0,0,1,7.33,1.28l4.89-4.87,9.64,6.12-2.31,6.49a28.52,28.52,0,0,1,4.28,6.09l6.9,0,2.49,11.14-6.23,3a28.07,28.07,0,0,1-1.28,7.33l4.87,4.89L528,137.46l-6.5-2.32a28,28,0,0,1-6.09,4.28v6.9l-11.15,2.49-3-6.23a28.14,28.14,0,0,1-7.34-1.28L489,146.17l-9.64-6.12,2.32-6.5a28,28,0,0,1-4.28-6.09h-6.9l-2.49-11.14,6.23-3a28.07,28.07,0,0,1,1.28-7.33l-4.87-4.9,6.12-9.64,6.49,2.32Zm9,13.67a12.25,12.25,0,1,0,16.91-3.78A12.24,12.24,0,0,0,492.32,107.47Z" style="fill:#e0e0e0"></path><path d="M584.53,309.27a28.12,28.12,0,0,1,6.09-4.27l0-6.91,11.14-2.49,3,6.24a27.64,27.64,0,0,1,7.33,1.27l4.89-4.86,9.64,6.11-2.31,6.5a28,28,0,0,1,4.28,6.09l6.9,0L638,328.11l-6.23,3a28.14,28.14,0,0,1-1.28,7.33l4.87,4.89-6.12,9.64-6.5-2.32a27.36,27.36,0,0,1-6.09,4.28v6.9l-11.15,2.5-3-6.24a27.71,27.71,0,0,1-7.34-1.27l-4.89,4.86-9.64-6.11L583,349a28,28,0,0,1-4.28-6.09l-6.9,0-2.49-11.14,6.23-3a28.07,28.07,0,0,1,1.28-7.33l-4.87-4.89L578,307l6.49,2.31Zm9,13.68a12.25,12.25,0,1,0,16.91-3.79A12.24,12.24,0,0,0,593.55,323Z" style="fill:#e0e0e0"></path><path d="M130.66,385.83a28,28,0,0,1,6.09-4.28v-6.9l11.15-2.49,3,6.23a28.14,28.14,0,0,1,7.34,1.28l4.89-4.87,9.64,6.12-2.32,6.5a27.69,27.69,0,0,1,4.28,6.09h6.9l2.49,11.15-6.23,2.95a28.21,28.21,0,0,1-1.28,7.34l4.87,4.89-6.12,9.64-6.49-2.32a28.27,28.27,0,0,1-6.09,4.28l0,6.9-11.14,2.49-3-6.23a28.07,28.07,0,0,1-7.33-1.28l-4.89,4.87-9.64-6.12,2.31-6.49a28.52,28.52,0,0,1-4.28-6.09l-6.9,0-2.49-11.14,6.23-3a28.07,28.07,0,0,1,1.28-7.33l-4.86-4.89,6.11-9.64,6.5,2.31Zm9,13.67a12.25,12.25,0,1,0,16.9-3.78A12.25,12.25,0,0,0,139.68,399.5Z" style="fill:#e0e0e0"></path><path d="M187.38,112.52a28,28,0,0,1,6.09-4.28v-6.9l11.15-2.49,3,6.23a28.14,28.14,0,0,1,7.34,1.28l4.89-4.87,9.64,6.12-2.32,6.5a28,28,0,0,1,4.28,6.09l6.9,0,2.49,11.14-6.23,2.95a28.14,28.14,0,0,1-1.28,7.34l4.87,4.89L232,156.18l-6.49-2.32a28.52,28.52,0,0,1-6.09,4.28l0,6.9-11.14,2.49-3-6.23A28.07,28.07,0,0,1,198,160l-4.89,4.87-9.64-6.12,2.31-6.49a28.27,28.27,0,0,1-4.28-6.09l-6.9,0L172.12,135l6.23-3a28.07,28.07,0,0,1,1.28-7.33l-4.87-4.89,6.12-9.64,6.5,2.31Zm9,13.67a12.25,12.25,0,1,0,16.9-3.78A12.25,12.25,0,0,0,196.4,126.19Z" style="fill:#e0e0e0"></path><path d="M390,215.87a20.53,20.53,0,0,1,4.51-3.17v-5.11l8.26-1.85,2.19,4.62a20.77,20.77,0,0,1,5.43.94l3.63-3.6,7.14,4.53-1.72,4.82a20.53,20.53,0,0,1,3.17,4.51h5.12l1.84,8.26L425,232a20.77,20.77,0,0,1-.94,5.43l3.6,3.63-4.53,7.14-4.81-1.72a20.53,20.53,0,0,1-4.51,3.17l0,5.12-8.25,1.84L403.31,252a20.77,20.77,0,0,1-5.44-.94l-3.62,3.6-7.14-4.53,1.71-4.81a20.53,20.53,0,0,1-3.17-4.51l-5.11,0-1.85-8.25,4.62-2.19a20.77,20.77,0,0,1,.94-5.44l-3.6-3.62,4.53-7.14,4.82,1.71ZM396.68,226a9.08,9.08,0,1,0,12.52-2.8A9.08,9.08,0,0,0,396.68,226Z" style="fill:#f5f5f5"></path><path d="M346.82,31.17A20.53,20.53,0,0,1,351.33,28V22.89L359.6,21l2.19,4.62a20.37,20.37,0,0,1,5.43.95L370.85,23,378,27.53l-1.72,4.82a20.53,20.53,0,0,1,3.17,4.51h5.12l1.84,8.26-4.61,2.19a21.2,21.2,0,0,1-1,5.43l3.6,3.63-4.53,7.14L375.1,61.8A20.92,20.92,0,0,1,370.59,65l0,5.11-8.25,1.85-2.19-4.62a21.28,21.28,0,0,1-5.44-.95L351.07,70l-7.14-4.54,1.71-4.81a20.53,20.53,0,0,1-3.17-4.51l-5.11,0-1.85-8.25,4.62-2.19a20.45,20.45,0,0,1,.95-5.44l-3.61-3.62L342,29.46l4.82,1.71ZM353.5,41.3A9.08,9.08,0,1,0,366,38.5,9.09,9.09,0,0,0,353.5,41.3Z" style="fill:#f5f5f5"></path></g><g id="freepik--Floor--inject-2"><path d="M687.39,476.67c0,.14-139.87.26-312.38.26s-312.4-.12-312.4-.26,139.84-.26,312.4-.26S687.39,476.53,687.39,476.67Z" style="fill:#263238"></path></g><g id="freepik--Chart--inject-2"><rect x="649.27" y="376.85" width="12.96" height="9.92" style="fill:#e0e0e0"></rect><path d="M662.23,386.77a5.87,5.87,0,0,1,0-.75c0-.54,0-1.21-.06-2,0-1.8-.06-4.23-.11-7.14l.21.21-13,.05.26-.26h0V382c0,1.66,0,3.24,0,4.73l-.24-.23c3.8,0,7,.07,9.29.11l2.68.07a8.18,8.18,0,0,1,1,0,4.65,4.65,0,0,1-.89.06l-2.63.06c-2.27,0-5.54.1-9.44.12H649v-.24c0-1.49,0-3.07,0-4.73,0-.84,0-1.69,0-2.55v-2.62h0l.26-.26,13,0h.22v.22c0,3-.07,5.55-.11,7.28,0,.8,0,1.45-.06,2A2.32,2.32,0,0,1,662.23,386.77Z" style="fill:#263238"></path><rect x="665.68" y="353.96" width="12.96" height="32.81" style="fill:#e0e0e0"></rect><path d="M678.64,386.77a5.9,5.9,0,0,1,0-.66c0-.46,0-1.08,0-1.85,0-1.64,0-4-.07-6.85,0-5.85-.07-14-.12-23.45l.25.25h-13c.52-.52.14-.14.26-.25h0v4.75c0,1.57,0,3.11,0,4.63,0,3,0,6,0,8.74,0,5.54,0,10.52-.06,14.67l-.18-.18,9.44.1,2.59,0,.68,0,.25,0a6.65,6.65,0,0,1-.86,0l-2.55,0-9.55.1h-.18v-.18c0-4.15,0-9.13-.06-14.67,0-2.78,0-5.7,0-8.74V354h0c.11-.12-.26.25.26-.27h13.21V354c0,9.51-.09,17.73-.12,23.62,0,2.87,0,5.16-.07,6.79,0,.76,0,1.35,0,1.8A4.17,4.17,0,0,1,678.64,386.77Z" style="fill:#263238"></path><rect x="683.7" y="368.09" width="12.96" height="18.68" style="fill:#e0e0e0"></rect><path d="M696.67,386.77a2.14,2.14,0,0,1,0-.38c0-.28,0-.62,0-1,0-1,0-2.25-.07-3.86,0-3.34-.06-8-.11-13.4l.24.23-13,0c-.05,0,.5-.49.26-.26h0v5.13c0,1.67,0,3.3,0,4.88,0,3.14,0,6.05,0,8.65l-.21-.21,9.38.11,2.63.06c.61,0,.94,0,1,0a5.64,5.64,0,0,1-.88.05l-2.58.05-9.51.11h-.21v-.21c0-2.6,0-5.51,0-8.65,0-1.58,0-3.21,0-4.88,0-.84,0-1.69,0-2.55v-2.58h0l.26-.26,13,0h.23v.24c0,5.5-.09,10.18-.11,13.55,0,1.59,0,2.87-.07,3.81S696.68,386.79,696.67,386.77Z" style="fill:#263238"></path><rect x="700.92" y="344.44" width="12.96" height="42.33" style="fill:#e0e0e0"></rect><path d="M713.88,386.77a1,1,0,0,1,0-.22c0-.17,0-.38,0-.63,0-.58,0-1.39,0-2.4,0-2.12-.05-5.13-.08-8.88,0-7.56-.07-18.1-.11-30.2l.25.26h-13c.52-.52.14-.13.26-.25v6.31c0,2.07,0,4.11,0,6.11,0,4,0,7.81,0,11.42,0,7.18,0,13.49-.07,18.48l-.16-.16,9.49.09,2.56,0h.67l.24,0s-.06,0-.21,0l-.64,0-2.52,0-9.59.09h-.17v-.17c0-5,0-11.3-.07-18.48,0-3.61,0-7.43,0-11.42V344.45c.12-.12-.26.25.26-.27h13.21v.25c0,12.17-.08,22.77-.11,30.37,0,3.73-.06,6.72-.07,8.82,0,1,0,1.78,0,2.35,0,.24,0,.44,0,.6S713.89,386.78,713.88,386.77Z" style="fill:#263238"></path><polygon points="694.58 347.82 693.21 347.06 703.61 332.24 704.99 333 694.58 347.82" style="fill:#263238"></polygon><rect x="680.86" y="338.34" width="1.69" height="11.47" transform="translate(-48.77 566.6) rotate(-43.72)" style="fill:#263238"></rect><rect x="654.3" y="346.93" width="19.05" height="1.69" transform="translate(-17.96 658.85) rotate(-52.18)" style="fill:#263238"></rect><path d="M696.55,349.65a6.37,6.37,0,1,1-6.37-6.37A6.37,6.37,0,0,1,696.55,349.65Z" style="fill:#e0e0e0"></path><path d="M696.55,349.65s0-.57-.29-1.53a6.4,6.4,0,0,0-2.33-3.39,6.23,6.23,0,0,0-5.83-.84,6.13,6.13,0,0,0-2.84,9.37,6.06,6.06,0,0,0,2.84,2.15,6.23,6.23,0,0,0,5.83-.84,6.37,6.37,0,0,0,2.33-3.39c.26-1,.24-1.53.29-1.53s0,.14,0,.41a4.82,4.82,0,0,1-.13,1.17,6.33,6.33,0,0,1-2.3,3.63,6.59,6.59,0,1,1,0-10.42,6.33,6.33,0,0,1,2.3,3.63,4.82,4.82,0,0,1,.13,1.17C696.58,349.51,696.57,349.65,696.55,349.65Z" style="fill:#263238"></path><path d="M680.13,336.53a6.37,6.37,0,1,1-6.37-6.37A6.37,6.37,0,0,1,680.13,336.53Z" style="fill:#e0e0e0"></path><path d="M680.13,336.53c-.06,0,0-.56-.3-1.53a6.39,6.39,0,0,0-2.33-3.38,6.17,6.17,0,0,0-5.83-.84,6,6,0,0,0-2.83,2.14,6.08,6.08,0,0,0-1.19,3.61,6.17,6.17,0,0,0,1.18,3.62,6.1,6.1,0,0,0,2.84,2.14,6.2,6.2,0,0,0,5.83-.84,6.37,6.37,0,0,0,2.33-3.39c.26-1,.24-1.53.3-1.53a1.45,1.45,0,0,1,0,.41,4.82,4.82,0,0,1-.13,1.17,6.36,6.36,0,0,1-2.31,3.63,6.49,6.49,0,0,1-6.21,1,6.57,6.57,0,0,1-3.09-2.29,6.59,6.59,0,0,1,0-7.83,6.57,6.57,0,0,1,9.3-1.3A6.39,6.39,0,0,1,680,335a4.92,4.92,0,0,1,.13,1.17A1.45,1.45,0,0,1,680.13,336.53Z" style="fill:#263238"></path><circle cx="655.75" cy="358.76" r="6.37" style="fill:#e0e0e0"></circle><path d="M662.12,358.76s0-.57-.29-1.53a6.37,6.37,0,0,0-2.33-3.39,6.2,6.2,0,0,0-5.83-.84,6.1,6.1,0,0,0-2.84,2.14,6.13,6.13,0,0,0,0,7.23,6,6,0,0,0,2.84,2.14,6.17,6.17,0,0,0,5.83-.84,6.39,6.39,0,0,0,2.33-3.38c.26-1,.24-1.54.29-1.53s0,.14,0,.41a4.82,4.82,0,0,1-.13,1.17,6.36,6.36,0,0,1-2.3,3.63,6.54,6.54,0,0,1-6.22,1,6.42,6.42,0,0,1-3.08-2.29,6.57,6.57,0,0,1,9.3-9.12,6.33,6.33,0,0,1,2.3,3.63,4.82,4.82,0,0,1,.13,1.17C662.15,358.62,662.14,358.76,662.12,358.76Z" style="fill:#263238"></path><path d="M708.12,335.09a6.46,6.46,0,1,1,6.45-6.46A6.47,6.47,0,0,1,708.12,335.09Z" style="fill:#e0e0e0"></path><path d="M708.12,335.09a6.46,6.46,0,1,1,6.45-6.46A6.47,6.47,0,0,1,708.12,335.09Z" style="fill:none"></path><path d="M708.12,335.09c0-.06.57,0,1.55-.31a6.42,6.42,0,0,0,3.43-2.36,6.24,6.24,0,0,0-1.32-8.77,6.22,6.22,0,0,0-9.5,2.87,6.25,6.25,0,0,0,.86,5.9,6.35,6.35,0,0,0,3.43,2.36c1,.27,1.55.25,1.55.31a2.37,2.37,0,0,1-.42,0,5,5,0,0,1-1.18-.14,6.45,6.45,0,0,1-3.68-2.33,6.64,6.64,0,0,1,1.31-9.42,6.66,6.66,0,0,1,7.93,0,6.64,6.64,0,0,1,1.31,9.42,6.45,6.45,0,0,1-3.68,2.33,5,5,0,0,1-1.18.14A2.18,2.18,0,0,1,708.12,335.09Z" style="fill:#263238"></path></g><g id="freepik--Puzzle--inject-2"><path d="M633.41,126.38a3.26,3.26,0,0,0,2-4.15,3.21,3.21,0,0,0-1.74-1.89c-1.31-.56-3.26-1.7-3.93-3.6-1-2.94.61-5.83,4-7s6.42.07,7.45,3c.66,1.9-.16,4-.83,5.26a3.2,3.2,0,0,0-.18,2.57,3.24,3.24,0,0,0,4.14,2l17.92-8.27.09,0-.4-.88-4.7-19.17a3.25,3.25,0,0,0-6-.26c-.56,1.31-1.69,3.26-3.59,3.93-2.95,1-5.84-.61-7-4s.06-6.42,3-7.45c1.9-.66,4,.16,5.26.83a3.2,3.2,0,0,0,2.57.18,3.25,3.25,0,0,0,2-4.14l-7.76-16.8-.1.06-19.17,4.69a3.25,3.25,0,0,0-2,4.14,3.2,3.2,0,0,0,1.74,1.9c1.31.56,3.26,1.69,3.93,3.6,1,2.94-.61,5.83-3.95,7s-6.42-.07-7.45-3c-.67-1.9.16-4,.83-5.26a3.2,3.2,0,0,0,.18-2.57,3.26,3.26,0,0,0-4.14-2L597.58,83.4l-.12,0,4.38,17.92a3.26,3.26,0,0,0,4.15,2,3.2,3.2,0,0,0,1.89-1.75c.57-1.3,1.7-3.25,3.6-3.92,2.95-1,5.83.61,7,4s-.07,6.42-3,7.45c-1.9.66-4-.16-5.25-.83a3.2,3.2,0,0,0-2.57-.18,3.25,3.25,0,0,0-2,4.14l8.27,17.92.24,1,.09,0Z" style="fill:#ebebeb"></path><path d="M633.41,126.38l-1.25.34-3.69.93-14.2,3.54h0l-.09,0-.13.06,0-.15c-.07-.29-.16-.64-.24-1v0c-2.32-5-5.13-11-8.32-17.9h0a3.44,3.44,0,0,1,4.31-4.4c.43.15.78.38,1.16.54a9.68,9.68,0,0,0,1.17.44,6,6,0,0,0,2.48.24,5,5,0,0,0,2.31-1,5.18,5.18,0,0,0,1.76-4.73,7.13,7.13,0,0,0-2.54-4.75,4.72,4.72,0,0,0-2.58-1,4.92,4.92,0,0,0-2.73.63,6.07,6.07,0,0,0-2,2.08,9.36,9.36,0,0,0-.7,1.33,3.43,3.43,0,0,1-1,1.31,3.48,3.48,0,0,1-5.51-1.52h0c-1.39-5.68-2.87-11.7-4.4-17.92l-.05-.23.23-.06.12,0,0,0,17.91-8.28h0a3.47,3.47,0,0,1,2.75.19,3.49,3.49,0,0,1,1.43,4.9,9.06,9.06,0,0,0-.86,2.47,4.76,4.76,0,0,0,1.69,4.63,5.62,5.62,0,0,0,5,.81,6.37,6.37,0,0,0,4.16-3.17,4.71,4.71,0,0,0-.63-5A7.36,7.36,0,0,0,626.8,78c-.4-.24-.84-.37-1.3-.66a3.44,3.44,0,0,1-1.07-1.11,3.52,3.52,0,0,1,1.83-5.14h0l19.17-4.7,0,0,.11-.05.23-.11.11.24q3.95,8.56,7.75,16.79h0v0a3.51,3.51,0,0,1-3,4.64,3.29,3.29,0,0,1-1.55-.21c-.51-.21-.87-.44-1.32-.62a7,7,0,0,0-2.72-.59,4.74,4.74,0,0,0-4.26,2.86,6.54,6.54,0,0,0,.3,5.25,6.82,6.82,0,0,0,1.57,2.14,4.78,4.78,0,0,0,4.88.89,5,5,0,0,0,2-1.51,9.38,9.38,0,0,0,1.34-2.21,3.49,3.49,0,0,1,6.49.22h0l4.68,19.18,0,0c.15.31.28.6.41.88l.1.23-.24.06-.09,0h0l-17.93,8.24h0a3.43,3.43,0,0,1-4.35-2.08,3.37,3.37,0,0,1,.08-2.5A11.12,11.12,0,0,0,641,116a5.83,5.83,0,0,0,.25-2.22,5,5,0,0,0-.7-2,4.88,4.88,0,0,0-3.33-2.23,7.05,7.05,0,0,0-3.8.46,6.57,6.57,0,0,0-2.85,2.1,4.89,4.89,0,0,0,0,5.82,7,7,0,0,0,2,1.73,14.43,14.43,0,0,1,2.06,1.18,3.31,3.31,0,0,1,.93,3.45,3.25,3.25,0,0,1-1.37,1.78,2.36,2.36,0,0,1-.71.32,7.65,7.65,0,0,0,.68-.36,3.28,3.28,0,0,0,1.31-1.77,3.23,3.23,0,0,0-.93-3.31,14,14,0,0,0-2.06-1.14,7.39,7.39,0,0,1-2.07-1.76,5.11,5.11,0,0,1,0-6.08,6.72,6.72,0,0,1,2.94-2.19,7.19,7.19,0,0,1,4-.5,5.17,5.17,0,0,1,3.53,2.34,5,5,0,0,1,.75,2.15,6.4,6.4,0,0,1-.24,2.34,11.49,11.49,0,0,1-.92,2.2,3.09,3.09,0,0,0-.05,2.26,3.08,3.08,0,0,0,3.91,1.86h0l17.91-8.29h0l.09,0-.13.29c-.13-.29-.27-.57-.41-.89h0v0q-2.23-9-4.72-19.17v0a3,3,0,0,0-1.56-1.73,3.07,3.07,0,0,0-2.36-.1,3,3,0,0,0-1.72,1.65,9.5,9.5,0,0,1-1.4,2.32,5.47,5.47,0,0,1-2.24,1.66,5.54,5.54,0,0,1-2.8.26,5.4,5.4,0,0,1-2.55-1.24,6.86,6.86,0,0,1-1.69-2.3,7,7,0,0,1-.33-5.64A5.24,5.24,0,0,1,645,86a7.64,7.64,0,0,1,2.91.63c.45.18.92.46,1.31.62a2.84,2.84,0,0,0,1.32.17,3,3,0,0,0,2.57-4v0l-7.76-16.8.34.13-.11.05h0l-19.17,4.69h0A3,3,0,0,0,624.88,76a3,3,0,0,0,.91,1c.35.23.84.38,1.26.63a7.8,7.8,0,0,1,2.32,1.8,5.21,5.21,0,0,1,.7,5.61,6.88,6.88,0,0,1-4.48,3.44,6.14,6.14,0,0,1-5.49-.91,5.27,5.27,0,0,1-1.87-5.12,9.4,9.4,0,0,1,.91-2.61,3,3,0,0,0-3.56-4.39h0l-17.92,8.26h0l-.12,0,.18-.29c1.52,6.22,3,12.24,4.37,17.92v0a3,3,0,0,0,2.07,1.92,3,3,0,0,0,3.58-1.74,10.1,10.1,0,0,1,.73-1.38,6.55,6.55,0,0,1,2.16-2.22,5.29,5.29,0,0,1,3-.68,5.23,5.23,0,0,1,2.8,1.08,7.53,7.53,0,0,1,2.69,5,5.56,5.56,0,0,1-1.92,5.08,5.21,5.21,0,0,1-2.5,1.09,6.18,6.18,0,0,1-2.64-.26,8.38,8.38,0,0,1-1.21-.46,12.29,12.29,0,0,0-1.13-.52,3,3,0,0,0-2.28.14,3.09,3.09,0,0,0-1.59,3.79h0L614,130.07h0l.24,1-.17-.09.09,0h0l14.23-3.42,3.7-.87C633,126.46,633.41,126.38,633.41,126.38Z" style="fill:#263238"></path></g><g id="freepik--Icon--inject-2"><path d="M86,404.47a17.07,17.07,0,0,0,9.86-16c-.15-9.44-7.43-17-16.28-16.84S63.7,379.52,63.84,389A17.05,17.05,0,0,0,74.36,404.7c-24.57,4.2-22.93,31-22.93,31l58.28-.88S110.51,407.68,86,404.47Z" style="fill:#ebebeb"></path><path d="M86,404.47l.77.11a19.1,19.1,0,0,1,2.16.37,25,25,0,0,1,7.88,3.1,24.63,24.63,0,0,1,9,9.73,37.72,37.72,0,0,1,4.1,17V435h-.2l-58.27.93h-.26v-.25a37.71,37.71,0,0,1,.7-8.29,34.25,34.25,0,0,1,2.61-8.19,25.2,25.2,0,0,1,8.2-10.07,26.52,26.52,0,0,1,5.62-3,33.21,33.21,0,0,1,6-1.65l0,.49a16.64,16.64,0,0,1-7.57-6.1A18,18,0,0,1,63.65,390a17.78,17.78,0,0,1,7-15.51,15.41,15.41,0,0,1,15.06-1.84,16.86,16.86,0,0,1,9.13,9.61A17.44,17.44,0,0,1,96,388a18,18,0,0,1-.54,5.18,17.19,17.19,0,0,1-3.82,7.27,16,16,0,0,1-4,3.26,9.38,9.38,0,0,1-1.18.6l-.43.19.38-.2c.26-.15.69-.35,1.18-.67a16.37,16.37,0,0,0,3.92-3.3,17.2,17.2,0,0,0,3.72-7.22,17.77,17.77,0,0,0,.48-5.1,16.8,16.8,0,0,0-1.18-5.63,16.52,16.52,0,0,0-9-9.37,15,15,0,0,0-14.65,1.84,17.29,17.29,0,0,0-6.76,15.12,17.54,17.54,0,0,0,3,8.62,16.06,16.06,0,0,0,7.34,5.9l.81.32-.86.17a33,33,0,0,0-5.92,1.63,26.11,26.11,0,0,0-5.5,3,24.75,24.75,0,0,0-8,9.87,34.07,34.07,0,0,0-2.57,8.06,36.78,36.78,0,0,0-.69,8.17l-.26-.24,58.28-.82-.2.2a37.57,37.57,0,0,0-4-16.85,24.42,24.42,0,0,0-8.83-9.69,25.31,25.31,0,0,0-7.79-3.17c-.92-.26-1.71-.35-2.18-.46Z" style="fill:#263238"></path></g><g id="freepik--speech-bubbles--inject-2"><path d="M137.89,75.26H106.45A11.85,11.85,0,0,0,94.6,87.1V103a11.85,11.85,0,0,0,11.85,11.85h19.89l9.74,9.6.06-9.6h1.75A11.84,11.84,0,0,0,149.74,103V87.1A11.84,11.84,0,0,0,137.89,75.26Z" style="fill:#ebebeb"></path><path d="M137.89,75.26a1,1,0,0,1,.26,0l.78,0a11.4,11.4,0,0,1,2.93.6,11.93,11.93,0,0,1,7.55,7.92,12.76,12.76,0,0,1,.49,3.81c0,1.34,0,2.73,0,4.18,0,2.9,0,6,0,9.36a17.62,17.62,0,0,1-.45,5.16,12.1,12.1,0,0,1-7.41,8,12.37,12.37,0,0,1-2.91.7c-1,.08-2,.07-3,.07l.24-.24c0,3,0,6.28,0,9.61v.59l-.42-.42-9.75-9.6.18.08H108.5a21,21,0,0,1-4.67-.29,12.17,12.17,0,0,1-7.46-5.12,11.82,11.82,0,0,1-1.74-4.13,20.31,20.31,0,0,1-.28-4.37q0-4.29,0-8.39c0-1.37,0-2.72,0-4a19.52,19.52,0,0,1,.23-4,12,12,0,0,1,3.69-6.57,11.12,11.12,0,0,1,3-2,11.3,11.3,0,0,1,3.34-1,22.34,22.34,0,0,1,3.34-.14h3.17l19.57.08,5.32,0,1.38,0,.47,0-.47,0-1.38,0-5.32,0-19.57.08H108a21.19,21.19,0,0,0-3.28.15,11.56,11.56,0,0,0-6.12,3,11.54,11.54,0,0,0-3.53,6.34,19.82,19.82,0,0,0-.21,3.88v4q0,4.1,0,8.39a20.17,20.17,0,0,0,.27,4.26,11.45,11.45,0,0,0,1.68,4,11.63,11.63,0,0,0,7.14,4.89,20.16,20.16,0,0,0,4.56.28h18l.08.08,9.73,9.61-.43.17c0-3.32,0-6.56.07-9.6v-.24h.24c1,0,2,0,3-.06a11.91,11.91,0,0,0,2.8-.66,11.4,11.4,0,0,0,4.59-3.1,11.28,11.28,0,0,0,2.57-4.62,17.34,17.34,0,0,0,.46-5c0-3.33,0-6.46,0-9.36,0-1.45,0-2.84,0-4.18a12.52,12.52,0,0,0-.44-3.73A11.83,11.83,0,0,0,141.81,76,13.57,13.57,0,0,0,137.89,75.26Z" style="fill:#263238"></path><path d="M81.13,58H119.7a14.52,14.52,0,0,1,14.52,14.53V92.06a14.53,14.53,0,0,1-14.52,14.53H95.3L83.93,118.37l-.64-11.78H81.13A14.53,14.53,0,0,1,66.61,92.06V72.54A14.52,14.52,0,0,1,81.13,58Z" style="fill:#ebebeb"></path><path d="M81.13,58a2.35,2.35,0,0,1-.31,0l-.94.07c-.42,0-.92.14-1.52.23-.3,0-.62.15-1,.24a7.29,7.29,0,0,0-1.07.34,14.48,14.48,0,0,0-9,9.65,15.35,15.35,0,0,0-.56,4.58c0,1.63,0,3.34,0,5.12q0,5.34,0,11.48a21.07,21.07,0,0,0,.57,6.2,14.29,14.29,0,0,0,8.81,9.5,14.24,14.24,0,0,0,3.45.82c1.18.09,2.41.08,3.66.08h.22l0,.22c.2,3.73.42,7.71.65,11.78l-.43-.16,11.36-11.78.08-.08h22.18a23.4,23.4,0,0,0,5.58-.39,14.3,14.3,0,0,0,10.73-11,26.07,26.07,0,0,0,.3-5.23V79.44c0-1.68,0-3.33,0-5a24,24,0,0,0-.27-4.75,14.37,14.37,0,0,0-4.4-7.77,13.53,13.53,0,0,0-3.57-2.39,13.33,13.33,0,0,0-4-1.19,25.82,25.82,0,0,0-4-.18h-3.88l-24-.08-6.51,0-1.7,0-.58,0,.58,0,1.7,0,6.51,0,24-.09h3.88a27,27,0,0,1,4.08.17,13.83,13.83,0,0,1,4.08,1.21,14.2,14.2,0,0,1,3.69,2.45,14.82,14.82,0,0,1,4.56,8,25.24,25.24,0,0,1,.29,4.84v5c0,3.34,0,6.77,0,10.27a26.15,26.15,0,0,1-.3,5.34,14.76,14.76,0,0,1-11.1,11.39,23.78,23.78,0,0,1-5.7.41H95.3l.18-.07L84.11,118.54l-.4.41,0-.57c-.22-4.08-.43-8-.63-11.78l.24.23c-1.24,0-2.47,0-3.71-.09a15,15,0,0,1-3.56-.85A14.8,14.8,0,0,1,67,96.07a21.78,21.78,0,0,1-.55-6.32c0-4.09,0-7.92,0-11.48,0-1.78,0-3.49,0-5.12A15.63,15.63,0,0,1,67,68.49a14.6,14.6,0,0,1,9.24-9.72,8.29,8.29,0,0,1,1.09-.32c.34-.08.66-.18,1-.23.61-.07,1.12-.18,1.54-.19l.95,0Z" style="fill:#263238"></path><path d="M90.92,82.05a4.84,4.84,0,1,1-4.84-4.84A4.84,4.84,0,0,1,90.92,82.05Z" style="fill:#fff"></path><path d="M105.26,82.05a4.84,4.84,0,1,1-4.84-4.84A4.84,4.84,0,0,1,105.26,82.05Z" style="fill:#fff"></path><path d="M119.59,82.05a4.84,4.84,0,1,1-4.84-4.84A4.84,4.84,0,0,1,119.59,82.05Z" style="fill:#fff"></path></g><g id="freepik--Arrows--inject-2"><path d="M190,235.09l-42-16.28a243.08,243.08,0,0,1,109.37-125c6.2-3.41,12.65-6.59,19.17-9.47,4.46-2,9-3.81,13.57-5.5l15.67,42.18c-3.71,1.38-7.45,2.9-11.09,4.5-5.33,2.35-10.6,5-15.67,7.73A198,198,0,0,0,190,235.09Z" style="fill:#3766D0"></path><polygon points="304.17 142.17 276.22 57.63 349.63 82.84 304.17 142.17" style="fill:#3766D0"></polygon><path d="M203.31,178.58l-4.73-3.2,2.28,4.92-.77,1.12-5.27-.26,4.6,3.13-1.59,2.33-8.91-6.08,1.42-2.07,7.27.38-3.05-6.56,1.41-2.08,8.92,6.06Z" style="fill:#fff"></path><path d="M209,167.74l-2.84,3.57,1.11,2-1.94,2.44-5.47-10.44,1.87-2.35,11.41,3-2,2.48Zm-2.32-.7L203.1,166l1.83,3.24Z" style="fill:#fff"></path><path d="M214.64,160l-1.11,1.24,2.12,1.92-2,2.26-8-7.23,3.31-3.66c2-2.18,4.34-2.53,6.17-.87a3.58,3.58,0,0,1,1.11,3.84l4.07.55-2.19,2.42Zm-4.06-3.72-1.14,1.26,2.34,2.12,1.14-1.26c.84-.94.83-1.8.1-2.46S211.42,155.32,210.58,156.26Z" style="fill:#fff"></path><path d="M221.42,151.4l0,1.66,1.89,1.93-2.16,2.11-7.54-7.71,2.16-2.11,3.13,3.21-.15-6.12,2.4-2.35.19,6.49,7.51,1.05L226.36,152Z" style="fill:#fff"></path><path d="M234.37,141.72l1.55,1.78-6.52,5.68-7.08-8.13,6.38-5.54,1.54,1.77-4.1,3.57,1.2,1.37,3.61-3.14,1.49,1.71-3.61,3.15,1.3,1.48Z" style="fill:#fff"></path><path d="M233.82,134.51l-2.61,2-1.49-1.91,7.62-5.94,1.48,1.91-2.6,2,5.14,6.59-2.4,1.88Z" style="fill:#fff"></path><path d="M238.56,127.88l2.48-1.77,6.27,8.76-2.48,1.78Z" style="fill:#fff"></path><path d="M251.73,119l5.84,9.06-2.11,1.36-7.11-2.25,3.12,4.83L249,133.65l-5.85-9.06,2.11-1.36,7.11,2.25-3.11-4.83Z" style="fill:#fff"></path><path d="M262.86,118.65l2.35-1.31,2.17,3.9a7.93,7.93,0,0,1-3.29,3.4c-3,1.67-6.32.86-7.91-2s-.53-6.12,2.52-7.82a5.9,5.9,0,0,1,5.08-.56l-.85,2.47a3.38,3.38,0,0,0-2.87.23,3.08,3.08,0,0,0,3,5.39,3.94,3.94,0,0,0,1.27-1.11Z" style="fill:#fff"></path><path d="M189.89,469.15a242.21,242.21,0,0,1-59-115.61c-1.41-6.94-2.53-14-3.34-21.11a246.06,246.06,0,0,1-1.41-37l45,1.7a200.61,200.61,0,0,0,1.15,30.18c.66,5.78,1.58,11.59,2.73,17.26a197.38,197.38,0,0,0,48,94.13Z" style="fill:#3766D0"></path><polygon points="192.04 318.41 96.57 309.27 153.28 247.84 192.04 318.41" style="fill:#3766D0"></polygon><path d="M177.69,406.37l-2.46.18a6.76,6.76,0,0,0-.74-3.64c-.59-1.11-1.14-1.38-1.6-1.13-1.51.8,2.49,5.62-1,7.51-1.69.91-3.82.26-5.33-2.56a8.14,8.14,0,0,1-1-3.89l2.44-.24a6.38,6.38,0,0,0,.68,3c.6,1.13,1.2,1.34,1.68,1.08,1.45-.78-2.52-5.59,1-7.46,1.66-.89,3.81-.26,5.32,2.57A8.39,8.39,0,0,1,177.69,406.37Z" style="fill:#fff"></path><path d="M169.28,398.7l-5.43,2.5-1.27-2.77,5.34-2.46c1.68-.77,2-1.78,1.49-2.94s-1.52-1.54-3.2-.76l-5.34,2.46L159.61,392l5.43-2.5c2.92-1.35,5.34-.39,6.68,2.5S172.2,397.35,169.28,398.7Z" style="fill:#fff"></path><path d="M158.83,379.1c2.29-.88,4.37.29,5.43,3l.68,1.75,2.63-1,1.09,2.84-10,3.88L156.84,385C155.78,382.26,156.54,380,158.83,379.1Zm1.11,2.87c-.93.36-1.25,1.16-.79,2.34l.61,1.57,2.94-1.13-.61-1.58C161.63,382,160.86,381.61,159.94,382Z" style="fill:#fff"></path><path d="M155.32,368.2c2.33-.75,4.34.55,5.24,3.35l.57,1.79,2.68-.86.92,2.91-10.26,3.27L153,374C152.08,371.17,153,369,155.32,368.2Zm.93,2.93c-.95.3-1.32,1.08-.93,2.29l.51,1.61,3-1-.52-1.61C157.94,371.25,157.19,370.83,156.25,371.13Z" style="fill:#fff"></path><path d="M156.28,366.58c-3.13.78-6.05-1.12-6.88-4.46s.86-6.39,4-7.16,6,1.11,6.88,4.46S159.42,365.8,156.28,366.58Zm-2.14-8.64a2.92,2.92,0,1,0,3.69,2.09A2.89,2.89,0,0,0,154.14,357.94Z" style="fill:#fff"></path><path d="M154.71,348.1l.3,1.63,2.82-.5.53,3-10.6,1.9-.87-4.85c-.52-2.89.66-5,3.08-5.41a3.58,3.58,0,0,1,3.72,1.47l2.92-2.88.58,3.21Zm-5.42.94.3,1.67,3.1-.56-.3-1.67c-.22-1.24-.91-1.76-1.88-1.58S149.06,347.8,149.29,349Z" style="fill:#fff"></path><path d="M147.9,340l.4,3.28-2.4.3L144.74,334l2.4-.29.39,3.27,8.3-1,.37,3Z" style="fill:#fff"></path><polygon points="524.72 387.9 603.34 429.69 532.86 462.2 524.72 387.9" style="fill:#3766D0"></polygon><path d="M571.57,440.84l-37.78-24.43a201.76,201.76,0,0,0,11.64-20.59c2.57-5.22,4.92-10.6,7-16A198,198,0,0,0,555,244.58L597.61,230a243.09,243.09,0,0,1-3.2,166c-2.56,6.6-5.44,13.19-8.58,19.58A245.42,245.42,0,0,1,571.57,440.84Z" style="fill:#3766D0"></path><path d="M584.93,296c3.23-.17,5.72,2.25,5.89,5.7s-2.06,6.1-5.29,6.26a5.64,5.64,0,0,1-5.9-5.7C579.46,298.83,581.7,296.18,584.93,296Zm.44,8.88a2.91,2.91,0,1,0-3.22-2.75A2.89,2.89,0,0,0,585.37,304.9Z" style="fill:#fff"></path><path d="M582.92,314.43l0-1.67-2.87,0,0-3.05,10.78.17-.08,4.92c0,2.94-1.6,4.77-4.06,4.73a3.57,3.57,0,0,1-3.37-2.16L580,319.6l0-3.26Zm5.51.11,0-1.69-3.16-.05,0,1.69c0,1.27.55,1.91,1.54,1.92S588.41,315.8,588.43,314.54Z" style="fill:#fff"></path><path d="M590.65,321.77l-.41,5.08c-.28,3.56-2.55,5.83-5.85,5.57s-5.17-2.87-4.89-6.43l.41-5.08Zm-8.71,4.29a3,3,0,1,0,5.89.47l.15-1.92-5.89-.47Z" style="fill:#fff"></path><path d="M579.92,342.31l-2.33-.33,1.22-8.57,10.67,1.52-1.19,8.37L586,343l.76-5.38-1.8-.26-.67,4.74-2.26-.32.68-4.74-1.95-.28Z" style="fill:#fff"></path><path d="M579.2,348.69l.33-1.63-2.81-.57.61-3,10.56,2.13-1,4.83c-.58,2.88-2.44,4.39-4.86,3.9a3.57,3.57,0,0,1-2.91-2.74l-3.78,1.61L576,350Zm5.39,1.12.34-1.66-3.09-.62-.34,1.66c-.25,1.24.2,2,1.16,2.17S584.35,351.05,584.59,349.81Z" style="fill:#fff"></path><path d="M576.15,354l1.92,1.55a6.77,6.77,0,0,0-1.94,3.16c-.32,1.22-.1,1.79.41,1.93,1.65.43,2-5.81,5.88-4.79,1.86.49,3,2.41,2.16,5.51a8.09,8.09,0,0,1-1.91,3.54l-1.95-1.49a6.37,6.37,0,0,0,1.57-2.67c.33-1.24,0-1.8-.49-1.93-1.6-.42-2,5.8-5.81,4.79-1.81-.48-3-2.41-2.15-5.5A8.63,8.63,0,0,1,576.15,354Z" style="fill:#fff"></path><path d="M539.6,205.32a196.25,196.25,0,0,0-94.8-78.67c-5.38-2.12-10.94-4-16.52-5.69a199.54,199.54,0,0,0-37.64-7.32l4.28-44.8a245.27,245.27,0,0,1,46.15,9c6.82,2,13.62,4.36,20.21,7a240.89,240.89,0,0,1,116.41,96.58Z" style="fill:#3766D0"></path><polygon points="507.74 193.29 582.23 144.51 576.78 221.94 507.74 193.29" style="fill:#3766D0"></polygon><path d="M455.51,114.47l1.83-1.64a6.89,6.89,0,0,0,2.82,2.42c1.15.52,1.75.39,2-.09.7-1.56-5.41-2.92-3.78-6.57.79-1.76,2.86-2.56,5.79-1.25a8.12,8.12,0,0,1,3.19,2.45l-1.78,1.69a6.34,6.34,0,0,0-2.39-2c-1.17-.52-1.77-.32-2,.18-.67,1.5,5.42,2.87,3.8,6.5-.77,1.71-2.86,2.54-5.78,1.23A8.43,8.43,0,0,1,455.51,114.47Z" style="fill:#fff"></path><path d="M472.13,121.17l-4-2.1-1.72,1.46-2.76-1.43,9.19-7.37,2.67,1.39-.74,11.76-2.81-1.46Zm.25-2.41.36-3.7-2.82,2.42Z" style="fill:#fff"></path><path d="M480.83,116l2.62,1.56-4.27,7.19,4.42,2.63-1.23,2.08-7.05-4.19Z" style="fill:#fff"></path><path d="M491.75,132.9l-1.31,2-7.2-4.81,6-9,7,4.7-1.31,2-4.52-3-1,1.51,4,2.66-1.26,1.9-4-2.66-1.09,1.64Z" style="fill:#fff"></path><path d="M491.68,134.55l2.15-1.2a6.84,6.84,0,0,0,2.21,3c1,.76,1.61.77,1.93.35,1-1.37-4.62-4.05-2.22-7.25,1.16-1.54,3.36-1.85,5.92.07a8.06,8.06,0,0,1,2.56,3.1l-2.11,1.25a6.36,6.36,0,0,0-1.89-2.46c-1-.77-1.65-.7-2-.27-1,1.32,4.64,4,2.25,7.18-1.13,1.5-3.35,1.84-5.91-.09A8.5,8.5,0,0,1,491.68,134.55Z" style="fill:#fff"></path></g><g id="freepik--Characters--inject-2"><path d="M290.21,158.87l1.68.07A32.45,32.45,0,0,1,323.05,190c.65,15.71,1.17,33.07.74,41.47-.89,17.39-18.39,19.42-18.39,19.42l-.07,7.1c-.1,11.72-1.9,24.6-13.62,24.43L283.88,279A21.15,21.15,0,0,1,263,257.8l.06-64.84C262.23,174.83,272.07,159.23,290.21,158.87Z" style="fill:#ffbf9d"></path><path d="M305.54,250.89A42.19,42.19,0,0,1,283,243.33s4.88,12.73,22.3,11.84Z" style="fill:#ff9a6c"></path><path d="M316.65,205.63a2.48,2.48,0,0,1-2.49,2.41,2.37,2.37,0,0,1-2.47-2.34,2.48,2.48,0,0,1,2.49-2.41A2.37,2.37,0,0,1,316.65,205.63Z" style="fill:#263238"></path><path d="M319,198.38c-.32.31-2.15-1.16-4.82-1.25s-4.69,1.16-5,.82c-.13-.15.2-.72,1.08-1.31a6.82,6.82,0,0,1,4-1.06,6.52,6.52,0,0,1,3.82,1.4C318.88,197.64,319.14,198.24,319,198.38Z" style="fill:#263238"></path><path d="M293.5,205a2.48,2.48,0,0,1-2.49,2.41,2.38,2.38,0,0,1-2.48-2.34A2.49,2.49,0,0,1,291,202.7,2.38,2.38,0,0,1,293.5,205Z" style="fill:#263238"></path><path d="M292.68,197.85c-.32.32-2.15-1.15-4.83-1.25s-4.68,1.17-5,.83c-.14-.15.2-.73,1.08-1.31a6.79,6.79,0,0,1,4-1.07,6.59,6.59,0,0,1,3.82,1.41C292.58,197.12,292.83,197.71,292.68,197.85Z" style="fill:#263238"></path><path d="M301.61,218.06c0-.15,1.67-.37,4.37-.61.69,0,1.34-.16,1.47-.62a3.46,3.46,0,0,0-.37-2q-.87-2.52-1.82-5.28c-2.52-7.51-4.31-13.68-4-13.77s2.59,5.9,5.11,13.42c.6,1.85,1.18,3.61,1.73,5.3a3.93,3.93,0,0,1,.25,2.69,1.7,1.7,0,0,1-1.16,1,4.69,4.69,0,0,1-1.17.12C303.3,218.27,301.61,218.21,301.61,218.06Z" style="fill:#263238"></path><path d="M293.77,187.4c-.29.72-2.94.27-6.09.53s-5.73,1-6.12.34c-.17-.32.3-1,1.35-1.65a10.66,10.66,0,0,1,9.3-.66C293.34,186.47,293.9,187.06,293.77,187.4Z" style="fill:#263238"></path><path d="M318.3,190.6c-.5.59-2.31-.11-4.53-.23s-4.1.25-4.51-.4c-.18-.32.14-.91,1-1.46a6.58,6.58,0,0,1,7.29.51C318.28,189.68,318.52,190.31,318.3,190.6Z" style="fill:#263238"></path><path d="M321.69,182s-4.17-11.08-9.32-13.83c-6.24-3.32-9.25,3.55-15.25,1.62s-11.95-5.12-18.33-.67c-7,4.86-3.94,8.58-4.66,16.29-2.92,31.23-9,39.86-10,25.06-.12-1.63-4.55-3.09-5-9.94-.52-8.88-.44-19.64,1.78-25.84,1.87-5.23,5-8.77,10.6-12.59,8.79-6,20.53-5.71,28.47-4.6S322.94,168.35,321.69,182Z" style="fill:#263238"></path><path d="M265.23,210a4.72,4.72,0,0,0-4.93-4.74c-3.25.18-6.94,1.88-7,8.59-.09,11.91,11.89,9.54,11.91,9.2S265.24,215,265.23,210Z" style="fill:#ffbf9d"></path><path d="M262.67,218.55c-.05,0-.21.14-.56.3a2,2,0,0,1-1.55,0c-1.25-.47-2.3-2.47-2.34-4.62a6.8,6.8,0,0,1,.6-3,2.42,2.42,0,0,1,1.57-1.58,1.05,1.05,0,0,1,1.22.58c.16.33.08.57.14.59s.26-.2.17-.69a1.33,1.33,0,0,0-.47-.75,1.59,1.59,0,0,0-1.14-.31,2.93,2.93,0,0,0-2.18,1.83,7,7,0,0,0-.74,3.32c.06,2.4,1.27,4.65,3,5.16a2.21,2.21,0,0,0,1.9-.3C262.65,218.84,262.71,218.57,262.67,218.55Z" style="fill:#ff9a6c"></path><path d="M325.43,169.4c-1.68-1.54-4.16-2-5.84-3.53-3-2.84-2.62-8.58-6.34-10.45-2.2-1.11-4.88-.26-7.3-.75-3.9-.79-5.14-3.92-11.14-4.52-7.78-.77-10.85,4.79-10.85,4.79a9,9,0,0,0-9,0c-3.76,2-4.45,6.8-4.45,6.8s-1.17-.74-5.2,1.85c-2.56,1.65-4.89,5.52-6,8.34-1.7,4.2-.26,9,1.18,13.26.79,2.32,1.78,4.9,4,5.9,2.73,1.23,6.05-.68,7.42-3.34s3.39-5.28,5-7.82c2.78-4.39,5.58-8.47,3.91-11.62a13.49,13.49,0,0,1,8.32.76c2.63,1.16,4.83,3.12,7.43,4.34s6,1.48,8.06-.53a5.82,5.82,0,0,0,8.69,2.78c1.78,3.69,6.62,5.78,10.31,4S328.45,172.17,325.43,169.4Z" style="fill:#263238"></path><path d="M259.49,182.27a15.08,15.08,0,0,1,1.11,2.84,5.73,5.73,0,0,0,1.71,2.58,5.2,5.2,0,0,0,3.63.78,8.86,8.86,0,0,0,3.69-1.16,14.31,14.31,0,0,0,2.52-2,17.77,17.77,0,0,1,2.2-2.11,10.42,10.42,0,0,1-1.84,2.46,12.58,12.58,0,0,1-2.55,2.21,9,9,0,0,1-4,1.3,5.64,5.64,0,0,1-4.09-1,6,6,0,0,1-1.79-2.92A12.06,12.06,0,0,1,259.49,182.27Z" style="fill:#455a64"></path><path d="M259.05,191.44a9.48,9.48,0,0,0,2.22,1.52,6.73,6.73,0,0,0,2.8.52,8.2,8.2,0,0,0,3.36-.92,16.45,16.45,0,0,0,4.91-4.26,12.89,12.89,0,0,1,1.82-2.08,9.31,9.31,0,0,1-1.43,2.39,14.53,14.53,0,0,1-5,4.58,8.31,8.31,0,0,1-3.68.94,6.77,6.77,0,0,1-3-.71C259.44,192.57,259,191.45,259.05,191.44Z" style="fill:#455a64"></path><path d="M258.83,198.27a10.68,10.68,0,0,0,2.22,1.19,7.26,7.26,0,0,0,5.78-.73,17,17,0,0,0,4.55-4.06,10.89,10.89,0,0,1,1.73-1.94,8.48,8.48,0,0,1-1.33,2.24,14.48,14.48,0,0,1-4.61,4.38,8.29,8.29,0,0,1-3.41,1,6.51,6.51,0,0,1-2.88-.46C259.31,199.27,258.76,198.29,258.83,198.27Z" style="fill:#455a64"></path><path d="M293.64,221.68a14.94,14.94,0,0,0-1.05,3.92,4.5,4.5,0,0,0,1,3.61,5,5,0,0,0,3.66,2.14h0a5.55,5.55,0,0,0,5.91-4.17l.75-2.89C301.19,223.27,293.83,221.89,293.64,221.68Z" style="fill:#ff9a6c"></path><path d="M300.1,230.77c0-.06-.35,0-1,0a8.21,8.21,0,0,1-2.5-.22,4.89,4.89,0,0,1-2.87-2.07,6.42,6.42,0,0,1,.07-6.61l-.38.15c2.62.65,4.91,1.2,6.55,1.56a11.76,11.76,0,0,0,2.66.45,10.57,10.57,0,0,0-2.54-.9c-1.61-.48-3.89-1.11-6.5-1.8l-.24-.07-.14.22a6.88,6.88,0,0,0,0,7.37,5.35,5.35,0,0,0,3.31,2.2,7,7,0,0,0,2.65,0C299.79,231,300.11,230.81,300.1,230.77Z" style="fill:#263238"></path><path d="M480.2,195.43c4-2.43,5-8.19,2.92-12.34s-6.53-6.73-11.1-7.53a21.33,21.33,0,0,0-18.48,5.82c-2.57,2.57-4.66,5.93-8.11,7.08-3,1-6.34,0-9.51.37-4.25.49-7.93,3.45-10.16,7.1s-3.19,7.93-3.75,12.17c-.52,3.89-.89,8.16-3.63,11s-6.85,3.27-10.16,5.19C402,227.87,399.86,237,403.85,243c1.27,1.91,3.11,3.67,3.22,6,.11,2.09-1.27,3.93-1.93,5.92-1.71,5.12,2.41,11.29,7.8,11.68,2.71.2,5.64-.82,8.06.43s3.27,4.18,4.78,6.42a11.64,11.64,0,0,0,14.15,3.87c2-.95,3.93-2.54,6.15-2.36s3.93,2.1,6.11,2.56c2.85.59,5.59-1.47,7.33-3.81s3-5.11,5.16-7c2.88-2.49,6.89-3.06,10.51-4.24a29.5,29.5,0,0,0,17.26-41.06" style="fill:#263238"></path><path d="M438,246a8,8,0,0,0-3.14-2.13l.24,0a5.09,5.09,0,0,0-.68-.12,3.16,3.16,0,0,0-2.49.27h0a5.88,5.88,0,0,0-3.25,2.75,6.94,6.94,0,0,0,.71,7.18,5.32,5.32,0,0,0,9.79-1.68A6.6,6.6,0,0,0,438,246Z" style="fill:#455a64"></path><path d="M489,289.69l5.28-76.34a6.49,6.49,0,0,0-5.52-6.82l-34-10.18c-11-1.63-18.87,11.61-20,22.63-1.31,12.25-2.41,27.25-1.35,36.48C435.47,274,450.6,277,450.6,277s-.17,18.86-.38,25.56l-4.51,20.71Z" style="fill:#ae7461"></path><path d="M438.3,232.68a2.36,2.36,0,0,0,2.17,2.48,2.27,2.27,0,0,0,2.53-2,2.37,2.37,0,0,0-2.17-2.48A2.26,2.26,0,0,0,438.3,232.68Z" style="fill:#263238"></path><path d="M437.71,225.69c.28.32,2.13-.92,4.67-.81s4.35,1.47,4.64,1.17c.15-.13-.13-.7-.92-1.33a6.47,6.47,0,0,0-3.69-1.31,6.19,6.19,0,0,0-3.74,1C437.86,225,437.58,225.55,437.71,225.69Z" style="fill:#263238"></path><path d="M461.24,234.46a2.37,2.37,0,0,0,2.18,2.48,2.26,2.26,0,0,0,2.52-2,2.36,2.36,0,0,0-2.17-2.48A2.26,2.26,0,0,0,461.24,234.46Z" style="fill:#263238"></path><path d="M462.69,227.24c.28.33,2.13-.92,4.67-.81s4.35,1.47,4.64,1.17c.14-.13-.13-.7-.92-1.33a6.54,6.54,0,0,0-3.7-1.31,6.16,6.16,0,0,0-3.73,1C462.84,226.55,462.55,227.1,462.69,227.24Z" style="fill:#263238"></path><path d="M452.65,245.7c0-.14-1.55-.48-4.1-.92-.65-.09-1.26-.25-1.35-.7a3.31,3.31,0,0,1,.52-1.9l2.13-4.86c3-6.93,5.15-12.63,4.87-12.75s-2.91,5.4-5.88,12.32q-1.08,2.56-2,4.9a3.72,3.72,0,0,0-.45,2.53,1.62,1.62,0,0,0,1,1,5,5,0,0,0,1.09.2C451,245.77,452.63,245.85,452.65,245.7Z" style="fill:#263238"></path><path d="M450.49,277s11.25,1.26,23.85-5.59c0,0-5.53,13.63-23.9,11.11Z" style="fill:#6f4439"></path><path d="M452.76,251.77a6.25,6.25,0,0,1,5.27-2.51,4,4,0,0,1,3.27,2,3.73,3.73,0,0,1-4.43,5.41,9.29,9.29,0,0,1-3.64-2.47,3,3,0,0,1-.77-1,1.3,1.3,0,0,1,.16-1.29" style="fill:#6f4439"></path><path d="M460.05,247.78c-.41,0-.53,2.72-3,4.58s-5.37,1.43-5.41,1.81c0,.17.63.57,1.87.65a6.86,6.86,0,0,0,4.51-1.35,6,6,0,0,0,2.33-3.85C460.52,248.47,460.24,247.78,460.05,247.78Z" style="fill:#263238"></path><path d="M462,216.73c.22.7,2.78.48,5.74,1s5.35,1.41,5.77.8c.19-.29-.2-1-1.14-1.67a10.19,10.19,0,0,0-8.77-1.35C462.49,215.88,461.92,216.4,462,216.73Z" style="fill:#263238"></path><path d="M439,217c.42.6,2.2.08,4.3.14s3.88.55,4.31,0c.2-.29-.06-.88-.82-1.46a6,6,0,0,0-3.46-1.1,6,6,0,0,0-3.48,1C439.07,216.11,438.8,216.69,439,217Z" style="fill:#263238"></path><path d="M422.42,213.68a12.67,12.67,0,0,1,5-6.9,46.19,46.19,0,0,0,4.13-2.33c2.7-2.11,3.37-5.84,5.06-8.82a13.91,13.91,0,0,1,10.71-6.88c3.66-.32,7.4.83,11,0,2.64-.63,5-2.3,7.64-2.77,5.2-.91,10,2.88,13.68,6.65,0,3.72-3,6.16-5.92,8.5a12.91,12.91,0,0,1-10.48,2.6c-2.82-.56-5.91-2-8.39-.56s-2.77,5.44-5.09,7.4c-3.31,2.79-8.48.05-12.65,1.22-3.22.9-5.27,3.94-7.44,6.49s-5.4,5-8.6,4A37.89,37.89,0,0,1,422.42,213.68Z" style="fill:#263238"></path><path d="M461.64,198.55c2.34-.64,7.12-2.07,8.4-4.07,2.77-4.35,7.6-7.27,12.48-6.94A11.76,11.76,0,0,1,493,197a17.18,17.18,0,0,1,15.26,11.73,12.85,12.85,0,0,1,.7,10.8c-.83,2.09-2.24,4.41-1.19,6.4s3.85,2.13,6,2.91a8.52,8.52,0,0,1,5.23,9.6c-.32,1.4-1,2.79-.74,4.19s1.52,2.51,2.46,3.66a10.62,10.62,0,0,1-6.48,17.19c-1.66.28-3.45.18-4.9,1-1.66,1-2.4,3-3.59,4.48a9.13,9.13,0,0,1-10,3,8.11,8.11,0,0,1-2-1c-1.14,1.52-2.89,2.54-5.87,2.5l1.25-38.86a3.19,3.19,0,0,1-2.38,1.81c-6.26,1.32-7-11.54-5.54-15a36.15,36.15,0,0,1-6.16-6.67c-1.68-2.57-3.1-9.53-2.69-12.65C470.14,202.13,460.61,198.82,461.64,198.55Z" style="fill:#263238"></path><path d="M487.4,237.69c.26-3.95,5.1-4.72,8.5-2.69,1.86,1.11,3.27,3.32,3,7.51-.62,11.17-11.71,8.24-11.72,7.92S487.1,242.31,487.4,237.69Z" style="fill:#ae7461"></path><path d="M490.87,246.39c.05,0,.18.14.5.31a2,2,0,0,0,1.46.12c1.2-.37,2.3-2.19,2.47-4.2a6.6,6.6,0,0,0-.39-2.82,2.26,2.26,0,0,0-1.38-1.58,1,1,0,0,0-1.18.47c-.17.31-.11.53-.17.55s-.23-.2-.11-.66a1.19,1.19,0,0,1,.47-.67,1.45,1.45,0,0,1,1.1-.23,2.73,2.73,0,0,1,1.93,1.85,6.49,6.49,0,0,1,.5,3.15c-.19,2.25-1.46,4.29-3.1,4.67a2.07,2.07,0,0,1-1.77-.4C490.87,246.66,490.83,246.41,490.87,246.39Z" style="fill:#6f4439"></path><path d="M477.08,195.75a6.72,6.72,0,0,1,2.2,1.9c1.09,1.54,1.46,4.47.71,7.75l-.06.28.27.07a10.83,10.83,0,0,1,7.12,6.46,8.66,8.66,0,0,1,.54,2.73,16.42,16.42,0,0,1-.4,2.95,22.52,22.52,0,0,0-.47,3.18,5.25,5.25,0,0,0,.84,3.31c1.36,2.14,3.58,3.21,5.49,4.25a18.81,18.81,0,0,1,5.14,3.48,14,14,0,0,1,4,9.43,14.57,14.57,0,0,1-1.58,6.89c-.76,1.52-1.4,2.24-1.33,2.28s.18-.15.48-.49a11.44,11.44,0,0,0,1.12-1.64,14.17,14.17,0,0,0,1.87-7.05A14.4,14.4,0,0,0,499,231.6a19.37,19.37,0,0,0-5.3-3.65c-1.91-1-4-2.1-5.18-4-1.22-1.71-.63-3.92-.28-5.92a16.13,16.13,0,0,0,.39-3.1,8.9,8.9,0,0,0-.61-3,11.3,11.3,0,0,0-7.65-6.76l.21.35c.71-3.44.23-6.47-1-8.07a4.71,4.71,0,0,0-1.73-1.46A2.54,2.54,0,0,0,477.08,195.75Z" style="fill:#455a64"></path><path d="M495,250.63a8,8,0,0,0-3.15-2.13h.25a4.28,4.28,0,0,0-.68-.13,3.15,3.15,0,0,0-2.49.27h0a5.84,5.84,0,0,0-3.25,2.75,6.94,6.94,0,0,0,.71,7.18,5.32,5.32,0,0,0,9.79-1.68A6.63,6.63,0,0,0,495,250.63Z" style="fill:#455a64"></path><path d="M362.35,351.35s3-1.57,5.74-1,12.49,7,12.49,7l13.61,4.52-5.94,25.44L378.69,383l-16.34,7.89Z" style="fill:#ae7461"></path><path d="M337.47,357.35s7.44-.94,10.14-2.29,9.12-7.05,10.46-6.94,9.21,2.11,9.21,2.11l-5,4.83s9.74,5.91,12.65,8.08,12,11.92,12.43,14.31-.31,5.18-1.45,6.11-5.28-.93-5.28-.93a5.18,5.18,0,0,1-.94,4.25c-1.55,2.07-5.18,1.35-5.18,1.35s-.31,3.42-2,4-5.39-1.25-5.39-1.25-1.12,2.91-2.48,3.22-5.19-2-5.19-2-16.58-11.92-20.31-13.68-4.87-1.87-4.87-1.87Z" style="fill:#ffbf9d"></path><path d="M367.19,391c-.07,0-.12-.29-.29-.72a13.65,13.65,0,0,0-.84-1.66,10.22,10.22,0,0,1-1.28-2.36,5.72,5.72,0,0,1,1.71,2.11,6.06,6.06,0,0,1,.75,1.81C367.34,390.7,367.26,391,367.19,391Z" style="fill:#ff9a6c"></path><path d="M374.08,389a28.12,28.12,0,0,1-2.09-3.13c-1.13-1.73-2.35-2.88-2.26-3a7.32,7.32,0,0,1,2.67,2.71A10,10,0,0,1,374.08,389Z" style="fill:#ff9a6c"></path><path d="M380.74,383c-.15,0-.61-1.76-1.76-3.69s-2.46-3.23-2.36-3.34a8,8,0,0,1,2.79,3.08A8.09,8.09,0,0,1,380.74,383Z" style="fill:#ff9a6c"></path><path d="M375.88,370.09a6,6,0,0,1,.55,2.78,6,6,0,0,1-.3,2.82,12.84,12.84,0,0,1-.19-2.8A12.36,12.36,0,0,1,375.88,370.09Z" style="fill:#ff9a6c"></path><path d="M351.75,360.76s2.59-8.29,3.52-9.33,12-1.2,12-1.2l.28,4.83-1.92,2-4.15-.27S358.9,363.66,351.75,360.76Z" style="fill:#ae7461"></path><path d="M339.46,378.51s-1.07.83,0,2.8,4,.56,4.92,0c0,0-1.41,3.28.38,4.31a7,7,0,0,0,3.94.76s-.1,2,2.44,3.28,3.19,0,3.19,0,.28,3.24,3.19,3.56a5.19,5.19,0,0,0,3.12-.31l-1.12-.64s2.31-5.14,1-6.65a4.49,4.49,0,0,0-3.47-1.31s.57-3.05-1.1-3.9a3.09,3.09,0,0,0-4.44,1.37s-.19-3.34-2.63-3.27a5.43,5.43,0,0,0-3.75,1.58Z" style="fill:#ae7461"></path><path d="M351.51,381.78a7.2,7.2,0,0,1-1.12,2.5,7,7,0,0,1-1.64,2.19,10.16,10.16,0,0,1,1.25-2.42A10.05,10.05,0,0,1,351.51,381.78Z" style="fill:#6f4439"></path><path d="M357.12,384.4a10.09,10.09,0,0,1-2.84,5,15.85,15.85,0,0,1,1.39-2.51A15.42,15.42,0,0,1,357.12,384.4Z" style="fill:#6f4439"></path><path d="M324.51,422.26H308.79l-3.85,54.8,16.05-.31c2.69-8.7,6.68-52.68,6.68-52.68Z" style="fill:#263238"></path><path d="M235.48,422.26s-10.06,23.59-9.06,33.14,5.78,21.66,5.78,21.66l79.36-.12a148.68,148.68,0,0,0,3.23-17.28c1.68-11.8,6.2-37.4,6.2-37.4Z" style="fill:#263238"></path><path d="M308.23,276s9.65,39.32,11,48.47c2.51,16.78,12,87.45,10.67,93.67s-2.14,12.71-2.14,12.71-79.12-5-87.62-4.23-12.11.5-14.17-9.22.06-60.19-1.75-72.39-1.82-18.12-2.51-36.25c-.61-15.71,3-28.32,10.44-37.41s24-18.3,24-18.3l5.86-8.56,42.52,21.25.72-6.55,1.76,10.05Z" style="fill:#455a64"></path><g style="opacity:0.30000000000000004"><path d="M327.5,384.88c-.7-1.76-2.94-2.2-4.82-2.41-17.59-2-35.91-6.35-48.76-18.52-5-4.76-9-10.52-12.81-16.3-8.35-12.62-16.2-25.57-24.05-38.52L231,311.44c3.73,18.28,7.41,31.51,13.5,46.49s10.81,29.52,26.24,34.43c10,3.17,28.91.74,39.35-.08a61.13,61.13,0,0,0,12.92-2,8.56,8.56,0,0,0,3.5-1.78A3.47,3.47,0,0,0,327.5,384.88Z"></path></g><path d="M240.42,267.47c-13.72,2.1-23.65,21.76-22.15,33.6.12.92-6.53,83.28,8.08,89.85,11.57,5.2,53.79,1.27,73.38.15a44.66,44.66,0,0,0,15.66-3.81l12.28-5.48c0,.07,10.39-2.27,10.39-2.27s3.52-8.32-.74-23.53l-20,.85-49.83,0a5.53,5.53,0,0,0-6.25-2.37l5.33-55" style="fill:#455a64"></path><path d="M266.59,299.43s0,.33-.06,1-.14,1.58-.25,2.81c-.23,2.49-.57,6.15-1,10.87-.9,9.47-2.2,23.22-3.83,40.36l-.21-.19a6.78,6.78,0,0,1,3.51.11,5.7,5.7,0,0,1,2.93,2.34l-.16-.09h32.34c5.85,0,11.92,0,18.17,0l19.29-.82h.19l.06.19a56,56,0,0,1,2,11.54,31.58,31.58,0,0,1-1.28,12.15l0,.12-.14,0L332.64,381l-2.77.61-1.4.3-.72.14h0a.27.27,0,0,1-.26-.15.26.26,0,0,1,0-.24h0l-.08,0-.17.08-.33.14a52.55,52.55,0,0,0-5.26,2.62,18.19,18.19,0,0,1-2.41,1.31l-2.6,1.17a45.81,45.81,0,0,1-11.26,3.65,44.51,44.51,0,0,1-6,.69l-6,.38c-14,.94-27.63,1.91-40.85,2.06a132.75,132.75,0,0,1-19.44-.93,33.66,33.66,0,0,1-4.67-1,15.49,15.49,0,0,1-2.24-.83,6.74,6.74,0,0,1-1.92-1.46,15.09,15.09,0,0,1-2.46-4,33.45,33.45,0,0,1-1.51-4.35,98.49,98.49,0,0,1-2.75-17.54c-.47-5.74-.67-11.33-.76-16.73-.16-10.79.13-20.85.54-30,.2-4.59.45-8.95.71-13.08.05-1,.17-2.07.14-3a21.38,21.38,0,0,1-.11-3,29.06,29.06,0,0,1,.76-5.63,40.12,40.12,0,0,1,8.35-16.61,24.75,24.75,0,0,1,9.36-7.1,17.35,17.35,0,0,1,2.94-.9l1-.17-1,.22a19.2,19.2,0,0,0-2.91.95,24.84,24.84,0,0,0-9.25,7.13A40,40,0,0,0,219,292.32a28.56,28.56,0,0,0-.74,5.57,20.64,20.64,0,0,0,.12,2.93c0,1.06-.09,2-.13,3.08q-.37,6.19-.68,13.07c-.38,9.17-.65,19.22-.47,30,.1,5.39.31,11,.78,16.69a99.6,99.6,0,0,0,2.76,17.45c.84,2.87,1.86,5.86,3.87,8.14a6.2,6.2,0,0,0,1.78,1.36,13.87,13.87,0,0,0,2.16.79,33.52,33.52,0,0,0,4.6,1,132.94,132.94,0,0,0,19.37.91c13.2-.16,26.84-1.13,40.82-2.07,4-.32,8.06-.32,11.94-1.06a45.56,45.56,0,0,0,11.18-3.62l2.74-1.21a25.7,25.7,0,0,1,2.89-1.06,46,46,0,0,0,5.26-2.08l.33-.14.16-.07.08,0h0c-.09-.06.2.13-.19-.14.05,0,.18.08.22-.1a.21.21,0,0,0-.22-.16h0l.69-.14,1.39-.29,2.77-.61,5.48-1.22-.18.15a31.32,31.32,0,0,0,1.25-11.92,55.28,55.28,0,0,0-2-11.44l.24.17L318,357c-6.25.05-12.32,0-18.17,0l-32.35,0h-.1l-.05-.09a5.37,5.37,0,0,0-2.73-2.2,6.51,6.51,0,0,0-3.33-.1l-.24.05,0-.24c1.69-17.14,3.05-30.88,4-40.35.48-4.72.85-8.37,1.1-10.86l.3-2.81C266.55,299.75,266.59,299.43,266.59,299.43Z" style="fill:#263238"></path><path d="M304.57,269a8.08,8.08,0,0,1-.95-.49L301,267l.19-.08c-.52,2.62-1,6.47-1.9,11.09l-.06.3-.26-.16c-3.86-2.43-8.49-5.21-13.42-8.19-3.68-2.21-7.12-4.43-10.29-6.35s-6.09-3.56-8.54-4.93l-5.81-3.23-1.58-.89a3.39,3.39,0,0,1-.54-.34,3.43,3.43,0,0,1,.59.25l1.62.8c1.4.72,3.42,1.77,5.89,3.1s5.4,3,8.61,4.84l10.31,6.32c4.93,3,9.55,5.78,13.39,8.25l-.33.14c.92-4.58,1.48-8.44,2.08-11.05l0-.17.14.09,2.56,1.59A6.34,6.34,0,0,1,304.57,269Z" style="fill:#263238"></path><g style="opacity:0.30000000000000004"><path d="M264.63,257.31l21.67,16.15c4.77,3.55,9.65,7.17,15.31,9q-.15-7.53-.31-15.06L299.08,278Z"></path></g><path d="M326.73,382.45a3.61,3.61,0,0,1-.1-1c0-.77-.06-1.69-.1-2.77-.08-2.33-.17-5.56-.47-9.1s-.75-6.73-1.17-9-.77-3.69-.69-3.71a3.45,3.45,0,0,1,.35.95c.2.63.43,1.55.7,2.69a67,67,0,0,1,1.33,9.06c.3,3.56.34,6.8.32,9.14,0,1.17,0,2.11-.07,2.77A3.61,3.61,0,0,1,326.73,382.45Z" style="fill:#263238"></path><path d="M257.39,289.36c-.09,0-.47-1.24-1.33-3.17a31.48,31.48,0,0,0-10.28-12.69c-1.71-1.24-2.87-1.88-2.82-2a3.27,3.27,0,0,1,.85.37A19.85,19.85,0,0,1,246,273.2a28.1,28.1,0,0,1,10.41,12.85,19.48,19.48,0,0,1,.8,2.4A3.73,3.73,0,0,1,257.39,289.36Z" style="fill:#263238"></path><path d="M394.65,359.52c-4.12-.9,50.38,13.47,50.84,13.55l25.88-8.3-22.23,46-61.62-20.52Z" style="fill:#3766D0"></path><g style="opacity:0.30000000000000004"><polygon points="419.14 366.14 414.48 364.9 409.14 397.42 418.39 400.5 419.14 366.14"></polygon></g><polygon points="446.86 310.95 448.54 289.8 490.73 273.73 492.23 281.62 463.49 294.97 446.86 310.95" style="fill:#e0e0e0"></polygon><path d="M494.4,285.33s10.77,16.88,14.08,29.57c3.56,13.67.48,37.82.48,37.82l-12.15,54.55a16.23,16.23,0,0,1,3.12,7.23c.48,3.94-3.84,8.33-3.84,8.33s-1.89-1.13,5.32,11.8S509,477.06,509,477.06H401.79c5.1-25,15.54-64.75,15.54-65.41s.05-27.56.05-27.56-.47-26.07,1.93-35.5,24.82-44,35.61-52.76c11.46-9.32,37.31-18.87,37.31-18.87l2.17,8.37" style="fill:#3766D0"></path><path d="M423.22,437.79c-.33-1.14,8-14.61,8-14.61l47.64,7.31,3.32,12.22Z" style="fill:#3766D0"></path><path d="M423.22,437.79a1.7,1.7,0,0,1,.3,0l.89.06,3.37.25,12.46,1,41.94,3.42-.23.24c-.81-3-1.65-6.06-2.51-9.23-.28-1-.55-2-.81-3l.18.16-47.64-7.37.16-.07c-2.76,4.46-4.89,8.06-6.27,10.57-.7,1.25-1.2,2.23-1.51,2.91a4.74,4.74,0,0,0-.29.78.83.83,0,0,0,0,.28s-.05-.41.26-1.09.76-1.68,1.43-2.95c1.35-2.53,3.43-6.15,6.16-10.63l.05-.08h.1l47.66,7.24.14,0,0,.13c.26,1,.53,2,.81,3,.86,3.16,1.7,6.27,2.5,9.23l.07.27-.3,0-42.05-3.59-12.41-1.1-3.33-.31-.85-.08Z" style="fill:#263238"></path><path d="M494.4,285.33l-.29.09-.88.21c-.76.18-1.9.45-3.35.83-2.9.75-7.1,1.88-12.1,3.7-1.25.46-2.55,1-3.87,1.55-.67.28-1.34.58-2,.92-.33.16-.68.32-1,.5s-.66.37-1,.59a50.77,50.77,0,0,0-7.13,6.49c-4.66,4.92-9.42,10.62-14.3,16.67s-9.37,11.93-13.4,17.3c-2,2.69-3.91,5.26-5.66,7.68a60.27,60.27,0,0,0-4.52,6.89,74.84,74.84,0,0,0-4.74,10.81c-.46,1.31-.79,2.33-1,3-.1.33-.18.59-.25.79a2.16,2.16,0,0,1-.09.27,1.17,1.17,0,0,1,.05-.28c.05-.2.12-.47.21-.8.19-.71.5-1.74.94-3.06a69.27,69.27,0,0,1,4.62-10.89,60.71,60.71,0,0,1,4.49-6.95c1.74-2.42,3.62-5,5.63-7.7,4-5.38,8.51-11.26,13.38-17.33s9.66-11.75,14.35-16.68a50.57,50.57,0,0,1,7.23-6.51c.31-.23.67-.41,1-.61s.69-.33,1-.5c.68-.33,1.36-.63,2-.91,1.34-.58,2.64-1.08,3.9-1.53a118.25,118.25,0,0,1,12.18-3.59c1.45-.36,2.6-.6,3.37-.76l.89-.17Z" style="fill:#263238"></path><path d="M487.71,418.16a9.75,9.75,0,0,1-1.31-.68c-.84-.45-2-1.16-3.45-2.07a79,79,0,0,1-10.42-8,76.21,76.21,0,0,1-8.8-9.47c-1-1.29-1.78-2.37-2.28-3.13a7.79,7.79,0,0,1-.75-1.2,11.62,11.62,0,0,1,.89,1.12c.55.73,1.36,1.78,2.4,3.05a87,87,0,0,0,8.85,9.35,92.4,92.4,0,0,0,10.29,8c1.4.94,2.55,1.68,3.36,2.17A10.19,10.19,0,0,1,487.71,418.16Z" style="fill:#263238"></path><g style="opacity:0.30000000000000004"><polygon points="424.75 437.92 426.19 442.71 480.14 442.54 424.75 437.92"></polygon></g><path d="M449.82,325l1,78-13.23,74h34.77s15.35-55.75,19-67.87c3.53-11.78,8.81-71,9.28-73.95.19-1.14,3.91-21.6-7-31.26" style="fill:#3766D0"></path><path d="M493.61,304l.65.64c.22.21.49.48.8.8.16.16.34.32.51.52l.5.67a23.17,23.17,0,0,1,4.31,9.35,47.89,47.89,0,0,1,.82,16.32c-.15,1.6-.47,3.23-.62,4.92s-.34,3.45-.52,5.26l-1.14,11.43c-.81,8-1.72,16.8-2.82,26.22-.55,4.71-1.15,9.58-1.86,14.59-.34,2.51-.74,5.05-1.17,7.61-.22,1.29-.48,2.58-.73,3.87s-.6,2.6-1,3.88c-5.75,20.58-12.08,43.24-18.73,67.07l-.06.19H437.31l.06-.3c4.89-27.29,9.41-52.48,13.27-74v0c-.28-23.63-.5-43.13-.66-56.74-.06-6.79-.12-12.1-.15-15.74,0-1.8,0-3.18,0-4.13s0-1.41,0-1.41,0,.48.05,1.41.05,2.33.09,4.13c.06,3.64.15,8.95.26,15.74.21,13.61.49,33.11.85,56.74v0c-3.84,21.56-8.32,46.75-13.19,74.05l-.25-.3h34.77l-.25.19c6.68-23.83,13-46.49,18.78-67.06.36-1.29.67-2.56,1-3.84s.51-2.57.73-3.85c.43-2.57.83-5.1,1.18-7.6.72-5,1.32-9.87,1.89-14.58,1.11-9.42,2.05-18.2,2.88-26.21l1.17-11.43c.19-1.8.37-3.55.55-5.25s.48-3.34.64-4.92a48.51,48.51,0,0,0-.73-16.25,23.51,23.51,0,0,0-4.2-9.33l-.49-.67c-.16-.2-.34-.37-.49-.53l-.78-.82C493.81,304.22,493.61,304,493.61,304Z" style="fill:#263238"></path><path d="M484.31,301.72c0,.1-1.66-.3-4.34-.32A23.23,23.23,0,0,0,461.7,310c-1.69,2.08-2.43,3.6-2.51,3.55a4.23,4.23,0,0,1,.48-1.08,20.15,20.15,0,0,1,1.74-2.7A22.31,22.31,0,0,1,480,301a21.14,21.14,0,0,1,3.2.37A4.87,4.87,0,0,1,484.31,301.72Z" style="fill:#263238"></path></g></svg>
