<?xml version="1.0" encoding="utf-8"?>
<!-- Generator: Adobe Illustrator 23.0.1, SVG Export Plug-In . SVG Version: 6.00 Build 0)  -->
<svg version="1.1" id="Layer_1" xmlns="http://www.w3.org/2000/svg" xmlns:xlink="http://www.w3.org/1999/xlink" x="0px" y="0px"
	 viewBox="0 0 1600 490" style="enable-background:new 0 0 1600 490;" xml:space="preserve">
<style type="text/css">
	.st0{fill:#00FFA8;}
</style>
<g>
	<path class="st0" d="M785.24,265.09c-0.41,1.79-0.84,3.21-1.05,4.66c-2.7,18.3-5.37,36.6-8.06,54.9
		c-3.03,20.61-6.01,41.23-9.13,61.83c-1.52,10.05-5.07,13.02-15.4,13.05c-19.57,0.06-39.14,0.02-58.7,0.01
		c-1.49,0-2.99-0.02-4.45-0.22c-7.39-0.98-12.14-6.83-11.26-14.31c0.97-8.23,2.3-16.42,3.51-24.63c2.33-15.77,4.69-31.54,7.02-47.31
		c3.22-21.87,6.4-43.75,9.63-65.63c4.03-27.34,8.1-54.67,12.15-82.01c3.02-20.4,6.07-40.79,9-61.21c1.2-8.39,2.94-13.58,16.19-13.8
		c9.99-0.16,19.99-0.03,29.99-0.04c8.29,0,16.59-0.05,24.88,0.03c2.32,0.02,4.64,0.37,6.96,0.65c4.92,0.59,8.06,3.52,10.05,7.86
		c0.8,1.74,1.5,3.52,2.22,5.29c15.7,38.37,31.39,76.74,47.1,115.11c0.63,1.54,1.38,3.03,2.26,4.96c1.57-1.6,1.58-3.3,1.8-4.82
		c2.65-17.87,5.26-35.76,7.89-53.63c3.03-20.61,6.07-41.22,9.13-61.83c0.25-1.68,0.53-3.39,1.11-4.97c1.47-4,4.01-7.03,8.45-7.84
		c2.29-0.41,4.62-0.76,6.94-0.77c18.93-0.06,37.86-0.06,56.79,0c2.32,0.01,4.68,0.28,6.94,0.79c6.94,1.57,10.73,7.1,9.72,14.17
		c-1.59,11.15-3.28,22.29-4.93,33.44c-3.67,24.82-7.33,49.63-11,74.45c-4.07,27.55-8.16,55.1-12.22,82.65
		c-3.6,24.4-7.17,48.8-10.76,73.2c-0.87,5.89-1.72,11.78-2.62,17.66c-0.23,1.47-0.51,2.95-0.96,4.36c-1.32,4.16-4.07,6.95-8.41,7.84
		c-2.06,0.42-4.22,0.55-6.33,0.55c-18.72,0.04-37.43-0.02-56.15,0.05c-7.73,0.03-12.72-0.94-16.93-11.32
		c-15.88-39.21-32.03-78.31-48.11-117.45C787.69,268.92,787.23,266.78,785.24,265.09z"/>
	<path class="st0" d="M1230.54,278.89c0.45-21.14,3.12-39.39,7.27-57.48c5.58-24.3,15.07-46.89,28.87-67.67
		c16.35-24.62,37.31-44.09,64.2-56.7c21.36-10.02,43.95-14.8,67.53-13.12c21.28,1.52,41.34,7.29,59.24,19.57
		c19.55,13.42,33.61,31.17,42.11,53.17c9,23.32,12.94,47.46,10.7,72.55c-2.13,23.86-6.66,47.15-15.74,69.38
		c-10.35,25.34-25.11,47.81-45.3,66.39c-19.9,18.33-42.9,31.12-69.47,37.25c-15.68,3.62-31.45,5.28-47.47,3.39
		c-18.6-2.2-36.12-7.5-51.79-18.25c-17.35-11.91-29.91-27.62-37.99-46.9c-6.29-15-9.89-30.73-11.32-46.93
		C1230.87,287.81,1230.71,282.06,1230.54,278.89z M1421.84,223.4c0.18-8.98-0.45-17.89-2.5-26.62c-2.32-9.86-6.34-18.92-13.81-26.13
		c-3.79-3.65-8.23-6.01-13.4-6.89c-9.75-1.66-19.06-0.51-27.68,4.65c-6.46,3.86-11.89,8.91-16.73,14.62
		c-8.23,9.68-13.88,20.8-18.28,32.65c-9.08,24.48-11.44,49.59-7.07,75.29c1.62,9.55,5.14,18.41,11.28,26.06
		c4.74,5.91,10.81,9.47,18.45,10.19c10.36,0.98,19.84-1.35,28.33-7.46c7.14-5.15,13.3-11.29,18.09-18.68
		C1413.79,277.44,1421.63,251.55,1421.84,223.4z"/>
	<path class="st0" d="M479.27,90.4c9.14,0,18.29-0.06,27.43,0.04c2.53,0.03,5.11,0.25,7.57,0.79c6.94,1.51,10.74,6.97,9.88,14.11
		c-0.59,4.85-1.42,9.67-2.14,14.51c-6.2,41.84-12.41,83.68-18.61,125.52c-2.15,14.51-4.41,29-6.31,43.54
		c-0.63,4.81-0.86,9.83-0.23,14.61c1.38,10.38,6.7,18.38,16.67,22.38c7.16,2.87,14.6,2.55,21.76-0.35
		c11.98-4.86,20.48-13.47,26.02-25.04c2.12-4.42,3.6-9.04,4.32-13.95c4.53-31.13,9.16-62.24,13.77-93.36
		c4.08-27.54,8.19-55.08,12.29-82.62c0.5-3.36,0.97-6.73,1.63-10.06c1.05-5.38,4.27-8.66,9.78-9.45c2.09-0.3,4.21-0.62,6.32-0.63
		c18.71-0.05,37.43-0.05,56.14,0c2.11,0.01,4.25,0.24,6.31,0.66c7.67,1.56,11.6,6.98,10.62,14.78c-0.72,5.69-1.67,11.36-2.51,17.03
		c-2.38,15.98-4.79,31.95-7.15,47.93c-3.26,22.08-6.47,44.17-9.74,66.24c-2.27,15.35-4.45,30.71-6.94,46.02
		c-2.88,17.74-7.94,34.8-16.79,50.58c-8.39,14.96-18.66,28.4-31.85,39.5c-18.1,15.24-38.77,24.99-61.91,29.96
		c-24.52,5.26-48.68,4.36-72.28-3.96c-31.4-11.06-52.07-32.56-61.52-64.78c-5.69-19.41-5.96-38.94-3-58.73
		c4.65-31.11,9.19-62.24,13.78-93.36c3.82-25.86,7.71-51.72,11.42-77.59c1.51-10.5,5.6-14.25,16.55-14.3
		C460.13,90.37,469.7,90.4,479.27,90.4z"/>
	<path class="st0" d="M1110.49,170.72c-1.21-0.34-1.98-0.71-2.77-0.75c-1.91-0.11-3.83-0.08-5.74-0.08
		c-29.78,0-59.55,0.01-89.33-0.02c-2.54,0-5.13-0.01-7.63-0.41c-7.53-1.21-11.55-6.34-10.95-13.89c0.24-2.96,0.81-5.89,1.25-8.84
		c2.08-14.09,4.15-28.18,6.26-42.27c0.28-1.89,0.61-3.79,1.17-5.61c1.23-3.94,3.82-6.61,7.94-7.47c2.28-0.47,4.61-0.72,6.92-0.95
		c1.26-0.13,2.55-0.03,3.83-0.03c72.1,0,144.2-0.01,216.3,0.04c3.38,0,6.83,0.17,10.11,0.87c6.52,1.41,10.21,7.39,9.08,13.96
		c-0.56,3.26-2.2,5.93-4.18,8.48c-7.69,9.91-15.38,19.82-23.03,29.76c-33.58,43.64-67.14,87.29-100.72,130.94
		c-10.5,13.65-21.01,27.29-31.5,40.95c-0.85,1.11-1.52,2.35-2.46,3.82c2.23,1.13,4.14,0.8,5.96,0.8
		c22.33,0.02,44.66,0.02,66.99,0.02c7.44,0,14.89-0.04,22.33,0.03c2.11,0.02,4.21,0.34,6.31,0.59c7.9,0.94,11.7,9.02,10.69,14.88
		c-1.01,5.86-1.77,11.77-2.65,17.66c-1.6,10.72-3.19,21.45-4.82,32.17c-0.25,1.68-0.59,3.35-0.98,5c-1.2,5.14-4.54,8.06-9.66,8.83
		c-2.3,0.35-4.66,0.35-6.99,0.35c-29.35,0.02-58.7,0.01-88.05,0.01c-42.32,0-84.65,0-126.97-0.01c-2.34,0-4.68-0.01-7.01-0.19
		c-10.98-0.88-13.47-12.76-9.56-19.04c0.79-1.26,1.63-2.49,2.54-3.67c37.77-49.26,75.56-98.52,113.33-147.78
		c13.84-18.05,27.64-36.13,41.44-54.21C1108.83,173.53,1109.51,172.26,1110.49,170.72z"/>
	<path class="st0" d="M89.74,390.12c11.03-16.26,82.87-115.68,96.7-134.75c1.97-2.72,6.46-5.1,10.55-1.5
		c0.2,0.18,3.82,3.5,4.01,3.67c18.45,16.36,31.8,27.47,50.23,43.85c0.86,0.76,1.73,1.5,2.62,2.24c1.88,1.56,4.7,1.19,6.07-0.82
		c0.5-0.73,0.94-1.47,1.44-2.16c15.1-20.82,30.15-41.68,45.21-62.53c18.8-26.02,37.59-52.04,56.41-78.04l0.03-0.04
		c1.85-2.55,5.72-2.15,7.07,0.69c0.06,0.12,0.11,0.24,0.17,0.36c5.49,10.9,8.81,22.54,11.41,34.4c4.26,19.42,3.28,38.81-0.28,58.25
		c-5.78,31.53-19.67,59.08-40.26,83.41c-20.18,23.86-44.88,41.48-74.14,52.41c-17.02,6.36-34.68,9.97-52.98,9.96
		c-36.99-0.02-73.98,0.03-110.97,0.02c-1.91,0-3.83-0.09-5.71-0.39c-3.29-0.51-5.92-1.9-7.6-4.42
		C88.78,393.34,88.79,391.51,89.74,390.12z"/>
	<path class="st0" d="M249.45,243.24c-0.39,0.7-2,3.17-5.24,0.78c-1.74-1.29-1.13-0.73-2.53-1.92c-18.57-15.9-34.45-29.58-53-45.52
		c-5.24-4.73-10.36-2.56-12.91,3.2c-12.05,24.86-22.27,45.61-34.3,70.48c-16.38,33.86-32.77,67.72-49.18,101.57
		c-1.5,3.42-3.57,2.56-3.35,1l0,0c2.39-16.4,4.8-32.8,7.22-49.19c3.63-24.6,7.26-49.19,10.89-73.79
		c3.63-24.6,7.24-49.19,10.86-73.79c3.28-22.28,6.55-44.57,9.85-66.85c0.4-2.73,0.77-5.48,1.43-8.16c1.28-5.17,4.27-8.74,9.83-9.54
		c2.09-0.3,4.21-0.57,6.32-0.57c36.57-0.03,73.13-0.21,109.7,0.05c21.33,0.15,41.73,4.78,60.78,14.67c0.13,0.07,0.26,0.14,0.39,0.21
		C315.02,108.49,272.18,196.33,249.45,243.24z"/>
</g>
</svg>
