
<svg version="1.0" xmlns="http://www.w3.org/2000/svg"
 width="280.000000pt" height="280.000000pt" viewBox="0 0 280.000000 280.000000"
 preserveAspectRatio="xMidYMid meet">

<g transform="translate(0.000000,280.000000) scale(0.100000,-0.100000)"
fill="#000" stroke="none">
<path d="M1325 2586 c-38 -24 -224 -132 -412 -241 l-343 -197 0 -478 0 -478
415 -240 416 -240 412 238 412 238 0 482 0 482 -255 147 c-140 81 -326 189
-414 239 -87 51 -159 92 -160 91 0 0 -32 -20 -71 -43z m480 -233 l380 -220 0
-463 0 -462 -380 -220 c-209 -121 -387 -222 -396 -225 -8 -2 -191 98 -407 222
l-392 227 0 458 0 458 308 177 c169 98 343 200 387 226 44 27 89 47 100 45 11
-2 191 -102 400 -223z"/>
<path d="M1260 2021 l0 -340 -42 -23 c-64 -35 -101 -95 -106 -172 -5 -71 14
-120 65 -168 73 -70 204 -76 274 -12 19 17 19 18 -7 45 l-26 27 -34 -20 c-53
-31 -118 -21 -161 26 -18 20 -33 40 -33 46 0 6 42 10 109 10 l109 0 4 30 c3
17 2 32 0 35 -3 3 -54 5 -114 5 -59 0 -108 3 -108 7 0 3 11 21 25 39 41 54
121 67 181 28 18 -13 23 -11 48 15 l27 29 -34 21 c-19 11 -48 24 -66 27 l-31
7 0 98 0 99 95 0 95 0 0 40 0 40 -75 0 -75 0 0 40 0 40 61 0 60 0 -3 38 -3 37
-57 3 -58 3 0 39 0 40 78 0 78 0 -4 40 -4 40 -94 0 -94 0 0 40 0 40 -40 0 -40
0 0 -339z"/>
<path d="M1507 1694 c-4 -4 -7 -97 -7 -206 l0 -198 125 0 125 0 0 40 0 40 -80
0 -80 0 -2 163 -3 162 -35 3 c-20 2 -39 0 -43 -4z"/>
<path d="M1790 1495 l0 -205 123 0 122 0 -1 37 -1 38 -82 3 -81 3 0 164 0 165
-40 0 -40 0 0 -205z"/>
<path d="M920 1680 c-102 -18 -171 -101 -171 -204 0 -66 18 -111 61 -153 66
-65 158 -79 244 -38 47 23 55 41 28 68 -21 20 -23 20 -57 4 -77 -37 -151 -13
-186 61 -27 56 -19 104 25 148 44 44 91 52 149 26 l45 -20 23 24 c18 20 20 26
9 39 -29 35 -109 56 -170 45z"/>
<path d="M1131 1136 c-17 -20 -6 -50 25 -71 29 -19 22 -39 -12 -31 -18 5 -24
2 -24 -9 0 -13 9 -15 38 -13 31 2 38 7 40 28 3 17 -4 31 -23 46 -30 24 -26 49
7 38 15 -4 19 -2 16 7 -6 20 -52 23 -67 5z"/>
<path d="M1258 1143 c-3 -4 -13 -34 -23 -65 -19 -58 -14 -88 9 -55 16 21 55
22 62 2 4 -8 12 -15 19 -15 20 0 -27 134 -47 138 -9 2 -18 -1 -20 -5z m31 -65
c1 -5 -6 -8 -15 -8 -11 0 -14 5 -10 16 3 9 6 21 7 27 0 12 17 -20 18 -35z"/>
<path d="M1355 1138 c-9 -28 0 -121 13 -125 7 -3 12 5 12 21 0 33 17 33 32 1
6 -14 17 -25 25 -25 17 0 16 4 -3 42 -15 29 -15 34 0 59 19 33 20 39 3 39 -7
0 -22 -15 -32 -32 l-20 -33 -3 33 c-3 32 -19 44 -27 20z"/>
<path d="M1480 1081 l0 -71 40 0 c22 0 40 5 40 10 0 6 -11 10 -25 10 -18 0
-25 5 -25 20 0 13 7 20 20 20 11 0 20 5 20 10 0 6 -9 10 -20 10 -26 0 -26 28
0 32 35 5 27 23 -12 26 l-38 3 0 -70z"/>
<path d="M1601 1131 c-27 -27 -28 -82 -2 -105 22 -20 72 -18 79 3 3 9 -2 11
-17 6 -29 -9 -51 11 -51 45 0 34 19 51 49 43 18 -4 22 -2 19 8 -7 23 -54 23
-77 0z"/>
<path d="M867 652 c-3 -4 -2 -39 1 -77 l7 -70 5 49 c7 66 30 75 30 12 0 -25 5
-46 10 -46 6 0 10 19 10 43 l0 43 50 3 c44 2 50 0 50 -18 0 -17 -5 -19 -35
-14 -32 5 -35 4 -35 -19 0 -14 7 -31 15 -38 9 -8 15 -9 15 -2 0 6 -4 14 -10
17 -15 10 -12 35 5 35 8 0 15 -7 15 -16 0 -14 3 -14 15 -4 13 10 15 9 17 -11
0 -13 4 -4 7 21 l6 45 44 0 c53 0 68 -22 19 -27 -38 -4 -50 -35 -22 -59 16
-13 16 -12 5 10 -15 27 -3 45 25 39 12 -2 21 -14 24 -33 3 -25 5 -23 10 18 7
61 23 61 31 0 l6 -48 1 46 c1 25 7 50 14 57 9 9 -20 12 -133 12 -133 0 -147 2
-164 20 -19 21 -31 25 -38 12z m33 -22 c0 -5 -7 -10 -15 -10 -8 0 -15 5 -15
10 0 6 7 10 15 10 8 0 15 -4 15 -10z"/>
<path d="M1583 640 c-5 -19 -14 -20 -176 -20 -94 0 -167 -3 -163 -7 4 -5 13
-8 19 -8 7 0 14 -11 15 -24 3 -18 0 -22 -12 -18 -9 4 -16 3 -16 -1 1 -10 37
-52 45 -52 4 0 2 7 -5 15 -15 18 -5 35 21 35 14 0 19 -7 21 -27 0 -16 4 -5 7
22 5 42 10 51 29 53 17 3 22 -2 22 -17 0 -12 -4 -21 -10 -21 -5 0 -10 -9 -10
-20 0 -23 28 -27 36 -5 8 20 33 19 41 -1 3 -8 0 -26 -8 -40 -11 -21 -10 -27 4
-41 13 -13 19 -15 29 -5 9 9 7 12 -10 12 -23 0 -30 14 -12 25 6 3 10 31 10 61
l0 54 35 0 c19 0 35 -4 35 -10 0 -5 -6 -10 -14 -10 -21 0 -38 -27 -31 -50 4
-12 15 -20 29 -20 12 0 27 -5 34 -12 9 -9 12 -9 12 3 0 23 -16 43 -24 30 -4
-6 -14 -11 -22 -11 -20 0 -18 39 4 47 9 4 22 13 28 22 21 28 44 5 46 -46 l1
-48 4 45 c3 25 8 48 12 53 7 7 23 -17 35 -57 5 -13 13 -17 31 -14 14 3 25 1
25 -3 0 -5 5 -9 10 -9 6 0 10 6 9 13 -1 6 -1 27 0 44 1 28 4 32 23 30 28 -5
33 -20 13 -37 -8 -7 -15 -19 -15 -26 0 -19 29 -18 36 1 10 26 42 18 47 -12 2
-18 5 -10 6 19 1 33 6 50 19 57 13 8 -2 10 -58 11 -58 0 -82 5 -105 20 -40 27
-95 27 -102 0z m80 -1 c29 -16 37 -28 37 -60 0 -30 -27 -47 -44 -28 -8 8 -7
13 2 16 10 4 8 9 -5 19 -17 13 -17 13 0 14 11 0 17 6 14 13 -2 7 -18 11 -40 9
-34 -3 -46 5 -30 21 10 11 42 8 66 -4z m-335 -52 c2 -12 -3 -17 -17 -17 -12 0
-21 6 -21 13 0 31 32 34 38 4z m117 3 c0 -8 -8 -16 -17 -18 -13 -2 -18 3 -18
18 0 15 5 20 18 18 9 -2 17 -10 17 -18z m373 -3 c2 -12 -3 -17 -17 -17 -15 0
-21 6 -21 21 0 25 33 22 38 -4z m-48 -31 c0 -3 -4 -8 -10 -11 -5 -3 -10 -1
-10 4 0 6 5 11 10 11 6 0 10 -2 10 -4z"/>
<path d="M2293 653 c-7 -2 -13 -11 -13 -19 0 -11 -29 -14 -162 -14 -126 0
-159 -3 -150 -12 16 -16 15 -28 -2 -28 -7 0 -16 9 -19 20 -3 13 -13 20 -29 19
l-23 0 25 -10 c25 -10 25 -11 5 -25 -19 -14 -19 -16 -2 -25 26 -15 21 -32 -8
-27 -25 5 -34 -5 -15 -17 18 -11 50 6 50 26 0 27 30 24 32 -3 0 -13 4 -3 7 22
8 58 24 54 32 -7 l5 -48 5 50 4 50 44 0 c27 0 46 -5 49 -12 2 -9 -7 -13 -26
-13 -34 0 -55 -19 -42 -39 10 -17 40 -7 40 14 0 8 7 15 15 15 10 0 16 -11 17
-32 1 -24 3 -19 7 17 5 38 10 51 25 53 30 6 44 -17 21 -34 -20 -15 -20 -15 -1
-30 11 -8 28 -12 38 -8 13 4 18 0 20 -13 0 -10 4 4 7 32 4 37 11 51 24 53 14
3 17 -5 19 -50 l1 -53 6 50 6 50 44 0 c53 0 68 -22 19 -27 -38 -4 -50 -35 -22
-59 16 -13 16 -12 5 10 -15 27 -3 45 25 39 11 -2 21 -15 25 -33 5 -24 7 -20 8
22 1 31 6 53 14 56 9 4 9 6 -1 6 -8 1 -25 10 -39 21 -24 19 -63 25 -90 13z
m77 -18 c24 -14 23 -14 -27 -15 -49 0 -63 7 -46 23 11 11 46 7 73 -8z m-132
-58 c3 -23 0 -27 -23 -27 -24 0 -25 2 -11 15 8 9 12 23 9 32 -4 11 -2 14 8 11
8 -2 15 -17 17 -31z"/>
<path d="M223 555 c0 -44 2 -61 4 -37 2 23 2 59 0 80 -2 20 -4 1 -4 -43z"/>
<path d="M273 555 c0 -44 2 -61 4 -37 2 23 2 59 0 80 -2 20 -4 1 -4 -43z"/>
<path d="M2520 555 c0 -43 4 -75 10 -75 6 0 10 32 10 75 0 43 -4 75 -10 75 -6
0 -10 -32 -10 -75z"/>
<path d="M2573 555 c0 -44 2 -61 4 -37 2 23 2 59 0 80 -2 20 -4 1 -4 -43z"/>
<path d="M385 613 c48 -11 51 -14 32 -27 -16 -13 -16 -14 3 -19 33 -8 24 -35
-12 -39 -28 -3 -30 -5 -14 -13 32 -14 51 7 48 54 -2 41 -2 41 30 39 46 -2 53
-8 26 -22 -15 -7 -23 -20 -23 -36 0 -20 6 -26 28 -28 15 -2 27 -8 27 -13 0 -5
5 -9 11 -9 6 0 8 9 3 23 -9 30 -14 34 -24 18 -10 -17 -43 -6 -38 12 3 6 14 16
26 22 12 5 22 15 22 22 0 16 56 17 66 1 4 -6 -2 -17 -12 -25 -19 -14 -19 -15
0 -29 11 -8 28 -12 38 -8 11 3 19 0 20 -8 0 -7 4 7 7 32 4 32 11 46 24 48 24
5 33 -26 12 -42 -10 -7 -15 -18 -11 -24 10 -17 36 -15 36 3 0 8 9 15 20 15 13
0 20 -7 20 -20 0 -11 4 -20 9 -20 6 0 9 18 8 40 -1 45 10 63 24 37 6 -9 17
-17 24 -17 8 0 15 -5 15 -11 0 -6 -7 -9 -15 -5 -20 7 -19 -7 3 -27 20 -18 18
-20 24 48 l3 30 -240 2 c-132 0 -231 -1 -220 -4z m250 -34 c0 -18 -6 -25 -25
-27 -20 -3 -23 -1 -12 9 6 7 12 21 12 32 0 10 5 17 13 15 6 -3 12 -16 12 -29z
m113 8 c2 -12 -3 -17 -17 -17 -12 0 -21 6 -21 13 0 31 32 34 38 4z m82 13 c0
-5 -4 -10 -10 -10 -5 0 -10 5 -10 10 0 6 5 10 10 10 6 0 10 -4 10 -10z m-130
-50 c0 -5 -5 -10 -11 -10 -5 0 -7 5 -4 10 3 6 8 10 11 10 2 0 4 -4 4 -10z"/>
<path d="M1830 490 c8 -5 20 -10 25 -10 6 0 3 5 -5 10 -8 5 -19 10 -25 10 -5
0 -3 -5 5 -10z"/>
<path d="M550 480 c8 -5 20 -10 25 -10 6 0 3 5 -5 10 -8 5 -19 10 -25 10 -5 0
-3 -5 5 -10z"/>
<path d="M1560 480 c8 -5 20 -10 25 -10 6 0 3 5 -5 10 -8 5 -19 10 -25 10 -5
0 -3 -5 5 -10z"/>
</g>
</svg>
