<svg width="18820" height="19126" viewBox="0 0 18820 19126" fill="none" xmlns="http://www.w3.org/2000/svg">
<path d="M2 6502.77C998.182 5961.12 1309.99 6534.59 2306.17 5992.94C3302.35 5451.29 2990.55 4877.83 3986.44 4336.33C4982.34 3794.84 5294.43 4368.15 6290.61 3826.5C7286.8 3284.86 6974.99 2711.39 7971.17 2169.75C8967.35 1628.1 9279.16 2201.56 10275.6 1659.76C11272.1 1117.96 10960 544.647 11956.2 2.99999" stroke="#3766D0" stroke-width="5" stroke-miterlimit="10"/>
<path d="M2497.72 11092.8C3493.9 10551.2 3805.71 11124.6 4801.89 10583C5798.07 10041.3 5486.27 9467.88 6482.16 8926.39C7478.06 8384.9 7790.15 8958.2 8786.33 8416.56C9782.51 7874.91 9470.71 7301.45 10466.9 6759.8C11463.1 6218.15 11774.9 6791.62 12771.3 6249.81C13767.8 5708.01 13455.7 5134.7 14451.9 4593.05" stroke="#3766D0" stroke-width="5" stroke-miterlimit="10"/>
<path d="M1249.86 8797.79C2246.04 8256.15 2557.85 8829.61 3554.03 8287.97C4550.21 7746.32 4238.41 7172.85 5234.3 6631.36C6230.2 6089.87 6542.29 6663.18 7538.47 6121.53C8534.66 5579.88 8222.85 5006.42 9219.03 4464.77C10215.2 3923.13 10527 4496.59 11523.5 3954.79C12520 3412.98 12207.9 2839.67 13204 2298.03" stroke="#3766D0" stroke-width="5" stroke-miterlimit="10"/>
<path d="M3745.58 13387.8C4741.76 12846.2 5054.2 13420.8 6050.38 12879.2C7046.57 12337.5 6734.13 11762.9 7730.02 11221.4C8725.92 10679.9 9038.64 11254.4 10034.8 10712.8C11031 10171.1 10718.6 9596.47 11714.7 9054.83C12710.9 8513.18 13023.4 9087.81 14019.8 8546.01C15016.3 8004.2 14703.6 7429.73 15699.8 6888.08" stroke="#3766D0" stroke-width="5" stroke-miterlimit="10"/>
<path d="M5461.78 16544.2C6457.96 16002.6 6769.77 16576.1 7765.95 16034.4C8762.13 15492.8 8450.33 14919.3 9446.22 14377.8C10442.1 13836.3 10754.2 14409.6 11750.4 13868C12746.6 13326.3 12434.8 12752.9 13431 12211.2C14427.1 11669.6 14738.9 12243 15735.4 11701.2C16731.9 11159.4 16419.8 10586.1 17416 10044.5" stroke="#3766D0" stroke-width="5" stroke-miterlimit="10"/>
<path d="M625.613 7649.7C1621.8 7108.05 1934.24 7682.68 2930.42 7141.04C3926.6 6599.39 3614.16 6024.76 4610.06 5483.27C5605.95 4941.77 5918.68 5516.25 6914.86 4974.6C7911.04 4432.95 7598.6 3858.32 8594.78 3316.68C9590.97 2775.03 9903.41 3349.66 10899.9 2807.86C11896.3 2266.05 11583.6 1691.58 12579.8 1149.93" stroke="#3766D0" stroke-width="5" stroke-miterlimit="10"/>
<path d="M3121.97 12240.9C4118.15 11699.3 4429.96 12272.7 5426.14 11731.1C6422.32 11189.4 6110.51 10616 7106.41 10074.5C8102.31 9532.99 8414.4 10106.3 9410.58 9564.65C10406.8 9023.01 10095 8449.54 11091.1 7907.89C12087.3 7366.25 12399.1 7939.71 13395.6 7397.91C14392.1 6856.11 14080 6282.8 15076.2 5741.15" stroke="#3766D0" stroke-width="5" stroke-miterlimit="10"/>
<path d="M1874.1 9945.89C2870.29 9404.24 3182.09 9977.71 4178.27 9436.06C5174.46 8894.41 4862.65 8320.95 5858.55 7779.46C6854.44 7237.97 7166.53 7811.28 8162.72 7269.63C9158.9 6727.98 8847.09 6154.52 9843.28 5612.87C10839.5 5071.22 11151.3 5644.69 12147.7 5102.88C13144.2 4561.08 12832.1 3987.77 13828.3 3446.12" stroke="#3766D0" stroke-width="5" stroke-miterlimit="10"/>
<path d="M4369.83 14535.9C5366.01 13994.3 5677.81 14567.8 6674 14026.1C7670.18 13484.5 7358.37 12911 8354.27 12369.5C9350.16 11828 9662.26 12401.3 10658.4 11859.7C11654.6 11318 11342.8 10744.6 12339 10202.9C13335.2 9661.28 13647 10234.7 14643.5 9692.94C15639.9 9151.13 15327.8 8577.83 16324 8036.18" stroke="#3766D0" stroke-width="5" stroke-miterlimit="10"/>
<path d="M6085.39 17691.2C7081.58 17149.5 7394.02 17724.2 8390.2 17182.5C9386.38 16640.9 9073.94 16066.2 10069.8 15524.7C11065.7 14983.2 11378.5 15557.7 12374.6 15016.1C13370.8 14474.4 13058.4 13899.8 14054.6 13358.1C15050.7 12816.5 15363.2 13391.1 16359.7 12849.3C17356.1 12307.5 17043.4 11733 18039.6 11191.4" stroke="#3766D0" stroke-width="5" stroke-miterlimit="10"/>
<path d="M313.805 7076.23C1309.99 6534.59 1621.79 7108.05 2617.98 6566.4C3614.16 6024.76 3302.35 5451.29 4298.25 4909.8C5294.14 4368.31 5606.24 4941.62 6602.42 4399.97C7598.6 3858.32 7286.79 3284.86 8282.98 2743.21C9279.16 2201.56 9590.97 2775.03 10587.4 2233.22C11583.9 1691.42 11271.8 1118.11 12268 576.465" stroke="#3766D0" stroke-width="5" stroke-miterlimit="10"/>
<path d="M2809.53 11666.3C3805.71 11124.6 4118.15 11699.3 5114.33 11157.6C6110.51 10616 5798.07 10041.3 6793.97 9499.85C7789.86 8958.36 8102.59 9532.84 9098.77 8991.19C10095 8449.54 9782.51 7874.91 10778.7 7333.26C11774.9 6791.62 12087.3 7366.25 13083.8 6824.44C14080.3 6282.64 13767.5 5708.16 14763.7 5166.52" stroke="#3766D0" stroke-width="5" stroke-miterlimit="10"/>
<path d="M1561.67 9371.26C2557.85 8829.61 2870.29 9404.24 3866.47 8862.6C4862.65 8320.95 4550.21 7746.32 5546.11 7204.83C6542.01 6663.33 6854.73 7237.81 7850.92 6696.16C8847.1 6154.52 8534.66 5579.88 9530.84 5038.24C10527 4496.59 10839.5 5071.22 11835.9 4529.42C12832.4 3987.61 12519.7 3413.14 13515.9 2871.49" stroke="#3766D0" stroke-width="5" stroke-miterlimit="10"/>
<path d="M4058.02 13962.5C5054.2 13420.8 5366.01 13994.3 6362.19 13452.6C7358.37 12911 7046.56 12337.5 8042.46 11796C9038.36 11254.6 9350.45 11827.9 10346.6 11286.2C11342.8 10744.6 11031 10171.1 12027.2 9629.45C13023.4 9087.81 13335.2 9661.27 14331.6 9119.47C15328.1 8577.67 15016 8004.36 16012.2 7462.71" stroke="#3766D0" stroke-width="5" stroke-miterlimit="10"/>
<path d="M5773.59 17117.7C6769.77 16576.1 7081.58 17149.5 8077.76 16607.9C9073.94 16066.2 8762.13 15492.8 9758.03 14951.3C10753.9 14409.8 11066 14983.1 12062.2 14441.4C13058.4 13899.8 12746.6 13326.3 13742.8 12784.7C14738.9 12243 15050.7 12816.5 16047.2 12274.7C17043.7 11732.9 16731.6 11159.6 17727.8 10617.9" stroke="#3766D0" stroke-width="5" stroke-miterlimit="10"/>
<path d="M938.053 8224.33C1934.24 7682.68 2246.04 8256.15 3242.22 7714.5C4238.41 7172.85 3926.6 6599.39 4922.5 6057.89C5918.39 5516.4 6230.48 6089.71 7226.67 5548.07C8222.85 5006.42 7911.04 4432.95 8907.22 3891.31C9903.41 3349.66 10215.2 3923.12 11211.7 3381.32C12208.2 2839.52 11896.1 2266.21 12892.2 1724.56" stroke="#3766D0" stroke-width="5" stroke-miterlimit="10"/>
<path d="M3433.77 12814.4C4429.96 12272.7 4741.76 12846.2 5737.94 12304.6C6734.13 11762.9 6422.32 11189.4 7418.22 10647.9C8414.11 10106.5 8726.2 10679.8 9722.39 10138.1C10718.6 9596.47 10406.8 9023.01 11402.9 8481.36C12399.1 7939.71 12710.9 8513.18 13707.4 7971.38C14703.9 7429.57 14391.8 6856.26 15388 6314.62" stroke="#3766D0" stroke-width="5" stroke-miterlimit="10"/>
<path d="M5149.97 15970.8C6146.16 15429.1 6457.96 16002.6 7454.15 15460.9C8450.33 14919.3 8138.52 14345.8 9134.42 13804.3C10130.3 13262.8 10442.4 13836.2 11438.6 13294.5C12434.8 12752.9 12123 12179.4 13119.1 11637.8C14115.3 11096.1 14427.1 11669.6 15423.6 11127.8C16420.1 10586 16108 10012.7 17104.2 9471.01" stroke="#3766D0" stroke-width="5" stroke-miterlimit="10"/>
<path d="M2185.91 10519.4C3182.09 9977.71 3493.9 10551.2 4490.08 10009.5C5486.27 9467.88 5174.46 8894.41 6170.35 8352.92C7166.25 7811.43 7478.34 8384.74 8474.53 7843.09C9470.71 7301.45 9158.9 6727.98 10155.1 6186.33C11151.3 5644.69 11463.1 6218.15 12459.5 5676.35C13456 5134.54 13143.9 4561.24 14140.1 4019.59" stroke="#3766D0" stroke-width="5" stroke-miterlimit="10"/>
<path d="M4681.63 15109.4C5677.81 14567.8 5989.62 15141.2 6985.8 14599.6C7981.98 14057.9 7670.18 13484.5 8666.07 12943C9661.97 12401.5 9974.06 12974.8 10970.2 12433.1C11966.4 11891.5 11654.6 11318 12650.8 10776.4C13647 10234.7 13958.8 10808.2 14955.3 10266.4C15951.7 9724.6 15639.6 9151.29 16635.8 8609.64" stroke="#3766D0" stroke-width="5" stroke-miterlimit="10"/>
<path d="M6397.83 18265.8C7394.01 17724.2 7705.82 18297.6 8702 17756C9698.19 17214.3 9386.38 16640.9 10382.3 16099.4C11378.2 15557.9 11690.3 16131.2 12686.4 15589.5C13682.6 15047.9 13370.8 14474.4 14367 13932.8C15363.2 13391.1 15675 13964.6 16671.5 13422.8C17667.9 12881 17355.8 12307.7 18352 11766" stroke="#3766D0" stroke-width="5" stroke-miterlimit="10"/>
<path d="M157.904 6789.5C1154.09 6247.85 1465.89 6821.32 2462.08 6279.67C3458.26 5738.02 3146.45 5164.56 4142.35 4623.07C5138.24 4081.58 5450.34 4654.88 6446.52 4113.24C7442.7 3571.59 7130.89 2998.12 8127.08 2456.48C9123.26 1914.83 9435.06 2488.3 10431.5 1946.49C11428 1404.69 11115.9 831.38 12112.1 289.732" stroke="#3766D0" stroke-width="5" stroke-miterlimit="10"/>
<path d="M2653.62 11379.6C3649.8 10837.9 3962.24 11412.5 4958.43 10870.9C5954.61 10329.2 5642.17 9754.61 6638.06 9213.12C7633.96 8671.63 7946.69 9246.1 8942.87 8704.46C9939.05 8162.81 9626.61 7588.18 10622.8 7046.53C11619 6504.89 11931.4 7079.52 12927.9 6537.71C13924.4 5995.91 13611.6 5421.43 14607.8 4879.79" stroke="#3766D0" stroke-width="5" stroke-miterlimit="10"/>
<path d="M1405.76 9084.53C2401.94 8542.88 2713.75 9116.35 3709.93 8574.7C4706.11 8033.05 4394.31 7459.59 5390.2 6918.09C6386.1 6376.6 6698.19 6949.91 7694.37 6408.26C8690.56 5866.62 8378.75 5293.15 9374.93 4751.5C10371.1 4209.86 10682.9 4783.32 11679.4 4241.52C12675.9 3699.72 12363.8 3126.41 13359.9 2584.76" stroke="#3766D0" stroke-width="5" stroke-miterlimit="10"/>
<path d="M3901.48 13674.6C4897.66 13132.9 5210.1 13707.6 6206.29 13165.9C7202.47 12624.3 6890.03 12049.6 7885.93 11508.1C8881.82 10966.7 9194.55 11541.1 10190.7 10999.5C11186.9 10457.8 10874.5 9883.21 11870.7 9341.56C12866.8 8799.91 13179.3 9374.54 14175.7 8832.74C15172.2 8290.94 14859.5 7716.46 15855.7 7174.81" stroke="#3766D0" stroke-width="5" stroke-miterlimit="10"/>
<path d="M5617.68 16831C6613.86 16289.3 6925.67 16862.8 7921.85 16321.1C8918.03 15779.5 8606.23 15206 9602.12 14664.5C10598 14123 10910.1 14696.4 11906.3 14154.7C12902.5 13613.1 12590.7 13039.6 13586.9 12498C14583 11956.3 14894.8 12529.8 15891.3 11988C16887.8 11446.2 16575.7 10872.9 17571.9 10331.2" stroke="#3766D0" stroke-width="5" stroke-miterlimit="10"/>
<path d="M782.152 7937.6C1778.33 7395.95 2090.14 7969.41 3086.32 7427.77C4082.51 6886.12 3770.7 6312.65 4766.6 5771.16C5762.49 5229.67 6074.58 5802.98 7070.77 5261.33C8066.95 4719.69 7755.14 4146.22 8751.32 3604.57C9747.51 3062.93 10059.3 3636.39 11055.8 3094.59C12052.3 2552.78 11740.2 1979.48 12736.3 1437.83" stroke="#3766D0" stroke-width="5" stroke-miterlimit="10"/>
<path d="M3277.87 12527.7C4274.05 11986 4585.86 12559.5 5582.04 12017.8C6578.22 11476.2 6266.42 10902.7 7262.31 10361.2C8258.21 9819.73 8570.3 10393 9566.48 9851.39C10562.7 9309.74 10250.9 8736.28 11247 8194.63C12243.2 7652.98 12555 8226.45 13551.5 7684.64C14548 7142.84 14235.9 6569.53 15232.1 6027.88" stroke="#3766D0" stroke-width="5" stroke-miterlimit="10"/>
<path d="M4993.44 15682.9C5989.62 15141.2 6302.06 15715.9 7298.24 15174.2C8294.43 14632.6 7981.99 14057.9 8977.88 13516.4C9973.78 12975 10286.5 13549.4 11282.7 13007.8C12278.9 12466.1 11966.4 11891.5 12962.6 11349.9C13958.8 10808.2 14271.2 11382.8 15267.7 10841C16264.2 10299.2 15951.4 9724.76 16947.6 9183.11" stroke="#3766D0" stroke-width="5" stroke-miterlimit="10"/>
<path d="M2030.01 10232.6C3026.19 9690.98 3338 10264.4 4334.18 9722.8C5330.36 9181.15 5018.56 8607.68 6014.45 8066.19C7010.35 7524.7 7322.44 8098.01 8318.62 7556.36C9314.81 7014.72 9003 6441.25 9999.18 5899.6C10995.4 5357.96 11307.2 5931.42 12303.6 5389.62C13300.1 4847.81 12988 4274.5 13984.2 3732.86" stroke="#3766D0" stroke-width="5" stroke-miterlimit="10"/>
<path d="M4525.73 14822.7C5521.91 14281 5833.72 14854.5 6829.9 14312.8C7826.08 13771.2 7514.28 13197.7 8510.17 12656.2C9506.07 12114.8 9818.16 12688.1 10814.3 12146.4C11810.5 11604.8 11498.7 11031.3 12494.9 10489.7C13491.1 9948.01 13802.9 10521.5 14799.4 9979.67C15795.8 9437.86 15483.7 8864.56 16479.9 8322.91" stroke="#3766D0" stroke-width="5" stroke-miterlimit="10"/>
<path d="M6241.93 17979.1C7238.11 17437.4 7549.92 18010.9 8546.1 17469.2C9542.28 16927.6 9230.48 16354.1 10226.4 15812.6C11222.3 15271.1 11534.4 15844.5 12530.5 15302.8C13526.7 14761.2 13214.9 14187.7 14211.1 13646C15207.3 13104.4 15519.1 13677.9 16515.6 13136.1C17512 12594.3 17199.9 12021 18196.1 11479.3" stroke="#3766D0" stroke-width="5" stroke-miterlimit="10"/>
<path d="M469.711 7362.96C1465.89 6821.32 1778.33 7395.95 2774.52 6854.3C3770.7 6312.65 3458.26 5738.02 4454.15 5196.53C5450.05 4655.04 5762.78 5229.52 6758.96 4687.87C7755.14 4146.22 7442.7 3571.59 8438.88 3029.94C9435.06 2488.3 9747.51 3062.93 10744 2521.12C11740.4 1979.32 11427.7 1404.84 12423.9 863.197" stroke="#3766D0" stroke-width="5" stroke-miterlimit="10"/>
<path d="M2966.06 11954.2C3962.24 11412.5 4274.05 11986 5270.23 11444.4C6266.42 10902.7 5954.61 10329.2 6950.51 9787.75C7946.4 9246.26 8258.49 9819.57 9254.68 9277.92C10250.9 8736.28 9939.05 8162.81 10935.2 7621.16C11931.4 7079.52 12243.2 7652.98 13239.7 7111.18C14236.2 6569.37 13924.1 5996.07 14920.3 5454.42" stroke="#3766D0" stroke-width="5" stroke-miterlimit="10"/>
<path d="M1717.57 9657.99C2713.75 9116.34 3026.19 9690.98 4022.37 9149.33C5018.56 8607.68 4706.12 8033.05 5702.01 7491.56C6697.91 6950.07 7010.63 7524.54 8006.82 6982.9C9003 6441.25 8690.56 5866.62 9686.74 5324.97C10682.9 4783.32 10995.4 5357.95 11991.8 4816.15C12988.3 4274.35 12675.6 3699.87 13671.8 3158.22" stroke="#3766D0" stroke-width="5" stroke-miterlimit="10"/>
<path d="M4213.92 14249.2C5210.1 13707.6 5521.91 14281 6518.09 13739.4C7514.28 13197.7 7202.47 12624.3 8198.36 12082.8C9194.26 11541.3 9506.35 12114.6 10502.5 11572.9C11498.7 11031.3 11186.9 10457.8 12183.1 9916.19C13179.3 9374.54 13491.1 9948.01 14487.6 9406.2C15484 8864.4 15171.9 8291.09 16168.1 7749.44" stroke="#3766D0" stroke-width="5" stroke-miterlimit="10"/>
<path d="M5929.49 17404.4C6925.67 16862.8 7238.11 17437.4 8234.29 16895.8C9230.48 16354.1 8918.04 15779.5 9913.93 15238C10909.8 14696.5 11222.6 15271 12218.7 14729.3C13214.9 14187.7 12902.5 13613.1 13898.7 13071.4C14894.8 12529.8 15207.3 13104.4 16203.8 12562.6C17200.2 12020.8 16887.5 11446.3 17883.7 10904.7" stroke="#3766D0" stroke-width="5" stroke-miterlimit="10"/>
<path d="M1093.96 8511.06C2090.14 7969.42 2401.95 8542.88 3398.13 8001.23C4394.31 7459.59 4082.5 6886.12 5078.4 6344.63C6074.3 5803.14 6386.39 6376.45 7382.57 5834.8C8378.75 5293.15 8066.95 4719.69 9063.13 4178.04C10059.3 3636.39 10371.1 4209.86 11367.6 3668.05C12364.1 3126.25 12052 2552.94 13048.1 2011.29" stroke="#3766D0" stroke-width="5" stroke-miterlimit="10"/>
<path d="M3589.67 13101.1C4585.85 12559.5 4897.66 13132.9 5893.84 12591.3C6890.03 12049.6 6578.22 11476.2 7574.11 10934.7C8570.01 10393.2 8882.1 10966.5 9878.29 10424.9C10874.5 9883.21 10562.7 9309.74 11558.8 8768.09C12555 8226.45 12866.8 8799.91 13863.3 8258.11C14859.8 7716.3 14547.7 7142.99 15543.9 6601.35" stroke="#3766D0" stroke-width="5" stroke-miterlimit="10"/>
<path d="M5305.88 16257.5C6302.06 15715.9 6613.86 16289.3 7610.05 15747.7C8606.23 15206 8294.42 14632.6 9290.32 14091.1C10286.2 13549.6 10598.3 14122.9 11594.5 13581.2C12590.7 13039.6 12278.9 12466.1 13275 11924.5C14271.2 11382.8 14583 11956.3 15579.5 11414.5C16576 10872.7 16263.9 10299.4 17260.1 9757.74" stroke="#3766D0" stroke-width="5" stroke-miterlimit="10"/>
<path d="M2341.81 10806.1C3337.99 10264.4 3649.8 10837.9 4645.98 10296.3C5642.17 9754.61 5330.36 9181.15 6326.26 8639.66C7322.15 8098.16 7634.24 8671.47 8630.43 8129.83C9626.61 7588.18 9314.8 7014.71 10311 6473.07C11307.2 5931.42 11619 6504.89 12615.4 5963.08C13611.9 5421.28 13299.8 4847.97 14296 4306.32" stroke="#3766D0" stroke-width="5" stroke-miterlimit="10"/>
<path d="M4837.53 15396.1C5833.72 14854.5 6146.16 15429.1 7142.34 14887.5C8138.52 14345.8 7826.08 13771.2 8821.98 13229.7C9817.87 12688.2 10130.6 13262.7 11126.8 12721C12123 12179.4 11810.5 11604.8 12806.7 11063.1C13802.9 10521.5 14115.3 11096.1 15111.8 10554.3C16108.3 10012.5 15795.5 9438.02 16791.7 8896.38" stroke="#3766D0" stroke-width="5" stroke-miterlimit="10"/>
<path d="M6553.73 18552.5C7549.92 18010.9 7861.72 18584.4 8857.91 18042.7C9854.09 17501.1 9542.28 16927.6 10538.2 16386.1C11534.1 15844.6 11846.2 16417.9 12842.3 15876.3C13838.5 15334.6 13526.7 14761.2 14522.9 14219.5C15519.1 13677.9 15830.9 14251.3 16827.4 13709.5C17823.8 13167.7 17511.7 12594.4 18507.9 12052.8" stroke="#3766D0" stroke-width="5" stroke-miterlimit="10"/>
</svg>
