<?xml version="1.0" standalone="no"?>
<!DOCTYPE svg PUBLIC "-//W3C//DTD SVG 20010904//EN"
 "http://www.w3.org/TR/2001/REC-SVG-20010904/DTD/svg10.dtd">
<svg version="1.0" xmlns="http://www.w3.org/2000/svg"
 width="512.000000pt" height="512.000000pt" viewBox="0 0 512.000000 512.000000"
 preserveAspectRatio="xMidYMid meet">

<g transform="translate(0.000000,512.000000) scale(0.100000,-0.100000)"
fill="#000000" stroke="none">
<path d="M2341 4949 c-478 -53 -911 -257 -1255 -589 -671 -648 -845 -1647
-430 -2479 40 -80 98 -184 129 -231 339 -507 879 -851 1465 -934 235 -33 325
-39 411 -27 46 6 127 15 179 21 378 44 786 222 1088 474 755 629 985 1691 558
2571 -113 231 -246 414 -437 601 -316 307 -698 501 -1133 575 -140 24 -442 33
-575 18z m486 -74 c461 -60 870 -262 1198 -590 412 -411 622 -949 602 -1534
-17 -505 -194 -933 -550 -1333 -38 -43 -73 -78 -77 -78 -8 0 -25 838 -16 847
3 3 11 1 19 -5 25 -21 100 -31 147 -21 105 23 163 99 163 213 0 107 -60 186
-168 223 -45 16 -91 18 -504 14 -486 -4 -523 -7 -605 -55 -144 -85 -146 -313
-3 -388 54 -28 147 -30 195 -4 19 9 35 16 37 14 1 -2 6 -294 10 -649 l7 -645
-84 -26 c-98 -30 -286 -74 -292 -67 -2 2 -9 438 -16 969 -6 531 -13 971 -15
978 -6 16 5 15 48 -3 71 -30 168 -12 221 40 51 50 69 92 67 160 -3 79 -28 133
-83 178 -82 67 -88 68 -518 67 -492 -1 -590 -8 -669 -50 -50 -27 -64 -41 -90
-90 -39 -73 -42 -145 -8 -212 l23 -45 -141 -7 c-77 -3 -178 -6 -224 -6 l-85 0
22 20 c12 12 22 25 22 30 0 6 6 10 14 10 29 0 56 50 56 104 0 29 -5 57 -11 63
-18 18 1 61 48 108 46 47 82 114 83 153 0 31 -18 28 -26 -5 -11 -46 -40 -96
-74 -128 -37 -35 -60 -75 -60 -105 0 -19 -6 -20 -85 -20 -82 0 -85 1 -85 23 0
27 -23 61 -68 101 -53 46 -76 101 -76 176 0 42 6 76 17 97 27 51 87 102 136
117 46 13 68 36 34 36 -34 0 -118 -47 -151 -84 -45 -51 -62 -98 -62 -170 0
-76 35 -154 88 -194 40 -31 69 -89 53 -105 -6 -6 -11 -36 -11 -66 0 -42 5 -60
22 -78 12 -13 26 -23 32 -24 6 0 21 -13 34 -30 l24 -29 -221 0 c-121 0 -222
-3 -225 -8 -2 -4 10 -34 27 -67 l32 -58 400 2 c219 1 403 5 408 8 5 3 20 31
34 63 l25 59 40 -27 c56 -37 161 -44 212 -14 l34 20 6 -422 c4 -231 10 -670
14 -974 7 -548 7 -552 -13 -552 -44 0 -345 89 -367 109 -8 7 -29 1262 -22
1270 3 3 20 -3 39 -12 87 -41 213 -3 261 79 71 121 24 268 -104 331 l-57 28
-474 -2 c-401 -2 -483 -5 -530 -19 -80 -23 -137 -66 -167 -127 -23 -45 -26
-60 -21 -120 6 -85 40 -141 107 -175 53 -26 133 -29 187 -7 20 8 37 14 38 13
1 -2 5 -174 9 -383 l7 -379 -22 19 c-12 11 -48 53 -81 92 -254 311 -417 705
-458 1112 -60 600 158 1213 586 1647 325 328 741 536 1195 598 142 19 391 19
536 1z m220 -1842 c97 -77 66 -224 -47 -227 -53 -1 -90 36 -90 91 0 37 23 73
47 73 18 0 16 -7 -7 -30 -27 -27 -25 -56 5 -85 33 -34 67 -32 99 6 43 51 30
114 -33 156 -19 13 -48 23 -66 23 -41 0 -93 -35 -119 -79 -20 -34 -20 -42 -8
-985 16 -1261 17 -1193 -9 -1201 -11 -4 -22 -5 -24 -3 -2 1 -8 363 -14 803 -6
440 -14 901 -17 1024 l-6 223 -51 -7 c-29 -3 -53 -8 -55 -10 -2 -2 1 -378 7
-837 6 -458 12 -916 14 -1018 2 -181 2 -185 -19 -188 -21 -3 -21 -1 -28 300
-3 167 -8 506 -11 753 -3 248 -8 573 -11 723 l-6 273 -80 -3 -79 -3 1 -245 c0
-135 5 -522 10 -860 5 -338 10 -688 10 -778 l0 -163 -22 3 -23 3 -7 455 c-5
250 -11 709 -15 1020 l-8 565 -49 3 c-27 2 -52 0 -56 -5 -7 -7 -3 -451 15
-1616 l6 -407 -26 0 c-14 0 -27 6 -30 13 -2 6 -9 482 -15 1057 -7 620 -16
1058 -21 1077 -12 37 -68 90 -105 99 -70 18 -149 -44 -149 -118 0 -72 78 -115
125 -68 27 27 26 75 -2 94 -30 21 -15 33 17 12 75 -49 12 -169 -81 -152 -106
20 -114 180 -12 241 31 19 57 20 433 26 582 8 567 9 612 -28z m-1537 -82 c0
-16 -11 -19 -95 -26 -101 -7 -115 -4 -115 26 0 18 8 19 105 19 96 0 105 -2
105 -19z m-9 -70 c-14 -25 -32 -31 -97 -31 -61 0 -94 13 -94 35 0 12 19 15
100 15 96 0 100 -1 91 -19z m-73 -63 c-3 -7 -13 -13 -23 -13 -10 0 -20 6 -22
13 -3 7 5 12 22 12 17 0 25 -5 23 -12z m466 -329 c103 -29 144 -152 75 -225
-49 -52 -137 -35 -158 29 -14 41 -2 81 29 97 30 16 36 6 11 -19 -27 -27 -27
-61 -1 -89 46 -50 125 -7 125 67 0 103 -122 154 -204 86 -36 -31 -63 -97 -57
-138 10 -62 18 -1357 9 -1357 -5 0 -18 6 -28 14 -19 13 -20 37 -26 487 -4 261
-8 547 -8 637 l-1 162 -56 0 -56 0 7 -611 8 -611 -27 17 -26 17 0 197 c0 108
-3 375 -7 594 l-6 398 -81 -3 -81 -3 3 -350 c1 -192 5 -435 9 -540 l6 -189
-24 15 c-33 22 -37 66 -38 465 -1 182 -4 392 -8 467 l-6 137 -49 0 c-30 0 -50
-5 -53 -12 -3 -7 -1 -219 3 -471 4 -251 4 -457 1 -457 -3 0 -16 11 -28 24 -26
28 -28 67 -35 678 -3 334 -4 348 -25 381 -29 47 -67 70 -116 71 -85 2 -147
-85 -112 -159 27 -57 104 -61 127 -6 15 36 7 65 -23 79 -21 11 -20 11 8 9 41
-3 61 -43 45 -93 -16 -48 -50 -68 -103 -61 -81 11 -116 92 -75 175 44 89 30
86 538 93 245 3 452 6 460 7 8 1 33 -3 54 -9z m2236 -7 c46 -23 80 -75 80
-123 0 -76 -41 -119 -114 -119 -41 0 -86 46 -86 89 0 36 26 71 53 71 l21 0
-22 -16 c-29 -20 -30 -74 -2 -99 48 -43 120 -2 120 70 0 134 -184 158 -240 31
-19 -41 -19 -63 -12 -572 l8 -529 -23 -24 c-12 -14 -25 -22 -28 -19 -3 3 -9
230 -13 504 l-7 499 -52 3 c-42 2 -52 0 -55 -14 -2 -9 0 -258 4 -552 6 -496 5
-537 -10 -549 -9 -7 -20 -13 -23 -13 -6 0 -17 451 -22 925 l-2 200 -80 0 -80
0 3 -520 c1 -286 5 -563 8 -615 l6 -96 -27 -12 c-14 -7 -27 -12 -28 -12 -1 0
-3 107 -5 238 -1 130 -5 411 -8 625 l-7 387 -55 0 -55 0 7 -432 c3 -238 7
-532 7 -653 l1 -220 -23 -12 c-13 -7 -25 -11 -26 -9 -2 2 -8 324 -14 717 -11
792 -8 760 -78 806 -83 55 -191 0 -191 -97 1 -84 99 -120 135 -50 20 39 19 47
-11 75 -23 21 -24 25 -9 25 30 0 55 -30 55 -67 0 -47 -16 -72 -55 -89 -98 -41
-181 74 -126 176 36 69 59 74 311 80 124 3 340 7 480 8 226 2 259 0 290 -16z"/>
<path d="M2167 4198 c-65 -88 -147 -228 -147 -250 0 -28 28 -58 53 -58 15 0
17 -21 17 -220 0 -213 -1 -220 -20 -220 -17 0 -20 -7 -20 -45 l0 -45 138 0
c75 0 227 3 338 7 l200 6 -35 33 -36 33 26 1 c15 0 33 -7 40 -17 8 -9 32 -24
54 -34 153 -70 324 60 301 228 -22 165 -227 241 -352 130 -70 -61 -94 -160
-59 -244 8 -20 13 -38 10 -41 -3 -3 -127 -8 -275 -10 l-270 -5 0 222 c0 206 1
221 18 221 10 0 23 5 29 11 7 7 17 8 30 1 12 -7 24 -7 36 0 13 7 22 6 32 -2 9
-8 25 -9 42 -5 40 11 104 12 130 1 15 -6 27 -5 36 3 8 6 27 8 44 5 17 -3 33
-1 37 4 4 7 15 6 33 -3 23 -12 31 -12 48 -1 15 10 24 10 37 2 14 -8 23 -8 39
2 15 10 24 11 32 3 6 -6 19 -11 29 -11 14 0 18 -8 18 -36 0 -28 3 -35 18 -32
11 2 18 14 20 34 2 23 10 33 32 41 26 10 30 16 30 50 0 31 -15 59 -81 156
l-81 117 -274 0 -273 0 -24 -32z m535 -5 c32 -37 118 -202 118 -225 0 -26 -17
-48 -36 -48 -20 0 -44 30 -44 54 0 13 -20 67 -45 120 -25 54 -45 102 -45 107
0 16 36 10 52 -8z m-437 -12 c-3 -11 -24 -61 -45 -112 -22 -51 -40 -102 -40
-115 0 -26 -24 -48 -45 -40 -8 3 -20 16 -26 30 -10 21 -4 38 50 140 54 101 66
116 87 116 20 0 24 -4 19 -19z m115 17 c-6 -68 -50 -272 -60 -278 -18 -11 -47
4 -55 29 -4 15 33 165 60 239 3 9 56 19 55 10z m115 -110 c9 -147 7 -162 -26
-166 -44 -5 -49 12 -42 151 l6 127 28 0 27 0 7 -112z m132 7 c18 -54 33 -111
33 -126 0 -52 -58 -67 -72 -19 -3 14 -14 70 -24 125 -9 55 -19 106 -22 113 -3
10 3 13 23 10 26 -3 31 -10 62 -103z m257 -370 c3 -8 13 -15 22 -15 24 0 54
-29 54 -52 0 -23 -42 -25 -60 -2 -17 19 -75 15 -75 -6 0 -9 19 -20 50 -28 62
-17 95 -46 95 -84 0 -58 -75 -92 -151 -69 -38 12 -59 35 -59 65 0 25 57 21 65
-4 5 -15 15 -20 40 -20 65 0 53 43 -15 55 -52 9 -90 39 -90 73 0 30 36 72 62
72 10 0 21 7 24 15 4 8 12 15 19 15 7 0 15 -7 19 -15z m-4 -285 c0 -5 -7 -10
-15 -10 -8 0 -15 5 -15 10 0 6 7 10 15 10 8 0 15 -4 15 -10z"/>
<path d="M2547 3843 c-4 -3 -7 -82 -7 -175 l0 -168 38 0 38 0 0 78 c0 93 21
140 89 200 71 62 64 72 -53 72 -54 0 -102 -3 -105 -7z m53 -168 c0 -14 -4 -25
-10 -25 -5 0 -10 11 -10 25 0 14 5 25 10 25 6 0 10 -11 10 -25z"/>
<path d="M2180 3715 c0 -77 -4 -125 -10 -125 -5 0 -10 -9 -10 -20 0 -19 7 -20
165 -20 157 0 165 1 165 19 0 11 -4 23 -10 26 -6 3 -10 49 -10 103 0 153 12
142 -151 142 l-139 0 0 -125z m250 -9 l0 -104 -102 -4 c-57 -2 -104 -4 -105
-3 -1 0 -5 46 -9 102 -8 119 -17 110 124 112 l92 1 0 -104z"/>
<path d="M3515 3636 c-69 -30 -122 -124 -112 -198 19 -144 205 -210 310 -110
73 69 82 169 20 250 -48 64 -146 90 -218 58z m168 -41 c33 -24 67 -91 67 -131
-1 -85 -74 -158 -160 -158 -158 0 -221 204 -90 292 29 20 45 23 95 20 40 -2
70 -10 88 -23z"/>
<path d="M3574 3573 c-4 -13 -12 -23 -19 -23 -17 0 -45 -33 -45 -54 0 -9 13
-25 30 -34 19 -11 30 -25 30 -39 0 -26 -3 -27 -30 -11 -29 19 -38 -1 -10 -23
14 -10 32 -26 41 -34 19 -18 29 -19 29 -2 0 6 14 20 31 29 40 23 38 66 -3 86
-19 9 -28 21 -28 38 0 28 7 30 32 7 10 -9 21 -13 24 -10 10 10 -4 37 -23 44
-10 3 -26 15 -35 27 l-18 21 -6 -22z m-4 -68 c0 -28 -17 -34 -27 -9 -3 9 0 20
8 25 19 12 19 12 19 -16z m55 -80 c0 -10 -6 -20 -12 -22 -8 -3 -13 5 -13 22 0
17 5 25 13 23 6 -3 12 -13 12 -23z"/>
<path d="M1387 3633 c-13 -13 -7 -53 8 -53 10 0 15 10 15 30 0 29 -9 38 -23
23z"/>
<path d="M1541 3574 c-6 -15 -9 -29 -6 -33 8 -8 45 41 39 51 -9 15 -21 8 -33
-18z"/>
<path d="M1220 3583 c0 -5 6 -18 14 -29 17 -22 35 -11 20 13 -12 19 -34 29
-34 16z"/>
<path d="M1415 3540 c-3 -5 14 -14 37 -20 84 -22 153 -92 172 -172 7 -32 26
-38 26 -9 0 31 -28 88 -62 127 -48 55 -156 101 -173 74z"/>
<path d="M1656 3465 c-27 -21 -10 -38 19 -19 14 9 22 20 19 25 -7 12 -16 11
-38 -6z"/>
<path d="M1100 3460 c0 -14 48 -35 58 -26 8 9 -26 36 -45 36 -7 0 -13 -5 -13
-10z"/>
<path d="M1360 3445 c-10 -26 -29 -32 -46 -15 -8 8 -18 5 -35 -9 -21 -17 -22
-22 -12 -40 16 -25 7 -51 -18 -51 -15 0 -19 -7 -19 -35 0 -29 4 -35 20 -35 26
0 36 -25 19 -46 -10 -13 -9 -19 9 -37 19 -18 25 -20 42 -9 27 16 29 16 40 -13
8 -20 16 -25 45 -25 28 0 35 4 35 19 0 24 19 31 42 17 14 -8 22 -6 40 12 19
19 21 25 10 42 -16 27 -16 29 13 40 19 7 25 17 25 40 0 23 -6 33 -25 40 -26
10 -32 24 -15 35 18 11 11 34 -16 51 -19 13 -28 14 -37 5 -18 -18 -34 -13 -41
14 -5 20 -13 25 -36 25 -23 0 -33 -6 -40 -25z m50 -20 c0 -21 50 -40 71 -26
22 13 31 3 17 -19 -9 -14 -8 -24 5 -44 10 -14 24 -26 32 -26 22 0 18 -17 -5
-23 -26 -7 -45 -54 -29 -73 16 -19 4 -30 -15 -15 -11 10 -21 9 -45 -4 -17 -8
-31 -22 -31 -30 0 -8 -4 -15 -10 -15 -5 0 -10 7 -10 15 0 21 -37 37 -71 30
-29 -7 -38 2 -19 21 15 15 -1 55 -26 65 -28 10 -32 29 -6 29 25 0 47 47 31 66
-16 20 -2 36 20 22 15 -9 24 -8 45 5 14 10 26 22 26 27 0 6 5 10 10 10 6 0 10
-7 10 -15z"/>
<path d="M1358 3374 c-56 -30 -64 -90 -19 -135 20 -20 39 -29 61 -29 22 0 41
9 61 29 46 46 37 106 -21 136 -36 18 -47 18 -82 -1z m87 -34 c24 -27 22 -70
-5 -92 -28 -23 -52 -23 -78 0 -31 27 -35 55 -11 85 25 33 68 36 94 7z"/>
<path d="M1365 3330 c-15 -16 -17 -26 -9 -48 8 -22 15 -27 44 -27 29 0 36 5
44 27 8 22 6 32 -9 48 -10 11 -26 20 -35 20 -9 0 -25 -9 -35 -20z m58 -24 c9
-22 -19 -42 -37 -26 -19 15 -10 40 14 40 10 0 20 -6 23 -14z"/>
<path d="M2292 3343 l-243 -3 6 -23 c4 -12 16 -42 28 -66 l22 -43 365 1 c365
1 460 6 460 22 0 5 11 32 25 61 14 28 25 53 25 55 0 3 -141 2 -688 -4z"/>
<path d="M3264 3309 c-9 -16 16 -88 42 -118 29 -35 82 -54 134 -49 30 2 35 7
38 30 6 55 -54 117 -115 118 -10 1 -35 7 -56 14 -20 8 -40 10 -43 5z m139 -61
c29 -11 47 -35 47 -62 0 -19 -56 -22 -93 -5 -25 11 -57 57 -57 82 0 13 6 14
38 6 20 -6 50 -15 65 -21z"/>
<path d="M3823 3301 c-81 -23 -109 -43 -123 -86 -18 -54 -9 -65 52 -65 87 0
136 43 153 133 8 43 9 43 -82 18z m44 -53 c-17 -41 -52 -66 -104 -74 -38 -6
-43 -4 -43 12 0 34 29 63 78 78 77 24 84 22 69 -16z"/>
<path d="M1067 3304 c-15 -15 -6 -24 24 -24 20 0 29 4 27 13 -5 14 -40 21 -51
11z"/>
<path d="M1680 3300 c0 -5 14 -10 30 -10 17 0 30 5 30 10 0 6 -13 10 -30 10
-16 0 -30 -4 -30 -10z"/>
<path d="M3510 3228 c0 -4 15 -11 33 -16 29 -7 32 -12 35 -49 l3 -40 -88 -6
c-103 -7 -115 -17 -111 -87 2 -37 8 -47 29 -57 21 -10 27 -23 38 -80 18 -99
24 -103 146 -103 123 0 129 4 146 106 9 56 16 72 33 80 16 7 22 19 24 58 5 73
-12 86 -108 86 l-78 0 -7 36 c-7 41 -1 51 34 56 14 1 26 8 28 13 2 6 -27 10
-77 10 -44 0 -80 -3 -80 -7z m260 -183 c0 -38 -3 -45 -19 -45 -16 0 -21 -12
-31 -72 -19 -118 -7 -108 -125 -108 l-104 0 -11 58 c-20 105 -24 117 -48 120
-18 3 -22 10 -22 41 0 21 3 41 7 44 3 4 84 7 180 7 l173 0 0 -45z"/>
<path d="M3472 2998 c3 -9 35 -14 99 -16 99 -3 139 2 139 18 0 6 -49 10 -121
10 -92 0 -120 -3 -117 -12z"/>
<path d="M1645 3160 c-3 -5 5 -16 17 -24 27 -20 38 -20 38 -3 0 17 -47 40 -55
27z"/>
<path d="M1123 3148 c-24 -11 -31 -28 -12 -28 17 0 49 20 49 30 0 12 -9 12
-37 -2z"/>
<path d="M3303 2772 c-84 -1 -153 -5 -153 -8 0 -2 14 -32 31 -66 l31 -61 301
6 c165 4 348 7 407 7 l106 0 25 57 c13 32 26 61 28 66 3 7 -339 7 -776 -1z"/>
<path d="M2494 3013 l-271 -3 23 -47 c13 -25 24 -60 24 -76 l0 -29 240 4 c260
3 259 3 260 58 0 14 9 40 20 58 25 41 25 43 -2 40 -13 -2 -145 -4 -294 -5z"/>
<path d="M1120 2434 c0 -3 8 -17 19 -30 10 -13 22 -44 25 -69 l7 -45 242 2
241 3 8 44 c4 24 14 54 23 67 8 13 15 26 15 29 0 3 -130 5 -290 5 -159 0 -290
-3 -290 -6z"/>
<path d="M3482 2443 l-154 -4 17 -25 c9 -15 20 -47 24 -73 6 -44 8 -46 39 -45
17 0 129 1 247 2 l215 2 0 33 c0 18 9 50 20 72 11 22 20 41 20 42 0 3 -119 2
-428 -4z"/>
<path d="M379 562 c14 -26 14 -267 1 -293 -10 -18 -7 -19 37 -19 l48 0 -3 69
-4 69 98 4 c91 4 98 6 120 32 32 36 32 86 0 123 -24 28 -25 28 -166 31 -140 4
-142 4 -131 -16z m239 -44 c7 -7 12 -21 12 -33 0 -36 -20 -45 -97 -45 l-73 0
0 45 0 45 73 0 c43 0 78 -5 85 -12z"/>
<path d="M2939 562 c14 -26 14 -267 1 -293 -10 -18 -7 -19 37 -19 l48 0 -3 69
-4 69 98 4 c91 4 98 6 120 32 32 36 32 86 0 123 -24 28 -25 28 -166 31 -140 4
-142 4 -131 -16z m239 -44 c7 -7 12 -21 12 -33 0 -36 -20 -45 -97 -45 l-73 0
0 45 0 45 73 0 c43 0 78 -5 85 -12z"/>
<path d="M2020 530 c0 -6 -51 -10 -132 -10 -103 0 -129 -3 -120 -12 17 -17 17
-229 0 -246 -9 -9 17 -12 118 -12 88 0 134 -4 142 -12 9 -9 12 -1 12 37 0 38
-3 46 -12 37 -8 -8 -45 -12 -100 -12 l-88 0 0 30 c0 30 0 30 59 30 38 0 61 -4
64 -12 3 -7 6 9 6 36 1 39 -2 47 -11 38 -7 -7 -36 -12 -65 -12 -52 0 -53 0
-53 30 l0 30 89 0 c62 0 91 -4 94 -12 3 -7 6 8 6 35 1 26 -1 47 -4 47 -3 0 -5
-4 -5 -10z"/>
<path d="M2450 494 c0 -37 3 -45 12 -36 7 7 31 12 55 12 l43 0 0 -98 c0 -63
-4 -102 -12 -110 -9 -9 0 -12 42 -12 42 0 51 3 42 12 -8 8 -12 47 -12 111 l0
99 50 -4 c50 -3 50 -3 50 27 l0 30 -121 -3 c-82 -2 -125 1 -135 9 -12 10 -14
4 -14 -37z"/>
<path d="M1215 520 c-17 -5 -44 -23 -60 -40 -27 -28 -30 -38 -30 -96 0 -63 2
-67 37 -99 64 -59 174 -57 233 5 56 58 42 169 -28 215 -30 19 -112 28 -152 15z
m112 -55 c34 -24 47 -76 29 -118 -25 -61 -92 -76 -143 -33 -23 20 -28 32 -28
71 0 39 5 51 28 71 32 28 82 32 114 9z"/>
<path d="M2195 520 c-17 -5 -44 -23 -60 -40 -27 -28 -30 -38 -30 -95 0 -57 3
-67 30 -95 34 -36 94 -54 151 -46 42 5 114 35 114 45 -1 13 -40 55 -40 44 0
-18 -53 -43 -89 -43 -59 0 -111 44 -111 94 0 50 51 96 105 96 37 0 95 -29 95
-47 0 -10 8 -6 21 12 24 29 24 30 -34 61 -35 19 -113 26 -152 14z"/>
<path d="M768 509 c16 -18 17 -230 0 -247 -9 -9 0 -12 42 -12 42 0 51 3 42 12
-7 7 -12 31 -12 55 0 42 1 43 33 43 26 0 37 -8 62 -43 16 -23 29 -48 27 -54
-2 -9 14 -13 55 -13 56 0 57 1 37 18 -11 9 -33 34 -49 54 -25 35 -26 38 -9 44
37 14 54 37 54 74 0 64 -22 74 -169 78 -102 3 -124 1 -113 -9z m212 -54 c23
-28 -5 -45 -76 -45 l-64 0 0 30 0 30 64 0 c44 0 67 -5 76 -15z"/>
<path d="M1608 508 c16 -16 16 -190 0 -206 -16 -16 -69 -15 -94 2 -20 14 -22
13 -31 -17 -9 -31 -8 -32 21 -36 71 -10 136 -4 156 14 18 16 20 31 20 125 0
69 4 110 12 118 9 9 0 12 -42 12 -42 0 -51 -3 -42 -12z"/>
<path d="M3328 508 c17 -17 17 -229 0 -246 -9 -9 0 -12 42 -12 42 0 51 3 42
12 -8 8 -12 50 -12 123 0 73 4 115 12 123 9 9 0 12 -42 12 -42 0 -51 -3 -42
-12z"/>
<path d="M3498 508 c17 -17 17 -229 0 -246 -9 -9 15 -12 108 -12 80 0 124 -4
132 -12 9 -9 12 -1 12 37 0 38 -3 46 -12 37 -7 -7 -43 -12 -90 -12 l-78 0 0
98 c0 63 4 102 12 110 9 9 0 12 -42 12 -42 0 -51 -3 -42 -12z"/>
<path d="M3798 508 c17 -17 17 -229 0 -246 -9 -9 15 -12 108 -12 80 0 124 -4
132 -12 9 -9 12 -1 12 37 0 38 -3 46 -12 37 -7 -7 -43 -12 -90 -12 l-78 0 0
98 c0 63 4 102 12 110 9 9 0 12 -42 12 -42 0 -51 -3 -42 -12z"/>
<path d="M4204 505 c6 -16 -83 -205 -112 -237 -14 -17 -12 -18 38 -18 41 0 51
3 42 12 -7 7 -8 17 -1 30 14 27 134 27 148 0 7 -13 6 -23 -1 -30 -9 -9 2 -12
47 -12 54 0 57 1 43 18 -33 38 -120 213 -115 232 5 18 0 20 -45 20 -41 0 -49
-3 -44 -15z m61 -105 c20 -39 20 -40 -20 -40 -19 0 -35 2 -35 5 0 9 30 65 35
65 2 0 11 -13 20 -30z"/>
<path d="M4468 509 c16 -18 17 -230 0 -247 -9 -9 0 -12 42 -12 42 0 51 3 42
12 -7 7 -12 31 -12 55 0 42 1 43 33 43 26 0 37 -8 62 -43 16 -23 29 -48 27
-54 -2 -9 14 -13 55 -13 56 0 57 1 37 18 -11 9 -33 34 -49 54 -25 35 -26 38
-9 44 37 14 54 37 54 74 0 64 -22 74 -169 78 -102 3 -124 1 -113 -9z m212 -54
c23 -28 -5 -45 -76 -45 l-64 0 0 30 0 30 64 0 c44 0 67 -5 76 -15z"/>
</g>
</svg>
