
<svg version="1.0" xmlns="http://www.w3.org/2000/svg"
 width="718.000000pt" height="1281.000000pt" viewBox="0 0 718.000000 1281.000000"
 preserveAspectRatio="xMidYMid meet">

<g transform="translate(0.000000,1281.000000) scale(0.100000,-0.100000)"
fill="#000000" stroke="none">
<path d="M4682 12800 c-12 -5 -27 -21 -32 -35 -15 -39 -13 -950 1 -978 18 -33
28 -37 95 -37 101 0 94 -39 94 526 0 396 -3 494 -14 509 -15 21 -107 31 -144
15z"/>
<path d="M5621 12603 c-12 -11 -96 -191 -202 -438 -191 -445 -195 -459 -153
-506 24 -27 80 -35 118 -16 30 14 45 44 214 437 103 238 182 434 182 451 0 46
-47 89 -98 89 -23 0 -49 -7 -61 -17z"/>
<path d="M6493 12092 c-24 -3 -678 -626 -700 -665 -18 -31 -16 -57 7 -94 21
-35 75 -53 116 -37 13 5 174 154 358 332 243 235 336 331 341 352 6 28 -13 82
-35 95 -19 12 -65 21 -87 17z"/>
<path d="M3575 11303 c-715 -60 -1312 -211 -1796 -453 -322 -162 -580 -366
-751 -595 -85 -112 -187 -313 -227 -442 -64 -206 -64 -203 -68 -950 l-4 -681
-315 -282 c-173 -155 -325 -296 -339 -314 -66 -87 -83 -183 -41 -233 13 -16
103 -70 205 -123 l180 -95 1 -86 c0 -78 -3 -93 -30 -144 -43 -82 -42 -137 5
-180 19 -18 52 -54 74 -79 l39 -45 -31 -58 c-26 -48 -32 -69 -32 -123 0 -90
20 -116 130 -166 66 -30 85 -44 85 -59 0 -12 -11 -89 -25 -173 -51 -314 -22
-477 107 -598 27 -25 73 -56 102 -70 108 -49 159 -54 603 -54 264 0 431 -4
465 -11 159 -34 290 -153 339 -310 17 -54 19 -94 19 -345 l0 -284 1180 0 1180
0 0 428 c0 440 6 533 41 711 56 279 197 581 328 704 26 24 89 66 141 92 86 44
109 63 241 194 80 80 179 189 219 241 434 562 666 1221 705 1995 14 279 -88
1103 -142 1143 -20 15 -33 16 -33 2 0 -24 -88 -191 -150 -283 -37 -56 -129
-168 -203 -249 -151 -164 -177 -199 -232 -308 -87 -172 -116 -307 -121 -550
-2 -127 -7 -187 -18 -219 -20 -56 -80 -134 -127 -167 -73 -51 -104 -54 -484
-54 l-352 0 -61 31 c-69 34 -119 88 -154 165 -19 43 -22 74 -29 254 -8 222
-20 290 -78 435 -64 158 -144 274 -319 459 -169 179 -249 306 -321 508 -165
470 -46 986 311 1348 l80 80 -129 -2 c-70 -1 -146 -3 -168 -5z m1556 -3496
c61 -41 70 -72 67 -239 -3 -130 -5 -150 -24 -175 -44 -60 -62 -63 -364 -63
-302 0 -320 3 -364 63 -19 25 -21 45 -24 175 -3 167 6 198 67 239 33 23 39 23
321 23 282 0 288 0 321 -23z"/>
<path d="M6620 11125 c-276 -111 -441 -183 -452 -196 -22 -26 -23 -87 -3 -116
8 -12 31 -27 50 -33 33 -11 56 -3 471 162 239 95 446 183 459 195 65 58 21
164 -67 163 -13 -1 -219 -79 -458 -175z"/>
<path d="M3970 3702 c-40 -41 -41 -83 -1 -123 62 -62 161 -25 161 59 0 56 -25
83 -82 89 -42 5 -50 3 -78 -25z"/>
<path d="M500 3577 l0 -74 48 -6 c26 -4 97 -12 159 -18 62 -7 118 -16 125 -20
11 -7 13 -253 13 -1328 0 -726 -2 -1322 -6 -1325 -3 -3 -66 -12 -140 -21 -73
-8 -149 -17 -166 -20 l-33 -6 0 -74 0 -75 520 0 520 0 0 75 0 74 -32 5 c-41 7
-290 36 -306 36 -9 0 -12 154 -12 675 l0 675 123 0 c690 1 1054 226 1106 685
18 156 -16 327 -91 453 -18 31 -63 86 -99 122 -103 102 -206 156 -398 208
l-96 26 -617 4 -618 3 0 -74z m1169 -121 c156 -40 288 -139 345 -259 57 -122
72 -341 32 -486 -49 -179 -176 -302 -366 -358 -40 -11 -117 -17 -272 -20
l-218 -5 0 577 0 577 208 -5 c142 -4 227 -10 271 -21z"/>
<path d="M5807 3563 c-2 -5 -12 -49 -22 -99 l-17 -92 -64 -7 -64 -7 0 -34 0
-34 60 0 60 0 0 -252 c0 -277 4 -299 62 -341 59 -44 194 -29 247 27 21 22 21
23 2 40 -18 16 -22 16 -50 2 -31 -17 -88 -21 -107 -8 -30 20 -34 55 -34 291
l0 241 100 0 100 0 0 40 0 40 -99 0 -99 0 5 100 6 100 -41 0 c-22 0 -43 -3
-45 -7z"/>
<path d="M2583 3347 c-82 -37 -93 -45 -93 -68 0 -22 6 -28 31 -33 17 -3 42 -6
54 -6 19 0 23 -7 29 -52 8 -68 8 -356 0 -396 -5 -25 -13 -32 -38 -37 -60 -12
-66 -16 -66 -41 l0 -24 175 0 175 0 0 24 c0 26 -8 30 -77 41 l-43 7 0 179 c0
170 1 182 24 227 14 27 38 63 55 81 l31 33 32 -24 c46 -32 113 -32 139 1 27
33 25 87 -4 106 -81 53 -188 9 -255 -104 l-27 -46 -8 80 c-8 70 -18 97 -37 94
-3 -1 -47 -20 -97 -42z"/>
<path d="M3323 3372 c-150 -54 -226 -170 -226 -347 0 -154 62 -263 181 -322
78 -38 200 -40 280 -4 79 35 146 115 173 203 42 137 12 289 -76 386 -79 88
-221 124 -332 84z m195 -79 c69 -51 96 -126 96 -268 1 -105 -17 -179 -53 -222
-69 -83 -205 -85 -274 -4 -43 51 -60 127 -55 250 3 94 7 113 33 166 40 80 85
107 168 102 37 -2 67 -10 85 -24z"/>
<path d="M3965 3346 c-86 -36 -100 -46 -103 -68 -3 -21 2 -26 29 -32 17 -3 44
-6 60 -6 l29 0 0 -292 c0 -161 -5 -335 -10 -386 -12 -115 -42 -179 -65 -142
-12 19 -84 50 -115 50 -92 0 -116 -86 -35 -125 77 -36 171 -13 242 60 84 86
85 93 93 560 6 373 4 427 -19 424 -3 0 -51 -20 -106 -43z"/>
<path d="M4515 3376 c-65 -21 -98 -42 -144 -91 -161 -174 -116 -497 82 -586
42 -19 69 -24 142 -24 78 0 97 4 140 27 75 40 144 120 123 145 -16 19 -32 16
-59 -13 -13 -14 -42 -35 -64 -47 -78 -40 -214 -20 -266 39 -30 34 -58 100 -65
153 l-7 51 231 0 230 0 6 23 c10 39 6 102 -10 156 -40 136 -196 212 -339 167z
m159 -79 c66 -38 99 -135 59 -179 -14 -16 -34 -18 -175 -18 l-158 0 6 28 c12
50 45 120 67 140 59 56 136 67 201 29z"/>
<path d="M5236 3373 c-155 -47 -245 -193 -234 -378 13 -199 136 -325 319 -325
84 0 159 31 208 86 22 25 44 58 50 74 8 25 7 30 -10 35 -14 5 -26 -1 -40 -18
-49 -64 -144 -94 -232 -76 -42 9 -61 21 -98 58 -54 56 -74 114 -74 216 0 93
20 155 63 206 42 49 84 69 147 69 65 0 81 -12 95 -70 17 -69 43 -100 85 -100
127 0 49 181 -96 224 -65 20 -119 19 -183 -1z"/>
<path d="M2644 2309 c-9 -16 15 -29 56 -29 24 0 31 -3 21 -9 -41 -26 8 -31
324 -31 316 0 365 5 324 31 -10 6 -6 9 14 9 16 0 38 5 49 11 17 9 18 13 7 20
-22 13 -786 12 -795 -2z"/>
<path d="M3495 2310 c-11 -18 6 -30 43 -30 25 0 33 -3 23 -9 -41 -26 8 -31
324 -31 316 0 365 5 324 31 -10 6 -3 9 21 9 19 0 42 5 50 10 13 9 13 11 0 20
-21 13 -777 13 -785 0z"/>
<path d="M2285 2256 c-73 -33 -103 -110 -69 -181 48 -103 205 -102 255 1 56
117 -64 234 -186 180z"/>
<path d="M2790 2215 c0 -11 10 -15 35 -15 l35 0 0 -674 0 -675 -32 -3 c-24 -2
-33 -8 -32 -20 1 -14 -6 -18 -30 -18 -37 0 -61 -14 -52 -29 10 -16 652 -16
662 0 10 17 -16 29 -61 29 -27 0 -35 3 -26 9 21 13 4 31 -30 31 l-29 0 0 674
0 675 33 3 c17 2 31 8 30 13 -2 6 -97 11 -253 13 -218 2 -250 0 -250 -13z
m160 -690 c0 -443 -3 -675 -10 -675 -7 0 -10 232 -10 675 0 443 3 675 10 675
7 0 10 -232 10 -675z m100 0 c0 -443 -3 -675 -10 -675 -7 0 -10 232 -10 675 0
443 3 675 10 675 7 0 10 -232 10 -675z m100 0 c0 -443 -3 -675 -10 -675 -7 0
-10 232 -10 675 0 443 3 675 10 675 7 0 10 -232 10 -675z"/>
<path d="M3637 2224 c-12 -12 4 -24 34 -24 l29 0 0 -674 0 -675 -32 -3 c-24
-2 -33 -8 -32 -20 1 -14 -6 -18 -30 -18 -37 0 -61 -14 -52 -29 10 -16 652 -16
662 0 9 15 -15 29 -52 29 -24 0 -31 4 -30 18 1 12 -8 18 -31 20 l-33 3 0 675
0 674 35 0 c24 0 35 5 35 15 0 13 -34 15 -248 15 -137 0 -252 -3 -255 -6z
m163 -699 c0 -443 -3 -675 -10 -675 -7 0 -10 232 -10 675 0 443 3 675 10 675
7 0 10 -232 10 -675z m100 0 c0 -593 -2 -675 -15 -675 -13 0 -15 82 -15 675 0
593 2 675 15 675 13 0 15 -82 15 -675z m90 0 c0 -443 -3 -675 -10 -675 -7 0
-10 232 -10 675 0 443 3 675 10 675 7 0 10 -232 10 -675z"/>
<path d="M2240 1696 l-155 -62 -3 -41 -3 -41 86 -7 c76 -7 86 -10 90 -29 3
-11 4 -172 3 -356 l-3 -335 -82 -14 -83 -14 0 -39 0 -38 251 0 250 0 -3 38 -3
37 -75 16 -75 15 0 457 c0 396 -2 459 -15 467 -19 12 0 18 -180 -54z"/>
<path d="M4565 1750 c-92 -19 -159 -52 -216 -109 -113 -114 -107 -231 13 -231
59 0 88 33 123 141 34 106 35 106 145 108 139 1 189 -53 198 -215 l5 -90 -114
-33 c-229 -66 -387 -148 -446 -234 -24 -34 -29 -52 -32 -119 -3 -69 0 -85 24
-134 48 -97 155 -152 282 -141 81 6 151 40 230 112 l61 55 7 -31 c9 -39 61
-98 102 -115 44 -19 128 -17 169 2 19 9 48 32 64 52 27 33 28 36 13 58 -19 29
-28 30 -60 4 -36 -28 -77 -26 -102 6 -20 25 -21 39 -21 288 0 388 -15 474 -98
559 -64 65 -212 94 -347 67z m265 -642 l0 -163 -73 -47 c-83 -54 -142 -72
-201 -63 -60 10 -102 39 -120 85 -55 137 31 231 289 316 55 18 101 33 103 34
1 0 2 -73 2 -162z"/>
<path d="M5435 1695 l-140 -63 0 -38 0 -39 82 -9 82 -9 6 -51 c3 -28 5 -188 3
-356 l-3 -305 -77 -14 -78 -14 0 -39 0 -38 261 0 260 0 -3 38 -3 37 -83 16
c-45 9 -85 18 -87 21 -3 3 -6 119 -8 259 l-2 254 38 77 c21 43 59 101 85 129
l48 52 46 -33 c54 -38 135 -50 178 -28 32 17 60 73 60 120 0 33 -5 41 -39 63
-59 40 -134 44 -203 13 -66 -31 -144 -108 -186 -185 -17 -32 -32 -50 -32 -41
0 10 -5 64 -11 120 -8 73 -15 107 -27 116 -9 6 -18 12 -21 11 -3 0 -69 -29
-146 -64z"/>
<path d="M2645 750 c-3 -6 0 -12 7 -15 26 -10 793 0 793 10 0 14 -791 19 -800
5z"/>
<path d="M3485 750 c-3 -6 0 -12 7 -15 7 -3 188 -4 402 -3 301 2 390 6 394 16
5 16 -793 18 -803 2z"/>
</g>
</svg>
