<?xml version="1.0" encoding="UTF-8" standalone="no"?>
<svg
   xmlns:dc="http://purl.org/dc/elements/1.1/"
   xmlns:cc="http://creativecommons.org/ns#"
   xmlns:rdf="http://www.w3.org/1999/02/22-rdf-syntax-ns#"
   xmlns:svg="http://www.w3.org/2000/svg"
   xmlns="http://www.w3.org/2000/svg"
   xmlns:sodipodi="http://sodipodi.sourceforge.net/DTD/sodipodi-0.dtd"
   xmlns:inkscape="http://www.inkscape.org/namespaces/inkscape"
   version="1.1"
   id="svg2"
   xml:space="preserve"
   width="700.96002"
   height="204.05333"
   viewBox="0 0 700.96002 204.05333"
   sodipodi:docname="swiggy-seeklogo.com.eps"><metadata
     id="metadata8"><rdf:RDF><cc:Work
         rdf:about=""><dc:format>image/svg+xml</dc:format><dc:type
           rdf:resource="http://purl.org/dc/dcmitype/StillImage" /></cc:Work></rdf:RDF></metadata><defs
     id="defs6" /><sodipodi:namedview
     pagecolor="#ffffff"
     bordercolor="#666666"
     borderopacity="1"
     objecttolerance="10"
     gridtolerance="10"
     guidetolerance="10"
     inkscape:pageopacity="0"
     inkscape:pageshadow="2"
     inkscape:window-width="640"
     inkscape:window-height="480"
     id="namedview4" /><g
     id="g10"
     inkscape:groupmode="layer"
     inkscape:label="ink_ext_XXXXXX"
     transform="matrix(1.3333333,0,0,-1.3333333,0,204.05333)"><g
       id="g12"
       transform="scale(0.1)"><path
         d="M 5101.48,1067.04 H 5257.2 L 5043.48,665.883 V 464.191 H 4893.7 v 193.118 l -227.66,409.731 h 166.14 L 4937.4,874.828 c 11.32,-20.902 23.13,-48.551 32.06,-70.98 8.56,22.25 19.85,49.636 31.08,70.793 z M 4279.02,666.742 v 134.719 h 276.63 V 531.293 l -5.73,-4.723 c -31.66,-25.988 -115.54,-69.949 -229.17,-69.949 -191.73,0 -325.61,127.043 -325.61,308.977 0,178.547 129.19,308.132 307.1,308.132 97.91,0 169.65,-27.57 219.29,-84.347 l 9.71,-11.094 -101.51,-100.516 -11.07,11.364 c -28.35,29.242 -57.75,47.351 -116.42,47.351 -91.14,0 -154.8,-70.265 -154.8,-170.89 0,-104.813 68.02,-172.567 173.31,-172.567 34.93,0 71.28,5.996 96.02,15.633 v 58.078 z m -754.93,0 v 134.719 h 276.63 V 531.293 l -5.73,-4.723 c -31.63,-25.988 -115.55,-69.949 -229.19,-69.949 -191.74,0 -325.59,127.043 -325.59,308.977 0,178.547 129.15,308.132 307.12,308.132 97.88,0 169.59,-27.57 219.24,-84.347 l 9.72,-11.094 -101.54,-100.516 -11.03,11.364 c -28.38,29.242 -57.76,47.351 -116.39,47.351 -91.15,0 -154.83,-70.265 -154.83,-170.89 0,-104.813 68,-172.567 173.3,-172.567 34.93,0 71.28,5.996 96.03,15.633 v 58.078 z M 2886.68,464.191 v 602.849 h 148.96 V 464.191 Z m -405.73,350.649 85.99,239.79 h 147.6 l -218.75,-607.9 h -32.78 l -132.68,284.708 c -6.18,13.031 -12.54,29.23 -18.03,44.074 -5.6,-14.883 -12.12,-31.114 -18.3,-44.153 L 2156.13,446.73 h -32.57 l -222.25,607.9 h 157.67 l 86.94,-239.79 c 5.55,-15.301 11.23,-33.957 16.21,-51.25 5.92,17.863 13.02,37.14 20.44,52.676 l 114.19,243.364 h 31.59 L 2444.3,816.25 c 7.41,-15.543 14.53,-34.82 20.41,-52.672 5.01,17.305 10.73,35.961 16.24,51.262 z m -862.25,20.637 c 102.32,-43.852 165.71,-92.504 165.71,-199.301 0,-109.074 -82.64,-179.555 -210.49,-179.555 -103.61,0 -186.77,46.949 -228.19,128.781 l -6.71,13.215 121.82,70.574 7.99,-13.035 c 27.42,-44.843 58.09,-63.933 102.57,-63.933 38.34,0 64.1,16.98 64.1,42.273 0,28.035 -18.64,38.543 -76.29,63.801 l -29.28,12.539 c -78.17,33.316 -150.59,79.621 -150.59,191.758 0,100.766 77.24,171.136 187.84,171.136 83.8,0 141.23,-32.42 180.76,-102.042 l 7.33,-12.934 -118.03,-75.844 -8.13,14.555 c -19.73,35.301 -38.31,42.387 -61.93,42.387 -24.68,0 -40.59,-13.622 -40.59,-34.747 0,-24.246 11.72,-34.894 62.79,-57.019 z M 518.883,0 c -0.977,0.730469 -2.067,1.62109 -3.199,2.64063 C 497.23,25.5 383.207,168.32 267.02,351.539 c -34.852,58.402 -57.481,103.922 -53.133,115.699 11.363,30.614 213.926,47.371 276.304,19.614 18.965,-8.43 18.493,-19.571 18.493,-26.063 0,-28.039 -1.387,-103.238 -1.387,-103.238 0.016,-15.539 12.648,-28.153 28.211,-28.129 15.582,0 28.16,12.656 28.109,28.226 l -0.32,187.395 h -0.055 c 0,16.27 -17.754,20.332 -21.09,20.977 -32.562,0.144 -98.675,0.371 -169.675,0.371 -156.653,0 -191.661,-6.457 -218.278,10.976 C 96.5391,615.063 2.25781,869.184 0.0585938,1012.17 -3.07422,1213.87 116.441,1388.5 284.734,1475.02 c 70.317,35.4 149.719,55.35 233.594,55.35 266.363,0 485.722,-201.05 514.912,-459.71 0.03,-0.22 0.03,-0.47 0.09,-0.69 5.35,-62.54 -339.31,-75.825 -407.486,-57.63 -10.453,2.8 -13.125,13.5 -13.125,18.1 -0.078,47.56 -0.399,181.36 -0.399,181.36 -0.05,15.57 -12.691,28.18 -28.25,28.14 h -0.015 c -15.539,-0.02 -28.149,-12.67 -28.149,-28.24 l 0.559,-246.501 c 0.473,-15.527 13.512,-19.73 17.086,-20.429 38.769,0 129.433,0.078 213.875,0.078 114.137,0 162.078,-13.223 193.969,-37.496 21.205,-16.18 29.425,-47.149 22.255,-87.379 C 939.641,461.988 534.117,18.5 518.883,0"
         style="fill:#f46920;fill-opacity:1;fill-rule:nonzero;stroke:none"
         id="path14" /></g></g></svg>
