<svg width="24" height="22" viewBox="0 0 24 22" fill="none" xmlns="http://www.w3.org/2000/svg">
<path d="M21 10.7501H3C2.04 10.7501 1.25 9.96013 1.25 9.00013V5.68013C1.25 5.00013 1.71998 4.31013 2.34998 4.06013L11.35 0.460156C11.73 0.310156 12.27 0.310156 12.65 0.460156L21.65 4.06013C22.28 4.31013 22.75 5.01013 22.75 5.68013V9.00013C22.75 9.96013 21.96 10.7501 21 10.7501ZM12 1.84016C11.96 1.84016 11.92 1.84011 11.9 1.85011L2.90997 5.45015C2.84997 5.48015 2.75 5.61013 2.75 5.68013V9.00013C2.75 9.14013 2.86 9.25013 3 9.25013H21C21.14 9.25013 21.25 9.14013 21.25 9.00013V5.68013C21.25 5.61013 21.16 5.48015 21.09 5.45015L12.09 1.85011C12.07 1.84011 12.04 1.84016 12 1.84016Z" fill="#292D32"/>
<path d="M22 21.75H2C1.59 21.75 1.25 21.41 1.25 21V18C1.25 17.04 2.04 16.25 3 16.25H21C21.96 16.25 22.75 17.04 22.75 18V21C22.75 21.41 22.41 21.75 22 21.75ZM2.75 20.25H21.25V18C21.25 17.86 21.14 17.75 21 17.75H3C2.86 17.75 2.75 17.86 2.75 18V20.25Z" fill="#292D32"/>
<path d="M4 17.75C3.59 17.75 3.25 17.41 3.25 17V10C3.25 9.59 3.59 9.25 4 9.25C4.41 9.25 4.75 9.59 4.75 10V17C4.75 17.41 4.41 17.75 4 17.75Z" fill="#292D32"/>
<path d="M8 17.75C7.59 17.75 7.25 17.41 7.25 17V10C7.25 9.59 7.59 9.25 8 9.25C8.41 9.25 8.75 9.59 8.75 10V17C8.75 17.41 8.41 17.75 8 17.75Z" fill="#292D32"/>
<path d="M12 17.75C11.59 17.75 11.25 17.41 11.25 17V10C11.25 9.59 11.59 9.25 12 9.25C12.41 9.25 12.75 9.59 12.75 10V17C12.75 17.41 12.41 17.75 12 17.75Z" fill="#292D32"/>
<path d="M16 17.75C15.59 17.75 15.25 17.41 15.25 17V10C15.25 9.59 15.59 9.25 16 9.25C16.41 9.25 16.75 9.59 16.75 10V17C16.75 17.41 16.41 17.75 16 17.75Z" fill="#292D32"/>
<path d="M20 17.75C19.59 17.75 19.25 17.41 19.25 17V10C19.25 9.59 19.59 9.25 20 9.25C20.41 9.25 20.75 9.59 20.75 10V17C20.75 17.41 20.41 17.75 20 17.75Z" fill="#292D32"/>
<path d="M23 21.75H1C0.59 21.75 0.25 21.41 0.25 21C0.25 20.59 0.59 20.25 1 20.25H23C23.41 20.25 23.75 20.59 23.75 21C23.75 21.41 23.41 21.75 23 21.75Z" fill="#292D32"/>
<path d="M12 8.25C10.76 8.25 9.75 7.24 9.75 6C9.75 4.76 10.76 3.75 12 3.75C13.24 3.75 14.25 4.76 14.25 6C14.25 7.24 13.24 8.25 12 8.25ZM12 5.25C11.59 5.25 11.25 5.59 11.25 6C11.25 6.41 11.59 6.75 12 6.75C12.41 6.75 12.75 6.41 12.75 6C12.75 5.59 12.41 5.25 12 5.25Z" fill="#292D32"/>
</svg>
