<svg width="20" height="22" viewBox="0 0 20 22" fill="none" xmlns="http://www.w3.org/2000/svg">
<path d="M10.0004 21.7599C8.91039 21.7599 7.83039 21.4399 6.98039 20.8099L2.68039 17.5999C1.54039 16.7499 0.650391 14.9699 0.650391 13.5599V6.11994C0.650391 4.57994 1.78039 2.93994 3.23039 2.39994L8.22039 0.529941C9.21039 0.159941 10.7704 0.159941 11.7604 0.529941L16.7504 2.39994C18.2004 2.93994 19.3304 4.57994 19.3304 6.11994V13.5499C19.3304 14.9699 18.4404 16.7399 17.3004 17.5899L13.0004 20.7999C12.1704 21.4399 11.0904 21.7599 10.0004 21.7599ZM8.75039 1.93994L3.76039 3.80994C2.91039 4.12994 2.16039 5.20994 2.16039 6.12994V13.5599C2.16039 14.5099 2.83039 15.8399 3.58039 16.3999L7.88039 19.6099C9.03039 20.4699 10.9704 20.4699 12.1304 19.6099L16.4304 16.3999C17.1904 15.8299 17.8504 14.5099 17.8504 13.5599V6.11994C17.8504 5.20994 17.1004 4.12994 16.2504 3.79994L11.2604 1.92994C10.5804 1.68994 9.42039 1.68994 8.75039 1.93994Z" fill="#292D32"/>
<path d="M11.05 15.2502H9.17001C7.84001 15.2502 6.75 14.1302 6.75 12.7502C6.75 12.3402 7.09 12.0002 7.5 12.0002C7.91 12.0002 8.25 12.3402 8.25 12.7502C8.25 13.3002 8.66001 13.7502 9.17001 13.7502H11.05C11.44 13.7502 11.75 13.4002 11.75 12.9702C11.75 12.4302 11.6 12.3502 11.26 12.2302L8.25 11.1802C7.61 10.9502 6.75 10.4902 6.75 9.02023C6.75 7.77023 7.74001 6.74023 8.95001 6.74023H10.83C12.16 6.74023 13.25 7.86023 13.25 9.24023C13.25 9.65023 12.91 9.99023 12.5 9.99023C12.09 9.99023 11.75 9.65023 11.75 9.24023C11.75 8.69023 11.34 8.24023 10.83 8.24023H8.95001C8.56001 8.24023 8.25 8.59023 8.25 9.02023C8.25 9.56023 8.39999 9.64022 8.73999 9.76022L11.75 10.8102C12.39 11.0402 13.25 11.5002 13.25 12.9702C13.25 14.2302 12.26 15.2502 11.05 15.2502Z" fill="#292D32"/>
<path d="M10 16.25C9.59 16.25 9.25 15.91 9.25 15.5V6.5C9.25 6.09 9.59 5.75 10 5.75C10.41 5.75 10.75 6.09 10.75 6.5V15.5C10.75 15.91 10.41 16.25 10 16.25Z" fill="#292D32"/>
</svg>
