<svg width="24" height="24" viewBox="0 0 24 24" fill="none" xmlns="http://www.w3.org/2000/svg">
<path d="M12.0004 22.7599C10.9104 22.7599 9.83039 22.4399 8.98039 21.8099L4.68039 18.5999C3.54039 17.7499 2.65039 15.9699 2.65039 14.5599V7.11994C2.65039 5.57994 3.78039 3.93994 5.23039 3.39994L10.2204 1.52994C11.2104 1.15994 12.7704 1.15994 13.7604 1.52994L18.7504 3.39994C20.2004 3.93994 21.3304 5.57994 21.3304 7.11994V14.5499C21.3304 15.9699 20.4404 17.7399 19.3004 18.5899L15.0004 21.7999C14.1704 22.4399 13.0904 22.7599 12.0004 22.7599ZM10.7504 2.93994L5.76039 4.80994C4.91039 5.12994 4.16039 6.20994 4.16039 7.12994V14.5599C4.16039 15.5099 4.83039 16.8399 5.58039 17.3999L9.88039 20.6099C11.0304 21.4699 12.9704 21.4699 14.1304 20.6099L18.4304 17.3999C19.1904 16.8299 19.8504 15.5099 19.8504 14.5599V7.11994C19.8504 6.20994 19.1004 5.12994 18.2504 4.79994L13.2604 2.92994C12.5804 2.68994 11.4204 2.68994 10.7504 2.93994Z" fill="#292D32"/>
<path d="M13.05 16.2502H11.17C9.84001 16.2502 8.75 15.1302 8.75 13.7502C8.75 13.3402 9.09 13.0002 9.5 13.0002C9.91 13.0002 10.25 13.3402 10.25 13.7502C10.25 14.3002 10.66 14.7502 11.17 14.7502H13.05C13.44 14.7502 13.75 14.4002 13.75 13.9702C13.75 13.4302 13.6 13.3502 13.26 13.2302L10.25 12.1802C9.61 11.9502 8.75 11.4902 8.75 10.0202C8.75 8.77023 9.74001 7.74023 10.95 7.74023H12.83C14.16 7.74023 15.25 8.86023 15.25 10.2402C15.25 10.6502 14.91 10.9902 14.5 10.9902C14.09 10.9902 13.75 10.6502 13.75 10.2402C13.75 9.69023 13.34 9.24023 12.83 9.24023H10.95C10.56 9.24023 10.25 9.59023 10.25 10.0202C10.25 10.5602 10.4 10.6402 10.74 10.7602L13.75 11.8102C14.39 12.0402 15.25 12.5002 15.25 13.9702C15.25 15.2302 14.26 16.2502 13.05 16.2502Z" fill="#292D32"/>
<path d="M12 17.25C11.59 17.25 11.25 16.91 11.25 16.5V7.5C11.25 7.09 11.59 6.75 12 6.75C12.41 6.75 12.75 7.09 12.75 7.5V16.5C12.75 16.91 12.41 17.25 12 17.25Z" fill="#292D32"/>
</svg>
