<svg width="22" height="22" viewBox="0 0 22 22" fill="none" xmlns="http://www.w3.org/2000/svg">
<path d="M20.5609 9.74006L19.2009 8.16006C18.9409 7.86006 18.7309 7.30006 18.7309 6.90006V5.20006C18.7309 4.14006 17.8609 3.27006 16.8009 3.27006H15.1009C14.7109 3.27006 14.1409 3.06006 13.8409 2.80006L12.2609 1.44006C11.5709 0.850059 10.4409 0.850059 9.74086 1.44006L8.17086 2.81006C7.87086 3.06006 7.30086 3.27006 6.91086 3.27006H5.18086C4.12086 3.27006 3.25086 4.14006 3.25086 5.20006V6.91006C3.25086 7.30006 3.04086 7.86006 2.79086 8.16006L1.44086 9.75006C0.860859 10.4401 0.860859 11.5601 1.44086 12.2501L2.79086 13.8401C3.04086 14.1401 3.25086 14.7001 3.25086 15.0901V16.8001C3.25086 17.8601 4.12086 18.7301 5.18086 18.7301H6.91086C7.30086 18.7301 7.87086 18.9401 8.17086 19.2001L9.75086 20.5601C10.4409 21.1501 11.5709 21.1501 12.2709 20.5601L13.8509 19.2001C14.1509 18.9401 14.7109 18.7301 15.1109 18.7301H16.8109C17.8709 18.7301 18.7409 17.8601 18.7409 16.8001V15.1001C18.7409 14.7101 18.9509 14.1401 19.2109 13.8401L20.5709 12.2601C21.1509 11.5701 21.1509 10.4301 20.5609 9.74006Z" stroke="#292D32" stroke-width="1.5"/>
<path d="M8 11.5L9.5 13L13.5 9" stroke="#292D32" stroke-width="1.5" stroke-linecap="round" stroke-linejoin="round"/>
</svg>
