<svg width="22" height="22" viewBox="0 0 22 22" fill="none" xmlns="http://www.w3.org/2000/svg">
<path d="M17.0003 6.90977C16.9703 6.90977 16.9503 6.90977 16.9203 6.90977H16.8703C14.9803 6.84977 13.5703 5.38977 13.5703 3.58977C13.5703 1.74977 15.0703 0.259766 16.9003 0.259766C18.7303 0.259766 20.2303 1.75977 20.2303 3.58977C20.2203 5.39977 18.8103 6.85977 17.0103 6.91977C17.0103 6.90977 17.0103 6.90977 17.0003 6.90977ZM16.9003 1.74977C15.8903 1.74977 15.0703 2.56977 15.0703 3.57977C15.0703 4.56977 15.8403 5.36977 16.8303 5.40977C16.8403 5.39977 16.9203 5.39977 17.0103 5.40977C17.9803 5.35977 18.7303 4.55977 18.7403 3.57977C18.7403 2.56977 17.9203 1.74977 16.9003 1.74977Z" fill="#292D32"/>
<path d="M17.0105 14.2801C16.6205 14.2801 16.2305 14.2501 15.8405 14.1801C15.4305 14.1101 15.1605 13.7201 15.2305 13.3101C15.3005 12.9001 15.6905 12.6301 16.1005 12.7001C17.3305 12.9101 18.6305 12.6802 19.5005 12.1002C19.9705 11.7902 20.2205 11.4001 20.2205 11.0101C20.2205 10.6201 19.9605 10.2401 19.5005 9.93014C18.6305 9.35014 17.3105 9.12015 16.0705 9.34015C15.6605 9.42015 15.2705 9.14015 15.2005 8.73015C15.1305 8.32015 15.4005 7.93015 15.8105 7.86015C17.4405 7.57015 19.1305 7.88014 20.3305 8.68014C21.2105 9.27014 21.7205 10.1101 21.7205 11.0101C21.7205 11.9001 21.2205 12.7502 20.3305 13.3502C19.4205 13.9502 18.2405 14.2801 17.0105 14.2801Z" fill="#292D32"/>
<path d="M4.97047 6.91C4.96047 6.91 4.95047 6.91 4.95047 6.91C3.15047 6.85 1.74047 5.39 1.73047 3.59C1.73047 1.75 3.23047 0.25 5.06047 0.25C6.89047 0.25 8.39047 1.75 8.39047 3.58C8.39047 5.39 6.98047 6.85 5.18047 6.91L4.97047 6.16L5.04047 6.91C5.02047 6.91 4.99047 6.91 4.97047 6.91ZM5.07047 5.41C5.13047 5.41 5.18047 5.41 5.24047 5.42C6.13047 5.38 6.91047 4.58 6.91047 3.59C6.91047 2.58 6.09047 1.75999 5.08047 1.75999C4.07047 1.75999 3.25047 2.58 3.25047 3.59C3.25047 4.57 4.01047 5.36 4.98047 5.42C4.99047 5.41 5.03047 5.41 5.07047 5.41Z" fill="#292D32"/>
<path d="M4.96 14.2801C3.73 14.2801 2.55 13.9502 1.64 13.3502C0.759999 12.7602 0.25 11.9101 0.25 11.0101C0.25 10.1201 0.759999 9.27014 1.64 8.68014C2.84 7.88014 4.53 7.57015 6.16 7.86015C6.57 7.93015 6.84 8.32015 6.77 8.73015C6.7 9.14015 6.31 9.42015 5.9 9.34015C4.66 9.12015 3.35 9.35014 2.47 9.93014C2 10.2401 1.75 10.6201 1.75 11.0101C1.75 11.4001 2.01 11.7902 2.47 12.1002C3.34 12.6802 4.64 12.9101 5.87 12.7001C6.28 12.6301 6.67 12.9101 6.74 13.3101C6.81 13.7201 6.54 14.1101 6.13 14.1801C5.74 14.2501 5.35 14.2801 4.96 14.2801Z" fill="#292D32"/>
<path d="M11.0003 14.38C10.9703 14.38 10.9503 14.38 10.9203 14.38H10.8703C8.98031 14.32 7.57031 12.86 7.57031 11.06C7.57031 9.21998 9.07031 7.72998 10.9003 7.72998C12.7303 7.72998 14.2303 9.22998 14.2303 11.06C14.2203 12.87 12.8103 14.33 11.0103 14.39C11.0103 14.38 11.0103 14.38 11.0003 14.38ZM10.9003 9.21999C9.89031 9.21999 9.07031 10.04 9.07031 11.05C9.07031 12.04 9.84031 12.84 10.8303 12.88C10.8403 12.87 10.9203 12.87 11.0103 12.88C11.9803 12.83 12.7303 12.03 12.7403 11.05C12.7403 10.05 11.9203 9.21999 10.9003 9.21999Z" fill="#292D32"/>
<path d="M10.9993 21.7597C9.7993 21.7597 8.5993 21.4497 7.6693 20.8197C6.7893 20.2297 6.2793 19.3897 6.2793 18.4897C6.2793 17.5997 6.7793 16.7397 7.6693 16.1497C9.5393 14.9097 12.4693 14.9097 14.3293 16.1497C15.2093 16.7397 15.7193 17.5797 15.7193 18.4797C15.7193 19.3697 15.2193 20.2297 14.3293 20.8197C13.3993 21.4397 12.1993 21.7597 10.9993 21.7597ZM8.4993 17.4097C8.0293 17.7197 7.7793 18.1097 7.7793 18.4997C7.7793 18.8897 8.0393 19.2697 8.4993 19.5797C9.8493 20.4897 12.1393 20.4897 13.4893 19.5797C13.9593 19.2697 14.2093 18.8797 14.2093 18.4897C14.2093 18.0997 13.9493 17.7197 13.4893 17.4097C12.1493 16.4997 9.8593 16.5097 8.4993 17.4097Z" fill="#292D32"/>
</svg>
