<?xml version="1.0" encoding="utf-8"?>
<!-- Generator: Adobe Illustrator 24.0.2, SVG Export Plug-In . SVG Version: 6.00 Build 0)  -->
<svg version="1.1" xmlns="http://www.w3.org/2000/svg" xmlns:xlink="http://www.w3.org/1999/xlink" x="0px" y="0px"
	 viewBox="0 0 24 24" style="enable-background:new 0 0 24 24;" xml:space="preserve">
<style type="text/css">
	.st0{fill:none;}
	.st1{fill:#121331;}
</style>
<g id="bounding_box">
	<rect x="0" y="0" class="st0" width="24" height="24"/>
</g>
<g id="design">
	<g>
		<path class="st1" d="M19,3H5C3.9,3,3,3.9,3,5v14c0,1.1,0.9,2,2,2h14c1.1,0,2-0.9,2-2V5C21,3.9,20.1,3,19,3z M13.23,17.49
			c-0.02,0.08-0.04,0.16-0.08,0.24c-0.03,0.07-0.07,0.14-0.11,0.21c-0.05,0.07-0.1,0.13-0.16,0.19c-0.06,0.06-0.12,0.11-0.19,0.16
			c-0.07,0.04-0.14,0.08-0.21,0.11c-0.08,0.03-0.16,0.06-0.24,0.07c-0.08,0.02-0.16,0.03-0.24,0.03c-0.33,0-0.65-0.14-0.88-0.37
			c-0.24-0.23-0.37-0.55-0.37-0.88c0-0.08,0.01-0.17,0.02-0.25c0.02-0.08,0.04-0.15,0.08-0.23c0.03-0.08,0.07-0.15,0.11-0.22
			c0.05-0.06,0.1-0.13,0.16-0.19c0.29-0.29,0.72-0.42,1.12-0.34c0.08,0.02,0.16,0.04,0.24,0.07c0.07,0.03,0.14,0.07,0.21,0.12
			c0.07,0.04,0.13,0.1,0.19,0.15c0.06,0.06,0.11,0.13,0.16,0.19c0.04,0.07,0.08,0.14,0.11,0.22c0.04,0.08,0.06,0.15,0.08,0.23
			c0.01,0.08,0.02,0.17,0.02,0.25C13.25,17.33,13.24,17.41,13.23,17.49z M13.84,12.35C13.31,12.68,13,13.2,13,13.75s-0.45,1-1,1
			s-1-0.45-1-1c0-1.24,0.66-2.39,1.77-3.09c0.45-0.28,0.89-0.92,0.67-1.78c-0.12-0.51-0.54-0.94-1.03-1.08
			c-0.47-0.12-0.93-0.03-1.3,0.25c-0.39,0.3-0.61,0.76-0.61,1.27c0,0.55-0.45,1-1,1s-1-0.45-1-1c0-1.13,0.51-2.17,1.39-2.85
			c0.86-0.66,1.96-0.88,3.03-0.6c1.19,0.32,2.16,1.31,2.46,2.52C15.77,9.93,15.15,11.53,13.84,12.35z"/>
	</g>
</g>
</svg>
