<?xml version="1.0" encoding="utf-8"?>
<!-- Generator: Adobe Illustrator 24.0.2, SVG Export Plug-In . SVG Version: 6.00 Build 0)  -->
<svg version="1.1" xmlns="http://www.w3.org/2000/svg" xmlns:xlink="http://www.w3.org/1999/xlink" x="0px" y="0px"
	 viewBox="0 0 24 24" style="enable-background:new 0 0 24 24;" xml:space="preserve">
<style type="text/css">
	.st0{fill:none;}
	.st1{fill:#121331;}
</style>
<g id="bounding_box">
	<rect class="st0" width="24" height="24"/>
</g>
<g id="design">
	<path class="st1" d="M20.7,14.51c-0.5-0.25-1.1-0.05-1.34,0.44c-1.25,2.49-3.64,4.15-6.36,4.49V14h2c0.55,0,1-0.45,1-1s-0.45-1-1-1
		h-2v-1.64c1.58-0.43,2.75-1.88,2.75-3.61C15.75,4.68,14.07,3,12,3S8.25,4.68,8.25,6.75c0,1.73,1.17,3.18,2.75,3.61V12H9
		c-0.55,0-1,0.45-1,1s0.45,1,1,1h2v5.44c-2.72-0.33-5.11-2.01-6.36-4.47c-0.25-0.49-0.85-0.69-1.34-0.44s-0.69,0.85-0.44,1.34
		c1.73,3.43,5.29,5.62,9.13,5.63h0.26c3.79-0.1,7.2-2.26,8.89-5.65C21.39,15.35,21.19,14.75,20.7,14.51z M12,8.5
		c-0.96,0-1.75-0.79-1.75-1.75S11.04,5,12,5s1.75,0.79,1.75,1.75S12.96,8.5,12,8.5z"/>
</g>
</svg>
