<?xml version="1.0" encoding="utf-8"?>
<!-- Generator: Adobe Illustrator 24.0.2, SVG Export Plug-In . SVG Version: 6.00 Build 0)  -->
<svg version="1.1" xmlns="http://www.w3.org/2000/svg" xmlns:xlink="http://www.w3.org/1999/xlink" x="0px" y="0px"
	 viewBox="0 0 24 24" style="enable-background:new 0 0 24 24;" xml:space="preserve">
<style type="text/css">
	.st0{fill:none;}
	.st1{fill:#121331;}
</style>
<g id="bounding_box">
	<rect class="st0" width="24" height="24"/>
</g>
<g id="design">
	<g>
		<path class="st1" d="M21,11c-0.55,0-1-0.45-1-1V5c0-0.55,0.45-1,1-1s1,0.45,1,1v5C22,10.55,21.55,11,21,11z"/>
		<path class="st1" d="M3,20c-0.55,0-1-0.45-1-1v-5c0-0.55,0.45-1,1-1s1,0.45,1,1v5C4,19.55,3.55,20,3,20z"/>
		<g>
			<path class="st1" d="M12.96,15.79l-0.65,2.76C12.14,19.38,11.39,20,10.52,20h-4.8c-0.42,0-0.75-0.34-0.75-0.75v-4.9
				c0-0.12,0.03-0.25,0.09-0.36l2.18-4.04C7.38,9.71,7.63,9.56,7.9,9.56c0.62,0,1.21,0.24,1.64,0.68c0.44,0.44,0.68,1.02,0.68,1.64
				v1.72h0.95c0.55,0,1.06,0.25,1.41,0.67C12.93,14.7,13.07,15.25,12.96,15.79z"/>
		</g>
		<g>
			<path class="st1" d="M19.02,4.75v4.9c0,0.12-0.03,0.25-0.09,0.36l-2.19,4.04c-0.13,0.24-0.39,0.39-0.66,0.39
				c-1.28,0-2.32-1.04-2.32-2.32V10.4h-0.94c-0.55,0-1.07-0.25-1.42-0.67c-0.35-0.43-0.49-0.98-0.38-1.52l0.65-2.76
				C11.84,4.62,12.6,4,13.47,4h4.8C18.68,4,19.02,4.34,19.02,4.75z"/>
		</g>
	</g>
</g>
</svg>
