<svg width="22" height="22" viewBox="0 0 22 22" fill="none" xmlns="http://www.w3.org/2000/svg">
<path d="M16.79 21.75H5.21C2.47 21.75 0.25 19.52 0.25 16.78V9.36997C0.25 8.00997 1.09 6.29997 2.17 5.45997L7.56 1.25997C9.18 -2.5928e-05 11.77 -0.060026 13.45 1.11997L19.63 5.44997C20.82 6.27997 21.75 8.05997 21.75 9.50997V16.79C21.75 19.52 19.53 21.75 16.79 21.75ZM8.48 2.43997L3.09 6.63997C2.38 7.19997 1.75 8.46997 1.75 9.36997V16.78C1.75 18.69 3.3 20.25 5.21 20.25H16.79C18.7 20.25 20.25 18.7 20.25 16.79V9.50997C20.25 8.54997 19.56 7.21997 18.77 6.67997L12.59 2.34997C11.45 1.54997 9.57 1.58997 8.48 2.43997Z" fill="black"/>
</svg>
