<svg xmlns="http://www.w3.org/2000/svg" viewBox="0 0 750 500"><g id="freepik--background-complete--inject-14"><rect x="217.3" y="62.65" width="96.73" height="100.55" rx="3.96" style="fill:#f5f5f5"></rect><path d="M266.54,85.34a26.75,26.75,0,1,0,26.75,26.74A26.74,26.74,0,0,0,266.54,85.34Zm.41,42.77a16.43,16.43,0,1,1,16.43-16.43A16.43,16.43,0,0,1,267,128.11Z" style="fill:#e0e0e0"></path><path d="M267,85.35v9.9a16.44,16.44,0,0,1,15.66,21.41l9.69,2.63A26.73,26.73,0,0,0,267,85.35Z" style="fill:#fafafa"></path><path d="M250.52,111.68a16.44,16.44,0,0,1,9.74-15l-4.12-9.24a26.76,26.76,0,0,0-16.34,24.65c0,.38,0,.75,0,1.12h10.76C250.55,112.7,250.52,112.19,250.52,111.68Z" style="fill:#ebebeb"></path><path d="M267,128.11a16.64,16.64,0,0,1-3.48-.37c-.41,2.38-1.19,7-1.8,10.63a26.11,26.11,0,0,0,4.87.46,26.75,26.75,0,0,0,25.76-19.54l-9.69-2.63A16.43,16.43,0,0,1,267,128.11Z" style="fill:#ebebeb"></path><path d="M263.4,113h-1v1.27H261V113h-3.28v-1l2.87-3.85h1.48l-2.66,3.65h1.63v-1.14h1.33v1.14h1Z" style="fill:#e0e0e0"></path><path d="M263.81,111.25c0-2,1.12-3.15,2.61-3.15s2.6,1.14,2.6,3.15-1.1,3.14-2.6,3.14S263.81,113.25,263.81,111.25Zm3.8,0c0-1.38-.49-2-1.19-2s-1.18.58-1.18,2,.48,2,1.18,2S267.61,112.63,267.61,111.25Z" style="fill:#e0e0e0"></path><path d="M269.6,109.81a1.52,1.52,0,1,1,1.52,1.68A1.51,1.51,0,0,1,269.6,109.81Zm2.15,0c0-.65-.25-1-.63-1s-.64.32-.64,1,.26,1,.64,1S271.75,110.46,271.75,109.81Zm3-1.6h1l-4.15,6.07h-1Zm-1,4.47a1.51,1.51,0,1,1,1.5,1.67A1.51,1.51,0,0,1,273.74,112.68Zm2.13,0c0-.64-.25-1-.63-1s-.63.32-.63,1,.26,1,.63,1S275.87,113.32,275.87,112.68Z" style="fill:#e0e0e0"></path><path d="M288.68,145.58c0,.14-9.91.25-22.13.25s-22.14-.11-22.14-.25,9.91-.26,22.14-.26S288.68,145.44,288.68,145.58Z" style="fill:#e0e0e0"></path><path d="M278.82,149.64c0,.14-5.5.25-12.27.25s-12.28-.11-12.28-.25,5.49-.25,12.28-.25S278.82,149.5,278.82,149.64Z" style="fill:#e0e0e0"></path><circle cx="226.94" cy="71.21" r="2.43" style="fill:#e0e0e0"></circle><circle cx="233.22" cy="71.21" r="2.43" style="fill:#e0e0e0"></circle><path d="M241.94,71.21a2.44,2.44,0,1,1-2.43-2.44A2.43,2.43,0,0,1,241.94,71.21Z" style="fill:#e0e0e0"></path><path d="M676.23,359a36.6,36.6,0,0,0-9.75-24.21C663.53,346.9,676.23,359,676.23,359Z" style="fill:#ebebeb"></path><path d="M662.08,352.11a36.66,36.66,0,0,0-26.09-.72C646,358.94,662.08,352.11,662.08,352.11Z" style="fill:#ebebeb"></path><path d="M660.47,344.24A28.87,28.87,0,0,0,656.92,324C652.65,332.86,660.47,344.24,660.47,344.24Z" style="fill:#ebebeb"></path><path d="M715.19,315.83c-20.69,5.51-31.78,23.5-31.78,23.5C701.09,339.34,715.19,315.83,715.19,315.83Z" style="fill:#ebebeb"></path><path d="M682.15,324.31c1.08-22.3-20.72-47.53-20.72-47.53,3.29,27.68,20.72,47.53,20.72,47.53" style="fill:#ebebeb"></path><path d="M682.26,260.81a59.73,59.73,0,0,0,7.83,31.94C693.17,278.4,682.26,260.81,682.26,260.81Z" style="fill:#ebebeb"></path><path d="M690.66,306.11c16.3-1.75,25.17-18,25.17-18C696.12,293.67,690.66,306.11,690.66,306.11Z" style="fill:#ebebeb"></path><path d="M725.82,374.28a36.64,36.64,0,0,0-25.63-4.94C708.8,378.4,725.82,374.28,725.82,374.28Z" style="fill:#ebebeb"></path><path d="M683.58,381.6a24,24,0,0,0,10.95,12.34C693.84,386.41,683.58,381.6,683.58,381.6Z" style="fill:#ebebeb"></path><path d="M685.67,379.2c9.28,5.7,19.5,3.47,19.5,3.47C698.89,376.13,685.67,379.2,685.67,379.2Z" style="fill:#ebebeb"></path><path d="M677.34,409.21a1.39,1.39,0,0,0,0-.33c0-.26,0-.58,0-1,0-.92,0-2.17,0-3.74s0-3.61,0-5.91.05-4.93.17-7.82c.14-5.8.55-12.69,1.14-20.34s1.59-16,2.87-24.76c2.58-17.51,6.1-33.16,8.93-44.41,1.42-5.62,2.62-10.16,3.5-13.28l1-3.61c.1-.38.18-.69.24-.94a1.42,1.42,0,0,0,.06-.33s-.06.1-.13.31-.19.55-.31.92l-1.1,3.57c-1,3.1-2.24,7.62-3.74,13.23a413.34,413.34,0,0,0-9.14,44.43c-1.28,8.77-2.19,17.17-2.82,24.82s-.91,14.57-1,20.37c-.09,2.91-.06,5.53-.06,7.84s0,4.29.1,5.91.09,2.82.13,3.74c0,.39,0,.71,0,1A1.06,1.06,0,0,0,677.34,409.21Z" style="fill:#e0e0e0"></path><path d="M707.26,362c-.11-.16-6.7,4.16-14.72,9.65s-14.41,10.08-14.3,10.25,6.7-4.16,14.72-9.65S707.37,362.18,707.26,362Z" style="fill:#e0e0e0"></path><path d="M678.24,364.39a6.18,6.18,0,0,0-1-1.11l-2.94-2.82-9.79-9.19-9.8-9.19-3-2.79a6.7,6.7,0,0,0-1.15-1,5.32,5.32,0,0,0,.95,1.16c.64.72,1.6,1.73,2.81,3,2.41,2.45,5.82,5.77,9.66,9.35s7.36,6.77,10,9c1.29,1.13,2.35,2,3.09,2.65A5.68,5.68,0,0,0,678.24,364.39Z" style="fill:#e0e0e0"></path><path d="M728.19,351.45s-16.85-.32-24,12.94A30.35,30.35,0,0,0,728.19,351.45Z" style="fill:#ebebeb"></path><path d="M705.18,344.68s-13.72,9.79-11.53,24.68A30.32,30.32,0,0,0,705.18,344.68Z" style="fill:#ebebeb"></path><path d="M632.93,320.58s5.41,18.85,22.61,22.24A35.34,35.34,0,0,0,632.93,320.58Z" style="fill:#ebebeb"></path><path d="M712.66,250.47s-21.49,14-19.11,36.82A46.21,46.21,0,0,0,712.66,250.47Z" style="fill:#ebebeb"></path><path d="M641.13,375.18a8.77,8.77,0,0,0,1.39,1.11c.93.68,2.26,1.68,3.86,2.95a94.25,94.25,0,0,1,21.26,23.68c1.1,1.73,2,3.16,2.52,4.15a8.35,8.35,0,0,0,1,1.51,9.35,9.35,0,0,0-.72-1.64c-.49-1-1.28-2.51-2.32-4.29a82.31,82.31,0,0,0-21.4-23.82c-1.65-1.23-3-2.17-4-2.77A7.75,7.75,0,0,0,641.13,375.18Z" style="fill:#e0e0e0"></path><path d="M659.83,389.18a36.66,36.66,0,0,0-4.93-25.63C652.58,379.53,659.83,389.18,659.83,389.18Z" style="fill:#ebebeb"></path><path d="M645.37,381.29a26.68,26.68,0,0,0-18.76-2.9C637,383.89,645.37,381.29,645.37,381.29Z" style="fill:#ebebeb"></path><polygon points="708.68 410.96 700.62 463.96 653.76 463.96 642.89 411.73 708.68 410.96" style="fill:#ebebeb"></polygon><path d="M649.44,444.93c0,.15,12,.27,26.81.27s26.82-.12,26.82-.27-12-.28-26.82-.28S649.44,444.78,649.44,444.93Z" style="fill:#fafafa"></path><path d="M649.26,442.32c0,.15,12.09.28,27,.28s27-.13,27-.28-12.09-.27-27-.27S649.26,442.17,649.26,442.32Z" style="fill:#fafafa"></path><path d="M649.35,439.38c0,.15,12.09.27,27,.27s27-.12,27-.27-12.08-.28-27-.28S649.35,439.23,649.35,439.38Z" style="fill:#fafafa"></path><path d="M695.23,460.94a42.19,42.19,0,0,0,1.44-6.68,43.47,43.47,0,0,0,.9-6.76,84.86,84.86,0,0,0-2.34,13.44Z" style="fill:#fafafa"></path><path d="M692.05,460.37a53.52,53.52,0,0,0,.58-6.51,50.26,50.26,0,0,0,.3-6.53,32.07,32.07,0,0,0-.85,6.5A30.94,30.94,0,0,0,692.05,460.37Z" style="fill:#fafafa"></path><path d="M686.24,460.37a33.55,33.55,0,0,0,1.22-6.67,32.14,32.14,0,0,0,.35-6.78,61.26,61.26,0,0,0-.9,6.71A57,57,0,0,0,686.24,460.37Z" style="fill:#fafafa"></path><path d="M682.16,460.65a53.93,53.93,0,0,0,.44-13.59,58.81,58.81,0,0,0-.34,6.79A56.9,56.9,0,0,0,682.16,460.65Z" style="fill:#fafafa"></path><path d="M674.94,460.37a38.23,38.23,0,0,0,.49-6.43,38.8,38.8,0,0,0,0-6.46,39,39,0,0,0-.5,6.44A38,38,0,0,0,674.94,460.37Z" style="fill:#fafafa"></path><path d="M669.67,460.65a80.66,80.66,0,0,0-.11-13.31,80.66,80.66,0,0,0,.11,13.31Z" style="fill:#fafafa"></path><path d="M664.73,459.94a87.77,87.77,0,0,0-1.35-13.86,44.85,44.85,0,0,0,.4,7A42.35,42.35,0,0,0,664.73,459.94Z" style="fill:#fafafa"></path><path d="M658.35,459.25a23.14,23.14,0,0,0-.79-5.92,23.69,23.69,0,0,0-1.74-5.71,51.69,51.69,0,0,0,1.21,5.83A55,55,0,0,0,658.35,459.25Z" style="fill:#fafafa"></path><path d="M714.06,400.47v9.92a3.91,3.91,0,0,1-3.91,3.9H642.31a3.91,3.91,0,0,1-3.91-3.9v-9.92Z" style="fill:#ebebeb"></path><polygon points="708.17 414.29 707.61 417.45 645.01 421.91 643.42 414.29 708.17 414.29" style="fill:#e0e0e0"></polygon><path d="M431.28,234.64a23.54,23.54,0,1,1-21.84-25.07A23.52,23.52,0,0,1,431.28,234.64Z" style="fill:#f5f5f5"></path><path d="M425.69,234.25a17.94,17.94,0,1,1-16.64-19.11A17.92,17.92,0,0,1,425.69,234.25Z" style="fill:#ebebeb"></path><path d="M425.73,233.69a11,11,0,0,1-.33-2.19,18.72,18.72,0,0,0-1.68-5.63,17.81,17.81,0,0,0-5.45-6.62,17.08,17.08,0,0,0-2.1-1.34,18.19,18.19,0,0,0-2.37-1.07,18,18,0,0,0-2.59-.72,19,19,0,0,0-2.75-.32,18.05,18.05,0,0,0-2.76.11,17.37,17.37,0,0,0-2.64.52,17.19,17.19,0,0,0-2.44.88,15.92,15.92,0,0,0-2.2,1.18,18,18,0,0,0-3.55,2.93,18.31,18.31,0,0,0-2.4,3.25,19.21,19.21,0,0,0-2.11,5.48,10.93,10.93,0,0,1-.48,2.15,5.11,5.11,0,0,1,0-2.24,16.63,16.63,0,0,1,1.78-5.86,18.3,18.3,0,0,1,2.4-3.54,18.08,18.08,0,0,1,6.05-4.54,17,17,0,0,1,2.62-1,18.81,18.81,0,0,1,2.84-.59,21.18,21.18,0,0,1,3-.13,20.46,20.46,0,0,1,3,.36,19.13,19.13,0,0,1,2.79.8,17.89,17.89,0,0,1,2.54,1.19,16.59,16.59,0,0,1,2.23,1.48,18.41,18.41,0,0,1,3.45,3.51,17.94,17.94,0,0,1,2.12,3.72,16.58,16.58,0,0,1,1.33,6A5.36,5.36,0,0,1,425.73,233.69Z" style="fill:#e0e0e0"></path><path d="M409.07,243.81l-.17,3.12-2.79-.16.17-3a13.16,13.16,0,0,1-6.81-2.62l1.72-3.31a11.32,11.32,0,0,0,5.3,2.28l.25-4.65c-3.05-.93-6.44-2.15-6.22-6.13.16-3,2.45-5.37,6.88-5.63l.17-3.09,2.79.15-.17,3a12.59,12.59,0,0,1,5.56,2l-1.59,3.35a11.35,11.35,0,0,0-4.18-1.68l-.26,4.73c3,.9,6.39,2.12,6.17,6.05C415.73,241.13,413.48,243.52,409.07,243.81ZM407,231.34l.22-4c-1.49.25-2.12,1-2.17,1.94S405.77,230.88,407,231.34Zm4.42,7c.05-1-.72-1.55-1.9-2l-.21,3.84C410.69,239.9,411.34,239.21,411.39,238.32Z" style="fill:#e0e0e0"></path><path d="M129.23,54.74a23.54,23.54,0,1,1-21.84-25.08A23.5,23.5,0,0,1,129.23,54.74Z" style="fill:#f5f5f5"></path><path d="M123.65,54.35A17.94,17.94,0,1,1,107,35.24,17.93,17.93,0,0,1,123.65,54.35Z" style="fill:#ebebeb"></path><path d="M123.68,53.79a10.65,10.65,0,0,1-.32-2.19A19,19,0,0,0,121.68,46a18.78,18.78,0,0,0-2.14-3.42,18.44,18.44,0,0,0-3.32-3.2,17.08,17.08,0,0,0-2.1-1.34,17.47,17.47,0,0,0-2.36-1.07,18.32,18.32,0,0,0-2.59-.72,20.86,20.86,0,0,0-2.75-.33,18.18,18.18,0,0,0-2.77.12,17.86,17.86,0,0,0-2.64.52,17.65,17.65,0,0,0-2.44.88,15.92,15.92,0,0,0-2.2,1.18,18.28,18.28,0,0,0-8.05,11.66,10.41,10.41,0,0,1-.49,2.15,5.31,5.31,0,0,1,0-2.24,16.63,16.63,0,0,1,1.78-5.86A17.93,17.93,0,0,1,92,40.76a18.44,18.44,0,0,1,3.71-3.24A17,17,0,0,1,98,36.22a17.32,17.32,0,0,1,2.61-1,18.94,18.94,0,0,1,2.85-.59,19.59,19.59,0,0,1,3-.13,20.77,20.77,0,0,1,3,.36,18.15,18.15,0,0,1,2.78.8,18.45,18.45,0,0,1,2.54,1.18A17.66,17.66,0,0,1,117,38.35a18.41,18.41,0,0,1,3.45,3.51,18.21,18.21,0,0,1,2.13,3.71,16.61,16.61,0,0,1,1.32,6A5.36,5.36,0,0,1,123.68,53.79Z" style="fill:#e0e0e0"></path><path d="M107,63.91,106.85,67l-2.78-.16.17-3a13.13,13.13,0,0,1-6.81-2.62l1.72-3.31a11.23,11.23,0,0,0,5.29,2.28l.26-4.65c-3-.93-6.45-2.15-6.23-6.13.17-3,2.45-5.37,6.88-5.63l.17-3.09,2.79.15-.17,3a12.59,12.59,0,0,1,5.56,2l-1.58,3.35a11.49,11.49,0,0,0-4.18-1.68l-.27,4.73c3,.9,6.4,2.12,6.18,6.05C113.69,61.23,111.43,63.62,107,63.91Zm-2.1-12.47.22-3.95c-1.5.25-2.13,1-2.18,1.94S103.72,51,104.93,51.44Zm4.41,7c.06-1-.72-1.55-1.89-2l-.22,3.84C108.64,60,109.3,59.31,109.34,58.42Z" style="fill:#e0e0e0"></path><path d="M63.5,208.25A14.58,14.58,0,1,1,50,192.72,14.56,14.56,0,0,1,63.5,208.25Z" style="fill:#f5f5f5"></path><path d="M60,208a11.11,11.11,0,1,1-10.3-11.84A11.08,11.08,0,0,1,60,208Z" style="fill:#ebebeb"></path><path d="M60.06,207.66a6.33,6.33,0,0,1-.2-1.35,12.24,12.24,0,0,0-1-3.49,11.89,11.89,0,0,0-1.33-2.12,11,11,0,0,0-3.35-2.81,10.28,10.28,0,0,0-1.47-.66,11.79,11.79,0,0,0-1.6-.45,10.92,10.92,0,0,0-3.42-.13A10.68,10.68,0,0,0,46,197a9.82,9.82,0,0,0-1.52.55,10.39,10.39,0,0,0-1.36.73,11.05,11.05,0,0,0-2.2,1.82,10.83,10.83,0,0,0-1.48,2,11.86,11.86,0,0,0-1.31,3.4,5.88,5.88,0,0,1-.3,1.33,3.23,3.23,0,0,1,0-1.38,10.25,10.25,0,0,1,1.1-3.63,11,11,0,0,1,3.79-4.2,9.67,9.67,0,0,1,1.45-.81,10.42,10.42,0,0,1,1.62-.61,11.2,11.2,0,0,1,1.76-.36,12.55,12.55,0,0,1,1.85-.08,12.2,12.2,0,0,1,1.83.22,10.79,10.79,0,0,1,1.73.5,10.23,10.23,0,0,1,1.57.73,9.74,9.74,0,0,1,1.38.92,11,11,0,0,1,2.14,2.18,11.29,11.29,0,0,1,1.32,2.29,10.47,10.47,0,0,1,.82,3.71A3.24,3.24,0,0,1,60.06,207.66Z" style="fill:#e0e0e0"></path><path d="M49.74,213.93l-.11,1.93-1.72-.09.1-1.88a8.26,8.26,0,0,1-4.22-1.62l1.07-2.05a7,7,0,0,0,3.28,1.41l.16-2.89c-1.89-.57-4-1.32-3.86-3.79.1-1.83,1.52-3.33,4.26-3.49l.11-1.91,1.73.09-.11,1.89a7.78,7.78,0,0,1,3.44,1.24l-1,2.08a7,7,0,0,0-2.59-1l-.16,2.94c1.89.55,4,1.31,3.83,3.74C53.87,212.27,52.47,213.75,49.74,213.93Zm-1.3-7.72.14-2.45c-.93.15-1.32.64-1.35,1.2S47.69,205.93,48.44,206.21Zm2.74,4.32c0-.6-.45-1-1.18-1.26l-.13,2.38C50.74,211.51,51.15,211.08,51.18,210.53Z" style="fill:#e0e0e0"></path><path d="M282.39,224.42A12.6,12.6,0,1,1,270.7,211,12.57,12.57,0,0,1,282.39,224.42Z" style="fill:#f5f5f5"></path><path d="M279.4,224.21A9.6,9.6,0,1,1,270.5,214,9.59,9.59,0,0,1,279.4,224.21Z" style="fill:#ebebeb"></path><path d="M279.42,223.91a5.46,5.46,0,0,1-.17-1.17,10.11,10.11,0,0,0-.9-3,9.21,9.21,0,0,0-1.15-1.83,9.35,9.35,0,0,0-1.77-1.72,9.12,9.12,0,0,0-2.39-1.29,10.13,10.13,0,0,0-1.39-.38,10,10,0,0,0-1.47-.18,12.13,12.13,0,0,0-1.48.06,11,11,0,0,0-1.41.28,9.24,9.24,0,0,0-1.31.47,10.87,10.87,0,0,0-1.17.63,9.63,9.63,0,0,0-1.9,1.57A9.75,9.75,0,0,0,260.5,222a5.27,5.27,0,0,1-.27,1.16,3,3,0,0,1,0-1.2,8.78,8.78,0,0,1,1-3.14,9.55,9.55,0,0,1,1.28-1.89,10.31,10.31,0,0,1,2-1.74,10,10,0,0,1,1.25-.69,9.4,9.4,0,0,1,1.4-.53,10,10,0,0,1,3.12-.38,10.46,10.46,0,0,1,1.59.19,9.43,9.43,0,0,1,1.49.43,8.87,8.87,0,0,1,1.36.63,10.24,10.24,0,0,1,1.19.79,10,10,0,0,1,1.85,1.89,9.58,9.58,0,0,1,1.13,2,8.79,8.79,0,0,1,.71,3.2A2.88,2.88,0,0,1,279.42,223.91Z" style="fill:#e0e0e0"></path><path d="M270.51,229.32l-.09,1.67-1.49-.08.09-1.62a7.21,7.21,0,0,1-3.65-1.4l.92-1.78a6,6,0,0,0,2.83,1.22l.14-2.49c-1.63-.49-3.45-1.14-3.33-3.28.09-1.58,1.31-2.87,3.68-3l.09-1.65,1.5.08-.1,1.63a6.8,6.8,0,0,1,3,1.07l-.85,1.8a6,6,0,0,0-2.23-.91l-.15,2.54c1.64.48,3.43,1.13,3.31,3.23C274.07,227.89,272.87,229.17,270.51,229.32Zm-1.13-6.67.12-2.11c-.8.13-1.14.55-1.16,1S268.74,222.41,269.38,222.65Zm2.37,3.74c0-.52-.39-.83-1-1.09l-.11,2.06C271.37,227.23,271.72,226.86,271.75,226.39Z" style="fill:#e0e0e0"></path><rect x="359.83" y="53.46" width="17.23" height="53.81" style="fill:#f5f5f5"></rect><rect x="385.56" y="65.75" width="17.23" height="41.52" style="fill:#f5f5f5"></rect><rect x="409.37" y="82.61" width="17.23" height="24.65" style="fill:#f5f5f5"></rect><rect x="696.37" y="28.23" width="7.59" height="163.25" style="fill:#e0e0e0"></rect><rect x="586.23" y="29.5" width="108.98" height="162.21" rx="0.11" style="fill:#f5f5f5"></rect><path d="M696.37,193H585.08a.11.11,0,0,1-.11-.11V28.34a.11.11,0,0,1,.11-.11H696.37a.11.11,0,0,1,.11.11V192.86A.11.11,0,0,1,696.37,193ZM587.6,190.45H693.84a.11.11,0,0,0,.11-.11V30.87a.11.11,0,0,0-.11-.11H587.6a.11.11,0,0,0-.11.11V190.34A.11.11,0,0,0,587.6,190.45Z" style="fill:#ebebeb"></path><rect x="597.2" y="39.5" width="87.23" height="142.09" rx="0.11" style="fill:#fff"></rect><rect x="616.23" y="79.79" width="48.98" height="57.41" rx="0.06" style="fill:#ebebeb"></rect><path d="M661.34,130.17c.06.18-2.36,1.24-7,.7a17,17,0,0,1-7.81-3.12,15.88,15.88,0,0,1-6.08-9.56,13.72,13.72,0,0,1,4.65-13,12.11,12.11,0,0,1,3.52-2.07,9.43,9.43,0,0,1,4.41-.51,7.77,7.77,0,0,1,4.4,1.93,5.75,5.75,0,0,1,1.74,5.13,8.4,8.4,0,0,1-2.42,4.41,15.78,15.78,0,0,1-3.69,2.71,20.17,20.17,0,0,1-8.8,2.52,17.51,17.51,0,0,1-9.38-2.14A17.09,17.09,0,0,1,628,110a14.65,14.65,0,0,1-1.24-10,14.91,14.91,0,0,1,5.29-8.26,13,13,0,0,1,4.43-2.24,10.88,10.88,0,0,1,5-.15A8.08,8.08,0,0,1,646,91.85a7.54,7.54,0,0,1,1.77,4.84,9.21,9.21,0,0,1-1.18,4.6,12.33,12.33,0,0,1-2.79,3.36,19,19,0,0,1-6.94,3.69,17.86,17.86,0,0,1-7.3.56,14.94,14.94,0,0,1-6.35-2.43,13.73,13.73,0,0,1-6.07-9.62,11.59,11.59,0,0,1,2.25-8.24,9.89,9.89,0,0,1,4.15-3.32c1.15-.43,1.8-.42,1.83-.31s-.52.41-1.45,1a10.83,10.83,0,0,0-3.23,3.48,10.19,10.19,0,0,0-1.32,7,11.51,11.51,0,0,0,5.39,7.56,13.32,13.32,0,0,0,11.13,1.06,15.79,15.79,0,0,0,5.57-3.15,6.86,6.86,0,0,0,2.6-5.22,3.74,3.74,0,0,0-3.35-3.7,7.15,7.15,0,0,0-3.21.15,9.32,9.32,0,0,0-3,1.58,11,11,0,0,0-3.81,6.07,10.61,10.61,0,0,0,.94,7.28,13.2,13.2,0,0,0,5.27,5.48,13.67,13.67,0,0,0,7.25,1.69,16.51,16.51,0,0,0,7.13-1.95,12.08,12.08,0,0,0,2.84-2,4.79,4.79,0,0,0,1.45-2.35,2.07,2.07,0,0,0-.59-1.9,4.19,4.19,0,0,0-2.35-1,5.89,5.89,0,0,0-2.78.23,8.84,8.84,0,0,0-2.59,1.42,10.79,10.79,0,0,0-3.94,10A13.72,13.72,0,0,0,648,126a16.39,16.39,0,0,0,6.7,3.35C658.82,130.3,661.3,129.82,661.34,130.17Z" style="fill:#e0e0e0"></path><path d="M64.67,454c-1.67-1.44-5.42-6-2.53-11.32,1.06-1.94,3.31-2.91,5.34-3.76a22,22,0,0,0,5.87-3c3.17-2.7,4.05-7.2,6.16-10.8,2.42-4.14,6.94-7.25,11.72-7,5.47.25,10,4.72,12.1,9.81s2.14,10.75,2.18,16.25c0,3-.11,6.47-2.34,8.52-2.06,1.9-5.16,1.92-8,1.83l-29.89-.91" style="fill:#f5f5f5"></path><path d="M121.84,371.77H43.24L57.4,456.2a9.41,9.41,0,0,0,6.71,7.51l.27.08c.24.06.46.14.7.18a9.44,9.44,0,0,0,1.6.18v.08l.39-.06h35A10.27,10.27,0,0,0,104,464a9.47,9.47,0,0,0,7.95-8.25l6.83-58.17.3-2.32h0l2.7-23ZM107,425.62H99l.81-24.5h9.35Zm2.88-24.5h7.72l-2.87,24.5H107.8Zm-23,51.67-.49-21.29H98l-.71,21.29ZM74.29,431.5H85.57l.49,21.29H75.94Zm.87,21.29H65.69c-.89-5.75-2.07-13.22-3.33-21.29H73.5Zm-1.33-27.17-1.91-24.5h13l.57,24.5Zm12.39,0-.57-24.5H99l-.82,24.5Zm-.7-30.38L85,372.55H99.93l-.76,22.69Zm-.78,0H71.47L69.7,372.55H84.22Zm-14,0h-14c-.5-3.13-1-6.1-1.4-8.77-1.46-9.17-2-12.62-2.32-13.92h16Zm.45,5.88,1.91,24.5H61.44c-.4-2.48-.79-5-1.19-7.52-.91-5.78-1.82-11.56-2.67-17Zm-10.49,24.5H53.06L49,401.12h7.84C58,408.69,59.31,417.12,60.65,425.62Zm.92,5.88c1.16,7.36,2.29,14.63,3.33,21.29H57.62L54.05,431.5ZM98,452.79l.71-21.29h7.76l-1.82,21.29ZM100,395.24l.75-22.69h10.84l-1.94,22.69ZM52.19,372.55c.31,1.64,1.74,10.57,3.67,22.69H48l-3.81-22.69Zm59.36,80.24h-6.08l1.82-21.29h6.76Zm6.75-57.55h-7.91l1.94-22.69H121Z" style="fill:#e0e0e0"></path></g><g id="freepik--Floor--inject-14"><path d="M725.66,464.23c0,.15-157.46.26-351.64.26s-351.68-.11-351.68-.26S179.76,464,374,464,725.66,464.09,725.66,464.23Z" style="fill:#263238"></path></g><g id="freepik--Coins--inject-14"><path d="M357,197.87a13.48,13.48,0,1,1-10.1-13.69A13.48,13.48,0,0,1,357,197.87Z" style="fill:#3766D0"></path><g style="opacity:0.1"><path d="M345.56,183.91a13.47,13.47,0,0,0-15.33,11.31s9.29,1.83,12.12-1.6S345.56,183.91,345.56,183.91Z" style="fill:#fff"></path></g><path d="M353.61,197.19a10.24,10.24,0,1,1-7.41-10.05A10.24,10.24,0,0,1,353.61,197.19Z" style="fill:#3766D0"></path><g style="opacity:0.2"><path d="M353.61,197.19a10.24,10.24,0,1,1-7.41-10.05A10.24,10.24,0,0,1,353.61,197.19Z"></path></g><path d="M353.83,197.67a10.11,10.11,0,1,1-7.31-9.91A10.11,10.11,0,0,1,353.83,197.67Z" style="fill:#3766D0"></path><g style="opacity:0.2"><path d="M353.83,197.67a10.11,10.11,0,1,1-7.31-9.91A10.11,10.11,0,0,1,353.83,197.67Z" style="fill:#fff"></path></g><path d="M344.26,196.67l.38-2.56h0a5.57,5.57,0,0,1,1.32.56,5.07,5.07,0,0,1,.58.5l0-.08.54-.86.12-.19-.39-.55-.23.06a4.85,4.85,0,0,0-1.77-.81l.21-1.41-.38-.41-.06.35-.6-.09-.21,1.43c-2-.11-3.11.88-3.31,2.17-.27,1.76,1.17,2.44,2.53,3l-.39,2.53a4.89,4.89,0,0,1-2.38-1.35l-.77,1.2a5.7,5.7,0,0,0,2.95,1.52l-.16,1.06-.5-.07.45.41,1,.16.22-1.42c2,.1,3.14-.87,3.33-2.16C347.08,197.9,345.61,197.22,344.26,196.67Zm-1-.43c-.7-.32-1.21-.68-1.11-1.29s.53-1,1.45-1Zm1.38-2.13Zm-.95,6.33.34-2.24c.72.33,1.24.7,1.14,1.33S344.63,200.44,343.69,200.44Z" style="fill:#3766D0"></path><g style="opacity:0.30000000000000004"><path d="M344.26,196.67l.38-2.56h0a5.57,5.57,0,0,1,1.32.56,5.07,5.07,0,0,1,.58.5l0-.08.54-.86.12-.19-.39-.55-.23.06a4.85,4.85,0,0,0-1.77-.81l.21-1.41-.38-.41-.06.35-.6-.09-.21,1.43c-2-.11-3.11.88-3.31,2.17-.27,1.76,1.17,2.44,2.53,3l-.39,2.53a4.89,4.89,0,0,1-2.38-1.35l-.77,1.2a5.7,5.7,0,0,0,2.95,1.52l-.16,1.06-.5-.07.45.41,1,.16.22-1.42c2,.1,3.14-.87,3.33-2.16C347.08,197.9,345.61,197.22,344.26,196.67Zm-1-.43c-.7-.32-1.21-.68-1.11-1.29s.53-1,1.45-1Zm1.38-2.13Zm-.95,6.33.34-2.24c.72.33,1.24.7,1.14,1.33S344.63,200.44,343.69,200.44Z"></path></g><path d="M343.1,201.41l-.21,1.42-1-.16.21-1.4a5.7,5.7,0,0,1-2.94-1.52l.76-1.2a5,5,0,0,0,2.39,1.35l.38-2.54c-1.35-.55-2.79-1.23-2.53-3,.2-1.3,1.31-2.28,3.31-2.17l.22-1.44,1,.16-.21,1.41a5.47,5.47,0,0,1,2.46,1.16l-.71,1.2a5.33,5.33,0,0,0-2-1l-.39,2.56c1.35.56,2.82,1.23,2.55,3C346.24,200.54,345.12,201.51,343.1,201.41Zm-.22-5.58.34-2.25c-.92,0-1.37.4-1.45,1S342.18,195.5,342.88,195.83Zm1.92,3.28c.09-.62-.42-1-1.15-1.32l-.34,2.24C344.26,200,344.71,199.66,344.8,199.11Z" style="fill:#3766D0"></path><path d="M340.83,195.56a1,1,0,0,1-.25-.34,1.56,1.56,0,0,1-.14-1,1.65,1.65,0,0,1,.49-.89.88.88,0,0,1,.36-.22s-.13.09-.31.28a1.66,1.66,0,0,0-.44.85,1.77,1.77,0,0,0,.1.95C340.74,195.42,340.84,195.54,340.83,195.56Z" style="fill:#fff"></path><path d="M343.68,192a.83.83,0,0,1,0-.43.87.87,0,0,1,.11-.41,1,1,0,0,1,0,.43A1.26,1.26,0,0,1,343.68,192Z" style="fill:#fff"></path><path d="M397.46,157.6a21.2,21.2,0,1,1-23.11-13.51A21.21,21.21,0,0,1,397.46,157.6Z" style="fill:#3766D0"></path><g style="opacity:0.1"><path d="M372.23,144.54a21.19,21.19,0,0,0-15.13,25.88s14.58-3.13,16.52-9.85S372.23,144.54,372.23,144.54Z" style="fill:#fff"></path></g><path d="M392.12,158.72a16.12,16.12,0,1,1-16.95-9.91A16.13,16.13,0,0,1,392.12,158.72Z" style="fill:#3766D0"></path><g style="opacity:0.2"><path d="M392.12,158.72a16.12,16.12,0,1,1-16.95-9.91A16.13,16.13,0,0,1,392.12,158.72Z"></path></g><path d="M392.74,159.29A15.9,15.9,0,1,1,376,149.51,15.9,15.9,0,0,1,392.74,159.29Z" style="fill:#3766D0"></path><g style="opacity:0.2"><path d="M392.74,159.29A15.9,15.9,0,1,1,376,149.51,15.9,15.9,0,0,1,392.74,159.29Z" style="fill:#fff"></path></g><path d="M378.28,163.79l-1-3.93h0a8.47,8.47,0,0,1,2.25,0,7,7,0,0,1,1.14.36l0-.14.24-1.57.05-.37-.89-.55-.3.24a7.72,7.72,0,0,0-3.07-.07l-.56-2.17-.82-.36.14.54-.92.24.57,2.2c-3,1.09-4,3.21-3.43,5.2.71,2.7,3.22,2.8,5.52,2.76l1,3.9a7.76,7.76,0,0,1-4.29-.46l-.36,2.2a8.79,8.79,0,0,0,5.2.36l.43,1.64-.76.21.9.32,1.6-.42-.57-2.19c3-1.11,4-3.21,3.47-5.2C383.12,163.81,380.58,163.75,378.28,163.79Zm-1.71,0c-1.22,0-2.17-.24-2.41-1.18s.17-1.71,1.5-2.29Zm.67-4Zm2.56,9.75-.9-3.45c1.25,0,2.23.25,2.48,1.2S381.17,169,379.8,169.6Z" style="fill:#3766D0"></path><g style="opacity:0.30000000000000004"><path d="M378.28,163.79l-1-3.93h0a8.47,8.47,0,0,1,2.25,0,7,7,0,0,1,1.14.36l0-.14.24-1.57.05-.37-.89-.55-.3.24a7.72,7.72,0,0,0-3.07-.07l-.56-2.17-.82-.36.14.54-.92.24.57,2.2c-3,1.09-4,3.21-3.43,5.2.71,2.7,3.22,2.8,5.52,2.76l1,3.9a7.76,7.76,0,0,1-4.29-.46l-.36,2.2a8.79,8.79,0,0,0,5.2.36l.43,1.64-.76.21.9.32,1.6-.42-.57-2.19c3-1.11,4-3.21,3.47-5.2C383.12,163.81,380.58,163.75,378.28,163.79Zm-1.71,0c-1.22,0-2.17-.24-2.41-1.18s.17-1.71,1.5-2.29Zm.67-4Zm2.56,9.75-.9-3.45c1.25,0,2.23.25,2.48,1.2S381.17,169,379.8,169.6Z"></path></g><path d="M379.56,171.36l.57,2.19-1.6.42L378,171.8a8.7,8.7,0,0,1-5.2-.37l.36-2.19a7.76,7.76,0,0,0,4.29.46l-1-3.9c-2.3,0-4.81-.06-5.52-2.77-.52-2,.47-4.1,3.43-5.19l-.57-2.2,1.59-.42.57,2.16a8.72,8.72,0,0,1,4.27.15l-.28,2.18a8.48,8.48,0,0,0-3.44-.22l1,3.94c2.3,0,4.84,0,5.55,2.73C383.55,168.15,382.53,170.25,379.56,171.36Zm-3.79-7.92-.91-3.47c-1.33.57-1.73,1.43-1.5,2.29S374.55,163.4,375.77,163.44Zm4.81,3.55c-.25-1-1.23-1.18-2.49-1.2l.91,3.45C380.37,168.65,380.8,167.83,380.58,167Z" style="fill:#3766D0"></path><path d="M372.63,164.31a1.25,1.25,0,0,1-.57-.33,2.47,2.47,0,0,1-.66-2.94,1.28,1.28,0,0,1,.37-.54s-.13.21-.27.58a2.71,2.71,0,0,0-.11,1.51,2.63,2.63,0,0,0,.75,1.31C372.42,164.18,372.64,164.29,372.63,164.31Z" style="fill:#fff"></path><path d="M374.55,157.43a2.7,2.7,0,0,1-.34-1.28,1.61,1.61,0,0,1,.25.62A1.52,1.52,0,0,1,374.55,157.43Z" style="fill:#fff"></path></g><g id="freepik--speech-bubble-2--inject-14"><path d="M496.57,141.84l-3.27-6.07a26.32,26.32,0,1,0-3.62,8.7v0Z" style="fill:#fff"></path><path d="M496.57,141.84a2.22,2.22,0,0,1-.42.19l-1.3.52-5.14,2a.12.12,0,0,1-.14-.06v-.09l.19.09a26.23,26.23,0,0,1-9.22,8.75,27.35,27.35,0,0,1-7.88,2.91,26.55,26.55,0,0,1-9.55.1,27.09,27.09,0,0,1-9.83-3.85,26,26,0,0,1-8.07-8.07,27.15,27.15,0,0,1-4-11.48,25.88,25.88,0,0,1,1.8-12.59,27.23,27.23,0,0,1,3.15-5.73c.68-.85,1.34-1.7,2.07-2.49l1.14-1.12.57-.56.62-.5a27.09,27.09,0,0,1,11-5.48,25.77,25.77,0,0,1,11.52-.07,27,27,0,0,1,9.75,4.24,26.37,26.37,0,0,1,6.73,6.87c.4.64.78,1.28,1.16,1.91s.64,1.3.95,1.93a24.72,24.72,0,0,1,1.4,3.83,26.21,26.21,0,0,1,.31,12.66v-.07l2.39,4.56.61,1.17a3.17,3.17,0,0,1,.18.39l-.24-.4-.65-1.17c-.58-1-1.41-2.53-2.47-4.45a.09.09,0,0,1,0-.07,26.3,26.3,0,0,0-.43-12.53,23.81,23.81,0,0,0-1.41-3.77c-.31-.62-.59-1.27-.95-1.9l-1.15-1.88a26.16,26.16,0,0,0-6.65-6.72,26.61,26.61,0,0,0-9.61-4.14,25.43,25.43,0,0,0-11.31.1,26.51,26.51,0,0,0-10.75,5.39l-.61.48-.55.55-1.12,1.11c-.72.77-1.36,1.61-2,2.43a27,27,0,0,0-3.09,5.63,25.44,25.44,0,0,0-1.77,12.34,26.62,26.62,0,0,0,3.88,11.26,25.35,25.35,0,0,0,7.89,7.94,26.63,26.63,0,0,0,9.65,3.82,26,26,0,0,0,9.4-.05,26.58,26.58,0,0,0,7.8-2.83,26.21,26.21,0,0,0,9.2-8.56.1.1,0,0,1,.14,0,.11.11,0,0,1,0,.13h0l-.13-.13,5.12-1.9,1.34-.49Z" style="fill:#263238"></path><path d="M490,107.12A21.78,21.78,0,1,0,459,126.83v5.49h19.09s.12-3.08.16-5.84A21.77,21.77,0,0,0,490,107.12Z" style="fill:#3766D0"></path><path d="M476.58,135.85H460.19a1.23,1.23,0,0,1-1.23-1.23h0a1.23,1.23,0,0,1,1.23-1.23h16.39a1.23,1.23,0,0,1,1.23,1.23h0A1.23,1.23,0,0,1,476.58,135.85Z" style="fill:#263238"></path><path d="M476.58,136.93H460.19a1.23,1.23,0,0,0,0,2.46H462l2.39,4.54a1.58,1.58,0,0,0,1.4.85h5.85a1.57,1.57,0,0,0,1.41-.86l2.32-4.53h1.22a1.23,1.23,0,1,0,0-2.46Z" style="fill:#263238"></path><path d="M472.73,144.31s-.43-.15-1.12-.35a9.37,9.37,0,0,0-2.78-.35,9.25,9.25,0,0,0-2.76.51,11.41,11.41,0,0,1-1.1.41,3.26,3.26,0,0,1,1-.59,8.12,8.12,0,0,1,2.82-.6,8,8,0,0,1,2.84.44A3.07,3.07,0,0,1,472.73,144.31Z" style="fill:#455a64"></path><path d="M475.39,139.44c0,.08-3,.14-6.61.14s-6.62-.06-6.62-.14,3-.13,6.62-.13S475.39,139.37,475.39,139.44Z" style="fill:#455a64"></path><path d="M474.37,141.39a10.2,10.2,0,0,1-1.62.16c-1,.07-2.38.12-3.91.14s-2.91,0-3.91,0a8.29,8.29,0,0,1-1.62-.12,13.16,13.16,0,0,1,1.62-.07l3.91,0,3.91-.07A10.06,10.06,0,0,1,474.37,141.39Z" style="fill:#455a64"></path><path d="M469.94,120.22,470,124l-2.76.05-.07-3.73c-3.3-.13-6.52-1.15-8.3-2.62l1.45-3.43a13,13,0,0,0,6.78,2.42L467,110c-3.75-.83-7.78-2-7.87-6.63-.07-3.44,2.35-6.48,7.59-7.09l-.08-3.8,2.76-.06.08,3.74A14.38,14.38,0,0,1,476.32,98L475,101.44a14,14,0,0,0-5.49-1.7l.14,6.79c3.75.84,7.84,1.93,7.94,6.6C477.67,116.57,475.21,119.58,469.94,120.22Zm-3.05-14.34-.13-6c-2.38.41-3.36,1.65-3.33,3.13S464.92,105.35,466.89,105.88Zm6.41,7.64c0-1.64-1.53-2.39-3.56-2.92l.12,6C472.31,116.14,473.33,115,473.3,113.52Z" style="fill:#fff"></path><path d="M486.68,100.56a4.52,4.52,0,0,1,.43,1.11,17,17,0,0,1,.67,3.16,19.65,19.65,0,0,1-8.46,18.58,17.55,17.55,0,0,1-2.83,1.58,5.33,5.33,0,0,1-1.11.4c-.05-.1,1.54-.69,3.72-2.28a20.19,20.19,0,0,0,8.31-18.24A42.32,42.32,0,0,0,486.68,100.56Z" style="fill:#fff"></path><path d="M468.12,80.36a21.9,21.9,0,0,1-.26-4.8,21.9,21.9,0,0,1,.26-4.8,22.67,22.67,0,0,1,.26,4.8A22.67,22.67,0,0,1,468.12,80.36Z" style="fill:#263238"></path><path d="M458.36,81.65a15.17,15.17,0,0,1-2.43-3,14.13,14.13,0,0,1-2-3.3,15.17,15.17,0,0,1,2.43,3A14.13,14.13,0,0,1,458.36,81.65Z" style="fill:#263238"></path><path d="M482.07,75.54a10.55,10.55,0,0,1-1.38,3,10.46,10.46,0,0,1-1.83,2.77,10.9,10.9,0,0,1,1.38-3A10.46,10.46,0,0,1,482.07,75.54Z" style="fill:#263238"></path><path d="M449.92,87.17a7.27,7.27,0,0,1-2.18-1.64c-1.1-1-1.92-1.92-1.82-2s1.07.63,2.18,1.65S450,87.07,449.92,87.17Z" style="fill:#263238"></path><path d="M492.52,85.77c.09.11-.74.92-1.85,1.8A6.68,6.68,0,0,1,488.51,89c-.09-.11.73-.92,1.84-1.79A6.6,6.6,0,0,1,492.52,85.77Z" style="fill:#263238"></path><g style="opacity:0.30000000000000004"><path d="M472,89.16c-.44-1.5-2.17-2.52-4.28-2.52a23.51,23.51,0,0,0-11.3,4,17.69,17.69,0,0,0-6.74,10.19,6,6,0,0,0-.12,2.75,2.74,2.74,0,0,0,1.73,2,2.8,2.8,0,0,0,2.48-.62,7.13,7.13,0,0,0,1.61-2.11,56.16,56.16,0,0,1,3-5.31A8.41,8.41,0,0,1,463.08,94c1.31-.28,2.5-.31,3.81-.59,1.63-.36,2.67-.32,3.8-1A3.53,3.53,0,0,0,472,89.16Z" style="fill:#fff"></path></g><g style="opacity:0.30000000000000004"><path d="M454.42,111.34a2.51,2.51,0,1,1-2.51-2.51A2.51,2.51,0,0,1,454.42,111.34Z" style="fill:#fff"></path></g></g><g id="freepik--speech-bubble-1--inject-14"><path d="M103.54,141.82l-7.16,2.44a28.8,28.8,0,1,1,3.58-9.69v0Z" style="fill:#fff"></path><path d="M103.54,141.82s-.1-.16-.26-.48l-.71-1.39-2.7-5.35h.18a.1.1,0,0,1-.14,0,.11.11,0,0,1-.06-.11,28.71,28.71,0,0,0-1-13.76,29.33,29.33,0,0,0-4.16-8.08,28.49,28.49,0,0,0-7.52-7.06,29.22,29.22,0,0,0-10.61-4.12,27.89,27.89,0,0,0-12.29.5,29.12,29.12,0,0,0-11.52,6.17A28,28,0,0,0,45,119.45a29.2,29.2,0,0,0-1.7,6.83c-.09,1.16-.19,2.32-.19,3.47l.07,1.73,0,.86.13.84a29.05,29.05,0,0,0,4.63,12.36,27.8,27.8,0,0,0,9,8.51,29.08,29.08,0,0,0,10.82,3.83,28.76,28.76,0,0,0,10.37-.44l2.33-.66c.75-.23,1.46-.56,2.18-.82a26.39,26.39,0,0,0,3.94-2,28.67,28.67,0,0,0,9.68-9.76.08.08,0,0,1,.06,0l5.3-1.75,1.4-.45.49-.15-.44.17-1.36.49-5.33,1.88.06,0a28.71,28.71,0,0,1-9.69,9.94,26.39,26.39,0,0,1-4,2c-.72.27-1.44.61-2.21.85l-2.35.67a29.08,29.08,0,0,1-10.52.5,29.71,29.71,0,0,1-11-3.85,28.32,28.32,0,0,1-9.2-8.64,29.57,29.57,0,0,1-4.73-12.57l-.13-.87,0-.87c0-.58-.05-1.17-.08-1.75,0-1.17.1-2.36.19-3.54a29.75,29.75,0,0,1,1.74-7,28.48,28.48,0,0,1,7.92-11.46,29.71,29.71,0,0,1,11.74-6.26,28.34,28.34,0,0,1,12.49-.49,29.54,29.54,0,0,1,10.76,4.23A29,29,0,0,1,95,112.48a29.58,29.58,0,0,1,4.16,8.21,28.66,28.66,0,0,1,.9,13.89l-.2-.06h0a.09.09,0,0,1,.14,0,.08.08,0,0,1,0,0c1.13,2.36,2,4.19,2.61,5.46.29.59.51,1.06.66,1.39S103.54,141.82,103.54,141.82Z" style="fill:#263238"></path><polygon points="59.02 130.73 62.63 126.87 70.05 133.03 83.72 118.94 87.32 122.56 69.76 140.25 59.02 130.73" style="fill:#3766D0"></polygon></g><g id="freepik--character-1--inject-14"><path d="M137.34,355.9h-6.13a6.38,6.38,0,0,1-6.33-5.61c-1.21-10-3.61-37.84-3.64-38.12l4.37-.38c0,.28,2.42,28,3.62,38a2,2,0,0,0,2,1.75h6.13Z" style="fill:#e0e0e0"></path><path d="M137.34,355.9a2,2,0,0,1,0-.3c0-.23,0-.51,0-.86,0-.77,0-1.85-.06-3.23l.1.1-3.41,0h-2a6.18,6.18,0,0,1-1.12,0,2.16,2.16,0,0,1-1.68-1.7c-.07-.42-.09-.82-.14-1.25-.08-.84-.17-1.71-.26-2.61l-.57-5.76-2.77-28.49.28.24-3.24.28-1.13.1.24-.28c1.38,14.79,2.63,28.13,3.53,37.82a6.26,6.26,0,0,0,3.35,5.1c1.7.92,3.42.67,4.74.73l3.1.06.83,0,.29,0-.26,0-.79,0-3.13.06c-.68,0-1.44,0-2.28,0a6.51,6.51,0,0,1-6.21-6c-1-9.68-2.25-23-3.69-37.82l0-.26.26,0,1.13-.1,3.24-.28.26,0,0,.26c1,10.59,1.91,20.36,2.67,28.49.18,2,.36,3.94.52,5.75.09.9.17,1.78.24,2.62,0,.42.07.85.12,1.23a1.83,1.83,0,0,0,1.41,1.45,5.31,5.31,0,0,0,1.06.05l2,0,3.41,0h.1v.1c0,1.41,0,2.51-.06,3.29,0,.34,0,.62,0,.83A1.39,1.39,0,0,1,137.34,355.9Z" style="fill:#263238"></path><path d="M235,361.26H137.12a6.61,6.61,0,0,1-6.61-6.61h0a6.61,6.61,0,0,1,6.61-6.6H235a6.6,6.6,0,0,1,6.6,6.6h0A6.6,6.6,0,0,1,235,361.26Z" style="fill:#455a64"></path><path d="M116.18,315.44,102.82,210.66a6.6,6.6,0,0,1,5.72-7.38h0a6.6,6.6,0,0,1,7.38,5.71l13.36,104.78a6.61,6.61,0,0,1-5.72,7.39h0A6.6,6.6,0,0,1,116.18,315.44Z" style="fill:#455a64"></path><polygon points="234.35 357.17 248.94 464.24 243.14 464.23 221.36 361.26 234.35 357.17" style="fill:#455a64"></polygon><polygon points="138.26 357.17 124.07 464.24 129.88 464.23 151.25 361.26 138.26 357.17" style="fill:#455a64"></polygon><path d="M238.58,361.26c0,.14-23,.26-51.41.26s-51.42-.12-51.42-.26,23-.26,51.42-.26S238.58,361.11,238.58,361.26Z" style="fill:#263238"></path><path d="M137.7,136.86a111.21,111.21,0,0,1-5.48-18.3c-1.12-6.28-1.17-12.86.83-18.91.31-.92,3-7.1,3.92-7,.69,0-.87,5.77-.5,6.36,3.52,5.57,4.67,12.39,4.38,19a86.8,86.8,0,0,1-3.15,18.92" style="fill:#e0e0e0"></path><path d="M139.75,170.81,137.42,113c-1.09-16,6.05-30.27,22-30.92l1.73,0A28.3,28.3,0,0,1,189,108.58c.88,13.9,1.68,29.33,1.45,36.78-.45,15.34-15.84,17.46-15.84,17.46s.66,11.12.77,15.62c0,0-1.62,1.18-15.91,1.69S139.75,170.81,139.75,170.81Z" style="fill:#ffbf9d"></path><path d="M174.56,162.82a37.06,37.06,0,0,1-19.87-6.25s4.67,11.24,20,10.12Z" style="fill:#ff9a6c"></path><path d="M183.68,124.76a2.18,2.18,0,0,1-2.15,2.17,2.08,2.08,0,0,1-2.22-2,2.19,2.19,0,0,1,2.14-2.18A2.1,2.1,0,0,1,183.68,124.76Z" style="fill:#263238"></path><path d="M185.08,117c-.28.28-1.92-1-4.28-1s-4.1,1.12-4.35.82c-.13-.13.16-.64.92-1.17a5.92,5.92,0,0,1,3.5-1,5.73,5.73,0,0,1,3.39,1.16C185,116.39,185.21,116.91,185.08,117Z" style="fill:#263238"></path><path d="M163.88,124a2.19,2.19,0,0,1-2.15,2.17,2.09,2.09,0,0,1-2.23-2,2.2,2.2,0,0,1,2.15-2.18A2.1,2.1,0,0,1,163.88,124Z" style="fill:#263238"></path><path d="M163.53,117.38c-.28.29-1.92-1-4.27-1s-4.11,1.12-4.36.82c-.12-.13.16-.64.92-1.17a6,6,0,0,1,3.5-1,5.7,5.7,0,0,1,3.39,1.16C163.43,116.74,163.66,117.26,163.53,117.38Z" style="fill:#263238"></path><path d="M170.71,135.61c0-.14,1.46-.36,3.84-.63.6,0,1.17-.16,1.28-.57a3.06,3.06,0,0,0-.37-1.79q-.81-2.19-1.7-4.61c-2.36-6.57-4-12-3.79-12.06s2.39,5.15,4.75,11.72l1.63,4.65a3.51,3.51,0,0,1,.27,2.36,1.52,1.52,0,0,1-1,.87,4,4,0,0,1-1,.12A15.45,15.45,0,0,1,170.71,135.61Z" style="fill:#263238"></path><path d="M164,109.7c-.29.61-2.61.1-5.4.17s-5.08.63-5.39,0c-.14-.29.3-.85,1.26-1.39a9.41,9.41,0,0,1,8.22-.15C163.61,108.86,164.07,109.4,164,109.7Z" style="fill:#e0e0e0"></path><path d="M186,108.82c-.43.58-2.36.18-4.63.35s-4.14.72-4.63.2c-.22-.26,0-.82.83-1.39a7.62,7.62,0,0,1,7.47-.44C185.83,108,186.14,108.54,186,108.82Z" style="fill:#e0e0e0"></path><path d="M138.47,124.22c-.26-.12-10.48-3.3-10.33,7.19s10.65,8.18,10.67,7.88S138.47,124.22,138.47,124.22Z" style="fill:#ffbf9d"></path><path d="M135.37,135.4c-.05,0-.18.13-.49.27a1.76,1.76,0,0,1-1.36.05c-1.12-.39-2.08-2.13-2.16-4a6,6,0,0,1,.48-2.62,2.11,2.11,0,0,1,1.35-1.42.93.93,0,0,1,1.09.48c.14.29.08.5.14.52s.22-.18.13-.61a1.23,1.23,0,0,0-.42-.65,1.39,1.39,0,0,0-1-.25,2.55,2.55,0,0,0-1.89,1.65,6.33,6.33,0,0,0-.59,2.93c.1,2.12,1.21,4.08,2.74,4.5a2,2,0,0,0,1.66-.3C135.35,135.65,135.41,135.42,135.37,135.4Z" style="fill:#ff9a6c"></path><path d="M181.77,91.61c1.68-1-3.55-6.36-7.77-8.16-6.37-2.71-16-4.25-21.82-2.46-7,2.14-12.69,5.76-16.05,12.22A41.17,41.17,0,0,0,132,114.39a12.46,12.46,0,0,0,1.62,6.37c1.52,2.29,4.37,3.68,4.32,6.89a4.36,4.36,0,0,0,1.16,3.17c2,2,4.28,0,5.31-1.92,2.21-4.16,2.35-9.08,2.45-13.79.06-3.35.12-6.77-.9-10-.55-1.74-1.42-3.37-1.87-5.14a5.33,5.33,0,0,1,1.45-6.14,10.93,10.93,0,0,1,10.81-2.31c5.95,2,16.12,4.83,18.71,2.77,3.72-3,4.58-4.88,4.58-4.88Z" style="fill:#e0e0e0"></path><path d="M172.23,142c0,.17-.53.51-1.59.64a7.75,7.75,0,0,1-7.12-3.39c-.56-.9-.66-1.56-.51-1.64.36-.18,1.63,1.88,4.2,3.06S172.15,141.6,172.23,142Z" style="fill:#263238"></path><path d="M159.43,137.71c-.07,0-.15-.3,0-.79a2.6,2.6,0,0,1,3-2c.48.09.73.28.71.34a4.56,4.56,0,0,0-2.28.5C159.68,136.52,159.57,137.74,159.43,137.71Z" style="fill:#ff9a6c"></path><path d="M300,415.25,298.85,447S330.6,458.13,331,464l-61.48.73-.3-49.55Z" style="fill:#455a64"></path><path d="M280.2,444.46a2.54,2.54,0,0,0-1.75,2.9,2.45,2.45,0,0,0,2.86,1.76,2.68,2.68,0,0,0,1.83-3.08c-.41-1.18-2.07-2.09-3.17-1.5" style="fill:#e0e0e0"></path><path d="M269.48,464.74l0-3.95,59.69.49a4.69,4.69,0,0,1,2.12,3.06Z" style="fill:#263238"></path><path d="M299.42,447.2c0,.3-1.53.44-3,1.42s-2.28,2.25-2.56,2.13.17-1.87,2-3S299.48,446.92,299.42,447.2Z" style="fill:#263238"></path><path d="M305.93,449.88c.07.3-1.24.82-2.27,2.1s-1.33,2.64-1.63,2.63-.49-1.73.81-3.3S305.92,449.6,305.93,449.88Z" style="fill:#263238"></path><path d="M309.64,457.67c-.28.07-.7-1.44.07-3.11s2.2-2.32,2.33-2.07-.75,1.14-1.37,2.52S309.94,457.64,309.64,457.67Z" style="fill:#263238"></path><path d="M298.86,439.88c-.13.28-1.52-.14-3.23,0s-3.05.66-3.21.4,1.13-1.34,3.15-1.45S299,439.64,298.86,439.88Z" style="fill:#263238"></path><path d="M300,433c0,.13-1.2.31-3.11,0a14.27,14.27,0,0,1-3.25-1,14.7,14.7,0,0,1-1.79-.94,3.87,3.87,0,0,1-.94-.73,1.32,1.32,0,0,1-.14-1.62,1.68,1.68,0,0,1,1.33-.69,4,4,0,0,1,1.16.16,11.34,11.34,0,0,1,1.94.66,11.15,11.15,0,0,1,2.87,1.88c1.44,1.33,1.93,2.46,1.83,2.52s-.84-.85-2.31-1.95a13,13,0,0,0-2.77-1.56,12.05,12.05,0,0,0-1.79-.54c-.66-.18-1.22-.18-1.39.11-.06.12-.06.16.07.35a3.18,3.18,0,0,0,.69.53,16.42,16.42,0,0,0,1.65.94,17.23,17.23,0,0,0,3,1.15A23.93,23.93,0,0,1,300,433Z" style="fill:#263238"></path><path d="M326.32,353.7l15,28s33-6.3,36.31-1.39l-52.82,31.47L299.66,369.1Z" style="fill:#455a64"></path><path d="M323.88,388.89a2.54,2.54,0,0,0-.06,3.38,2.43,2.43,0,0,0,3.35.09,2.67,2.67,0,0,0,.05-3.58c-1-.81-2.84-.77-3.5.29" style="fill:#e0e0e0"></path><path d="M324.78,411.81l-2-3.4,51.88-29.52a4.72,4.72,0,0,1,3.38,1.58Z" style="fill:#263238"></path><path d="M341.88,381.62c.14.27-1.1,1.15-1.9,2.74s-.85,3.09-1.15,3.13-.79-1.7.21-3.62S341.79,381.35,341.88,381.62Z" style="fill:#263238"></path><path d="M348.86,380.68c.21.22-.67,1.32-.91,2.95s.17,2.95-.09,3.08-1.3-1.24-.95-3.26S348.71,380.43,348.86,380.68Z" style="fill:#263238"></path><path d="M356,385.56c-.2.19-1.33-.91-1.49-2.73s.73-3.11,1-3-.07,1.36.08,2.86S356.22,385.38,356,385.56Z" style="fill:#263238"></path><path d="M337.73,375.57c0,.3-1.39.64-2.81,1.6s-2.31,2.1-2.57,2,.3-1.73,2-2.84S337.74,375.29,337.73,375.57Z" style="fill:#263238"></path><path d="M335.25,369.1c.06.11-.88.87-2.7,1.55a13.89,13.89,0,0,1-3.32.77,14.7,14.7,0,0,1-2,.08,4.08,4.08,0,0,1-1.17-.16,1.35,1.35,0,0,1-.94-1.33,1.67,1.67,0,0,1,.8-1.26,4,4,0,0,1,1.09-.45,11.71,11.71,0,0,1,2-.4,10.91,10.91,0,0,1,3.42.19c1.92.43,2.91,1.16,2.85,1.26s-1.15-.31-3-.53a12.69,12.69,0,0,0-3.18.05,10.36,10.36,0,0,0-1.82.42c-.66.18-1.14.46-1.14.79,0,.13,0,.17.23.27a3.31,3.31,0,0,0,.87.12,16.89,16.89,0,0,0,1.89,0,17.49,17.49,0,0,0,3.18-.51A21.27,21.27,0,0,1,335.25,369.1Z" style="fill:#263238"></path><path d="M133.14,306.76c.05-.66.08-1,.08-1Z" style="fill:#263238"></path><path d="M132.17,306.77l70.68-26.45s41.76-19.5,56.94-23.68c16.25-4.48,30.9,7.74,40,26.7,6.14,12.83,38.67,87.86,38.67,87.86l-28.73,19-51-93.13L179.3,348.58s-15.65-.31-30.78-.31C134.84,348.27,131.69,313,132.17,306.77Z" style="fill:#263238"></path><polygon points="133.14 306.76 133.14 306.77 133.14 306.77 133.14 306.76" style="fill:#263238"></polygon><path d="M303.9,430.25l-8.9-98.2s-1.75-22.84-14.94-27.4-28.59-2.73-28.59-2.73l-73.88,46.63,75.8,1.3s3.85,15.95,4.95,22.87c1.31,8.25,7.58,59.93,7.58,59.93Z" style="fill:#263238"></path><path d="M179.3,344.5l.34-.23,1-.62,4-2.41,15-8.93,22.94-13.58,13.9-8.22L244,306.1l7.85-4.44.06,0h.06l10.28-.33h0a72.47,72.47,0,0,1,13.3,1.72,26.45,26.45,0,0,1,3.32,1c1,.55,2.09,1.06,3.09,1.69l1.43,1,.71.52.65.61,1.3,1.21c.41.42.77.9,1.17,1.35a32.57,32.57,0,0,1,5.9,11,46.73,46.73,0,0,1,2.26,11.91c.71,7.9,1.4,15.52,2.05,22.78,1.3,14.51,2.46,27.58,3.44,38.57s1.74,19.85,2.28,26c.26,3.05.45,5.43.59,7.07.06.8.11,1.41.14,1.84s0,.63,0,.63,0-.21-.08-.62l-.19-1.84c-.16-1.63-.39-4-.69-7.07-.58-6.15-1.41-15-2.44-26s-2.22-24.05-3.56-38.57c-.66-7.26-1.35-14.87-2.08-22.77a46.5,46.5,0,0,0-2.24-11.79,32.26,32.26,0,0,0-5.81-10.82c-.39-.44-.74-.9-1.15-1.32l-1.27-1.19-.63-.59-.7-.51-1.4-1c-1-.6-2-1.11-3-1.64a25.94,25.94,0,0,0-3.25-1,71.09,71.09,0,0,0-13.21-1.72h0l-10.28.31.12,0-7.86,4.43-7.47,4.39-13.92,8.18-23,13.49-15.08,8.81-4,2.33-1,.59Z" style="fill:#455a64"></path><polygon points="200.47 256.64 234.94 265.99 203.03 283.34 198.43 271.05 200.47 256.64" style="fill:#3766D0"></polygon><g style="opacity:0.30000000000000004"><polygon points="200.47 256.64 234.94 265.99 203.03 283.34 198.43 271.05 200.47 256.64"></polygon></g><path d="M134.72,166s-22.52,20-18.09,50.21,8,80.81,11.4,86.35,5.11,4.19,5.11,4.19l71.91-27.58-4.13-49.46-24.41-47.49.23-11.11-37.6-15.46Z" style="fill:#3766D0"></path><path d="M134.51,198.7c-4.25,17.23,6.74,32,22.28,39.62,17,8.39,40.14,18.49,46.22,21.07,9.94,4.23,30.42,8.37,43.53,1.9,10.86-5.36,23.51-4.65,23.51-4.65l-8.68-12.88-13.08-3.71-35.52-10s-30.93-32.66-39.7-41.34c-9.82-9.72-28.81-9.08-36.63,5.48A26.08,26.08,0,0,0,134.51,198.7Z" style="fill:#3766D0"></path><path d="M134.51,198.7s0-.17.12-.49.27-.78.52-1.38.58-1.34,1-2.2,1.07-1.78,1.71-2.86a23.3,23.3,0,0,1,6.67-6.3,23.8,23.8,0,0,1,11.84-3.37,24.16,24.16,0,0,1,14.44,4.52,63.36,63.36,0,0,1,6.3,5.94l6.46,6.64c8.85,9.16,18.72,19.5,29.37,30.72l-.11-.07,48.6,13.66.09,0,.05.08,8.11,12,.57.85.29.43-.52,0a54.15,54.15,0,0,0-8.64.44,53.2,53.2,0,0,0-8.36,1.72c-1.35.41-2.68.87-4,1.4l-3.86,1.69a13.77,13.77,0,0,1-2,.75c-.67.21-1.34.44-2,.63a41.1,41.1,0,0,1-4.09.82,58.71,58.71,0,0,1-16.22-.06,75.91,75.91,0,0,1-15.13-3.58c-2.4-.85-4.68-1.89-6.94-2.86l-6.67-2.93-12.71-5.71c-8.18-3.73-15.76-7.29-22.62-10.67a52.74,52.74,0,0,1-9.22-5.83,49.41,49.41,0,0,1-3.77-3.33,42.23,42.23,0,0,1-3.13-3.54,38.15,38.15,0,0,1-2.54-3.59c-.35-.62-.68-1.23-1-1.82l-.49-.89-.4-.9-.76-1.76-.58-1.73a24.74,24.74,0,0,1-.84-3.28,30.72,30.72,0,0,1-.26-9.81c.18-1.11.38-1.95.49-2.51s.19-.85.19-.85,0,.29-.14.86-.27,1.4-.44,2.51a31.59,31.59,0,0,0,.35,9.76,24.64,24.64,0,0,0,.87,3.25l.58,1.72.77,1.73c.13.3.26.6.4.9l.48.88,1,1.8a39.06,39.06,0,0,0,2.54,3.55,43.31,43.31,0,0,0,3.12,3.5c1.18,1.1,2.39,2.25,3.75,3.29a52.9,52.9,0,0,0,9.18,5.76c6.87,3.36,14.45,6.9,22.64,10.6l12.71,5.69,6.68,2.92c2.26,1,4.53,2,6.91,2.84a75.51,75.51,0,0,0,15,3.54,58,58,0,0,0,16.07,0,40.67,40.67,0,0,0,4-.81c.66-.18,1.31-.41,2-.61a14.63,14.63,0,0,0,1.94-.74l3.86-1.7c1.32-.54,2.67-1,4-1.42a54.59,54.59,0,0,1,8.45-1.74,53.88,53.88,0,0,1,8.73-.44l-.23.4-.57-.85-8.11-12,.15.1-48.59-13.7h-.07l0-.05C202,219,192.12,208.66,183.29,199.48l-6.44-6.65a62.51,62.51,0,0,0-6.24-5.93,23.94,23.94,0,0,0-14.22-4.51,23.64,23.64,0,0,0-11.73,3.27,23.19,23.19,0,0,0-6.66,6.2c-.65,1.07-1.28,2-1.73,2.82s-.79,1.58-1.05,2.18-.44,1-.55,1.36Z" style="fill:#263238"></path><path d="M204.28,270s-1.83,13.19-2.05,14.84S204,292,203.88,295s-1.23,5.87,0,6.87,4.38.43,5.16-1.72.65-8.8.65-8.8l1.5,6v11.13a2,2,0,0,0,2.22,1.68,4.6,4.6,0,0,0,3.22-1.68,3.26,3.26,0,0,0,3.65-2s3.58,1.15,4.87-4.87a2.39,2.39,0,0,0,2.72-1c1.07-1.57,3.22-5.51,3.22-5.51s.36-14.67-.5-17.89-9.25-12.59-9.25-12.59l-13.66-2.43Z" style="fill:#ffbf9d"></path><path d="M216.56,283.54a3.84,3.84,0,0,1,.39.91,23.68,23.68,0,0,1,.76,2.55,35.82,35.82,0,0,1,0,17.46,23.64,23.64,0,0,1-.78,2.55,3.4,3.4,0,0,1-.39.9c-.08,0,.34-1.35.81-3.53a41.12,41.12,0,0,0,0-17.3C216.89,284.9,216.47,283.57,216.56,283.54Z" style="fill:#ff9a6c"></path><path d="M223.5,283.26a2.91,2.91,0,0,1,.19.93c.09.59.2,1.46.31,2.54a46,46,0,0,1,.17,8.45,23.38,23.38,0,0,1-2.12,8.2,14.93,14.93,0,0,1-1.31,2.22,3,3,0,0,1-.61.72c-.07-.06.73-1.13,1.59-3.1a25.78,25.78,0,0,0,1.94-8.08,58.89,58.89,0,0,0,0-8.38A26.83,26.83,0,0,1,223.5,283.26Z" style="fill:#ff9a6c"></path><path d="M226.41,282.9a20.75,20.75,0,0,1,.32,2.75c.16,1.71.49,4.06.54,6.7a17.64,17.64,0,0,1-1,6.67,9.78,9.78,0,0,1-.93,1.83c-.27.4-.45.6-.48.58s.53-.93,1.06-2.54a19.6,19.6,0,0,0,.87-6.53c-.05-2.6-.32-5-.39-6.68A11.24,11.24,0,0,1,226.41,282.9Z" style="fill:#ff9a6c"></path><path d="M136.45,165.81a2,2,0,0,1,.46.19l1.29.63,4.71,2.31c4,1.92,9.55,4.48,15.82,7,5.07,2,9.83,3.74,13.64,5l-.24.08a26.38,26.38,0,0,0,3.22-6.41c.28-.81.47-1.46.59-1.9a2.33,2.33,0,0,1,.22-.67,2.87,2.87,0,0,1-.1.7,17.64,17.64,0,0,1-.48,1.94,25,25,0,0,1-3.1,6.58l-.09.13-.15-.05c-3.84-1.23-8.62-2.89-13.7-4.93-6.29-2.52-11.84-5.15-15.79-7.15-2-1-3.56-1.86-4.65-2.47l-1.24-.71C136.58,165.93,136.44,165.83,136.45,165.81Z" style="fill:#263238"></path><path d="M255.88,254.71a21.33,21.33,0,0,1,1.46-4.42,20.82,20.82,0,0,1,2-4.22,21.15,21.15,0,0,1-1.46,4.41A20.46,20.46,0,0,1,255.88,254.71Z" style="fill:#263238"></path><path d="M207.91,250.37a11.58,11.58,0,0,1,.43-2.33l1.24-5.57c.42-2.09.81-4,1.14-5.6a12.18,12.18,0,0,1,.55-2.3,9.71,9.71,0,0,1-.19,2.37c-.2,1.45-.53,3.45-1,5.64s-1,4.15-1.38,5.55A9.59,9.59,0,0,1,207.91,250.37Z" style="fill:#263238"></path><path d="M201.83,249.46a6.47,6.47,0,0,1,.07-2.14,18.69,18.69,0,0,1,1.42-5,19.1,19.1,0,0,1,2.73-4.4,6.13,6.13,0,0,1,1.54-1.48,25.84,25.84,0,0,0-5.76,13Z" style="fill:#263238"></path><g style="opacity:0.30000000000000004"><path d="M203.39,259.55l.71,7.65c-11.84-5.34-24.36-10.94-36.2-16.28-6.76-3-13.6-6.16-19.32-10.88s-10.26-11.34-10.86-18.73A386.6,386.6,0,0,0,203.39,259.55Z"></path></g></g><g id="freepik--Desk--inject-14"><polygon points="84.59 464.39 77.28 464.39 75.53 276.22 87.24 276.22 84.59 464.39" style="fill:#e0e0e0"></polygon><path d="M84.59,464.39s0-.34,0-1l0-2.84c0-2.5.06-6.17.11-10.9.12-9.47.28-23.17.49-40.14.45-33.92,1.07-80.92,1.77-133.31l.26.26H75.53l.26-.26c.84,90.7,1.47,166.68,1.56,188.17l-.07-.06,5.52,0,1.79,0s-.55,0-1.75,0l-5.56,0h-.06v-.07c-.31-21.49-1.1-97.47-2-188.16V276H87.5v.27c-.78,52.46-1.48,99.53-2,133.5-.27,16.94-.49,30.62-.64,40.07-.08,4.71-.15,8.36-.19,10.84l-.06,2.81C84.61,464.08,84.59,464.39,84.59,464.39Z" style="fill:#263238"></path><polygon points="207.29 463.91 199.99 463.91 198.23 278.16 209.94 278.16 207.29 463.91" style="fill:#e0e0e0"></polygon><path d="M207.29,463.91v-1c0-.64,0-1.58,0-2.8,0-2.47.07-6.1.12-10.77.11-9.34.28-22.86.48-39.62.45-33.48,1.08-79.88,1.77-131.6l.26.27H198.23l.26-.27c.85,89.48,1.47,164.44,1.56,185.76l-.06-.07,5.51,0c1.21,0,1.79,0,1.79,0l-1.75,0L200,464h-.07v-.06c-.31-21.32-1.1-96.28-1.95-185.75v-.26H210.2v.26c-.78,51.79-1.48,98.26-2,131.79-.28,16.73-.5,30.23-.65,39.56-.08,4.64-.14,8.24-.19,10.7,0,1.21,0,2.13,0,2.77S207.29,463.91,207.29,463.91Z" style="fill:#263238"></path><rect x="63.47" y="268.56" width="405.95" height="10.33" transform="translate(532.89 547.45) rotate(180)" style="fill:#455a64"></rect><polygon points="439.91 464.4 447.22 464.4 448.97 278.95 437.27 278.95 439.91 464.4" style="fill:#e0e0e0"></polygon><path d="M439.91,464.4l0-.93c0-.63,0-1.56-.06-2.76,0-2.46-.1-6-.19-10.69-.15-9.31-.37-22.79-.64-39.49-.5-33.48-1.2-79.87-2-131.58v-.26h12.24V279c-.84,89.32-1.63,164.16-1.94,185.45v.07h-.07l-5.56,0c-1.19,0-1.75,0-1.75,0s.59,0,1.79,0l5.52,0-.07.07c.09-21.3.72-96.13,1.56-185.46l.26.27h-11.7l.26-.27c.69,51.64,1.31,98,1.76,131.39.21,16.73.37,30.23.49,39.56.05,4.66.09,8.28.12,10.75,0,1.22,0,2.15,0,2.8S439.91,464.4,439.91,464.4Z" style="fill:#263238"></path><g style="opacity:0.30000000000000004"><rect x="63.47" y="268.56" width="142.27" height="10.33"></rect></g><rect x="80.8" y="248.4" width="81.73" height="20.68" style="fill:#455a64"></rect><path d="M101.71,259.87a5.06,5.06,0,1,1-5.06-5.06A5.07,5.07,0,0,1,101.71,259.87Z" style="fill:#263238"></path><path d="M96.65,265.93a6.06,6.06,0,1,1,6.06-6.06A6.07,6.07,0,0,1,96.65,265.93Zm0-10.12a4.06,4.06,0,1,0,4.06,4.06A4.06,4.06,0,0,0,96.65,255.81Z" style="fill:#e0e0e0"></path><rect x="108.89" y="256.38" width="36.23" height="6.98" style="fill:#ebebeb"></rect><rect x="80.8" y="227.71" width="81.73" height="20.68" transform="translate(243.33 476.11) rotate(180)" style="fill:#263238"></rect><path d="M141.62,238.05a5.06,5.06,0,1,1,5.06,5.06A5.06,5.06,0,0,1,141.62,238.05Z" style="fill:#263238"></path><path d="M146.68,244.11a6.06,6.06,0,1,1,6-6.06A6.07,6.07,0,0,1,146.68,244.11Zm0-10.12a4.06,4.06,0,1,0,4,4.06A4.06,4.06,0,0,0,146.68,234Z" style="fill:#e0e0e0"></path><rect x="98.21" y="234.56" width="36.23" height="6.98" transform="translate(232.65 476.11) rotate(180)" style="fill:#ebebeb"></rect><rect x="162.53" y="227.71" width="16.29" height="20.69" style="fill:#263238"></rect><rect x="162.53" y="248.43" width="16.29" height="20.69" style="fill:#263238"></rect><g style="opacity:0.30000000000000004"><rect x="162.53" y="227.71" width="16.29" height="20.69"></rect></g></g><g id="freepik--Device--inject-14"><path d="M421.89,261.4H402.46c0-.15,0-.31-.08-.47L389.11,205.1a6.32,6.32,0,0,0-6.14-4.85H310.53a6.31,6.31,0,0,0-6.09,8l15.17,55.83c.59,2.15,1.69,4.36,4.39,4.65H428v-1.16A6.14,6.14,0,0,0,421.89,261.4Z" style="fill:#e0e0e0"></path><path d="M421.89,261.4s.23,0,.69,0a6.22,6.22,0,0,1,4.52,2.75,6.17,6.17,0,0,1,.86,2,11.36,11.36,0,0,1,.16,2.51v.09H428L324,269h0a4.61,4.61,0,0,1-3.14-1.71,8.88,8.88,0,0,1-1.5-3.28c-.62-2.28-1.24-4.58-1.88-6.91q-1.89-7-3.87-14.22c-2.62-9.66-5.34-19.63-8.1-29.81l-.84-3.07a15.33,15.33,0,0,1-.68-3.15,6.63,6.63,0,0,1,2.82-5.63,6.43,6.43,0,0,1,3-1.13c1.1-.09,2.09,0,3.14,0h68.61a16.17,16.17,0,0,1,2.59.1,6.76,6.76,0,0,1,2.41,1,6.58,6.58,0,0,1,2.82,4.12c.37,1.59.75,3.16,1.11,4.71.73,3.1,1.45,6.12,2.14,9.06,1.39,5.86,2.69,11.38,3.9,16.52,2.42,10.28,4.51,19,6.07,25.87l-.12-.1,14.46.06,3.71,0,1.26,0-1.26,0-3.71,0-14.46.06h-.09l0-.1c-1.63-6.85-3.72-15.57-6.17-25.83-1.23-5.13-2.54-10.65-3.95-16.51L390.06,210l-1.12-4.71a6.16,6.16,0,0,0-2.64-3.85,6.3,6.3,0,0,0-2.25-.9,14.82,14.82,0,0,0-2.51-.09H312.93c-1,0-2.1,0-3.08,0a5.91,5.91,0,0,0-2.77,1,6.1,6.1,0,0,0-2.6,5.18,14.72,14.72,0,0,0,.66,3l.84,3.07c2.76,10.19,5.47,20.16,8.1,29.81l3.86,14.23c.63,2.33,1.26,4.63,1.87,6.91a8.5,8.5,0,0,0,1.4,3.1,4.08,4.08,0,0,0,2.81,1.53h0l104,.15-.09.09a10.89,10.89,0,0,0-.14-2.47,5.75,5.75,0,0,0-.82-2,6,6,0,0,0-2.47-2.19A6.92,6.92,0,0,0,421.89,261.4Z" style="fill:#263238"></path><polygon points="382.56 205.76 309.83 205.76 324.28 257.4 395.03 257.4 382.56 205.76" style="fill:#455a64"></polygon><path d="M403.18,261.54c0,.15-17.14.26-38.28.26s-38.29-.11-38.29-.26,17.14-.26,38.29-.26S403.18,261.4,403.18,261.54Z" style="fill:#263238"></path><path d="M387.94,252.56l-.25,0-.7,0-2.72,0-10,.08-33,.08H329.59l0-.19c-2.68-9.71-5-18.15-6.69-24.21-.8-3-1.45-5.38-1.9-7.07-.21-.8-.37-1.43-.49-1.9a3.15,3.15,0,0,1-.14-.67,5.08,5.08,0,0,1,.22.64c.15.47.34,1.09.57,1.88.5,1.69,1.19,4.07,2.05,7,1.72,6.05,4.11,14.48,6.86,24.17l-.24-.19h11.54l33,.07,10,.08,2.72.05.7,0Z" style="fill:#263238"></path><polygon points="339.32 234.82 330.58 234.82 334.81 248.63 343.55 248.63 339.32 234.82" style="fill:#263238"></polygon><polygon points="380.24 234.82 371.5 234.82 375.72 248.63 384.46 248.63 380.24 234.82" style="fill:#263238"></polygon><polygon points="351.43 229.98 342.69 229.98 348.13 248.63 356.88 248.63 351.43 229.98" style="fill:#263238"></polygon><polygon points="362.72 221.35 353.98 221.35 362.42 248.63 371.17 248.63 362.72 221.35" style="fill:#263238"></polygon></g><g id="freepik--character-2--inject-14"><path d="M581.15,103.09c-7.3-8.37-16.89-13-28-12.84-6.26.1-8.81,1.48-13.28,2.84a19.8,19.8,0,0,0-11,7.81c-3.05,4.64-5.57,9.8-6,15.33-.44,5.69-.88,11.41-.27,17.08s2.34,11.34,5.83,15.84l14.54,2c8,0,16.09,0,23.81-2s15.14-6.49,19.09-13.44C591.33,126.05,588.45,111.45,581.15,103.09Z" style="fill:#263238"></path><path d="M596.5,144.61a10.78,10.78,0,0,0-5.15-8,7.77,7.77,0,0,0-9.1,1.08l-2.18,2.78a9.32,9.32,0,0,0-5.07,9.58,10.23,10.23,0,0,0,7.36,8.14,11.33,11.33,0,0,0,10.69-3A12.69,12.69,0,0,0,596.5,144.61Z" style="fill:#263238"></path><path d="M594,154.45a4.94,4.94,0,0,0,.69-2.9c-.18-1.85-1.61-4.23-3.52-6.4a19.68,19.68,0,0,0-5.94-4.46c-1.72-.85-2.9-1.15-2.87-1.27a8,8,0,0,1,3.08.82,17.63,17.63,0,0,1,8.71,7.92,7.84,7.84,0,0,1,1,3.35,4.12,4.12,0,0,1-.58,2.32C594.25,154.31,594,154.48,594,154.45Z" style="fill:#455a64"></path><path d="M587.09,158.94c-.23,0,.61-4.41-1-9.53s-4.58-8.37-4.39-8.51a7.73,7.73,0,0,1,2,2.09,20.2,20.2,0,0,1,3.89,13.12A7.77,7.77,0,0,1,587.09,158.94Z" style="fill:#455a64"></path><path d="M573.55,108.41a5.39,5.39,0,0,0-5.26-5l-19.52-7-5,.74c-11.32.41-18.74,13.15-18.52,22.33.25,10.19.94,22.63,2.8,30.09,3.74,15,15.57,15.93,15.57,15.93s.3,9.45.3,9.45l-.15,26.53,32.44-28.5Z" style="fill:#ab645b"></path><path d="M530.11,130.35a2,2,0,0,0,2,1.81,1.87,1.87,0,0,0,1.86-1.94,2,2,0,0,0-2-1.8A1.87,1.87,0,0,0,530.11,130.35Z" style="fill:#263238"></path><path d="M529.16,125c.27.24,1.65-1,3.75-1.16s3.73.74,3.94.46c.1-.12-.19-.56-.9-1a5.43,5.43,0,0,0-3.18-.69,5.18,5.18,0,0,0-2.95,1.25C529.21,124.38,529,124.86,529.16,125Z" style="fill:#263238"></path><path d="M542.89,140.48a13.48,13.48,0,0,0-3.46-.32c-.54,0-1.06-.07-1.18-.43a2.7,2.7,0,0,1,.22-1.62l1.23-4.22c1.69-6,2.87-10.92,2.63-11s-1.81,4.75-3.51,10.75c-.41,1.48-.79,2.89-1.16,4.24a3.14,3.14,0,0,0-.1,2.13,1.33,1.33,0,0,0,1,.7,3.34,3.34,0,0,0,.92.05A13.93,13.93,0,0,0,542.89,140.48Z" style="fill:#263238"></path><path d="M543.6,165.45a38.83,38.83,0,0,0,19.9-7.21s-4.42,11.36-19.77,11.26Z" style="fill:#814842"></path><path d="M529.33,117c.4.49,2,0,3.87,0s3.49.35,3.86-.15c.17-.24-.08-.72-.78-1.18a6,6,0,0,0-6.23.12C529.38,116.3,529.15,116.79,529.33,117Z" style="fill:#263238"></path><path d="M553.69,129.38a2,2,0,0,1-1.79,2.07,1.87,1.87,0,0,1-2.1-1.67,2,2,0,0,1,1.79-2.06A1.87,1.87,0,0,1,553.69,129.38Z" style="fill:#263238"></path><path d="M558,123.29c-.23.27-1.76-.76-3.87-.65s-3.59,1.24-3.83,1,.1-.59.75-1.11a5.41,5.41,0,0,1,3.06-1.11,5.15,5.15,0,0,1,3.09.83C557.83,122.72,558.08,123.17,558,123.29Z" style="fill:#263238"></path><path d="M556.88,116.18c-.39.5-2,.08-4,.16s-3.59.5-4,0c-.18-.23.06-.72.76-1.21a6,6,0,0,1,3.21-.94,5.91,5.91,0,0,1,3.23.8C556.8,115.46,557.05,115.94,556.88,116.18Z" style="fill:#263238"></path><path d="M571.75,134.11c-.1-1.13,1-3.92,2.08-4.19,2.95-.73,8.36-.95,9.07,6.63,1,10.37-9.64,9.2-9.69,8.91S572.08,138,571.75,134.11Z" style="fill:#ab645b"></path><path d="M575.72,141.4s.19.11.51.22a1.77,1.77,0,0,0,1.35-.1c1.06-.5,1.82-2.33,1.69-4.2a6,6,0,0,0-.74-2.54,2.11,2.11,0,0,0-1.49-1.26.93.93,0,0,0-1,.6c-.11.3,0,.5-.08.52s-.24-.15-.2-.58a1.17,1.17,0,0,1,.35-.69,1.38,1.38,0,0,1,1-.36,2.54,2.54,0,0,1,2,1.43,6.14,6.14,0,0,1,.9,2.83c.13,2.1-.76,4.15-2.22,4.73a2,2,0,0,1-1.68-.12C575.76,141.65,575.68,141.42,575.72,141.4Z" style="fill:#814842"></path><path d="M574.61,129.64l-2.91,3.12C560,122.21,536.81,95.61,538.11,97.2a33.19,33.19,0,0,1,16.22-2.29c8.53,1.17,24.73,4.9,24.81,14.9S574.61,129.64,574.61,129.64Z" style="fill:#263238"></path><path d="M589.28,127.16a4,4,0,0,0-.18-.6,11.6,11.6,0,0,0-.76-1.61,15.2,15.2,0,0,0-4.5-4.75,28.35,28.35,0,0,0-8.87-3.92c-3.51-1-7.46-1.78-11.36-3.3a51.43,51.43,0,0,1-10.44-5.42,53.14,53.14,0,0,1-7.45-6.11,59.33,59.33,0,0,1-4.35-4.83l-1.08-1.4a2.75,2.75,0,0,0-.41-.47,2.22,2.22,0,0,0,.32.53c.23.34.55.84,1,1.46a48.38,48.38,0,0,0,4.24,5,51.32,51.32,0,0,0,7.44,6.24,49.69,49.69,0,0,0,10.53,5.51c4,1.55,7.92,2.29,11.41,3.28a28.82,28.82,0,0,1,8.8,3.76,15.74,15.74,0,0,1,4.53,4.55C589,126.36,589.22,127.18,589.28,127.16Z" style="fill:#455a64"></path><path d="M586.31,128.89a5.63,5.63,0,0,0-.48-2.26,10.63,10.63,0,0,0-4.06-4.76c-2.22-1.55-5.35-2.45-8.78-3.12a51.22,51.22,0,0,1-10.88-3.08,45.55,45.55,0,0,1-9.79-5.62,46.51,46.51,0,0,1-6.79-6.26,49.35,49.35,0,0,1-3.83-4.93c-.38-.58-.68-1-.93-1.42a2.3,2.3,0,0,0-.35-.48,2,2,0,0,0,.26.53l.85,1.49a42.84,42.84,0,0,0,3.72,5.06,44.68,44.68,0,0,0,6.78,6.4,44.1,44.1,0,0,0,9.88,5.72,50,50,0,0,0,11,3.07c3.42.64,6.48,1.49,8.66,3a10.77,10.77,0,0,1,4.08,4.53A12.81,12.81,0,0,1,586.31,128.89Z" style="fill:#455a64"></path><path d="M548.91,142.12a1.71,1.71,0,0,1,.92-.32,1.36,1.36,0,0,1,.8.42,3.62,3.62,0,0,1-2.49,6.25c-1.43,0-3.14-.81-4-3.41C545.63,144.18,547.41,143,548.91,142.12Z" style="fill:#814842"></path><path d="M548.14,148.47a5.34,5.34,0,0,0,2.08-.91,3.42,3.42,0,0,0,1.22-2,3.53,3.53,0,0,0-.66-2.76c-.32-.39-.72-.78-1.09-.72a4.45,4.45,0,0,0-1.25.63L546.23,144a11.57,11.57,0,0,1-2.1,1.08,10.44,10.44,0,0,1,1.91-1.4l2.16-1.39a4.34,4.34,0,0,1,1.43-.72,1.31,1.31,0,0,1,.93.28,3.42,3.42,0,0,1,.63.63,4,4,0,0,1,.72,3.18,3.65,3.65,0,0,1-1.46,2.21A2.82,2.82,0,0,1,548.14,148.47Z" style="fill:#263238"></path><path d="M492.46,419.92l2.61,29.3s-28.8,11.87-28.84,17.34l56.88-2.4-2.19-45.82Z" style="fill:#455a64"></path><path d="M512.19,446a2.35,2.35,0,0,1,1.76,2.59,2.27,2.27,0,0,1-2.55,1.77,2.49,2.49,0,0,1-1.86-2.75A2.35,2.35,0,0,1,512.4,446" style="fill:#e0e0e0"></path><path d="M523.11,464.16l-.18-3.65-55.16,3.43a4.34,4.34,0,0,0-1.81,2.94Z" style="fill:#263238"></path><path d="M494.56,449.44c0,.28,1.43.33,2.86,1.16s2.22,2,2.47,1.84-.25-1.72-2-2.69S494.48,449.18,494.56,449.44Z" style="fill:#263238"></path><path d="M488.67,452.25c-.05.27,1.19.68,2.2,1.82s1.36,2.37,1.64,2.35.37-1.63-.92-3S488.66,452,488.67,452.25Z" style="fill:#263238"></path><path d="M485.63,459.63c.26.05.57-1.37-.23-2.87s-2.14-2-2.25-1.8.75,1,1.39,2.26S485.35,459.62,485.63,459.63Z" style="fill:#263238"></path><path d="M494.71,442.65c.13.25,1.39-.21,3-.19s2.85.46,3,.21-1.11-1.18-3-1.18S494.56,442.43,494.71,442.65Z" style="fill:#263238"></path><path d="M493.35,436.38a5.45,5.45,0,0,0,2.87-.17,12.83,12.83,0,0,0,3-1.08,14.64,14.64,0,0,0,1.61-1,3.49,3.49,0,0,0,.83-.72,1.24,1.24,0,0,0,.05-1.5,1.53,1.53,0,0,0-1.26-.57,3.92,3.92,0,0,0-1.07.2,11.15,11.15,0,0,0-1.76.71,10.36,10.36,0,0,0-2.56,1.88c-1.26,1.3-1.66,2.38-1.56,2.42s.73-.82,2-1.91a11.75,11.75,0,0,1,2.49-1.58,10.66,10.66,0,0,1,1.62-.6c.6-.19,1.12-.22,1.29,0,.06.1.07.14-.05.33a2.78,2.78,0,0,1-.61.52,14.56,14.56,0,0,1-1.47.95,15.85,15.85,0,0,1-2.73,1.21A18.82,18.82,0,0,0,493.35,436.38Z" style="fill:#263238"></path><path d="M432.61,361.4l-15.73,24.85s-30.08-8.07-33.44-3.76l46.63,32.67,26.11-37.72Z" style="fill:#455a64"></path><path d="M432.46,394.05a2.34,2.34,0,0,1-.17,3.13,2.26,2.26,0,0,1-3.1-.14,2.49,2.49,0,0,1,.2-3.32,2.35,2.35,0,0,1,3.21.51" style="fill:#e0e0e0"></path><path d="M430.07,415.15l2.08-3-45.89-30.8a4.38,4.38,0,0,0-3.23,1.23Z" style="fill:#263238"></path><path d="M416.34,386.11c-.15.24.94,1.14,1.57,2.66s.57,2.92.84,3,.85-1.52.06-3.35S416.44,385.87,416.34,386.11Z" style="fill:#263238"></path><path d="M410,384.76c-.21.19.53,1.27.64,2.79s-.36,2.71-.13,2.86,1.29-1.06,1.11-3S410.12,384.55,410,384.76Z" style="fill:#263238"></path><path d="M403.06,388.78c.17.2,1.29-.74,1.56-2.42s-.46-2.92-.69-2.79,0,1.26-.27,2.63S402.84,388.6,403.06,388.78Z" style="fill:#263238"></path><path d="M420.59,380.81c0,.28,1.23.68,2.48,1.67s2,2.1,2.24,2-.16-1.61-1.64-2.75S420.6,380.55,420.59,380.81Z" style="fill:#263238"></path><path d="M423.32,375c-.07.1.75.87,2.39,1.62a13.12,13.12,0,0,0,3,.94,15.32,15.32,0,0,0,1.86.21,3.59,3.59,0,0,0,1.1-.07,1.23,1.23,0,0,0,.95-1.16,1.51,1.51,0,0,0-.65-1.22,3.68,3.68,0,0,0-1-.49,11.2,11.2,0,0,0-1.83-.51,10.34,10.34,0,0,0-3.17-.06c-1.8.27-2.77.88-2.72,1s1.08-.22,2.78-.29a11.3,11.3,0,0,1,2.94.26,11.1,11.1,0,0,1,1.65.51c.59.21,1,.5,1,.81,0,.12,0,.16-.24.23a2.5,2.5,0,0,1-.81.05,13.78,13.78,0,0,1-1.74-.14A16.74,16.74,0,0,1,426,376,23,23,0,0,0,423.32,375Z" style="fill:#263238"></path><path d="M575.82,280.91c-1.12,0,4.21,14.78-34.85,20s-53.79,10.91-61.23,20.21,11.83,115,11.83,115L523,435s-2-52.52-2.79-60-5.87-27-5.87-27h0l82.65.85c.49,0,1,0,1.45,0,18.45-.59,32.8-24.28,31.28-42.68l-1.82-10Z" style="fill:#263238"></path><path d="M575.26,288s-38.32-10.79-58.79-12.65-32.34,1.5-35.82,5.26C472.55,289.41,419.2,376,419.2,376l28.47,19.55s46.85-66.18,59.87-83.67l4.49-5.33,63.79-8.78Z" style="fill:#263238"></path><path d="M570.45,295l-.28.08-.84.19-3.21.69-11.83,2.42-39.06,7.82-3.15.62.19-.16A106.75,106.75,0,0,1,491.62,338a92.4,92.4,0,0,1-8.35,7.65l-2.44,1.86-.64.47c-.14.1-.22.15-.23.14l.2-.18.61-.52,2.38-1.93a96.71,96.71,0,0,0,8.21-7.74,108.5,108.5,0,0,0,10.49-13.16,106,106,0,0,0,9.94-18.19l.06-.13.13,0,3.14-.62,39.1-7.67,11.86-2.26,3.23-.59.85-.14A1,1,0,0,1,570.45,295Z" style="fill:#455a64"></path><path d="M488.18,191.35s.09-7.86.7-10.57-.2-5.61-3.13-5.4c-2.75.2-3.07,4.61-3.51,7.23s-.87,4.37-4.28,5.07-24.65-1.75-26.74-.61-3.15,3.76-.61,4.28,15.9,1.84,15.9,1.84,1.49-.27.79,1.22-18.62,4.28-20.1,5.5a2.21,2.21,0,0,0,1.4,3.94c2.36.26,18.36-4.37,19.1-3.85s.92,1.14,0,1.92-15.35,8.22-15.08,9.44A2.31,2.31,0,0,0,456,213c1.75-1,12.85-7.16,14.42-6.81s1.92,1.31,1.49,2.53-5.77,8.56-5.42,9.26.79,2.45,2.36,1.4,11.36-10.13,13.28-11.1,6.47-.08,6.47-.08l3.76-15.12Z" style="fill:#ab645b"></path><path d="M488.18,191.35l.29.1.8.32L492.4,193l.06,0v.06c-.81,3.3-2.07,8.47-3.69,15.13l0,.13-.14,0a21,21,0,0,0-4-.34,6.38,6.38,0,0,0-2.08.33,8.52,8.52,0,0,0-1.82,1.22c-2.36,1.9-4.79,4.07-7.37,6.34-1.3,1.13-2.6,2.32-4,3.46a2.09,2.09,0,0,1-1.37.56,1.56,1.56,0,0,1-1.16-1,6.13,6.13,0,0,1-.3-.64,1,1,0,0,1-.13-.42,1.06,1.06,0,0,1,.1-.4,10.51,10.51,0,0,1,.65-1.3c1-1.65,2-3.26,3.12-4.92.52-.83,1.11-1.68,1.53-2.53a2,2,0,0,0,.11-1.33,1.47,1.47,0,0,0-1-.85,1.5,1.5,0,0,0-.66-.12,4.89,4.89,0,0,0-.7.15c-.49.16-1,.34-1.45.54-.95.41-1.91.85-2.86,1.32-1.91.94-3.82,2-5.75,3L456.51,213a3.16,3.16,0,0,1-1.69.56,2.44,2.44,0,0,1-1.67-.76,3.33,3.33,0,0,1-.54-.75,3.2,3.2,0,0,1-.17-.43l-.07-.23a.68.68,0,0,1,.08-.37,5.25,5.25,0,0,1,1.34-1.22c.94-.68,1.93-1.28,2.92-1.89,2-1.2,4-2.35,6.11-3.5l3.11-1.75c.52-.29,1.06-.59,1.53-.91s.79-.81.5-1.17a1.13,1.13,0,0,0-.26-.28l-.15-.12s0,0,0,0h-.09a5.55,5.55,0,0,0-.86.1c-.59.09-1.18.22-1.78.34l-3.57.83c-2.4.58-4.81,1.17-7.26,1.73-1.45.32-2.88.64-4.36.84a5,5,0,0,1-1.16,0,3.34,3.34,0,0,1-1.13-.37,2.42,2.42,0,0,1-1.23-2,2.47,2.47,0,0,1,1-2.09,9.72,9.72,0,0,1,2.11-.75c1.39-.37,2.78-.68,4.16-1,2.76-.61,5.48-1.18,8.14-1.8,1.33-.32,2.65-.64,3.91-1a9.15,9.15,0,0,0,.92-.34,1.82,1.82,0,0,0,.69-.42c.14-.27.21-.59.12-.72s-.38-.18-.64-.14h-.06l-8.79-.92-4.26-.5c-.7-.09-1.4-.18-2.1-.29a3.39,3.39,0,0,1-2-.8,1.49,1.49,0,0,1-.4-1.11,2.65,2.65,0,0,1,.31-1.08,4.62,4.62,0,0,1,1.44-1.57,4.21,4.21,0,0,1,.45-.28,2,2,0,0,1,.54-.18,9.3,9.3,0,0,1,1-.12c.68,0,1.35-.05,2,0,2.65,0,5.22.2,7.71.35,5,.29,9.69.72,14.05.72,2.08,0,4.4-.73,5.06-2.65a47.06,47.06,0,0,0,1.14-5.62,9,9,0,0,1,.91-2.56,3.54,3.54,0,0,1,.86-1,2.42,2.42,0,0,1,1.21-.49,3.09,3.09,0,0,1,2.35.61,3.49,3.49,0,0,1,1.1,2,6.55,6.55,0,0,1,.07,2.11c-.09.68-.26,1.28-.33,1.89-.17,1.21-.25,2.32-.32,3.32-.13,2-.18,3.54-.22,4.58,0,.5,0,.9-.05,1.18a3.91,3.91,0,0,1,0,.4s0-.14,0-.4v-1.19c0-1,0-2.58.15-4.58.05-1,.12-2.12.28-3.34.06-.61.23-1.24.3-1.89a6.33,6.33,0,0,0-.07-2,3.36,3.36,0,0,0-1-1.84,2.84,2.84,0,0,0-2.14-.54,2.48,2.48,0,0,0-1.85,1.39,8.6,8.6,0,0,0-.86,2.47c-.42,1.78-.43,3.73-1.13,5.69a4,4,0,0,1-2.17,2.26,8.32,8.32,0,0,1-1.56.49,9.12,9.12,0,0,1-1.65.15c-4.39,0-9.08-.4-14.07-.67-2.5-.15-5.06-.31-7.69-.33-.66,0-1.32,0-2,0-.32,0-.66.06-1,.12a1.6,1.6,0,0,0-.42.13c-.13.09-.28.16-.41.25a4.28,4.28,0,0,0-1.29,1.42,1.42,1.42,0,0,0,0,1.66,3,3,0,0,0,1.77.64c.69.11,1.39.2,2.09.29l4.25.49,8.78.91h-.06a1.62,1.62,0,0,1,.58,0,.81.81,0,0,1,.57.37,1.29,1.29,0,0,1-.09,1.18,1.88,1.88,0,0,1-.95.67c-.32.14-.64.25-1,.36-1.3.42-2.62.74-3.95,1.06-2.67.63-5.39,1.2-8.15,1.81-1.38.31-2.76.62-4.14,1a9.71,9.71,0,0,0-1.95.68,2,2,0,0,0-.8,1.64,1.89,1.89,0,0,0,1,1.56,2.8,2.8,0,0,0,.94.3,4,4,0,0,0,1,0c1.43-.19,2.87-.51,4.31-.83,2.44-.55,4.85-1.15,7.24-1.72l3.6-.83c.59-.13,1.19-.26,1.8-.36a7.12,7.12,0,0,1,1-.09h.13a.81.81,0,0,1,.22.07l.21.16a1.65,1.65,0,0,1,.35.39,1.05,1.05,0,0,1,.05,1.12,2.46,2.46,0,0,1-.68.75c-.53.36-1.05.64-1.57.94l-3.12,1.74c-2.07,1.16-4.12,2.3-6.1,3.5-1,.59-2,1.2-2.89,1.85a5.67,5.67,0,0,0-1.19,1.05c0,.06,0,0,0,0l.05.18a2.75,2.75,0,0,0,.15.36,2.69,2.69,0,0,0,.44.62,1.94,1.94,0,0,0,1.33.61,2.62,2.62,0,0,0,1.44-.49l2.92-1.59c1.94-1,3.86-2,5.77-3,1-.47,1.92-.92,2.9-1.33.48-.2,1-.39,1.48-.55a5,5,0,0,1,.82-.17,2,2,0,0,1,.84.15,2,2,0,0,1,1.24,1.13,2.44,2.44,0,0,1-.14,1.65,28.43,28.43,0,0,1-1.57,2.6c-1.08,1.66-2.17,3.27-3.12,4.89a10.23,10.23,0,0,0-.63,1.23.89.89,0,0,0-.07.27s0,0,0,0c.07-.05,0,0,.07,0l.07.17c.1.22.18.43.29.62.19.39.47.73.83.76A1.72,1.72,0,0,0,469,219c1.4-1.1,2.73-2.3,4-3.42,2.6-2.26,5-4.42,7.42-6.32a9,9,0,0,1,1.91-1.26,6.71,6.71,0,0,1,2.19-.34,21.71,21.71,0,0,1,4.1.37l-.17.11c1.68-6.65,3-11.8,3.83-15.1l0,.08-3.13-1.34-.78-.35A1.72,1.72,0,0,1,488.18,191.35Z" style="fill:#814842"></path><path d="M485.08,206.49c.42.08,8.61-8,8.61-8L518,216.19l10.35,12.21-12.23,13.17s-5.74-6.24-10.8-11.16C498.21,223.49,484.53,205.86,485.08,206.49Z" style="fill:#ab645b"></path><path d="M546.42,255.48s-12.42,5.3-22.61-4.54C513,240.53,507,234.82,507,234.82l13.42-13.77,31.85,23Z" style="fill:#3766D0"></path><path d="M580.37,167.78s19.8,4.45,24.67,28.82,11.82,67,11.82,67l3.23,7.26a119.79,119.79,0,0,1,9.37,33.65l.21,1.65-82.52-25.21,4.09-7.6L535.36,241c-3.48-7.6-4.29-15.68-2-26.19l9.16-27.66,1.18-9,32.46-16.89Z" style="fill:#3766D0"></path><path d="M540.41,226.43S507.31,194,502,190.93l-8.38,4.27,1.32,8.55,31.74,40.59S535.81,240.56,540.41,226.43Z" style="fill:#ab645b"></path><path d="M597.21,208.05s-27.7,53.28-43,53.27a31.45,31.45,0,0,1-28.56-16.93l12.65-21.16,6.21,4.14s20.47-40.48,24.84-46.23,18.08-8.25,24.38-2.53C599.82,184.12,604.25,197.1,597.21,208.05Z" style="fill:#3766D0"></path><path d="M597.21,208.05s.08-.17.25-.5l.8-1.44c.31-.65.67-1.48,1.06-2.46.16-.5.34-1.05.52-1.63s.28-1.23.44-1.9a23.48,23.48,0,0,0-.28-10,24.86,24.86,0,0,0-2.2-5.89,20.19,20.19,0,0,0-4.24-5.58,13.45,13.45,0,0,0-7-2.93,22.09,22.09,0,0,0-8.39.57,17,17,0,0,0-7.89,4.19c-.25.29-.52.56-.75.88l-.67,1c-.45.65-.84,1.36-1.27,2-.82,1.39-1.65,2.82-2.46,4.28-6.46,11.68-13.21,24.84-20.31,38.79l-.13.26-.25-.16-6.21-4.14.37-.09-2.8,4.69-9.85,16.47v-.23a31.3,31.3,0,0,0,15.4,14.26,33.08,33.08,0,0,0,9.78,2.38,19,19,0,0,0,4.83-.06l1.14-.33c.37-.14.72-.32,1.08-.47a17.16,17.16,0,0,0,2.06-1.14,39.6,39.6,0,0,0,6.92-6c2-2.15,3.9-4.36,5.64-6.53,3.44-4.37,6.4-8.6,9-12.52,5.17-7.84,9-14.37,11.53-18.87,1.26-2.25,2.24-4,2.91-5.2.33-.58.57-1,.75-1.35s.27-.45.27-.45-.07.17-.23.48l-.7,1.37c-.63,1.2-1.58,3-2.84,5.24-2.53,4.54-6.27,11.09-11.41,19-2.57,3.93-5.52,8.19-8.95,12.58-1.74,2.18-3.59,4.41-5.65,6.58a40.17,40.17,0,0,1-7,6,18,18,0,0,1-2.11,1.17c-.38.16-.74.35-1.12.49l-1.19.35a18.87,18.87,0,0,1-5,.08,33.28,33.28,0,0,1-9.93-2.4,31.75,31.75,0,0,1-15.68-14.5l-.06-.12.08-.12c3.16-5.29,6.47-10.84,9.85-16.48,1-1.61,1.91-3.2,2.79-4.68l.14-.24.23.15,6.21,4.15-.37.09c7.11-13.95,13.87-27.09,20.37-38.78.81-1.46,1.64-2.89,2.47-4.29.44-.69.83-1.39,1.29-2.06l.68-1c.24-.32.53-.61.8-.91a17.08,17.08,0,0,1,8.1-4.28,22.44,22.44,0,0,1,8.54-.56,13.87,13.87,0,0,1,7.23,3,20.44,20.44,0,0,1,4.29,5.71,25.12,25.12,0,0,1,2.18,6,23.53,23.53,0,0,1,.21,10.08c-.17.67-.27,1.32-.47,1.91l-.54,1.63c-.41,1-.78,1.81-1.11,2.45l-.84,1.43C597.32,207.89,597.21,208.05,597.21,208.05Z" style="fill:#263238"></path><path d="M502,190.93s-8.05-6.41-23.5-7.56-23.66-.66-23.66,1.15.16,1.68,1.48,2.32,12.65.47,13.64,2.12-.17,1.31-.17,1.31S451.16,193.06,451,195c-.31,4.09,2.46,3.12,2.46,3.12s15.29-3.45,16.27-2.63,1.81.17,1,.82-17.75,6.25-17.42,7.4,1.32,3,3.12,2.3,15.45-6.08,16.27-5.26,1.15,2,0,2.63-12.16,10.28-11.5,10.81,1.31,2,3.12.86,12.65-9.53,15.12-10.19,15.45-1.15,15.45-1.15" style="fill:#ab645b"></path><path d="M494.89,203.75l-.54.05-1.57.09-6,.37c-1.31.09-2.77.2-4.36.36-.8.07-1.63.17-2.47.32a7.62,7.62,0,0,0-2.41,1.09c-3.17,2-6.59,4.51-10.38,7.29-1,.69-1.88,1.43-3,2.1a2.56,2.56,0,0,1-1,.29,1.68,1.68,0,0,1-1-.29,4,4,0,0,1-.73-.68c-.11-.11-.22-.23-.33-.32l0,0a.34.34,0,0,1-.09-.18.36.36,0,0,1,0-.22,1.46,1.46,0,0,1,.13-.25,23.93,23.93,0,0,1,2.71-2.9c1-.93,2-1.85,3-2.78s2.08-1.85,3.17-2.78c.55-.47,1.1-.93,1.67-1.39a8.24,8.24,0,0,1,.91-.67,1.22,1.22,0,0,0,.58-.69,1.27,1.27,0,0,0-.14-.9,2.26,2.26,0,0,0-.28-.43l-.17-.19s-.07-.07-.06,0h0a8,8,0,0,0-2.11.38c-1.45.41-2.91.9-4.37,1.41-2.93,1-5.91,2.17-8.95,3.34a4.16,4.16,0,0,1-1.25.35,2,2,0,0,1-1.31-.39,4.09,4.09,0,0,1-1.41-2.18v-.05a.37.37,0,0,1,0-.11.29.29,0,0,1,0-.17.62.62,0,0,1,.13-.19,2.78,2.78,0,0,1,.28-.24,5.46,5.46,0,0,1,.55-.34c.38-.21.76-.4,1.14-.58.77-.35,1.55-.68,2.33-1,3.15-1.29,6.39-2.46,9.66-3.68l2.46-.93a4.07,4.07,0,0,0,1.1-.57l.09-.08s0,0,0,0a.22.22,0,0,0,.06.28l.07,0h0a2.67,2.67,0,0,1-.35-.05,2.31,2.31,0,0,1-.7-.27,3.21,3.21,0,0,1-.3-.21l-.06,0-.13,0a3.14,3.14,0,0,0-.62,0c-.43,0-.87.05-1.31.1-.88.1-1.76.24-2.64.38-3.84.65-7.61,1.45-11.3,2.26h0a2,2,0,0,1-2.71-1.61,5.78,5.78,0,0,1-.1-1.65.79.79,0,0,1,.17-.5,1.47,1.47,0,0,1,.35-.32,4,4,0,0,1,.73-.4,36,36,0,0,1,6-1.74c4-.88,7.91-1.56,11.72-2.15h.05l.05,0a.45.45,0,0,0,.24,0,.29.29,0,0,0,0-.19,3.24,3.24,0,0,0-.35-.77,2.92,2.92,0,0,0-1.47-.67,28.54,28.54,0,0,0-3.56-.52c-2.37-.24-4.71-.33-7-.56a4.68,4.68,0,0,1-1.73-.4,5.79,5.79,0,0,1-.78-.4,1.2,1.2,0,0,1-.53-.84,6.47,6.47,0,0,1-.06-.87,2.56,2.56,0,0,1,0-.46.91.91,0,0,1,.26-.47,3.65,3.65,0,0,1,1.58-.73,32,32,0,0,1,6.38-.6c4.13-.06,8,.14,11.6.36a86.07,86.07,0,0,1,9.89,1,48.8,48.8,0,0,1,13.37,4.33,30.5,30.5,0,0,1,3.25,1.88c.35.23.61.43.78.56s.26.2.25.21l-.27-.18c-.18-.12-.45-.3-.81-.52a33.49,33.49,0,0,0-3.27-1.81,49.87,49.87,0,0,0-13.35-4.17,85.74,85.74,0,0,0-9.86-1c-3.59-.2-7.46-.38-11.58-.31a32,32,0,0,0-6.27.61,3.49,3.49,0,0,0-1.38.62c-.16.17-.15.3-.15.62a6.66,6.66,0,0,0,.06.79.72.72,0,0,0,.34.55c.2.13.47.24.72.37a4.41,4.41,0,0,0,1.58.35c2.27.22,4.62.3,7,.53a27.06,27.06,0,0,1,3.62.54,7.84,7.84,0,0,1,.91.27,1.88,1.88,0,0,1,.87.61,3.33,3.33,0,0,1,.4.92.64.64,0,0,1-.18.68.8.8,0,0,1-.66.08h.1c-3.79.6-7.71,1.28-11.68,2.16a34.81,34.81,0,0,0-5.89,1.72c-.43.2-1,.47-.95.78a5.32,5.32,0,0,0,.09,1.5,1.49,1.49,0,0,0,2,1.25h0c3.69-.82,7.46-1.62,11.33-2.27.88-.15,1.77-.28,2.67-.38.44,0,.89-.1,1.35-.11a3.43,3.43,0,0,1,.71,0l.2,0a.9.9,0,0,1,.24.12,1.25,1.25,0,0,0,.24.16,1.63,1.63,0,0,0,.53.21l.31,0h.06a.52.52,0,0,1,.15.06.29.29,0,0,1,.08.36.24.24,0,0,1-.06.08.88.88,0,0,1-.15.14,4.23,4.23,0,0,1-1.24.65l-2.46.94c-3.28,1.22-6.52,2.39-9.65,3.66-.79.32-1.56.64-2.31,1-.38.18-.75.36-1.11.56-.18.1-.35.2-.51.31s-.29.31-.24.2a3.65,3.65,0,0,0,1.22,1.92,1.56,1.56,0,0,0,1,.31,4.15,4.15,0,0,0,1.09-.32c3-1.16,6-2.3,9-3.33,1.47-.51,2.93-1,4.4-1.41a7.83,7.83,0,0,1,2.32-.39.61.61,0,0,1,.36.2,2.09,2.09,0,0,1,.2.22,2.78,2.78,0,0,1,.33.51,1.7,1.7,0,0,1,.17,1.24,1.62,1.62,0,0,1-.8,1c-.27.17-.57.41-.85.63-.56.45-1.11.91-1.66,1.38-1.09.92-2.14,1.84-3.17,2.77s-2,1.83-3,2.75a24.11,24.11,0,0,0-2.66,2.82l-.1.17s0,0-.09,0h0s-.08.1.08-.09l0,0c.14.12.25.24.36.35a3.76,3.76,0,0,0,.65.62,1.44,1.44,0,0,0,1.57,0c1-.6,2-1.37,2.94-2,3.81-2.76,7.24-5.29,10.45-7.24a8,8,0,0,1,2.5-1.1c.87-.15,1.7-.24,2.5-.31,1.6-.14,3.06-.24,4.38-.31,2.63-.15,4.67-.23,6-.28l1.58,0Z" style="fill:#814842"></path><path d="M545.77,243.58a64.53,64.53,0,0,1-.65-8,64.6,64.6,0,0,1-.13-8.06,60.24,60.24,0,0,1,.65,8A60.28,60.28,0,0,1,545.77,243.58Z" style="fill:#263238"></path><path d="M544.45,181.23a3.52,3.52,0,0,1,.09-.75c.11-.56.24-1.26.4-2.14l0-.26.17.21,5.21,6.33a2,2,0,0,0,1,.62,1.88,1.88,0,0,0,1.19-.19c.78-.4,1.6-1,2.44-1.49l5.32-3.33c5.39-3.37,10.29-6.4,13.85-8.56l4.23-2.55,1.17-.67a2.35,2.35,0,0,1,.42-.2s-.12.12-.37.29l-1.11.75L574.37,172c-3.51,2.24-8.38,5.32-13.77,8.69L555.27,184c-.86.51-1.62,1.06-2.52,1.5a2.34,2.34,0,0,1-1.48.21,2.41,2.41,0,0,1-1.22-.76c-2.22-2.71-3.91-5-5.09-6.49l.23-.05c-.22.87-.39,1.57-.52,2.12A3.25,3.25,0,0,1,544.45,181.23Z" style="fill:#263238"></path><line x1="526.63" y1="244.34" x2="494.89" y2="203.75" style="fill:#814842"></line><path d="M494.89,203.75c.11-.09,7.31,8.92,16.07,20.13s15.78,20.37,15.67,20.46-7.31-8.93-16.08-20.14S494.77,203.84,494.89,203.75Z" style="fill:#814842"></path><path d="M553.62,272.26c0-.14,8.7.89,19.38,2.3s19.35,2.67,19.33,2.82-8.7-.89-19.39-2.3S553.6,272.41,553.62,272.26Z" style="fill:#263238"></path><path d="M564.84,270.1c0-.14,4.91-1.59,11-3.25S587,264,587.08,264.11s-4.91,1.59-11.06,3.25S564.87,270.24,564.84,270.1Z" style="fill:#263238"></path><path d="M623.43,354.78h6.05a6.31,6.31,0,0,0,6.26-5.55c1.2-9.88,3.57-37.38,3.6-37.66L635,311.2c0,.27-2.39,27.71-3.58,37.51a2,2,0,0,1-2,1.73h-6.05Z" style="fill:#e0e0e0"></path><path d="M623.43,354.78a1.39,1.39,0,0,1,0-.27c0-.21,0-.48,0-.82,0-.77,0-1.86-.06-3.25v-.1h.1l3.37,0,2,0a6,6,0,0,0,1.05,0,1.84,1.84,0,0,0,.9-.5,1.75,1.75,0,0,0,.49-.94c0-.38.08-.8.12-1.22.07-.83.15-1.69.23-2.58q.25-2.68.52-5.69c.75-8,1.66-17.68,2.64-28.15l0-.25.26,0,3.2.27,1.12.1.26,0,0,.26c-1.42,14.62-2.71,27.8-3.64,37.37a6.48,6.48,0,0,1-3.54,5.26,6.25,6.25,0,0,1-2.6.66c-.83,0-1.58,0-2.25,0l-3.09-.05-.79,0-.25,0a1,1,0,0,1,.29,0l.81,0,3.07-.06c1.3-.06,3,.18,4.68-.72a6.19,6.19,0,0,0,3.31-5c.89-9.57,2.12-22.75,3.49-37.37l.23.28-1.11-.1-3.21-.27.29-.24c-1,10.47-2,20.12-2.74,28.15-.19,2-.38,3.9-.56,5.68-.09.89-.18,1.75-.26,2.59-.05.42-.07.81-.13,1.23A2.09,2.09,0,0,1,631,350a2.12,2.12,0,0,1-1.07.57,6,6,0,0,1-1.11,0h-2l-3.37,0,.1-.1c0,1.37,0,2.43-.06,3.2,0,.34,0,.62,0,.84A2,2,0,0,1,623.43,354.78Z" style="fill:#263238"></path><rect x="520.41" y="347.02" width="109.76" height="13.05" rx="6.52" transform="translate(1150.59 707.09) rotate(-180)" style="fill:#455a64"></rect><path d="M644.34,314.81l13.2-103.53a6.54,6.54,0,0,0-5.65-7.3h0a6.53,6.53,0,0,0-7.3,5.65L631.4,313.16a6.51,6.51,0,0,0,5.64,7.29h0A6.52,6.52,0,0,0,644.34,314.81Z" style="fill:#455a64"></path><polygon points="527.58 356.03 512.92 464.47 518.66 464.46 540.42 360.07 527.58 356.03" style="fill:#455a64"></polygon><polygon points="622.52 356.03 637.18 464.47 631.44 464.46 609.68 360.07 622.52 356.03" style="fill:#455a64"></polygon><path d="M526.13,360.07c0-.14,22.14-.26,49.43-.26s49.44.12,49.44.26-22.13.26-49.44.26S526.13,360.21,526.13,360.07Z" style="fill:#263238"></path></g><g id="freepik--Briefcase--inject-14"><polygon points="680.71 464.11 580.83 464.11 585.92 391.89 677.43 391.76 680.71 464.11" style="fill:#263238"></polygon><path d="M664.61,464.11c-.15,0-.26-16.17-.26-36.11s.11-36.11.26-36.11.26,16.17.26,36.11S664.75,464.11,664.61,464.11Z" style="fill:#455a64"></path><path d="M663.5,393.61a1.32,1.32,0,0,1-.14.26l-.45.75-1.81,2.83c-1.58,2.45-3.89,6-7,10.19a80.47,80.47,0,0,1-12.39,13.51,53.1,53.1,0,0,1-9,6.13,29.17,29.17,0,0,1-11.11,3.48,25.31,25.31,0,0,1-11.47-2,37.29,37.29,0,0,1-9.33-5.55,40.85,40.85,0,0,1-11.14-14.48,38.55,38.55,0,0,1-3.3-11.89c-.06-.73-.14-1.38-.17-1.94s0-1,0-1.42v-.88a1.85,1.85,0,0,1,0-.3,1.57,1.57,0,0,1,0,.3l.05.87c0,.4,0,.87.07,1.42s.13,1.2.21,1.92A40.1,40.1,0,0,0,590,408.59a40.87,40.87,0,0,0,11.11,14.25,37.19,37.19,0,0,0,9.22,5.46,24.85,24.85,0,0,0,11.24,1.94,28.8,28.8,0,0,0,10.91-3.41,53.56,53.56,0,0,0,8.89-6.05,82.06,82.06,0,0,0,12.41-13.36c3.14-4.16,5.49-7.67,7.13-10.08l1.88-2.78c.2-.3.37-.53.5-.72S663.49,393.6,663.5,393.61Z" style="fill:#455a64"></path><circle cx="620.58" cy="430.82" r="4.28" style="fill:#455a64"></circle><path d="M649.94,378.44a11.45,11.45,0,0,0-6.75-2.52,30.28,30.28,0,0,0-17.44,3.55c-5.12,2.91-8.89,7.76-11.4,13.09l3.37,3.52a22.29,22.29,0,0,1,9.21-13.52c4.77-3.15,9.83-4.6,15.47-3.69a11.28,11.28,0,0,1,4.21,1.45c2.2,1.54,2.54,3.33,2.15,5.61a12.53,12.53,0,0,1-2.87,6.66l5.53.13a27.82,27.82,0,0,0,1.21-7.44A9.46,9.46,0,0,0,649.94,378.44Z" style="fill:#263238"></path></g></svg>
