<svg xmlns="http://www.w3.org/2000/svg" viewBox="0 0 500 500"><g id="freepik--background-simple--inject-228"><path d="M383.16,133.14a212.8,212.8,0,0,0-10.85-19C326.19,43.85,202.7,5.57,141.51,78.25,126.92,95.57,121.84,116.5,112,136.37c-22.32,45.18-64,72.2-90.2,114-20.27,32.43-17.57,74-6.26,109.06,12.29,38.1,33.92,64.71,68.52,84.94,38.79,22.67,80.27,16.38,122.2,8.49,18.85-3.55,38.29-7.17,57.57-5.82,24.14,1.7,48,8.53,71.92,11.85,24.9,3.45,50.74,4.27,74.73-3.26,76.83-24.09,95-137,63.44-201.73-11.18-22.9-30.14-40.56-47.74-58.49C407.2,176.1,395.56,157.16,383.16,133.14Z" style="fill:#3766D0"></path><path d="M383.16,133.14a212.8,212.8,0,0,0-10.85-19C326.19,43.85,202.7,5.57,141.51,78.25,126.92,95.57,121.84,116.5,112,136.37c-22.32,45.18-64,72.2-90.2,114-20.27,32.43-17.57,74-6.26,109.06,12.29,38.1,33.92,64.71,68.52,84.94,38.79,22.67,80.27,16.38,122.2,8.49,18.85-3.55,38.29-7.17,57.57-5.82,24.14,1.7,48,8.53,71.92,11.85,24.9,3.45,50.74,4.27,74.73-3.26,76.83-24.09,95-137,63.44-201.73-11.18-22.9-30.14-40.56-47.74-58.49C407.2,176.1,395.56,157.16,383.16,133.14Z" style="fill:#fff;opacity:0.7000000000000001"></path></g><g id="freepik--Floor--inject-228"><rect x="3.15" y="464.05" width="493.08" height="1" style="fill:#263238"></rect></g><g id="freepik--Coins--inject-228"><path d="M76.79,255.7a33.11,33.11,0,1,1,33.1-33.1A33.14,33.14,0,0,1,76.79,255.7Zm0-65.21a32.11,32.11,0,1,0,32.1,32.11A32.14,32.14,0,0,0,76.79,190.49Z" style="fill:#263238"></path><path d="M76.79,252.79A30.2,30.2,0,1,1,107,222.6,30.22,30.22,0,0,1,76.79,252.79Zm0-59.39A29.2,29.2,0,1,0,106,222.6,29.23,29.23,0,0,0,76.79,193.4Z" style="fill:#263238"></path><path d="M78.93,244.29h-3v-3.93a8.64,8.64,0,0,1-6.35-2.93c-1.5-1.82-2.31-4.53-2.43-8.08v-.43L74,227.74l0,.57a16.65,16.65,0,0,0,.42,3.41,3.91,3.91,0,0,0,.94,1.86,2,2,0,0,0,1.5.55c1,0,1.27-.44,1.35-.59a3.27,3.27,0,0,0,.42-1.68,5.84,5.84,0,0,0-.9-3.31,14.1,14.1,0,0,0-2.63-2.82l-3.57-3.07a23.43,23.43,0,0,1-2.24-2.38,9.85,9.85,0,0,1-1.62-2.83,10.63,10.63,0,0,1-.6-3.74,8.77,8.77,0,0,1,2.4-6.52,9.63,9.63,0,0,1,5.88-2.59v-3.79h3v3.78a7.93,7.93,0,0,1,3.48,1.07,6.72,6.72,0,0,1,2.38,2.45,11.18,11.18,0,0,1,1.14,3.12,20.7,20.7,0,0,1,.43,3.21l0,.45-7,1v-.56a18.27,18.27,0,0,0-.25-2.68A3.5,3.5,0,0,0,78,211a1.48,1.48,0,0,0-1.27-.45,1.69,1.69,0,0,0-1.4.71,2.89,2.89,0,0,0-.52,1.69,4.44,4.44,0,0,0,.82,2.8,19.18,19.18,0,0,0,2,2.21l3.47,3a24.75,24.75,0,0,1,2.63,2.79,13.45,13.45,0,0,1,2,3.39,11.46,11.46,0,0,1,.75,4.28,9.63,9.63,0,0,1-1,4.28,8,8,0,0,1-2.78,3.15,8.76,8.76,0,0,1-3.79,1.38Zm-2-1h1v-3.9l.46,0a8.09,8.09,0,0,0,3.78-1.27,7,7,0,0,0,2.43-2.77,8.48,8.48,0,0,0,.85-3.83,10.54,10.54,0,0,0-.68-3.91A12.18,12.18,0,0,0,83,224.44a22.71,22.71,0,0,0-2.51-2.67l-3.48-3a20.48,20.48,0,0,1-2.17-2.34,5.42,5.42,0,0,1-1-3.42,3.92,3.92,0,0,1,.7-2.26,2.64,2.64,0,0,1,2.18-1.14,2.39,2.39,0,0,1,2.08.82,4.55,4.55,0,0,1,.87,2.1,20,20,0,0,1,.23,2.26l5-.73a19.11,19.11,0,0,0-.38-2.61,9.94,9.94,0,0,0-1-2.84,5.79,5.79,0,0,0-2-2.09,7.38,7.38,0,0,0-3.48-.95l-.47,0v-3.71h-1v3.7l-.46,0a8.89,8.89,0,0,0-5.72,2.36,7.78,7.78,0,0,0-2.1,5.8,9.57,9.57,0,0,0,.54,3.39,8.86,8.86,0,0,0,1.45,2.55,22.37,22.37,0,0,0,2.14,2.26L75.82,225a15.67,15.67,0,0,1,2.79,3,6.68,6.68,0,0,1,1.08,3.87,4.36,4.36,0,0,1-.55,2.18,2.35,2.35,0,0,1-2.22,1.09,3.05,3.05,0,0,1-2.2-.83A4.89,4.89,0,0,1,73.51,232a16.88,16.88,0,0,1-.42-3l-4.94.84c.16,3.1.89,5.47,2.18,7s3.38,2.49,6.1,2.6h.48Z" style="fill:#263238"></path><path d="M242.55,101.27a21.68,21.68,0,1,1,21.68-21.68A21.71,21.71,0,0,1,242.55,101.27Zm0-42.35a20.68,20.68,0,1,0,20.68,20.67A20.7,20.7,0,0,0,242.55,58.92Z" style="fill:#263238"></path><path d="M242.55,99.38a19.79,19.79,0,1,1,19.79-19.79A19.82,19.82,0,0,1,242.55,99.38Zm0-38.58a18.79,18.79,0,1,0,18.79,18.79A18.81,18.81,0,0,0,242.55,60.8Z" style="fill:#263238"></path><path d="M244.12,93.86h-2.31V91.29a5.69,5.69,0,0,1-4.09-2A8.75,8.75,0,0,1,236.1,84v-.44l4.84-.82,0,.57a10.83,10.83,0,0,0,.27,2.17,2.34,2.34,0,0,0,.56,1.13,1.14,1.14,0,0,0,.85.31c.56,0,.68-.21.73-.3a1.9,1.9,0,0,0,.25-1,3.56,3.56,0,0,0-.56-2,9.12,9.12,0,0,0-1.67-1.8l-2.32-2a17.68,17.68,0,0,1-1.48-1.57,6.74,6.74,0,0,1-1.08-1.89,7.22,7.22,0,0,1-.4-2.49,5.86,5.86,0,0,1,1.61-4.36,6.42,6.42,0,0,1,3.77-1.72V65.27h2.31v2.47a5.06,5.06,0,0,1,2.18.7,4.45,4.45,0,0,1,1.6,1.66,7.55,7.55,0,0,1,.77,2.07,16.1,16.1,0,0,1,.28,2.11l0,.46-4.91.72V74.9a11.73,11.73,0,0,0-.16-1.72,2.18,2.18,0,0,0-.39-1c0-.06-.19-.24-.68-.23a.89.89,0,0,0-.77.38,1.69,1.69,0,0,0-.31,1,2.68,2.68,0,0,0,.5,1.71,11.54,11.54,0,0,0,1.31,1.42l2.25,2a15.78,15.78,0,0,1,1.73,1.84,8.69,8.69,0,0,1,1.3,2.25,7.65,7.65,0,0,1,.5,2.84,6.32,6.32,0,0,1-.64,2.86,5.36,5.36,0,0,1-1.86,2.12,5.9,5.9,0,0,1-2.38.9Zm-1.31-1h.31V90.34l.45,0a5,5,0,0,0,2.37-.8,4.33,4.33,0,0,0,1.53-1.73,5.43,5.43,0,0,0,.53-2.41,6.52,6.52,0,0,0-.43-2.47,7.71,7.71,0,0,0-1.15-2,15.39,15.39,0,0,0-1.61-1.72l-2.26-2a13.67,13.67,0,0,1-1.43-1.55,3.66,3.66,0,0,1-.71-2.33,2.7,2.7,0,0,1,.49-1.56,1.88,1.88,0,0,1,1.55-.82,1.74,1.74,0,0,1,1.5.59,3.1,3.1,0,0,1,.59,1.45,11.39,11.39,0,0,1,.15,1.3l2.9-.43c-.05-.49-.13-1-.23-1.5a6.55,6.55,0,0,0-.66-1.8,3.53,3.53,0,0,0-1.26-1.29,4.53,4.53,0,0,0-2.18-.6l-.47,0v-2.4h-.31v2.39l-.46,0a5.6,5.6,0,0,0-3.61,1.49,4.82,4.82,0,0,0-1.31,3.64,5.93,5.93,0,0,0,.34,2.14,5.65,5.65,0,0,0,.91,1.61A15.37,15.37,0,0,0,239.73,79l2.3,2a10.19,10.19,0,0,1,1.85,2,4.59,4.59,0,0,1,.73,2.62,3,3,0,0,1-.38,1.5,1.69,1.69,0,0,1-1.6.8,2.17,2.17,0,0,1-1.55-.59,3.46,3.46,0,0,1-.83-1.6A10.51,10.51,0,0,1,240,83.9l-2.86.49a7.46,7.46,0,0,0,1.37,4.31,4.9,4.9,0,0,0,3.83,1.62l.49,0Z" style="fill:#263238"></path><path d="M328.19,352.15a21.68,21.68,0,1,1,21.67-21.68A21.71,21.71,0,0,1,328.19,352.15Zm0-42.35a20.68,20.68,0,1,0,20.67,20.67A20.7,20.7,0,0,0,328.19,309.8Z" style="fill:#263238"></path><path d="M328.19,350.26A19.79,19.79,0,1,1,348,330.47,19.82,19.82,0,0,1,328.19,350.26Zm0-38.57A18.79,18.79,0,1,0,347,330.47,18.8,18.8,0,0,0,328.19,311.69Z" style="fill:#263238"></path><path d="M329.75,344.74h-2.31v-2.57a5.71,5.71,0,0,1-4.09-1.95,8.75,8.75,0,0,1-1.61-5.35l0-.44,4.84-.82,0,.57a10.14,10.14,0,0,0,.27,2.17,2.34,2.34,0,0,0,.56,1.13,1.14,1.14,0,0,0,.85.31c.56,0,.68-.21.73-.29a2,2,0,0,0,.24-1,3.56,3.56,0,0,0-.55-2.05,9.4,9.4,0,0,0-1.67-1.8l-2.32-2a15.3,15.3,0,0,1-1.48-1.57,6.29,6.29,0,0,1-1.08-1.89,7,7,0,0,1-.4-2.49,5.86,5.86,0,0,1,1.61-4.36,6.4,6.4,0,0,1,3.76-1.72v-2.47h2.31v2.47a5.19,5.19,0,0,1,2.18.7,4.49,4.49,0,0,1,1.61,1.66,7.22,7.22,0,0,1,.76,2.07,13.61,13.61,0,0,1,.28,2.11l0,.46-4.91.72,0-.56a11.84,11.84,0,0,0-.15-1.72,2.18,2.18,0,0,0-.39-1c-.05-.06-.19-.25-.69-.23a.88.88,0,0,0-.76.39,1.66,1.66,0,0,0-.31,1,2.74,2.74,0,0,0,.49,1.71,13.35,13.35,0,0,0,1.31,1.42l2.26,2a16.64,16.64,0,0,1,1.73,1.83,9.3,9.3,0,0,1,1.3,2.25,7.69,7.69,0,0,1,.5,2.84,6.46,6.46,0,0,1-.64,2.86,5.44,5.44,0,0,1-1.86,2.12,5.89,5.89,0,0,1-2.39.9Zm-1.31-1h.31v-2.52l.46,0a5.13,5.13,0,0,0,2.37-.79,4.38,4.38,0,0,0,1.52-1.73,5.38,5.38,0,0,0,.54-2.42,6.72,6.72,0,0,0-.43-2.47,7.75,7.75,0,0,0-1.16-2,15.39,15.39,0,0,0-1.61-1.72l-2.25-1.95a12.81,12.81,0,0,1-1.43-1.55,3.66,3.66,0,0,1-.71-2.33,2.69,2.69,0,0,1,.48-1.56,1.93,1.93,0,0,1,1.56-.82,1.78,1.78,0,0,1,1.5.6,3,3,0,0,1,.59,1.44,11.39,11.39,0,0,1,.15,1.3l2.89-.43a11.61,11.61,0,0,0-.23-1.5,6.22,6.22,0,0,0-.65-1.8,3.61,3.61,0,0,0-1.26-1.29,4.46,4.46,0,0,0-2.18-.59l-.48,0v-2.4h-.31v2.39l-.46,0a5.58,5.58,0,0,0-3.6,1.49,4.82,4.82,0,0,0-1.31,3.64,6.17,6.17,0,0,0,.33,2.14,5.92,5.92,0,0,0,.92,1.61,15.36,15.36,0,0,0,1.37,1.45l2.31,2a9.87,9.87,0,0,1,1.84,2,4.46,4.46,0,0,1,.73,2.61,2.92,2.92,0,0,1-.38,1.51,1.68,1.68,0,0,1-1.59.79,2.17,2.17,0,0,1-1.55-.59,3.24,3.24,0,0,1-.83-1.6,10.51,10.51,0,0,1-.27-1.82l-2.86.49a7.39,7.39,0,0,0,1.36,4.31A4.86,4.86,0,0,0,328,341.2l.48,0Z" style="fill:#263238"></path><path d="M458.33,189.69A21.68,21.68,0,1,1,480,168,21.7,21.7,0,0,1,458.33,189.69Zm0-42.35A20.68,20.68,0,1,0,479,168,20.69,20.69,0,0,0,458.33,147.34Z" style="fill:#263238"></path><path d="M458.33,187.8A19.79,19.79,0,1,1,478.12,168,19.81,19.81,0,0,1,458.33,187.8Zm0-38.57A18.79,18.79,0,1,0,477.12,168,18.8,18.8,0,0,0,458.33,149.23Z" style="fill:#263238"></path><path d="M459.9,182.28h-2.31v-2.57a5.69,5.69,0,0,1-4.09-2,8.75,8.75,0,0,1-1.62-5.35V172l4.84-.82,0,.57a11.61,11.61,0,0,0,.27,2.17,2.34,2.34,0,0,0,.56,1.13,1.18,1.18,0,0,0,.86.31c.55,0,.68-.21.72-.29a1.94,1.94,0,0,0,.25-1,3.56,3.56,0,0,0-.56-2.05,9.4,9.4,0,0,0-1.67-1.8l-2.32-2a15.3,15.3,0,0,1-1.48-1.57,6.69,6.69,0,0,1-1.08-1.88,7.28,7.28,0,0,1-.4-2.5,5.86,5.86,0,0,1,1.61-4.36,6.41,6.41,0,0,1,3.77-1.71v-2.48h2.31v2.47a5.19,5.19,0,0,1,2.18.7,4.56,4.56,0,0,1,1.61,1.66,7.48,7.48,0,0,1,.76,2.08,14.62,14.62,0,0,1,.28,2.1l0,.46-4.91.72v-.56a11.87,11.87,0,0,0-.16-1.72,2,2,0,0,0-.39-1c0-.06-.2-.23-.68-.23a.89.89,0,0,0-.77.39,1.73,1.73,0,0,0-.3,1,2.71,2.71,0,0,0,.49,1.71A11.47,11.47,0,0,0,459,164.9l2.25,2A14.33,14.33,0,0,1,463,168.7a8.47,8.47,0,0,1,1.3,2.24,7.51,7.51,0,0,1,.5,2.85,6.31,6.31,0,0,1-.64,2.85,5.36,5.36,0,0,1-1.86,2.12,5.9,5.9,0,0,1-2.38.9Zm-1.31-1h.31v-2.52l.45,0a5.1,5.1,0,0,0,2.38-.79,4.38,4.38,0,0,0,1.52-1.73,5.46,5.46,0,0,0,.53-2.41,6.54,6.54,0,0,0-.43-2.48,7.59,7.59,0,0,0-1.15-2,15.39,15.39,0,0,0-1.61-1.72l-2.26-1.95a14.66,14.66,0,0,1-1.43-1.55,3.64,3.64,0,0,1-.7-2.32,2.7,2.7,0,0,1,.48-1.57,1.91,1.91,0,0,1,1.55-.82,1.7,1.7,0,0,1,1.5.6,3.12,3.12,0,0,1,.6,1.44c.06.39.11.83.14,1.3l2.9-.43a14,14,0,0,0-.23-1.5,6.67,6.67,0,0,0-.66-1.8,3.53,3.53,0,0,0-1.26-1.29,4.65,4.65,0,0,0-2.18-.59l-.47,0v-2.4h-.31v2.39l-.46,0a5.57,5.57,0,0,0-3.61,1.48,4.82,4.82,0,0,0-1.31,3.64,6.16,6.16,0,0,0,.34,2.14,5.61,5.61,0,0,0,.91,1.61,15.5,15.5,0,0,0,1.38,1.45l2.3,2a10,10,0,0,1,1.85,2,4.53,4.53,0,0,1,.73,2.61,3,3,0,0,1-.38,1.51,1.7,1.7,0,0,1-1.59.79,2.14,2.14,0,0,1-1.55-.59,3.29,3.29,0,0,1-.84-1.6,10.51,10.51,0,0,1-.27-1.82l-2.86.49a7.46,7.46,0,0,0,1.37,4.31,4.86,4.86,0,0,0,3.84,1.62l.48,0Z" style="fill:#263238"></path><path d="M174.66,414.24a39.06,39.06,0,1,1,39.06-39.06A39.1,39.1,0,0,1,174.66,414.24Zm0-77.12a38.06,38.06,0,1,0,38.06,38.06A38.1,38.1,0,0,0,174.66,337.12Z" style="fill:#263238"></path><path d="M174.66,410.8a35.62,35.62,0,1,1,35.62-35.62A35.66,35.66,0,0,1,174.66,410.8Zm0-70.24a34.62,34.62,0,1,0,34.62,34.62A34.66,34.66,0,0,0,174.66,340.56Z" style="fill:#263238"></path><path d="M177.1,400.75h-3.39V396.1c-3.31-.22-5.84-1.37-7.54-3.44s-2.71-5.32-2.85-9.49v-.44l8-1.36,0,.57a20.65,20.65,0,0,0,.51,4.05,4.7,4.7,0,0,0,1.13,2.25,2.53,2.53,0,0,0,1.84.68,1.76,1.76,0,0,0,1.68-.75,4.08,4.08,0,0,0,.5-2,6.89,6.89,0,0,0-1.08-4,17.64,17.64,0,0,0-3.12-3.36l-4.22-3.63a28.49,28.49,0,0,1-2.65-2.79,11.52,11.52,0,0,1-1.89-3.32,12.53,12.53,0,0,1-.71-4.4,10.28,10.28,0,0,1,2.81-7.64,11.4,11.4,0,0,1,7-3.06V349.5h3.39V354a9.36,9.36,0,0,1,4.16,1.26,7.79,7.79,0,0,1,2.78,2.87,13.09,13.09,0,0,1,1.35,3.67,25.76,25.76,0,0,1,.51,3.77l0,.46-8.11,1.19,0-.56a22,22,0,0,0-.29-3.19,4.37,4.37,0,0,0-.79-2,1.83,1.83,0,0,0-1.58-.56,2,2,0,0,0-1.72.88,3.45,3.45,0,0,0-.63,2.05,5.36,5.36,0,0,0,1,3.37,24.66,24.66,0,0,0,2.43,2.63l4.12,3.56a28.4,28.4,0,0,1,3.09,3.3,15.46,15.46,0,0,1,2.31,4,13.39,13.39,0,0,1,.88,5,11.18,11.18,0,0,1-1.12,5,9.41,9.41,0,0,1-3.25,3.69A10.47,10.47,0,0,1,177.1,396Zm-2.39-1h1.39v-4.63l.45,0a9.71,9.71,0,0,0,4.52-1.51,8.38,8.38,0,0,0,2.91-3.31,10.25,10.25,0,0,0,1-4.57,12.47,12.47,0,0,0-.81-4.66A14.71,14.71,0,0,0,182,377.3a27.94,27.94,0,0,0-3-3.17l-4.11-3.57a24,24,0,0,1-2.55-2.75,6.3,6.3,0,0,1-1.2-4,4.51,4.51,0,0,1,.81-2.62,3,3,0,0,1,2.5-1.31,2.77,2.77,0,0,1,2.39.93,5.25,5.25,0,0,1,1,2.44,21.46,21.46,0,0,1,.29,2.77l6.1-.9a26.34,26.34,0,0,0-.46-3.17,11.94,11.94,0,0,0-1.24-3.39,6.78,6.78,0,0,0-2.44-2.5,8.71,8.71,0,0,0-4.16-1.14l-.47,0v-4.4h-1.39v4.39l-.46,0a10.61,10.61,0,0,0-6.82,2.81,9.33,9.33,0,0,0-2.51,6.93,11.65,11.65,0,0,0,.64,4,10.44,10.44,0,0,0,1.74,3,27.36,27.36,0,0,0,2.53,2.69l4.21,3.61a18.42,18.42,0,0,1,3.3,3.55,7.94,7.94,0,0,1,1.25,4.53,5,5,0,0,1-.64,2.54,2.68,2.68,0,0,1-2.54,1.25,3.51,3.51,0,0,1-2.54-1,5.55,5.55,0,0,1-1.4-2.72,19.19,19.19,0,0,1-.51-3.68l-6,1c.18,3.73,1,6.57,2.6,8.46s4,3,7.29,3.1l.48,0Z" style="fill:#263238"></path></g><g id="freepik--Clouds--inject-228"><path d="M195.52,122.07H40a.48.48,0,0,1-.36-.16.49.49,0,0,1-.14-.38A16.18,16.18,0,0,1,55.6,106.65a16,16,0,0,1,6,1.17,25.66,25.66,0,0,1,5.83-11.56c.43-.5.88-1,1.34-1.42a25.58,25.58,0,0,1,9.83-6,23.54,23.54,0,0,1,3.89-1,21.61,21.61,0,0,1,3.36-.34c.28,0,.58,0,.88,0a24.86,24.86,0,0,1,3.82.29,25.45,25.45,0,0,1,11.33,4.67,18.42,18.42,0,0,1,1.48,1.16A35.25,35.25,0,0,1,172,108.74a16,16,0,0,1,7.92-2.09A16.17,16.17,0,0,1,196,121.53a.5.5,0,0,1-.5.54Zm-154.93-1H195a15.16,15.16,0,0,0-15-13.42,15,15,0,0,0-8.31,2.5.5.5,0,0,1-.55,0,.49.49,0,0,1-.22-.51,34.73,34.73,0,0,0,.53-6,34.25,34.25,0,0,0-67.29-9,.49.49,0,0,1-.81.24l-.53-.45a17.94,17.94,0,0,0-1.48-1.16,24.63,24.63,0,0,0-10.89-4.5,24.28,24.28,0,0,0-3.67-.27c-.28,0-.56,0-.83,0a22.51,22.51,0,0,0-3.24.32,23.62,23.62,0,0,0-3.75.93,24.76,24.76,0,0,0-9.45,5.78c-.44.42-.86.87-1.28,1.35a24.74,24.74,0,0,0-5.72,11.7.47.47,0,0,1-.26.35.5.5,0,0,1-.43,0,15.09,15.09,0,0,0-21.19,12.09Z" style="fill:#263238"></path><path d="M328.71,174.47H184.54a.5.5,0,0,1-.5-.54,15,15,0,0,1,20.48-12.76A23.86,23.86,0,0,1,243.25,148a32.72,32.72,0,0,1,64.07,9.36A31.93,31.93,0,0,1,307,162a15,15,0,0,1,22.23,11.93.48.48,0,0,1-.13.38A.51.51,0,0,1,328.71,174.47Zm-143.62-1H328.17a14,14,0,0,0-13.89-12.37,13.87,13.87,0,0,0-7.68,2.3.5.5,0,0,1-.55,0,.48.48,0,0,1-.22-.5A31.72,31.72,0,0,0,244,149a.51.51,0,0,1-.35.35.48.48,0,0,1-.47-.11,22.86,22.86,0,0,0-37.8,12.7.49.49,0,0,1-.26.35.52.52,0,0,1-.44,0A13.77,13.77,0,0,0,199,161.1,14,14,0,0,0,185.09,173.47Z" style="fill:#263238"></path><path d="M152.29,296.58h-77a.51.51,0,0,1-.37-.16.48.48,0,0,1-.13-.38,8.26,8.26,0,0,1,8.2-7.6,8.09,8.09,0,0,1,2.8.49,13,13,0,0,1,20.73-7.12,17.71,17.71,0,0,1,34.58,5.4,17.94,17.94,0,0,1-.13,2.06,8.17,8.17,0,0,1,3.61-.83,8.27,8.27,0,0,1,8.21,7.6.5.5,0,0,1-.5.54Zm-76.44-1h75.88a7.24,7.24,0,0,0-11.13-4.95.5.5,0,0,1-.55,0,.49.49,0,0,1-.21-.5,17.13,17.13,0,0,0,.26-2.92,16.71,16.71,0,0,0-32.83-4.39.5.5,0,0,1-.82.24,12,12,0,0,0-19.8,6.65.52.52,0,0,1-.26.35.49.49,0,0,1-.44,0,7.23,7.23,0,0,0-10.1,5.51Z" style="fill:#263238"></path><path d="M445.51,65h-113a.5.5,0,0,1-.5-.54,11.85,11.85,0,0,1,16.09-10.14A18.81,18.81,0,0,1,378.45,44a25.76,25.76,0,0,1,50.39,7.52,25.2,25.2,0,0,1-.23,3.45,11.75,11.75,0,0,1,5.58-1.4A11.91,11.91,0,0,1,446,64.47a.5.5,0,0,1-.5.54ZM333,64H445a10.91,10.91,0,0,0-10.77-9.48,10.8,10.8,0,0,0-6,1.79.5.5,0,0,1-.55,0,.49.49,0,0,1-.22-.51,25.42,25.42,0,0,0,.38-4.33A24.75,24.75,0,0,0,379.2,45a.51.51,0,0,1-.35.35.48.48,0,0,1-.47-.11,17.82,17.82,0,0,0-29.46,9.9.48.48,0,0,1-.25.35.52.52,0,0,1-.44,0A10.85,10.85,0,0,0,333,64Z" style="fill:#263238"></path></g><g id="freepik--Bar--inject-228"><rect x="18.32" y="426.14" width="136.94" height="38.41" style="fill:#263238"></rect><path d="M155.26,465.05H18.32a.5.5,0,0,1-.5-.5V426.14a.5.5,0,0,1,.5-.5H155.26a.5.5,0,0,1,.5.5v38.41A.5.5,0,0,1,155.26,465.05Zm-136.44-1H154.76V426.64H18.82Z" style="fill:#263238"></path><rect x="12.46" y="426.14" width="136.94" height="38.41" style="fill:#3766D0"></rect><path d="M149.4,465.05H12.46a.5.5,0,0,1-.5-.5V426.14a.5.5,0,0,1,.5-.5H149.4a.5.5,0,0,1,.5.5v38.41A.5.5,0,0,1,149.4,465.05ZM13,464.05H148.9V426.64H13Z" style="fill:#263238"></path></g><g id="freepik--Characters--inject-228"><path d="M446.88,256.78s5.31,4.52,6.3,5.21,8.14,3.75,8.14,3.75a1.42,1.42,0,0,1-.56,1.61c-.91.79-9.58,1.53-12.14,1.34s-6.48-2.34-7.13-2.74a42.61,42.61,0,0,1-3.58-3.75l-1.42,1.24-6.42-3.19s.56-3.85,1.64-5.49a19,19,0,0,1,3.52-3.51Z" style="fill:#263238"></path><path d="M449.57,269.21c-.4,0-.73,0-1,0-2.94-.22-7.32-2.77-7.36-2.8a32.46,32.46,0,0,1-3.37-3.47l-1.05.91a.5.5,0,0,1-.55.06l-6.41-3.19a.48.48,0,0,1-.27-.51c0-.17.58-4,1.72-5.7a18.77,18.77,0,0,1,3.63-3.62.49.49,0,0,1,.52-.06l11.64,5.53a.41.41,0,0,1,.11.07c.06,0,5.31,4.51,6.27,5.18.77.55,6.07,2.85,8,3.7a.51.51,0,0,1,.26.26,1.92,1.92,0,0,1-.69,2.19C460.07,268.61,452.78,269.21,449.57,269.21Zm-11.66-7.51a.52.52,0,0,1,.38.17,40.09,40.09,0,0,0,3.46,3.66c.86.51,4.56,2.48,6.91,2.66,2.88.22,11-.62,11.78-1.22a1.09,1.09,0,0,0,.45-.87c-1.38-.6-7.06-3-8-3.7s-5.71-4.71-6.28-5.2l-11.31-5.36a17,17,0,0,0-3.17,3.19,16.17,16.17,0,0,0-1.51,4.93l5.79,2.88,1.17-1A.54.54,0,0,1,437.91,261.7Z" style="fill:#263238"></path><path d="M355.16,259.44l-3.82-.83a80.34,80.34,0,0,0-7.1-4.11c-1.18-.36-2.86,0-4,2.43l-1.61,4,1,1.12s-2.9,1.41-3.37,2.6-3.81,4.54-4.56,8.92.6,3.48,1.12,3.24,8.62-5.94,9.85-6.74,9.44-2.37,9.44-2.37S353.49,260.63,355.16,259.44Z" style="fill:#263238"></path><path d="M332.09,277.55a.91.91,0,0,1-.57-.19c-.61-.45-.7-1.61-.32-3.87a18.75,18.75,0,0,1,3.67-7.62,9.52,9.52,0,0,0,.91-1.4c.41-1,2.11-2.06,3-2.57l-.58-.64a.51.51,0,0,1-.09-.52l1.61-4c1.29-2.67,3.24-3.15,4.63-2.71a68.31,68.31,0,0,1,7.14,4.12l3.74.8a.5.5,0,0,1,.18.89c-1.1.79-2.34,5.3-2.86,8a.49.49,0,0,1-.4.39c-3.13.6-8.41,1.75-9.25,2.3-.48.31-2.09,1.43-3.79,2.6-4.08,2.83-5.83,4-6.14,4.17A2.17,2.17,0,0,1,332.09,277.55Zm7.1-16.72.8.88a.49.49,0,0,1,.12.43.5.5,0,0,1-.27.36c-1,.51-2.83,1.6-3.13,2.34a9,9,0,0,1-1,1.61,17.85,17.85,0,0,0-3.49,7.21c-.43,2.53-.08,2.89-.07,2.9a2.33,2.33,0,0,0,.36-.15l.12-.06c.33-.17,3.6-2.43,6-4.08,1.78-1.23,3.32-2.3,3.81-2.62,1.18-.76,7.6-2,9.29-2.37.27-1.33,1.24-5.63,2.54-7.53l-3-.65a.49.49,0,0,1-.17-.06,69.67,69.67,0,0,0-7-4.06c-.49-.15-2.17-.44-3.43,2.16Z" style="fill:#263238"></path><path d="M389.28,182.78a164.16,164.16,0,0,0,1.91,28.08c2.4,16.15,3.7,38.68,3.7,38.68s-1.92-.91-2,.22a4.76,4.76,0,0,0,.22,1.87l-38,7.81s-2.18,1.35-2.5,5.12a20.66,20.66,0,0,0-.16,4.39s36.4,0,46-.36,15.56-1.63,16.27-2.41a6.34,6.34,0,0,0,1.34-3.19c-.14-.37,3.32-44.62,3.39-48.25s2.54-12.25,2.54-12.25,29.67,3.43,33.17,3.39l1.89.28-21.88,45.09s2.94,3.86,7,5.17,6.05,1.08,6.05,1.08a10.91,10.91,0,0,1,.89-2.3c.36-.39.18-4,.15-4.75s26.74-40.21,30.7-46.15,4.39-10.09,3.19-11.66S438.14,174,438.14,174l-5.26-4.51s-12.2,8.79-19.69,11.53S389.28,182.78,389.28,182.78Z" style="fill:#263238"></path><path d="M352.5,269.45a.51.51,0,0,1-.49-.38,20.46,20.46,0,0,1,.15-4.55c.34-4,2.64-5.45,2.74-5.51a.52.52,0,0,1,.16-.06l37.44-7.7a5.59,5.59,0,0,1-.1-1.52,1,1,0,0,1,.5-.87,2,2,0,0,1,1.45-.05c-.26-4.08-1.53-23.6-3.66-37.87a166.64,166.64,0,0,1-1.91-28.18.53.53,0,0,1,.17-.35.49.49,0,0,1,.36-.12c.16,0,16.39.9,23.71-1.77s19.44-11.38,19.57-11.47a.5.5,0,0,1,.61,0l5.2,4.46c7.53,2.93,44,17.2,45.22,18.79s1.14,5.78-3.17,12.25c-.9,1.35-3,4.46-5.69,8.45-8.45,12.52-24.09,35.69-24.93,37.49.21,4.48-.09,4.82-.28,5a10.08,10.08,0,0,0-.77,2.09.53.53,0,0,1-.43.37,17.24,17.24,0,0,1-6.26-1.11,16.86,16.86,0,0,1-7.25-5.33.49.49,0,0,1-.06-.52l21.59-44.49-1.22-.18h-.08c-3.56,0-28.91-2.9-32.66-3.34-.48,1.75-2.33,8.64-2.4,11.72,0,1.89-1,14.43-1.86,26.55-.76,10.23-1.54,20.81-1.53,21.61a6.78,6.78,0,0,1-1.47,3.6c-.92,1-7.39,2.25-16.62,2.58C389,269.43,352.86,269.45,352.5,269.45Zm2.86-9.54a6.25,6.25,0,0,0-2.2,4.69c-.19,2.24-.21,3.34-.2,3.85,4.28,0,36.63,0,45.53-.36,10.18-.36,15.44-1.74,15.92-2.25a6.69,6.69,0,0,0,1.23-2.74c-.07-.15-.09-.22,1.51-21.87.86-11.55,1.82-24.63,1.86-26.5.08-3.65,2.45-12,2.56-12.38a.49.49,0,0,1,.53-.36c.3,0,29.31,3.39,33,3.39h.07l2,.29a.5.5,0,0,1,.37.71l-21.74,44.81a16,16,0,0,0,6.57,4.75,18.67,18.67,0,0,0,5.53,1.07,7.45,7.45,0,0,1,.89-2.14,20,20,0,0,0,0-4.4c0-.46,1.65-3.25,25.1-38l5.69-8.45c3.74-5.61,4.28-9.67,3.2-11.08-1.22-1.22-27.5-11.74-44.86-18.5a.46.46,0,0,1-.15-.09l-5-4.26c-2,1.44-12.6,8.85-19.49,11.37s-20.71,2-23.59,1.85a168.63,168.63,0,0,0,1.91,27.48c2.38,16,3.7,38.5,3.71,38.72a.5.5,0,0,1-.22.45.48.48,0,0,1-.49,0,2.13,2.13,0,0,0-1.27-.26,4.64,4.64,0,0,0,.17,1.72.51.51,0,0,1,0,.42.49.49,0,0,1-.33.25Z" style="fill:#263238"></path><path d="M422.76,202.2a.57.57,0,0,1-.22,0,.5.5,0,0,1-.23-.67c4.93-10.36,5.27-10.6,5.39-10.7a.51.51,0,0,1,.7.11.5.5,0,0,1-.1.7c-.32.42-3.3,6.56-5.09,10.32A.5.5,0,0,1,422.76,202.2Z" style="fill:#fff"></path><path d="M417,199.48a.48.48,0,0,1-.34-.13.5.5,0,0,1,0-.71c.63-.67,1.28-1.38,1.94-2.1a.51.51,0,0,1,.71,0,.5.5,0,0,1,0,.71l-1.95,2.1A.46.46,0,0,1,417,199.48Z" style="fill:#fff"></path><path d="M420.7,195.45a.46.46,0,0,1-.33-.13.48.48,0,0,1,0-.7c3.74-4.11,7.21-8,7.21-8a.5.5,0,0,1,.7,0,.5.5,0,0,1,0,.71s-3.47,3.9-7.22,8A.49.49,0,0,1,420.7,195.45Z" style="fill:#fff"></path><path d="M392.78,197.9a.5.5,0,0,1-.17-1c1.93-.72,7.19-2.79,8.42-3.83a.65.65,0,0,0,.2-.45c.09-1.25-1.7-3.58-2.4-4.37a.5.5,0,0,1,.75-.66c.29.33,2.78,3.21,2.65,5.1a1.65,1.65,0,0,1-.56,1.14c-1.61,1.37-8.42,3.9-8.71,4Z" style="fill:#fff"></path><path d="M393.46,213.8a.5.5,0,0,1-.49-.43c-.43-3.19-1-7.45-1.13-9.66-.38-5.2.06-16.57.07-16.69a.47.47,0,0,1,.52-.48.51.51,0,0,1,.48.52c0,.12-.45,11.44-.07,16.58.15,2.18.7,6.42,1.12,9.59a.5.5,0,0,1-.43.57Z" style="fill:#fff"></path><path d="M458.35,206.35a.5.5,0,0,1,0-1,59.3,59.3,0,0,0,11.07-1.53.49.49,0,0,1,.6.37.48.48,0,0,1-.36.6,60.1,60.1,0,0,1-11.29,1.56Z" style="fill:#fff"></path><path d="M465.54,207.63a.5.5,0,0,1-.09-1,28,28,0,0,0,10.9-5.07.51.51,0,0,1,.71.08.5.5,0,0,1-.08.7,28.51,28.51,0,0,1-11.35,5.27Z" style="fill:#fff"></path><path d="M369.68,118.73s-15.58,17.88-16,19.33S343.47,157.8,340,163.23s-26.91,47.44-26.91,47.44l5.43,6,33.75-44.25,17.2-21.49,5.94,3.86,12,22s1.06,6.72,1.88,7.3,19.57-.84,24.79-3.07,18.19-10.74,18.77-11.56a3.47,3.47,0,0,0,.28-3,23.83,23.83,0,0,0-2.24-2.85L419.8,122.77l31.22.29,9.37-11.33s-30.92-5.36-35.25-6.5S415,102.57,410,102.42s-22.44,1.91-22.44,1.91Z" style="fill:#fff"></path><path d="M318.55,217.13a.52.52,0,0,1-.37-.16l-5.43-6a.5.5,0,0,1-.07-.58c.24-.42,23.53-42.09,26.93-47.47s13.27-23.68,13.63-25,13.45-16.53,16.06-19.53l.07-.06,17.85-14.4a.57.57,0,0,1,.25-.11c.71-.08,17.49-2,22.52-1.91s11,1.7,15.27,2.83,34.91,6.44,35.21,6.49a.49.49,0,0,1,.39.32.51.51,0,0,1-.08.49l-9.38,11.33a.52.52,0,0,1-.39.18l-30.56-.28,10.93,40.06a21.27,21.27,0,0,1,2.23,2.89,3.94,3.94,0,0,1-.32,3.52c-.68,1-13.71,9.48-19,11.73-5.05,2.15-24.11,3.82-25.27,3-.86-.61-1.67-4.95-2.08-7.54l-11.9-21.86-5.45-3.54L352.69,172.7,319,216.94a.5.5,0,0,1-.38.19Zm-4.82-6.53,4.79,5.25,33.38-43.77,17.21-21.5a.51.51,0,0,1,.67-.11l5.93,3.86a.58.58,0,0,1,.17.18l12,22a1,1,0,0,1,.05.16c.48,3,1.26,6.56,1.69,7,1.2.38,19.12-.92,24.29-3.13s17.87-10.55,18.56-11.4a2.94,2.94,0,0,0,.24-2.5,21,21,0,0,0-2.16-2.74.49.49,0,0,1-.11-.2L419.31,122.9a.51.51,0,0,1,.09-.43.45.45,0,0,1,.4-.2l31,.29,8.67-10.48c-5.1-.89-30.5-5.32-34.45-6.36-4.25-1.12-10.06-2.65-15.05-2.8-4.72-.15-20.55,1.69-22.23,1.89L370,119.09c-5.93,6.81-15.44,18-15.83,19.1-.42,1.61-10.57,20.3-13.74,25.31S315.9,206.72,313.73,210.6Z" style="fill:#263238"></path><path d="M423.21,165.77h0c-1.58,0-3.37-.13-5.33-.32a.51.51,0,0,1-.45-.55.52.52,0,0,1,.55-.45c1.93.19,3.7.3,5.25.32a.5.5,0,0,1,0,1Z" style="fill:#263238"></path><path d="M415.21,165.15h-.07a246.78,246.78,0,0,1-27.32-5.45.5.5,0,1,1,.26-1,246.51,246.51,0,0,0,27.19,5.41.51.51,0,0,1,.43.56A.5.5,0,0,1,415.21,165.15Z" style="fill:#263238"></path><path d="M428.06,168.71a152.64,152.64,0,0,1-17-1.48.51.51,0,0,1-.43-.57.49.49,0,0,1,.57-.42c.12,0,11.51,1.66,18.07,1.45a.51.51,0,0,1,.51.49.5.5,0,0,1-.48.51Z" style="fill:#263238"></path><path d="M336.55,175.17a.49.49,0,0,1-.44-.26.51.51,0,0,1,.2-.68c.8-.44,1.78-1,2.92-1.74a.5.5,0,1,1,.53.85c-1.15.72-2.15,1.32-3,1.77A.53.53,0,0,1,336.55,175.17Z" style="fill:#263238"></path><path d="M342.24,171.66a.48.48,0,0,1-.42-.23.5.5,0,0,1,.14-.69c9.33-6.13,23.19-16.35,23.33-16.45a.5.5,0,0,1,.59.81c-.13.1-14,10.34-23.37,16.47A.48.48,0,0,1,342.24,171.66Z" style="fill:#263238"></path><path d="M333.25,178.67a.5.5,0,0,1-.49-.4.51.51,0,0,1,.4-.59c.7-.14,8-3.59,12.44-5.72a.5.5,0,1,1,.43.9c-1.18.57-11.62,5.59-12.68,5.8Z" style="fill:#263238"></path><path d="M326,205.64a.52.52,0,0,1-.21,0l-7.46-3.4a.49.49,0,0,1-.25-.66.5.5,0,0,1,.66-.25l7.46,3.4a.5.5,0,0,1-.2.95Z" style="fill:#263238"></path><path d="M323.65,210a.48.48,0,0,1-.26-.07L316,205.62a.48.48,0,0,1-.17-.68.49.49,0,0,1,.68-.18l7.39,4.34a.49.49,0,0,1,.18.68A.51.51,0,0,1,323.65,210Z" style="fill:#263238"></path><path d="M369.5,151.39h0l-15.94-1.26a.49.49,0,0,1-.46-.53.51.51,0,0,1,.54-.46l12.38,1-6.83-2.55a.5.5,0,1,1,.35-.93l10.18,3.79a.5.5,0,0,1,.31.58A.49.49,0,0,1,369.5,151.39Z" style="fill:#263238"></path><path d="M356.66,146.6a.57.57,0,0,1-.18,0l-1.67-.63a.5.5,0,1,1,.35-.93l1.67.62a.52.52,0,0,1,.3.65A.51.51,0,0,1,356.66,146.6Z" style="fill:#263238"></path><path d="M419.8,123.27a.5.5,0,0,1-.48-.34l-3.14-9.39a.5.5,0,0,1,.31-.63.51.51,0,0,1,.64.32l2.14,6.38-.13-12.51a.51.51,0,0,1,.49-.51h0a.5.5,0,0,1,.5.5l.16,15.68a.52.52,0,0,1-.42.5Z" style="fill:#263238"></path><polygon points="384.65 125.31 391.46 131.15 393.84 119.39 387.5 115.88 384.65 125.31" style="fill:#3766D0"></polygon><path d="M391.46,131.65a.5.5,0,0,1-.33-.12l-6.8-5.84a.49.49,0,0,1-.15-.52l2.84-9.43a.49.49,0,0,1,.29-.32.5.5,0,0,1,.43,0l6.34,3.52a.5.5,0,0,1,.25.53L392,131.25a.51.51,0,0,1-.33.37A.45.45,0,0,1,391.46,131.65Zm-6.23-6.5,5.9,5.06,2.15-10.56-5.48-3Z" style="fill:#263238"></path><path d="M391.46,131.15s-12,15.19-11.13,17.17.53,8.28.53,8.28l-17.11,23.53-1.36,10.59,10.46-3.18s10.87-23,12.6-25.44,2.6-5.81,2-7.18a35,35,0,0,1-1.27-5.25c-.24-1.24,4.75-6.58,5-9.26S391.46,131.15,391.46,131.15Z" style="fill:#3766D0"></path><path d="M362.39,191.22a.47.47,0,0,1-.32-.12.51.51,0,0,1-.18-.45l1.36-10.59a.65.65,0,0,1,.09-.23l17-23.41c.1-1.82.19-6.4-.49-7.89-1-2.09,8.32-14.07,11.18-17.69a.5.5,0,0,1,.56-.16.5.5,0,0,1,.34.46c0,.27.1,6.64-.2,9.33-.17,1.58-1.75,3.86-3.14,5.88-.82,1.19-1.95,2.82-1.91,3.23l0,.22a31.94,31.94,0,0,0,1.21,4.93c.65,1.6-.32,5.11-2.1,7.66s-12.45,25.13-12.56,25.36a.49.49,0,0,1-.31.27l-10.45,3.18Zm1.84-10.9L363,190l9.5-2.89c1.14-2.41,10.89-22.93,12.55-25.3s2.45-5.58,2-6.71a33.81,33.81,0,0,1-1.26-5.12l0-.23c-.14-.73.61-1.87,2.07-4,1.26-1.82,2.82-4.09,3-5.42.21-1.87.21-5.7.2-7.78-5.32,6.82-10.54,14.41-10.18,15.54.95,2.06.59,8.25.57,8.51a.49.49,0,0,1-.1.26Z" style="fill:#263238"></path><path d="M374,115.92s1,5,1.49,5.55,8.67,10,8.67,10l3.66-7.88,1.39-2.7,11.27,1.22-3.15-9.53L388,103.18l-3.09.2Z" style="fill:#fff"></path><path d="M384.16,132a.48.48,0,0,1-.37-.17s-8.23-9.48-8.68-10-1.28-4.22-1.6-5.77a.52.52,0,0,1,.11-.43l10.9-12.54a.51.51,0,0,1,.35-.17l3.09-.2a.54.54,0,0,1,.38.15l9.35,9.41a.62.62,0,0,1,.12.19L401,122a.5.5,0,0,1-.09.47.49.49,0,0,1-.44.18l-10.93-1.17-1.24,2.39-3.64,7.86a.51.51,0,0,1-.39.29Zm-9.62-15.92a33.94,33.94,0,0,0,1.33,5.09c.38.45,6.37,7.35,8.17,9.42l3.32-7.18,1.41-2.72a.47.47,0,0,1,.49-.26l10.5,1.13-2.86-8.68-9.11-9.17-2.65.17Z" style="fill:#263238"></path><path d="M350.38,90.37s.65,10,1.71,11.45a16.81,16.81,0,0,0,3.28,2.88s0,7,.79,7.28a24.94,24.94,0,0,0,3.61.42s4.85,4.65,5.61,6.69,1.12,2.85,3,2.73,6.21-4.16,6.21-4.16l13.24,5.94s1.45-.19,1.39-2.7-4-18.55-4-18.55-3.75-16-6.37-19.44-11.18-6.49-16.1-5-10.42,6.83-12.06,9S347.53,89.8,350.38,90.37Z" style="fill:#fff"></path><path d="M387.82,124.1a.49.49,0,0,1-.21,0l-12.93-5.81c-1,.93-4.48,4-6.27,4.07-2.32.15-2.78-1.13-3.5-3.06-.57-1.53-3.93-5-5.35-6.37a20.61,20.61,0,0,1-3.55-.44c-.32-.1-1.16-.37-1.14-7.49a15.93,15.93,0,0,1-3.17-2.84c-1-1.36-1.63-9-1.79-11.34-.83-.2-1.4-.45-1.58-1s.28-1.21,1-2c.29-.34.63-.73,1-1.19,1.79-2.4,7.42-7.75,12.32-9.2,5.18-1.55,13.91,1.67,16.64,5.2s6.3,19,6.46,19.63,4,16.12,4,18.65c.06,2.92-1.75,3.2-1.83,3.21Zm-13.24-6.94a.54.54,0,0,1,.21,0l13.06,5.86c.26-.11.9-.55.86-2.16,0-2.42-4-18.28-4-18.44s-3.75-16-6.27-19.25S367.63,77,362.88,78.36s-10.08,6.54-11.81,8.85c-.35.48-.7.89-1,1.24a4.28,4.28,0,0,0-.78,1.07,5.69,5.69,0,0,0,1.2.36.49.49,0,0,1,.4.45c.25,3.83.9,10.25,1.61,11.18a16.58,16.58,0,0,0,3.16,2.78.49.49,0,0,1,.22.41c0,2.86.18,6.22.53,6.83a26.17,26.17,0,0,0,3.4.37.55.55,0,0,1,.32.14c.2.19,4.94,4.75,5.73,6.87s1,2.51,2.49,2.41c1.24-.08,4.28-2.51,5.9-4A.51.51,0,0,1,374.58,117.16Zm-18.15-5.59h0Z" style="fill:#263238"></path><path d="M358.54,89c-.86,2.88-2.37,5.38,0,5.53a38.68,38.68,0,0,0,4.39,0l2.87,4s3.11,9,2.17,9.22c-4.21.77-6.72,4.18-7.65,5.17,1.31,1.3,4.42,4.51,5,6.12.76,2,1.12,2.85,3,2.73s6.21-4.16,6.21-4.16,3.53-5.24,3.42-7-7.64-11.63-8.78-13-1-4.32,1.17-4.67,4,1.84,4.47,4.52.6,4.45.6,4.45,6.56-.31,7.48-.58a5.71,5.71,0,0,0,1.76-1.06c-1.11-4.45-3.83-14.75-5.87-17.38-2.62-3.38-11.18-6.49-16.1-5s-10.42,6.83-12.06,9-3.14,2.89-.29,3.46c0,0,4-3.91,7.07-5.35S359.4,86.14,358.54,89Z" style="fill:#263238"></path><path d="M368.06,122.33c-2,0-2.47-1.24-3.15-3.07-.39-1-2.22-3.26-4.9-5.93a.5.5,0,0,1,0-.7c.11-.11.23-.25.38-.42,1.16-1.33,3.55-4.08,7.32-4.86.06-1-1.11-5.06-2.3-8.54l-2.67-3.71a38,38,0,0,1-4.17,0,1.84,1.84,0,0,1-1.52-.72c-.57-.86-.11-2.16.47-3.79.19-.53.39-1.09.56-1.66l.26-.86c.31-1,.82-2.64.59-2.91h0s-.25-.12-1.25.36c-2.93,1.39-6.89,5.22-6.93,5.25a.5.5,0,0,1-.45.14c-1-.21-1.75-.46-1.95-1s.28-1.21,1-2c.29-.34.63-.73,1-1.19,1.79-2.4,7.42-7.75,12.32-9.2,5.18-1.55,13.91,1.67,16.64,5.2,2,2.61,4.6,12.12,5.95,17.56a.48.48,0,0,1-.16.5,5.9,5.9,0,0,1-1.94,1.16c-.95.28-6.92.57-7.6.6A.47.47,0,0,1,375,102a42.39,42.39,0,0,0-.6-4.4c-.4-2.23-1.89-4.43-3.89-4.12a1.59,1.59,0,0,0-1.29,1.07,3.06,3.06,0,0,0,.43,2.8c.09.1,8.75,11.13,8.89,13.3.12,1.88-3.13,6.77-3.5,7.32l-.08.09c-.45.42-4.52,4.16-6.51,4.29Zm-7-9.38c1.68,1.7,4.23,4.44,4.8,6,.75,2,1,2.51,2.49,2.41,1.22-.08,4.22-2.47,5.86-4,1.33-2,3.38-5.49,3.3-6.65-.09-1.43-6.9-10.57-8.66-12.73a4.05,4.05,0,0,1-.59-3.78,2.57,2.57,0,0,1,2.06-1.7c2.29-.37,4.46,1.75,5,4.92.34,1.89.5,3.31.56,4,2.61-.13,6.29-.37,6.89-.54a4.32,4.32,0,0,0,1.33-.77c-1.12-4.48-3.76-14.38-5.69-16.88-2.5-3.23-10.81-6.27-15.56-4.86s-10.08,6.54-11.81,8.85c-.35.48-.7.89-1,1.24a4.28,4.28,0,0,0-.78,1.07,6,6,0,0,0,1,.3,34.7,34.7,0,0,1,7-5.26c.77-.36,1.74-.72,2.33-.2.75.64.31,2-.28,4l-.26.84c-.18.59-.38,1.17-.57,1.71-.43,1.21-.88,2.46-.58,2.91.1.16.35.25.74.28a39.12,39.12,0,0,0,4.33,0,.51.51,0,0,1,.44.2l2.86,4a.33.33,0,0,1,.07.13c1.08,3.14,2.81,8.56,2.24,9.54a.66.66,0,0,1-.45.33c-3.56.65-5.87,3.31-7,4.58Z" style="fill:#263238"></path><path d="M358.62,103.64c.43.62.54,1.29.24,1.5s-.89-.12-1.32-.74-.55-1.29-.25-1.5S358.18,103,358.62,103.64Z" style="fill:#263238"></path><path d="M354.68,103a.5.5,0,0,1-.5-.46,3.43,3.43,0,0,1,.82-2.36,3,3,0,0,1,2.35-.88.5.5,0,0,1,.5.5.5.5,0,0,1-.5.5h0a2.12,2.12,0,0,0-1.59.56,2.4,2.4,0,0,0-.55,1.61.5.5,0,0,1-.47.53Z" style="fill:#263238"></path><path d="M364.58,114.91a.5.5,0,0,1-.06-1c.06,0,1-.24,2.29-2.46a.5.5,0,1,1,.86.5c-1.6,2.73-2.83,2.94-3.06,3Z" style="fill:#fff"></path><path d="M452.15,111.16a14,14,0,0,0-4,2c-1,1-22.92,18.42-22.92,18.42l6.22,3.55s24.44-12.06,28.07-14.5,7.72-7.59,6.89-8.17-11.15-1.65-11.15-1.65" style="fill:#fff"></path><path d="M431.47,135.62a.42.42,0,0,1-.24-.07L425,132a.51.51,0,0,1-.26-.4.52.52,0,0,1,.19-.43c7.56-6,22.08-17.6,22.89-18.39a14.38,14.38,0,0,1,4.16-2.11.5.5,0,0,1,.63.32.5.5,0,0,1-.31.63,13.34,13.34,0,0,0-3.79,1.87c-1,.94-18.84,15.18-22.38,18l5.35,3.05c2.54-1.25,24.4-12.08,27.77-14.34s6.56-6.41,6.77-7.4a98.5,98.5,0,0,0-10.8-1.52.49.49,0,0,1-.45-.54.5.5,0,0,1,.55-.45c2.45.26,10.52,1.13,11.39,1.74a.77.77,0,0,1,.32.67c0,1.57-4,6.16-7.22,8.33-3.62,2.43-27.13,14-28.12,14.53A.59.59,0,0,1,431.47,135.62Z" style="fill:#263238"></path><path d="M411.3,137.83s-2.6,3.8-2.56,4.43,3.59,4.34,4.4,4.61,1.75.2,1.32-1.51-.73-4.05-.73-4.05Z" style="fill:#fff"></path><path d="M413.78,147.48a2.59,2.59,0,0,1-.8-.14c-.94-.31-4.68-4.13-4.74-5.05,0-.66,1.41-2.94,2.64-4.74a.57.57,0,0,1,.42-.22.5.5,0,0,1,.41.22l2.43,3.47a.53.53,0,0,1,.08.22s.31,2.34.73,4c.22.91.13,1.54-.28,1.92A1.24,1.24,0,0,1,413.78,147.48Zm-2.48-8.76a21.08,21.08,0,0,0-2.06,3.54,20.83,20.83,0,0,0,4.05,4.13c.38.12.63.11.7,0s.14-.33,0-1c-.38-1.51-.66-3.48-.73-4Z" style="fill:#263238"></path><path d="M425.25,131.57l-3.54,1.33s-11.24-.54-11.33.42.55,8.64,1.37,9.06,10.56,0,11-.08a8.48,8.48,0,0,0,1.85-.75l.54-1.45a10.89,10.89,0,0,0,3.87-1.2c1.2-.86,2.43-3.78,2.43-3.78Z" style="fill:#fff"></path><path d="M414.77,143.05a12.06,12.06,0,0,1-3.25-.23c-1.28-.65-1.68-9.19-1.64-9.55s.14-1.42,11.75-.87l3.45-1.3a.52.52,0,0,1,.42,0l6.22,3.54a.52.52,0,0,1,.22.63c-.14.31-1.33,3.08-2.61,4a10.35,10.35,0,0,1-3.8,1.24l-.43,1.18a.52.52,0,0,1-.24.27,7.68,7.68,0,0,1-2,.8C422.75,142.81,418.11,143.05,414.77,143.05Zm-3.91-9.51c0,1.5.61,7.78,1.18,8.44.75.26,9.22-.08,10.71-.18a7.19,7.19,0,0,0,1.48-.6l.47-1.28a.49.49,0,0,1,.41-.32,10.08,10.08,0,0,0,3.63-1.1,9.89,9.89,0,0,0,2.09-3.17l-5.62-3.21-3.33,1.25a.33.33,0,0,1-.2,0C417,133.18,411.86,133.18,410.86,133.54Z" style="fill:#263238"></path><path d="M414.05,142.87a.5.5,0,0,1-.5-.46l-.64-8.23a.5.5,0,0,1,1-.07l.64,8.22a.51.51,0,0,1-.46.54Z" style="fill:#263238"></path><path d="M417.42,142.87a.5.5,0,0,1-.5-.46l-.65-8.44a.5.5,0,0,1,.46-.54.52.52,0,0,1,.54.46l.65,8.44a.5.5,0,0,1-.46.54Z" style="fill:#263238"></path><path d="M420.45,142.67a.5.5,0,0,1-.5-.49l-.07-7.83a.5.5,0,0,1,.5-.5.49.49,0,0,1,.5.5l.07,7.82a.49.49,0,0,1-.49.5Z" style="fill:#263238"></path><path d="M425.17,140.6a.59.59,0,0,1-.22,0l-1.75-.83a.5.5,0,0,1,.43-.91l1.75.84a.49.49,0,0,1,.24.66A.51.51,0,0,1,425.17,140.6Z" style="fill:#263238"></path><path d="M292.54,305.66s13.87,7.89,13.67,10-37.93,44.48-37,45.45,10,9.63,10,9.63,6,2.5,5.78,3.27-5.78,1-7.7,1a50.89,50.89,0,0,1-8.09-.58c-1.35-.38-6-3.08-10.2-5s-5.2-3.47-4.43-4.62,9.43-10.6,9.43-10.6l25.42-49.29Z" style="fill:#fff"></path><path d="M277.33,375.48a51.73,51.73,0,0,1-8.23-.6,34.41,34.41,0,0,1-4.3-2.06c-1.85-1-3.94-2-6-3-2.94-1.33-4.54-2.58-4.89-3.81a1.81,1.81,0,0,1,.25-1.54c.76-1.14,8.69-9.79,9.44-10.6L289,304.66a.5.5,0,0,1,.56-.26l3.08.77.13.05c3.32,1.89,14.13,8.23,13.92,10.5-.1,1.07-5.66,7.71-18.32,22.6-7.89,9.26-17.64,20.72-18.6,22.63,1.52,1.5,9,8.62,9.74,9.37,6.28,2.64,6.08,3.44,6,3.82C285.24,375.25,280.91,375.48,277.33,375.48Zm12.39-70-25.23,48.94a.44.44,0,0,1-.08.11c-2.4,2.62-8.77,9.61-9.39,10.53a.85.85,0,0,0-.12.72c.15.51.91,1.61,4.34,3.17,2.06.94,4.16,2,6,3a36.83,36.83,0,0,0,4.12,2,51.07,51.07,0,0,0,7.95.56,33.56,33.56,0,0,0,7-.58,30.66,30.66,0,0,0-5.31-2.69.56.56,0,0,1-.15-.1c-.37-.36-9.07-8.68-10-9.64-.65-.65-.05-1.73,18.74-23.8,8.31-9.78,17.74-20.86,18.09-22.08,0-1.11-6.9-5.78-13.37-9.46Z" style="fill:#263238"></path><path d="M285,374c.19-.77-5.78-3.27-5.78-3.27l-3-2.85a7.42,7.42,0,0,1-2,1.88c-1,.39-11.56-5.58-16-8.47l-.43-.28c-1.59,1.78-2.94,3.32-3.22,3.75-.77,1.15.19,2.69,4.43,4.62s8.85,4.62,10.2,5a50.89,50.89,0,0,0,8.09.58C279.25,375,284.84,374.79,285,374Z" style="fill:#263238"></path><path d="M277.33,375.48a51.73,51.73,0,0,1-8.23-.6,34.41,34.41,0,0,1-4.3-2.06c-1.84-1-3.94-2-6-3-2.94-1.33-4.54-2.58-4.89-3.81a1.81,1.81,0,0,1,.25-1.54,50.05,50.05,0,0,1,3.27-3.8.49.49,0,0,1,.64-.09l.44.28c4.93,3.22,14.39,8.41,15.58,8.41h0a6.84,6.84,0,0,0,1.78-1.72.47.47,0,0,1,.35-.17.51.51,0,0,1,.38.13l2.89,2.78c6.28,2.64,6.08,3.44,6,3.82h0C285.24,375.25,280.91,375.48,277.33,375.48Zm-19.41-13.8c-2.22,2.49-2.77,3.18-2.9,3.37a.85.85,0,0,0-.12.72c.15.51.91,1.61,4.34,3.17,2.06.94,4.17,2,6,3a36.83,36.83,0,0,0,4.12,2,51.07,51.07,0,0,0,7.95.56,33.56,33.56,0,0,0,7-.58,30.66,30.66,0,0,0-5.31-2.69.56.56,0,0,1-.15-.1l-2.59-2.48a6.09,6.09,0,0,1-1.89,1.62c-1.48.61-14.39-7.19-16.44-8.52ZM285,374h0Z" style="fill:#263238"></path><path d="M239.2,353.41l4.82,9.25-38.33,4s-5-6.93-6.54-7.12-4.43,2.31-6.16,3.66-6.17,4.62-6.17,4.62-10,5.39-9.62,6.74,30,0,30,0h50.83c2.7,0,6.36-2.12,6.55-3.08s-5.39-30.43-5.39-30.43Z" style="fill:#fff"></path><path d="M186.26,375.7c-9.27,0-9.46-.68-9.55-1-.32-1.15,3-3.61,9.88-7.31h0s4.38-3.25,6.09-4.58l.71-.56c1.9-1.51,4.26-3.41,5.82-3.2s5.34,5.2,6.72,7.09l37.3-3.93-4.47-8.59a.51.51,0,0,1,.18-.66l20-12.32a.5.5,0,0,1,.46,0,.52.52,0,0,1,.29.37c1.31,6.93,5.59,29.63,5.39,30.61-.27,1.33-4.24,3.49-7,3.49H207.24C197.42,375.54,190.77,375.7,186.26,375.7Zm-8.49-1.34c2.41.67,19.08.21,29.44-.26h50.86c2.65,0,5.92-2.12,6.06-2.68.05-1-3.07-17.95-5.26-29.52l-19,11.7,4.6,8.83a.5.5,0,0,1,0,.46.52.52,0,0,1-.39.27l-38.32,4a.5.5,0,0,1-.46-.2c-2.35-3.25-5.39-6.82-6.2-6.93-1.13-.13-3.61,1.82-5.08,3l-.72.57c-1.72,1.34-6.13,4.6-6.17,4.63C183,370.5,178.47,373.33,177.77,374.36Z" style="fill:#263238"></path><path d="M190.9,375.13l-1.19-3.42,13.63-8.07c-1.52-1.89-3.36-4-4.19-4.06-1.54-.2-4.43,2.31-6.16,3.66s-6.17,4.62-6.17,4.62-10,5.39-9.62,6.74C177.38,375.23,184,375.27,190.9,375.13Z" style="fill:#263238"></path><path d="M185.07,375.7c-8.08,0-8.23-.51-8.36-1-.32-1.15,3-3.61,9.88-7.31h0s4.38-3.25,6.09-4.58l.71-.56c1.9-1.51,4.28-3.4,5.82-3.2.33,0,1.22.15,4.52,4.24a.55.55,0,0,1,.11.41.55.55,0,0,1-.24.34l-13.28,7.86,1.05,3a.51.51,0,0,1-.06.45.49.49,0,0,1-.4.21C188.61,375.68,186.68,375.7,185.07,375.7Zm-7.3-1.34c.72.18,3.31.45,12.43.29l-1-2.78a.49.49,0,0,1,.22-.59l13.13-7.78c-2.61-3.17-3.37-3.41-3.5-3.43-1.15-.13-3.61,1.82-5.08,3l-.72.57c-1.72,1.34-6.13,4.6-6.17,4.63C183,370.5,178.48,373.32,177.77,374.36Z" style="fill:#263238"></path><path d="M225.91,275s-7.7,16.37-9,30.43,22.34,47.94,22.34,47.94,21.18-3.27,31.58-13.47,21.76-34.28,21.76-34.28l-31.39-18.1-.15-4.45Z" style="fill:#263238"></path><path d="M239.2,353.92a.5.5,0,0,1-.41-.22c-1-1.39-23.77-34.2-22.42-48.28s9-30.43,9.09-30.59a.52.52,0,0,1,.57-.28l35.09,8.07a.48.48,0,0,1,.38.47l.14,4.17,31.15,18a.48.48,0,0,1,.2.64c-.11.24-11.52,24.27-21.86,34.42s-31.64,13.59-31.85,13.62Zm-13-78.3c-1.13,2.49-7.63,17.24-8.84,29.89-1.25,13.08,19.89,44.19,22.07,47.36,2.64-.45,21.51-4,31-13.29s19.9-30.49,21.46-33.72L260.9,288a.51.51,0,0,1-.25-.42l-.13-4.06Z" style="fill:#263238"></path><path d="M250.18,317.13a.5.5,0,0,1-.4-.19,169.37,169.37,0,0,0-11.32-13.63.5.5,0,0,1,0-.71.5.5,0,0,1,.71,0,169,169,0,0,1,11.4,13.71.51.51,0,0,1-.1.7A.49.49,0,0,1,250.18,317.13Z" style="fill:#fff"></path><path d="M257.11,322.91a.49.49,0,0,1-.44-.26c-1.5-2.82-9.3-12.34-9.38-12.44a.49.49,0,0,1,.07-.7.5.5,0,0,1,.7.07c.32.39,7.94,9.7,9.49,12.6a.49.49,0,0,1-.21.67A.46.46,0,0,1,257.11,322.91Z" style="fill:#fff"></path><path d="M247.1,294.22a.51.51,0,0,1-.5-.41.5.5,0,0,1,.41-.58c8-1.49,11.85-4.85,11.88-4.89a.5.5,0,0,1,.71,0,.49.49,0,0,1,0,.7c-.16.15-4.05,3.58-12.37,5.13Z" style="fill:#fff"></path><path d="M247.67,300.19a.51.51,0,0,1-.45-.29.49.49,0,0,1,.24-.66c3.54-1.68,10-7.93,10.07-8a.51.51,0,0,1,.71,0,.5.5,0,0,1,0,.71c-.27.26-6.65,6.43-10.34,8.18A.54.54,0,0,1,247.67,300.19Z" style="fill:#fff"></path><path d="M307.44,212.73s-8,2.21-8.5,3.12.3,11,.3,11l-16,18.89-20.7-4.68-.76,17.68s17.84,8.92,18.74,8.77,4.54-3.18,4.54-3.18l22.67-40.2,3.93-12.09Z" style="fill:#263238"></path><path d="M280.54,268c-1.19,0-12.38-5.5-19-8.81a.5.5,0,0,1-.28-.47l.76-17.68a.47.47,0,0,1,.19-.38.49.49,0,0,1,.42-.09L283,245.22l15.69-18.51c-.19-2.62-.7-10.16-.24-11.09s5.73-2.52,8.81-3.37h.06l4.2-.67a.54.54,0,0,1,.46.17.49.49,0,0,1,.09.48l-3.93,12.09-22.71,40.3a.76.76,0,0,1-.11.14c-.88.73-3.81,3.12-4.78,3.28Zm-18.27-9.56c6.65,3.32,17.23,8.46,18.22,8.57a25.85,25.85,0,0,0,4.16-3l22.62-40.13,3.64-11.22-3.37.53c-3.6,1-7.75,2.37-8.17,2.88-.21.59,0,5.93.37,10.74a.52.52,0,0,1-.11.36l-16,18.9a.5.5,0,0,1-.49.16L263,241.71Z" style="fill:#263238"></path><path d="M259.8,188.92a4.61,4.61,0,0,1,3.57,1.66,12.49,12.49,0,0,1,2,5.15c0,.41-.21,3.82-.21,3.82l-7.83.2Z" style="fill:#263238"></path><path d="M257.29,200.25a.5.5,0,0,1-.39-.18.51.51,0,0,1-.1-.43l2.51-10.83a.5.5,0,0,1,.47-.39,5.09,5.09,0,0,1,4,1.85,12.83,12.83,0,0,1,2.06,5.46c0,.42-.19,3.5-.21,3.85a.49.49,0,0,1-.48.47l-7.84.2Zm2.9-10.81-2.27,9.8,6.73-.18c.07-1.12.18-3.05.18-3.33a11.86,11.86,0,0,0-1.86-4.85A4,4,0,0,0,260.19,189.44Z" style="fill:#263238"></path><path d="M261.67,196.7s5,1.4,6.84,3.26,3.42,6.54,3.89,7.16,5.91,2.49,5.75,3.26-2.33,3.89-2.33,4.36.16,8.4.31,8.87-.62,1.24-1.71,1.71-7.78.93-7.78.93l-2.8,7.47-17.73-7.78,1.56-3.42s-9.34-7.62-1.25-15.09S259.8,196.54,261.67,196.7Z" style="fill:#fff"></path><path d="M263.84,234.22a.53.53,0,0,1-.2-.05l-17.73-7.77a.57.57,0,0,1-.27-.28.53.53,0,0,1,0-.39l1.4-3.08c-1-.92-4.31-4.2-4.43-8.38-.08-2.59,1.08-5,3.45-7.21,7.69-7.09,13.4-11,15.63-10.86h.09c.21.06,5.13,1.46,7.06,3.4,1.38,1.37,2.53,4,3.3,5.83a11.79,11.79,0,0,0,.64,1.38A16.66,16.66,0,0,0,275,207.9c2.8,1.26,3.84,1.81,3.69,2.58a11.94,11.94,0,0,1-1.34,2.53,14.42,14.42,0,0,0-1,1.78c0,.57.16,8.07.29,8.68.28.83-.79,1.79-2,2.31-1,.44-6.17.84-7.62.95l-2.69,7.16a.51.51,0,0,1-.27.29A.65.65,0,0,1,263.84,234.22Zm-17.06-8.54,16.78,7.37,2.62-7a.48.48,0,0,1,.43-.32,55.76,55.76,0,0,0,7.61-.89c1-.42,1.42-1,1.43-1.13-.19-.57-.33-8.91-.33-9,0-.34.3-.85,1.14-2.24a20.74,20.74,0,0,0,1.17-2.1,17.73,17.73,0,0,0-3.08-1.59,8.43,8.43,0,0,1-2.55-1.39,9.67,9.67,0,0,1-.76-1.58c-.69-1.61-1.85-4.29-3.08-5.52-1.66-1.66-6.06-3-6.58-3.13-1.45-.07-6.22,2.67-14.82,10.61-2.15,2-3.2,4.15-3.13,6.44.13,4.38,4.31,7.86,4.35,7.89a.48.48,0,0,1,.14.59Z" style="fill:#263238"></path><path d="M237.37,200.78s-7.42-3.91-12.67-4.45-7,3.37-7,3.37l9.43-1.08a55.77,55.77,0,0,0-10.65,5.66c-4.72,3.37-9.84,14-9.84,14s-5.12-3-11.46.81-5.8,15.91-5.26,17-3.37,1.48-5,4.18,2.3,8.36,2.7,8.36a7.73,7.73,0,0,0,6.34-2.7c2.42-3-.41-8.22-.41-8.22a35.12,35.12,0,0,0,10.65-4.85,20.38,20.38,0,0,0,6.88-8.63s12.54,2.83,17.66-2.16,5-15.1,5-15.1l3.1-2.29Z" style="fill:#263238"></path><path d="M188,249.15h-.26c-.62,0-1.46-1.28-2.07-2.35-.75-1.34-2.39-4.68-1.14-6.77a8.71,8.71,0,0,1,3.77-3,4.35,4.35,0,0,0,1.21-.74c-.7-1.32-1.1-13.68,5.44-17.58a12.37,12.37,0,0,1,11.49-1.05c1-2.1,5.52-10.71,9.78-13.75a50.26,50.26,0,0,1,7.69-4.38l-6.13.7a.5.5,0,0,1-.46-.21.52.52,0,0,1-.05-.5,7.23,7.23,0,0,1,7.52-3.66c5.29.54,12.55,4.34,12.85,4.5a.53.53,0,0,1,.27.52l-.54,3.91a.5.5,0,0,1-.2.33l-2.9,2.14c0,1.66-.32,10.52-5.14,15.21s-15.43,2.83-17.7,2.37a21,21,0,0,1-6.9,8.46,35.29,35.29,0,0,1-10.22,4.78c.68,1.49,2.22,5.59.07,8.21A8,8,0,0,1,188,249.15Zm-.19-1a7.1,7.1,0,0,0,5.8-2.51c2.19-2.67-.43-7.62-.46-7.67a.51.51,0,0,1,.33-.73,34.86,34.86,0,0,0,10.48-4.77,20,20,0,0,0,6.69-8.4.5.5,0,0,1,.58-.31c.12,0,12.33,2.71,17.2-2s4.84-14.64,4.84-14.73a.5.5,0,0,1,.2-.41l2.93-2.17.47-3.35c-1.46-.73-7.68-3.77-12.18-4.23a6.39,6.39,0,0,0-6,2.25l8.41-1a.51.51,0,0,1,.54.38.5.5,0,0,1-.31.59,55.89,55.89,0,0,0-10.54,5.6c-4.56,3.26-9.63,13.73-9.68,13.83a.48.48,0,0,1-.3.26.5.5,0,0,1-.4,0c-.2-.12-5-2.77-10.95.8s-5.49,15.46-5.07,16.34-.56,1.46-1.64,2a7.65,7.65,0,0,0-3.37,2.64C184.05,242.72,187.07,247.47,187.77,248.14Z" style="fill:#263238"></path><path d="M259.8,188.92s1.87,8.4,1.09,12.91a25.24,25.24,0,0,1-1.4,5.75s1.71,1.56.93,3.12a2.94,2.94,0,0,1-2.49,1.55,11.06,11.06,0,0,1-.31,7.31c-1.55,3.89-5.91,5.29-7.62,4.82a16.74,16.74,0,0,1-8.87-5c-3.11-3.58-7.15-7.47-5.44-14.47s14.47-14.47,14.47-14.47S258.56,186.43,259.8,188.92Z" style="fill:#263238"></path><path d="M250.73,225a3.69,3.69,0,0,1-.86-.1l-.28-.08a16.83,16.83,0,0,1-8.83-5.06l-.68-.77c-3.06-3.46-6.53-7.39-4.88-14.14,1.75-7.12,14.18-14.47,14.7-14.78,1.52-.73,9-4.13,10.35-1.35a.56.56,0,0,1,0,.12c.07.35,1.88,8.55,1.09,13.1a31.42,31.42,0,0,1-1.31,5.56,3.16,3.16,0,0,1,.8,3.45,3.29,3.29,0,0,1-2.29,1.75,11.78,11.78,0,0,1-.49,7.08A8.57,8.57,0,0,1,250.73,225ZM258,188.6c-1.88,0-5.18,1.17-7.59,2.32-.09.06-12.55,7.43-14.19,14.14-1.53,6.24,1.75,10,4.65,13.24l.68.78a16,16,0,0,0,8.34,4.74l.28.08c1.37.37,5.52-.75,7-4.52a10.72,10.72,0,0,0,.3-7,.54.54,0,0,1,.06-.46.52.52,0,0,1,.41-.21,2.4,2.4,0,0,0,2-1.28c.6-1.19-.8-2.5-.82-2.52a.5.5,0,0,1-.11-.59,25.57,25.57,0,0,0,1.36-5.62c.71-4.15-.9-11.85-1.07-12.65C259.12,188.75,258.63,188.6,258,188.6Z" style="fill:#263238"></path><path d="M270.22,207.5c.33.78.27,1.56-.12,1.72s-1-.34-1.31-1.13-.27-1.56.12-1.72S269.89,206.71,270.22,207.5Z" style="fill:#263238"></path><path d="M265.64,206.44h-.06a.5.5,0,0,1-.44-.55,3.61,3.61,0,0,1,1.24-2.25,3.26,3.26,0,0,1,2.53-.56.5.5,0,0,1-.15,1,2.29,2.29,0,0,0-1.76.36,2.58,2.58,0,0,0-.86,1.57A.51.51,0,0,1,265.64,206.44Z" style="fill:#263238"></path><path d="M271.8,217.36a4.37,4.37,0,0,1-2.88-1.15.49.49,0,0,1-.05-.7.49.49,0,0,1,.7,0,3,3,0,0,0,3.72.48.5.5,0,1,1,.57.82A3.73,3.73,0,0,1,271.8,217.36Z" style="fill:#263238"></path><path d="M260.38,213.15s-4.64-4.53-6.8-1.75,2.88,7.32,4.95,7.32a2.56,2.56,0,0,0,2.57-1.34" style="fill:#fff"></path><path d="M258.53,219.22c-1.66,0-4.43-2.2-5.49-4.37a3.41,3.41,0,0,1,.14-3.76,2.74,2.74,0,0,1,2-1.09c2.47-.17,5.41,2.67,5.53,2.8a.49.49,0,0,1,0,.7.5.5,0,0,1-.71,0s-2.74-2.65-4.76-2.51a1.74,1.74,0,0,0-1.3.71,2.43,2.43,0,0,0,0,2.7c1,2.07,3.53,3.81,4.59,3.81,1.7,0,2.1-1,2.11-1a.5.5,0,0,1,.64-.29.5.5,0,0,1,.29.65A3.05,3.05,0,0,1,258.53,219.22Z" style="fill:#263238"></path><polygon points="266.64 226.25 263.06 226.24 264.92 231.3 266.64 226.25" style="fill:#263238"></polygon><path d="M264.92,231.8a.51.51,0,0,1-.47-.33l-1.86-5.05a.53.53,0,0,1,.06-.46.5.5,0,0,1,.41-.22h3.59a.49.49,0,0,1,.4.21.52.52,0,0,1,.07.45l-1.73,5.05a.52.52,0,0,1-.47.34Zm-1.14-5.05,1.12,3.05,1-3.05Z" style="fill:#263238"></path><path d="M244.2,230s-1.23.52-10.5,2.62-20.13,5.08-21.7,7-24.32,19.25-24.32,20.47,10.85,10.85,11.37,11,19.42-23.45,21.7-24.85,16.62-9.62,17.85-10.15S249.27,233,249.27,233Z" style="fill:#3766D0"></path><path d="M199.07,271.65a.58.58,0,0,1-.18,0c-.11,0-11.71-9.74-11.71-11.5,0-.77,2.56-3,14.44-12.51,4.81-3.86,9.36-7.5,10-8.27,2-2.44,16-5.83,22-7.18,9-2,10.36-2.57,10.41-2.59a.51.51,0,0,1,.45,0l5.07,3a.51.51,0,0,1,.25.5.49.49,0,0,1-.37.41c-3.25.91-9.66,2.73-10.61,3.13-1.21.52-15.54,8.74-17.78,10.12-1.21.74-8.17,9.06-13.25,15.13C200.42,270.63,199.53,271.65,199.07,271.65ZM188.2,260.17c.55,1.27,9,9,10.83,10.36,1-.94,4.52-5.19,8-9.32,7.11-8.5,12.24-14.58,13.49-15.35,2.25-1.38,16.68-9.65,17.91-10.18,1-.42,7-2.13,9.6-2.85l-3.86-2.26c-.68.22-3,.9-10.33,2.56-11.81,2.67-20.22,5.35-21.42,6.83-.7.85-5.08,4.36-10.15,8.42C196.62,252.89,189,259,188.2,260.17Z" style="fill:#263238"></path><path d="M185.15,263.18a.5.5,0,0,1-.27-.91l3.82-2.56a.5.5,0,0,1,.56.84l-3.83,2.55A.57.57,0,0,1,185.15,263.18Z" style="fill:#263238"></path><path d="M186.22,265.31a.52.52,0,0,1-.42-.22.51.51,0,0,1,.14-.7l4.57-3.08a.49.49,0,0,1,.69.14.5.5,0,0,1-.13.69l-4.57,3.08A.51.51,0,0,1,186.22,265.31Z" style="fill:#263238"></path><path d="M188.23,267.43a.45.45,0,0,1-.34-.14.5.5,0,0,1,0-.71l3.4-3.5a.5.5,0,0,1,.72.69l-3.41,3.51A.48.48,0,0,1,188.23,267.43Z" style="fill:#263238"></path><path d="M190.68,269.24a.52.52,0,0,1-.29-.09.51.51,0,0,1-.12-.7l2.66-3.82a.5.5,0,1,1,.82.57L191.09,269A.5.5,0,0,1,190.68,269.24Z" style="fill:#263238"></path><path d="M192.81,271.58a.5.5,0,0,1-.27-.08.51.51,0,0,1-.16-.69l2.45-3.93a.5.5,0,0,1,.68-.16.49.49,0,0,1,.16.69l-2.44,3.93A.5.5,0,0,1,192.81,271.58Z" style="fill:#263238"></path><path d="M194.51,273.81a.5.5,0,0,1-.31-.1.51.51,0,0,1-.09-.71l3.3-4.25a.51.51,0,0,1,.7-.09.51.51,0,0,1,.09.71l-3.3,4.25A.52.52,0,0,1,194.51,273.81Z" style="fill:#263238"></path><path d="M245.42,223.89s-2.8,6.83-2.45,7.35,15.92,6.83,18.72,8,4.2-.35,4.55-1,2.1-3.5,1.23-4.72-17.85-8.58-18.55-9.1S246.29,222,245.42,223.89Z" style="fill:#3766D0"></path><path d="M263.62,240.24a5.31,5.31,0,0,1-2.13-.49c-.81-.36-2.7-1.14-5-2.09-11.65-4.83-13.7-5.77-13.95-6.14s-.49-.75,2.41-7.82h0a1.77,1.77,0,0,1,1.19-1.09c1-.25,2.13.66,2.79,1.2l.28.22c.25.17,2.47,1.18,4.82,2.26,8.74,4,13.28,6.16,13.83,6.95.95,1.32-.37,3.74-1,4.9-.08.14-.14.25-.18.34A3.43,3.43,0,0,1,263.62,240.24ZM243.45,231c1.2.7,8.81,3.85,13.43,5.77,2.3.95,4.2,1.74,5,2.09,2.84,1.25,3.86-.73,3.91-.81s.11-.22.19-.37c.41-.75,1.65-3,1.07-3.84s-9-4.58-13.44-6.62c-3.5-1.6-4.75-2.18-5-2.37l-.31-.25c-.48-.39-1.39-1.13-1.93-1-.08,0-.29.07-.5.52A49.08,49.08,0,0,0,243.45,231Zm0,.13h0Z" style="fill:#263238"></path><path d="M243,231.24s-8.72,7-9.32,9.39-5.14,27.51-5.14,27.51-5.44,6.2-4.39,7.41,5.75,5.89,17.08,7.4a75,75,0,0,0,19.8.16l.76-4.84s4.23-19.35,4.38-21.77-2.42-17.38-2.42-17.38Z" style="fill:#fff"></path><path d="M252,284.16a82,82,0,0,1-10.82-.71c-11.31-1.51-16.17-6.18-17.39-7.57s2.15-5.51,4.29-8c.4-2.2,4.54-25.07,5.12-27.41.63-2.51,8.59-8.93,9.5-9.66a.48.48,0,0,1,.49-.07l20.75,7.87a.51.51,0,0,1,.32.39c.1.61,2.58,15.05,2.42,17.5s-4.22,21-4.39,21.84l-.75,4.8a.51.51,0,0,1-.42.42A64.52,64.52,0,0,1,252,284.16Zm-8.9-52.35c-3.45,2.78-8.52,7.33-8.93,8.94-.59,2.38-5.08,27.23-5.13,27.48a.55.55,0,0,1-.12.24c-2.61,3-4.7,6.2-4.38,6.75,1.16,1.33,5.81,5.78,16.77,7.24a77.14,77.14,0,0,0,19.3.2l.7-4.47c0-.22,4.23-19.36,4.37-21.72.14-2.15-2-14.92-2.36-17Zm-14.55,36.33h0Z" style="fill:#263238"></path><path d="M303.36,224.19l4.51-12.4,1-2.88s8.26-3,9-3.26,1.5-1.63,2-1.13.75.76.25,1.63a7,7,0,0,1-2,2.63,37.49,37.49,0,0,0-3.14,2.38l9.65,4.76-1.13,1.76-2.75.63s-8.15,5.51-9.15,6a5.26,5.26,0,0,0-1.75,1.75Z" style="fill:#fff"></path><path d="M309.88,226.57a.32.32,0,0,1-.14,0l-6.52-1.88a.47.47,0,0,1-.3-.25.51.51,0,0,1,0-.4l5.51-15.28a.5.5,0,0,1,.3-.3c.34-.12,8.29-3,9-3.26a2.69,2.69,0,0,0,.71-.56c.44-.41,1.16-1.09,1.8-.45a1.52,1.52,0,0,1,.34,2.23l-.18.3a6.5,6.5,0,0,1-2,2.52,27.38,27.38,0,0,0-2.46,1.84l8.95,4.42a.48.48,0,0,1,.26.31.49.49,0,0,1-.06.41L324,218a.5.5,0,0,1-.31.22l-2.66.6c-.89.6-8.15,5.51-9.13,6a4.66,4.66,0,0,0-1.54,1.56A.52.52,0,0,1,309.88,226.57ZM304,223.86l5.64,1.63a5.45,5.45,0,0,1,1.75-1.62c.8-.4,6.83-4.45,9.09-6a.51.51,0,0,1,.17-.07l2.55-.58.72-1.11-9.15-4.52a.49.49,0,0,1-.27-.39.5.5,0,0,1,.17-.44,38,38,0,0,1,3.21-2.43,5.82,5.82,0,0,0,1.64-2.13l.18-.32c.29-.51.3-.55-.11-1a4.16,4.16,0,0,0-.47.41,3.32,3.32,0,0,1-1.09.78c-.66.22-7.45,2.69-8.78,3.17l-.93,2.65Z" style="fill:#263238"></path><path d="M241.2,244s3.78-4.84,6.05-6.35S289.87,245,289.87,245l13.49-20.83,6.52,1.88s-14.57,35-15.17,35.57S253,259.07,253,259.07" style="fill:#fff"></path><path d="M293.34,262.17c-3.2,0-12.54-.45-40.39-2.6a.5.5,0,0,1-.46-.53.48.48,0,0,1,.54-.46c15.59,1.2,39.09,2.85,41.38,2.62.91-1.68,9.19-21.37,14.79-34.8l-5.62-1.62-13.29,20.51a.49.49,0,0,1-.52.21c-15.38-3.39-40.45-8.43-42.25-7.47-2.17,1.45-5.88,6.19-5.92,6.24a.5.5,0,0,1-.7.08.5.5,0,0,1-.09-.7c.16-.2,3.85-4.92,6.16-6.46s35.18,5.61,42.67,7.26l13.3-20.53a.51.51,0,0,1,.56-.21l6.52,1.88a.52.52,0,0,1,.31.27.5.5,0,0,1,0,.4C306,236.81,295.67,261.39,295.06,262,295,262.06,294.89,262.17,293.34,262.17Z" style="fill:#263238"></path><path d="M307.44,212.73l-5.83,4.56s.68,6.5.68,7.57a.87.87,0,0,0,1.65.49c.59-.88,1.17-5.53,1.17-5.53Z" style="fill:#fff"></path><path d="M303.11,226.36a1.57,1.57,0,0,1-.37-.05,1.45,1.45,0,0,1-.95-1.45c0-1-.67-7.45-.67-7.52a.47.47,0,0,1,.19-.44l5.82-4.56a.5.5,0,0,1,.59,0,.51.51,0,0,1,.19.57L305.58,220c-.08.7-.6,4.73-1.22,5.65A1.51,1.51,0,0,1,303.11,226.36Zm-1-8.84c.13,1.26.65,6.38.65,7.34,0,.26.1.45.24.49s.35-.06.5-.28a24.56,24.56,0,0,0,1.08-5.32l1.84-5.61Z" style="fill:#263238"></path><path d="M243.17,272.42a.5.5,0,0,1-.21-.95c6.34-3,15.34-11.76,15.43-11.85a.49.49,0,0,1,.7,0,.5.5,0,0,1,0,.71c-.38.36-9.21,9-15.71,12A.41.41,0,0,1,243.17,272.42Z" style="fill:#263238"></path><path d="M237.73,278.32a.5.5,0,0,1-.07-1c3.33-.43,16-8.76,16.12-8.84a.5.5,0,0,1,.69.14.51.51,0,0,1-.14.7c-.53.34-13,8.53-16.54,9Z" style="fill:#263238"></path><path d="M308.62,222.94s0,5,.76,5.26a2,2,0,0,0,2.13-1.38c.25-.87-.25-3.25-.76-4.63S308.75,222.06,308.62,222.94Z" style="fill:#fff"></path><path d="M309.69,228.75a1.49,1.49,0,0,1-.47-.07c-.27-.09-1.1-.37-1.1-5.74,0,0,0-.05,0-.07a2.3,2.3,0,0,1,1.78-1.79,1.23,1.23,0,0,1,1.31.94c.43,1.17,1.09,3.82.77,4.94a2.71,2.71,0,0,1-1.31,1.53A2.18,2.18,0,0,1,309.69,228.75Zm-.09-1a1,1,0,0,0,.61-.14,1.67,1.67,0,0,0,.82-.91,10.92,10.92,0,0,0-.75-4.33c-.1-.3-.21-.29-.27-.28a1.32,1.32,0,0,0-.88.9A17,17,0,0,0,309.6,227.74Z" style="fill:#263238"></path><path d="M311.38,221.06s.5,5.39,1,5.76,1.51-.37,1.76-1.62a7.88,7.88,0,0,0-1.13-4.39C312.51,220.18,312,219.93,311.38,221.06Z" style="fill:#fff"></path><path d="M312.69,227.42a1,1,0,0,1-.61-.2c-.16-.12-.68-.5-1.2-6.11a.49.49,0,0,1,.06-.29c.24-.42.62-1,1.22-1a1.53,1.53,0,0,1,1.24.72,8.29,8.29,0,0,1,1.23,4.79,2.72,2.72,0,0,1-1.49,2A1.29,1.29,0,0,1,312.69,227.42Zm-.8-6.25a29,29,0,0,0,.84,5.29s.06-.05.17-.12a1.94,1.94,0,0,0,.75-1.24,7.52,7.52,0,0,0-1-4c-.27-.33-.38-.34-.38-.34S312.12,220.81,311.89,221.17Z" style="fill:#263238"></path><path d="M313.9,220s.5,5.39,1,5.76,1.51-.37,1.76-1.62a7.88,7.88,0,0,0-1.13-4.39C315,219.07,314.53,218.82,313.9,220Z" style="fill:#fff"></path><path d="M315.21,226.31a1,1,0,0,1-.61-.2c-.17-.12-.68-.5-1.2-6.11a.49.49,0,0,1,.06-.29c.24-.42.62-1,1.22-1a1.52,1.52,0,0,1,1.24.72,8.21,8.21,0,0,1,1.23,4.79,2.72,2.72,0,0,1-1.49,2A1.29,1.29,0,0,1,315.21,226.31Zm-.8-6.25a29.17,29.17,0,0,0,.84,5.29s.06,0,.17-.12a2,2,0,0,0,.75-1.24,7.52,7.52,0,0,0-1-4c-.26-.33-.38-.34-.38-.34S314.64,219.7,314.41,220.06Z" style="fill:#263238"></path><path d="M316.81,218.71s.39,4.18.78,4.47,1.17-.29,1.36-1.26a6.08,6.08,0,0,0-.87-3.41C317.69,218,317.3,217.83,316.81,218.71Z" style="fill:#fff"></path><path d="M317.83,223.76a.86.86,0,0,1-.54-.18c-.17-.12-.57-.42-1-4.83a.52.52,0,0,1,.06-.28c.12-.21.46-.82,1-.87a1.3,1.3,0,0,1,1.06.6,6.49,6.49,0,0,1,1,3.82,2.23,2.23,0,0,1-1.23,1.66A1.08,1.08,0,0,1,317.83,223.76Zm-.51-4.94a26.48,26.48,0,0,0,.6,3.94,1.56,1.56,0,0,0,.54-.94,5.65,5.65,0,0,0-.77-3,1.33,1.33,0,0,0-.22-.22Z" style="fill:#263238"></path><rect x="181.47" y="374.57" width="136.94" height="89.98" style="fill:#263238"></rect><path d="M318.4,465.05H181.47a.5.5,0,0,1-.5-.5v-90a.5.5,0,0,1,.5-.5H318.4a.5.5,0,0,1,.5.5v90A.5.5,0,0,1,318.4,465.05Zm-136.43-1H317.9v-89H182Z" style="fill:#263238"></path><rect x="175.61" y="374.57" width="136.94" height="89.98" style="fill:#3766D0"></rect><path d="M312.55,465.05H175.61a.5.5,0,0,1-.5-.5v-90a.5.5,0,0,1,.5-.5H312.55a.5.5,0,0,1,.5.5v90A.5.5,0,0,1,312.55,465.05Zm-136.44-1H312.05v-89H176.11Z" style="fill:#263238"></path><rect x="344.62" y="267.74" width="136.94" height="196.82" style="fill:#263238"></rect><path d="M481.55,465.05H344.62a.5.5,0,0,1-.5-.5V267.74a.5.5,0,0,1,.5-.5H481.55a.5.5,0,0,1,.5.5V464.55A.5.5,0,0,1,481.55,465.05Zm-136.43-1H481.05V268.24H345.12Z" style="fill:#263238"></path><rect x="338.76" y="267.74" width="136.94" height="196.82" style="fill:#3766D0"></rect><path d="M475.7,465.05H338.76a.5.5,0,0,1-.5-.5V267.74a.5.5,0,0,1,.5-.5H475.7a.5.5,0,0,1,.5.5V464.55A.5.5,0,0,1,475.7,465.05Zm-136.44-1H475.2V268.24H339.26Z" style="fill:#263238"></path></g></svg>
