<svg width="105" height="104" viewBox="0 0 105 104" fill="none" xmlns="http://www.w3.org/2000/svg">
<rect width="2.83784" height="2.83784" rx="1.34409" fill="#3766D0"/>
<rect x="11.3514" width="2.83784" height="2.83784" rx="1.34409" fill="#3766D0"/>
<rect x="22.7028" width="2.83784" height="2.83784" rx="1.34409" fill="#3766D0"/>
<rect x="34.054" width="2.83784" height="2.83784" rx="1.34409" fill="#3766D0"/>
<rect x="45.4054" width="2.83784" height="2.83784" rx="1.34409" fill="#3766D0"/>
<rect x="56.7568" width="2.83784" height="2.83784" rx="1.34409" fill="#3766D0"/>
<rect x="68.1083" width="2.83784" height="2.83784" rx="1.34409" fill="#3766D0"/>
<rect x="79.4597" width="2.83784" height="2.83784" rx="1.34409" fill="#3766D0"/>
<rect x="90.8109" width="2.83784" height="2.83784" rx="1.34409" fill="#3766D0"/>
<rect x="102.162" width="2.83784" height="2.83784" rx="1.34409" fill="#3766D0"/>
<rect y="11.3514" width="2.83784" height="2.83784" rx="1.34409" fill="#3766D0"/>
<rect x="11.3514" y="11.3514" width="2.83784" height="2.83784" rx="1.34409" fill="#3766D0"/>
<rect x="22.7028" y="11.3514" width="2.83784" height="2.83784" rx="1.34409" fill="#3766D0"/>
<rect x="34.054" y="11.3514" width="2.83784" height="2.83784" rx="1.34409" fill="#3766D0"/>
<rect x="45.4054" y="11.3514" width="2.83784" height="2.83784" rx="1.34409" fill="#3766D0"/>
<rect x="56.7568" y="11.3514" width="2.83784" height="2.83784" rx="1.34409" fill="#3766D0"/>
<rect x="68.1083" y="11.3514" width="2.83784" height="2.83784" rx="1.34409" fill="#3766D0"/>
<rect x="79.4597" y="11.3514" width="2.83784" height="2.83784" rx="1.34409" fill="#3766D0"/>
<rect x="90.8109" y="11.3514" width="2.83784" height="2.83784" rx="1.34409" fill="#3766D0"/>
<rect x="102.162" y="11.3514" width="2.83784" height="2.83784" rx="1.34409" fill="#3766D0"/>
<rect y="22.7027" width="2.83784" height="2.83784" rx="1.34409" fill="#3766D0"/>
<rect x="11.3514" y="22.7027" width="2.83784" height="2.83784" rx="1.34409" fill="#3766D0"/>
<rect x="22.7028" y="22.7027" width="2.83784" height="2.83784" rx="1.34409" fill="#3766D0"/>
<rect x="34.054" y="22.7027" width="2.83784" height="2.83784" rx="1.34409" fill="#3766D0"/>
<rect x="45.4054" y="22.7027" width="2.83784" height="2.83784" rx="1.34409" fill="#3766D0"/>
<rect x="56.7568" y="22.7027" width="2.83784" height="2.83784" rx="1.34409" fill="#3766D0"/>
<rect x="68.1083" y="22.7027" width="2.83784" height="2.83784" rx="1.34409" fill="#3766D0"/>
<rect x="79.4597" y="22.7027" width="2.83784" height="2.83784" rx="1.34409" fill="#3766D0"/>
<rect x="90.8109" y="22.7027" width="2.83784" height="2.83784" rx="1.34409" fill="#3766D0"/>
<rect x="102.162" y="22.7027" width="2.83784" height="2.83784" rx="1.34409" fill="#3766D0"/>
<rect y="34.0541" width="2.83784" height="2.83784" rx="1.34409" fill="#3766D0"/>
<rect x="11.3514" y="34.0541" width="2.83784" height="2.83784" rx="1.34409" fill="#3766D0"/>
<rect x="22.7028" y="34.0541" width="2.83784" height="2.83784" rx="1.34409" fill="#3766D0"/>
<rect x="34.054" y="34.0541" width="2.83784" height="2.83784" rx="1.34409" fill="#3766D0"/>
<rect x="45.4054" y="34.0541" width="2.83784" height="2.83784" rx="1.34409" fill="#3766D0"/>
<rect x="56.7568" y="34.0541" width="2.83784" height="2.83784" rx="1.34409" fill="#3766D0"/>
<rect x="68.1083" y="34.0541" width="2.83784" height="2.83784" rx="1.34409" fill="#3766D0"/>
<rect x="79.4597" y="34.0541" width="2.83784" height="2.83784" rx="1.34409" fill="#3766D0"/>
<rect x="90.8109" y="34.0541" width="2.83784" height="2.83784" rx="1.34409" fill="#3766D0"/>
<rect x="102.162" y="34.0541" width="2.83784" height="2.83784" rx="1.34409" fill="#3766D0"/>
<rect y="45.4054" width="2.83784" height="2.83784" rx="1.34409" fill="#3766D0"/>
<rect x="11.3514" y="45.4054" width="2.83784" height="2.83784" rx="1.34409" fill="#3766D0"/>
<rect x="22.7028" y="45.4054" width="2.83784" height="2.83784" rx="1.34409" fill="#3766D0"/>
<rect x="34.054" y="45.4054" width="2.83784" height="2.83784" rx="1.34409" fill="#3766D0"/>
<rect x="45.4054" y="45.4054" width="2.83784" height="2.83784" rx="1.34409" fill="#3766D0"/>
<rect x="56.7568" y="45.4054" width="2.83784" height="2.83784" rx="1.34409" fill="#3766D0"/>
<rect x="68.1083" y="45.4054" width="2.83784" height="2.83784" rx="1.34409" fill="#3766D0"/>
<rect x="79.4597" y="45.4054" width="2.83784" height="2.83784" rx="1.34409" fill="#3766D0"/>
<rect x="90.8109" y="45.4054" width="2.83784" height="2.83784" rx="1.34409" fill="#3766D0"/>
<rect x="102.162" y="45.4054" width="2.83784" height="2.83784" rx="1.34409" fill="#3766D0"/>
<rect y="56.7568" width="2.83784" height="2.83784" rx="1.34409" fill="#3766D0"/>
<rect x="11.3514" y="56.7568" width="2.83784" height="2.83784" rx="1.34409" fill="#3766D0"/>
<rect x="22.7028" y="56.7568" width="2.83784" height="2.83784" rx="1.34409" fill="#3766D0"/>
<rect x="34.054" y="56.7568" width="2.83784" height="2.83784" rx="1.34409" fill="#3766D0"/>
<rect x="45.4054" y="56.7568" width="2.83784" height="2.83784" rx="1.34409" fill="#3766D0"/>
<rect x="56.7568" y="56.7568" width="2.83784" height="2.83784" rx="1.34409" fill="#3766D0"/>
<rect x="68.1083" y="56.7568" width="2.83784" height="2.83784" rx="1.34409" fill="#3766D0"/>
<rect x="79.4597" y="56.7568" width="2.83784" height="2.83784" rx="1.34409" fill="#3766D0"/>
<rect x="90.8109" y="56.7568" width="2.83784" height="2.83784" rx="1.34409" fill="#3766D0"/>
<rect x="102.162" y="56.7568" width="2.83784" height="2.83784" rx="1.34409" fill="#3766D0"/>
<rect y="68.1081" width="2.83784" height="2.83784" rx="1.34409" fill="#3766D0"/>
<rect y="79.0561" width="2.83784" height="2.83784" rx="1.34409" fill="#3766D0"/>
<rect y="90.0041" width="2.83784" height="2.83784" rx="1.34409" fill="#3766D0"/>
<rect y="100.952" width="2.83784" height="2.83784" rx="1.34409" fill="#3766D0"/>
<rect x="11.3514" y="68.1081" width="2.83784" height="2.83784" rx="1.34409" fill="#3766D0"/>
<rect x="11.3514" y="79.0561" width="2.83784" height="2.83784" rx="1.34409" fill="#3766D0"/>
<rect x="11.3514" y="90.0041" width="2.83784" height="2.83784" rx="1.34409" fill="#3766D0"/>
<rect x="11.3514" y="100.952" width="2.83784" height="2.83784" rx="1.34409" fill="#3766D0"/>
<rect x="22.7028" y="68.1081" width="2.83784" height="2.83784" rx="1.34409" fill="#3766D0"/>
<rect x="22.7028" y="79.0561" width="2.83784" height="2.83784" rx="1.34409" fill="#3766D0"/>
<rect x="22.7028" y="90.0041" width="2.83784" height="2.83784" rx="1.34409" fill="#3766D0"/>
<rect x="22.7028" y="100.952" width="2.83784" height="2.83784" rx="1.34409" fill="#3766D0"/>
<rect x="34.054" y="68.1081" width="2.83784" height="2.83784" rx="1.34409" fill="#3766D0"/>
<rect x="34.054" y="79.0561" width="2.83784" height="2.83784" rx="1.34409" fill="#3766D0"/>
<rect x="34.054" y="90.0041" width="2.83784" height="2.83784" rx="1.34409" fill="#3766D0"/>
<rect x="34.054" y="100.952" width="2.83784" height="2.83784" rx="1.34409" fill="#3766D0"/>
<rect x="45.4054" y="68.1081" width="2.83784" height="2.83784" rx="1.34409" fill="#3766D0"/>
<rect x="45.4054" y="79.0561" width="2.83784" height="2.83784" rx="1.34409" fill="#3766D0"/>
<rect x="45.4054" y="90.0041" width="2.83784" height="2.83784" rx="1.34409" fill="#3766D0"/>
<rect x="45.4054" y="100.952" width="2.83784" height="2.83784" rx="1.34409" fill="#3766D0"/>
<rect x="56.7568" y="68.1081" width="2.83784" height="2.83784" rx="1.34409" fill="#3766D0"/>
<rect x="56.7568" y="79.0561" width="2.83784" height="2.83784" rx="1.34409" fill="#3766D0"/>
<rect x="56.7568" y="90.0041" width="2.83784" height="2.83784" rx="1.34409" fill="#3766D0"/>
<rect x="56.7568" y="100.952" width="2.83784" height="2.83784" rx="1.34409" fill="#3766D0"/>
<rect x="68.1083" y="68.1081" width="2.83784" height="2.83784" rx="1.34409" fill="#3766D0"/>
<rect x="68.1083" y="79.0561" width="2.83784" height="2.83784" rx="1.34409" fill="#3766D0"/>
<rect x="68.1083" y="90.0041" width="2.83784" height="2.83784" rx="1.34409" fill="#3766D0"/>
<rect x="68.1083" y="100.952" width="2.83784" height="2.83784" rx="1.34409" fill="#3766D0"/>
<rect x="79.4597" y="68.1081" width="2.83784" height="2.83784" rx="1.34409" fill="#3766D0"/>
<rect x="79.4597" y="79.0561" width="2.83784" height="2.83784" rx="1.34409" fill="#3766D0"/>
<rect x="79.4597" y="90.0041" width="2.83784" height="2.83784" rx="1.34409" fill="#3766D0"/>
<rect x="79.4597" y="100.952" width="2.83784" height="2.83784" rx="1.34409" fill="#3766D0"/>
<rect x="90.8109" y="68.1081" width="2.83784" height="2.83784" rx="1.34409" fill="#3766D0"/>
<rect x="90.8109" y="79.0561" width="2.83784" height="2.83784" rx="1.34409" fill="#3766D0"/>
<rect x="90.8109" y="90.0041" width="2.83784" height="2.83784" rx="1.34409" fill="#3766D0"/>
<rect x="90.8109" y="100.952" width="2.83784" height="2.83784" rx="1.34409" fill="#3766D0"/>
<rect x="102.162" y="68.1081" width="2.83784" height="2.83784" rx="1.34409" fill="#3766D0"/>
<rect x="102.162" y="79.0561" width="2.83784" height="2.83784" rx="1.34409" fill="#3766D0"/>
<rect x="102.162" y="90.0041" width="2.83784" height="2.83784" rx="1.34409" fill="#3766D0"/>
<rect x="102.162" y="100.952" width="2.83784" height="2.83784" rx="1.34409" fill="#3766D0"/>
</svg>
